%TF.GenerationSoftware,KiCad,Pcbnew,(6.0.6)*%
%TF.CreationDate,2022-08-24T10:35:02+01:00*%
%TF.ProjectId,board2,626f6172-6432-42e6-9b69-6361645f7063,rev?*%
%TF.SameCoordinates,Original*%
%TF.FileFunction,Legend,Top*%
%TF.FilePolarity,Positive*%
%FSLAX46Y46*%
G04 Gerber Fmt 4.6, Leading zero omitted, Abs format (unit mm)*
G04 Created by KiCad (PCBNEW (6.0.6)) date 2022-08-24 10:35:02*
%MOMM*%
%LPD*%
G01*
G04 APERTURE LIST*
%ADD10C,0.150000*%
%ADD11C,0.125000*%
%ADD12C,0.120000*%
G04 APERTURE END LIST*
D10*
X56339285Y-89942142D02*
X56303571Y-89989761D01*
X56196428Y-90037380D01*
X56125000Y-90037380D01*
X56017857Y-89989761D01*
X55946428Y-89894523D01*
X55910714Y-89799285D01*
X55875000Y-89608809D01*
X55875000Y-89465952D01*
X55910714Y-89275476D01*
X55946428Y-89180238D01*
X56017857Y-89085000D01*
X56125000Y-89037380D01*
X56196428Y-89037380D01*
X56303571Y-89085000D01*
X56339285Y-89132619D01*
X56767857Y-90037380D02*
X56696428Y-89989761D01*
X56660714Y-89942142D01*
X56625000Y-89846904D01*
X56625000Y-89561190D01*
X56660714Y-89465952D01*
X56696428Y-89418333D01*
X56767857Y-89370714D01*
X56875000Y-89370714D01*
X56946428Y-89418333D01*
X56982142Y-89465952D01*
X57017857Y-89561190D01*
X57017857Y-89846904D01*
X56982142Y-89942142D01*
X56946428Y-89989761D01*
X56875000Y-90037380D01*
X56767857Y-90037380D01*
X57339285Y-89370714D02*
X57339285Y-90037380D01*
X57339285Y-89465952D02*
X57375000Y-89418333D01*
X57446428Y-89370714D01*
X57553571Y-89370714D01*
X57625000Y-89418333D01*
X57660714Y-89513571D01*
X57660714Y-90037380D01*
X58017857Y-89370714D02*
X58017857Y-90037380D01*
X58017857Y-89465952D02*
X58053571Y-89418333D01*
X58125000Y-89370714D01*
X58232142Y-89370714D01*
X58303571Y-89418333D01*
X58339285Y-89513571D01*
X58339285Y-90037380D01*
X58982142Y-89989761D02*
X58910714Y-90037380D01*
X58767857Y-90037380D01*
X58696428Y-89989761D01*
X58660714Y-89894523D01*
X58660714Y-89513571D01*
X58696428Y-89418333D01*
X58767857Y-89370714D01*
X58910714Y-89370714D01*
X58982142Y-89418333D01*
X59017857Y-89513571D01*
X59017857Y-89608809D01*
X58660714Y-89704047D01*
X59660714Y-89989761D02*
X59589285Y-90037380D01*
X59446428Y-90037380D01*
X59375000Y-89989761D01*
X59339285Y-89942142D01*
X59303571Y-89846904D01*
X59303571Y-89561190D01*
X59339285Y-89465952D01*
X59375000Y-89418333D01*
X59446428Y-89370714D01*
X59589285Y-89370714D01*
X59660714Y-89418333D01*
X59875000Y-89370714D02*
X60160714Y-89370714D01*
X59982142Y-89037380D02*
X59982142Y-89894523D01*
X60017857Y-89989761D01*
X60089285Y-90037380D01*
X60160714Y-90037380D01*
X60410714Y-90037380D02*
X60410714Y-89370714D01*
X60410714Y-89037380D02*
X60375000Y-89085000D01*
X60410714Y-89132619D01*
X60446428Y-89085000D01*
X60410714Y-89037380D01*
X60410714Y-89132619D01*
X60875000Y-90037380D02*
X60803571Y-89989761D01*
X60767857Y-89942142D01*
X60732142Y-89846904D01*
X60732142Y-89561190D01*
X60767857Y-89465952D01*
X60803571Y-89418333D01*
X60875000Y-89370714D01*
X60982142Y-89370714D01*
X61053571Y-89418333D01*
X61089285Y-89465952D01*
X61125000Y-89561190D01*
X61125000Y-89846904D01*
X61089285Y-89942142D01*
X61053571Y-89989761D01*
X60982142Y-90037380D01*
X60875000Y-90037380D01*
X61446428Y-89370714D02*
X61446428Y-90037380D01*
X61446428Y-89465952D02*
X61482142Y-89418333D01*
X61553571Y-89370714D01*
X61660714Y-89370714D01*
X61732142Y-89418333D01*
X61767857Y-89513571D01*
X61767857Y-90037380D01*
X62696428Y-90037380D02*
X62696428Y-89037380D01*
X62696428Y-89418333D02*
X62767857Y-89370714D01*
X62910714Y-89370714D01*
X62982142Y-89418333D01*
X63017857Y-89465952D01*
X63053571Y-89561190D01*
X63053571Y-89846904D01*
X63017857Y-89942142D01*
X62982142Y-89989761D01*
X62910714Y-90037380D01*
X62767857Y-90037380D01*
X62696428Y-89989761D01*
X63482142Y-90037380D02*
X63410714Y-89989761D01*
X63375000Y-89942142D01*
X63339285Y-89846904D01*
X63339285Y-89561190D01*
X63375000Y-89465952D01*
X63410714Y-89418333D01*
X63482142Y-89370714D01*
X63589285Y-89370714D01*
X63660714Y-89418333D01*
X63696428Y-89465952D01*
X63732142Y-89561190D01*
X63732142Y-89846904D01*
X63696428Y-89942142D01*
X63660714Y-89989761D01*
X63589285Y-90037380D01*
X63482142Y-90037380D01*
X64375000Y-90037380D02*
X64375000Y-89513571D01*
X64339285Y-89418333D01*
X64267857Y-89370714D01*
X64125000Y-89370714D01*
X64053571Y-89418333D01*
X64375000Y-89989761D02*
X64303571Y-90037380D01*
X64125000Y-90037380D01*
X64053571Y-89989761D01*
X64017857Y-89894523D01*
X64017857Y-89799285D01*
X64053571Y-89704047D01*
X64125000Y-89656428D01*
X64303571Y-89656428D01*
X64375000Y-89608809D01*
X64732142Y-90037380D02*
X64732142Y-89370714D01*
X64732142Y-89561190D02*
X64767857Y-89465952D01*
X64803571Y-89418333D01*
X64875000Y-89370714D01*
X64946428Y-89370714D01*
X65517857Y-90037380D02*
X65517857Y-89037380D01*
X65517857Y-89989761D02*
X65446428Y-90037380D01*
X65303571Y-90037380D01*
X65232142Y-89989761D01*
X65196428Y-89942142D01*
X65160714Y-89846904D01*
X65160714Y-89561190D01*
X65196428Y-89465952D01*
X65232142Y-89418333D01*
X65303571Y-89370714D01*
X65446428Y-89370714D01*
X65517857Y-89418333D01*
X54214285Y-91647380D02*
X54214285Y-90647380D01*
X54214285Y-91028333D02*
X54285714Y-90980714D01*
X54428571Y-90980714D01*
X54500000Y-91028333D01*
X54535714Y-91075952D01*
X54571428Y-91171190D01*
X54571428Y-91456904D01*
X54535714Y-91552142D01*
X54500000Y-91599761D01*
X54428571Y-91647380D01*
X54285714Y-91647380D01*
X54214285Y-91599761D01*
X55178571Y-91599761D02*
X55107142Y-91647380D01*
X54964285Y-91647380D01*
X54892857Y-91599761D01*
X54857142Y-91504523D01*
X54857142Y-91123571D01*
X54892857Y-91028333D01*
X54964285Y-90980714D01*
X55107142Y-90980714D01*
X55178571Y-91028333D01*
X55214285Y-91123571D01*
X55214285Y-91218809D01*
X54857142Y-91314047D01*
X55428571Y-90980714D02*
X55714285Y-90980714D01*
X55535714Y-90647380D02*
X55535714Y-91504523D01*
X55571428Y-91599761D01*
X55642857Y-91647380D01*
X55714285Y-91647380D01*
X55892857Y-90980714D02*
X56035714Y-91647380D01*
X56178571Y-91171190D01*
X56321428Y-91647380D01*
X56464285Y-90980714D01*
X57035714Y-91599761D02*
X56964285Y-91647380D01*
X56821428Y-91647380D01*
X56750000Y-91599761D01*
X56714285Y-91504523D01*
X56714285Y-91123571D01*
X56750000Y-91028333D01*
X56821428Y-90980714D01*
X56964285Y-90980714D01*
X57035714Y-91028333D01*
X57071428Y-91123571D01*
X57071428Y-91218809D01*
X56714285Y-91314047D01*
X57678571Y-91599761D02*
X57607142Y-91647380D01*
X57464285Y-91647380D01*
X57392857Y-91599761D01*
X57357142Y-91504523D01*
X57357142Y-91123571D01*
X57392857Y-91028333D01*
X57464285Y-90980714D01*
X57607142Y-90980714D01*
X57678571Y-91028333D01*
X57714285Y-91123571D01*
X57714285Y-91218809D01*
X57357142Y-91314047D01*
X58035714Y-90980714D02*
X58035714Y-91647380D01*
X58035714Y-91075952D02*
X58071428Y-91028333D01*
X58142857Y-90980714D01*
X58250000Y-90980714D01*
X58321428Y-91028333D01*
X58357142Y-91123571D01*
X58357142Y-91647380D01*
X59285714Y-91647380D02*
X59285714Y-90980714D01*
X59285714Y-91171190D02*
X59321428Y-91075952D01*
X59357142Y-91028333D01*
X59428571Y-90980714D01*
X59500000Y-90980714D01*
X59857142Y-91647380D02*
X59785714Y-91599761D01*
X59750000Y-91552142D01*
X59714285Y-91456904D01*
X59714285Y-91171190D01*
X59750000Y-91075952D01*
X59785714Y-91028333D01*
X59857142Y-90980714D01*
X59964285Y-90980714D01*
X60035714Y-91028333D01*
X60071428Y-91075952D01*
X60107142Y-91171190D01*
X60107142Y-91456904D01*
X60071428Y-91552142D01*
X60035714Y-91599761D01*
X59964285Y-91647380D01*
X59857142Y-91647380D01*
X60321428Y-90980714D02*
X60607142Y-90980714D01*
X60428571Y-90647380D02*
X60428571Y-91504523D01*
X60464285Y-91599761D01*
X60535714Y-91647380D01*
X60607142Y-91647380D01*
X61178571Y-91647380D02*
X61178571Y-91123571D01*
X61142857Y-91028333D01*
X61071428Y-90980714D01*
X60928571Y-90980714D01*
X60857142Y-91028333D01*
X61178571Y-91599761D02*
X61107142Y-91647380D01*
X60928571Y-91647380D01*
X60857142Y-91599761D01*
X60821428Y-91504523D01*
X60821428Y-91409285D01*
X60857142Y-91314047D01*
X60928571Y-91266428D01*
X61107142Y-91266428D01*
X61178571Y-91218809D01*
X61535714Y-91647380D02*
X61535714Y-90980714D01*
X61535714Y-91171190D02*
X61571428Y-91075952D01*
X61607142Y-91028333D01*
X61678571Y-90980714D01*
X61750000Y-90980714D01*
X61928571Y-90980714D02*
X62107142Y-91647380D01*
X62285714Y-90980714D02*
X62107142Y-91647380D01*
X62035714Y-91885476D01*
X62000000Y-91933095D01*
X61928571Y-91980714D01*
X63428571Y-91599761D02*
X63357142Y-91647380D01*
X63214285Y-91647380D01*
X63142857Y-91599761D01*
X63107142Y-91504523D01*
X63107142Y-91123571D01*
X63142857Y-91028333D01*
X63214285Y-90980714D01*
X63357142Y-90980714D01*
X63428571Y-91028333D01*
X63464285Y-91123571D01*
X63464285Y-91218809D01*
X63107142Y-91314047D01*
X63785714Y-90980714D02*
X63785714Y-91647380D01*
X63785714Y-91075952D02*
X63821428Y-91028333D01*
X63892857Y-90980714D01*
X64000000Y-90980714D01*
X64071428Y-91028333D01*
X64107142Y-91123571D01*
X64107142Y-91647380D01*
X64785714Y-91599761D02*
X64714285Y-91647380D01*
X64571428Y-91647380D01*
X64500000Y-91599761D01*
X64464285Y-91552142D01*
X64428571Y-91456904D01*
X64428571Y-91171190D01*
X64464285Y-91075952D01*
X64500000Y-91028333D01*
X64571428Y-90980714D01*
X64714285Y-90980714D01*
X64785714Y-91028333D01*
X65214285Y-91647380D02*
X65142857Y-91599761D01*
X65107142Y-91552142D01*
X65071428Y-91456904D01*
X65071428Y-91171190D01*
X65107142Y-91075952D01*
X65142857Y-91028333D01*
X65214285Y-90980714D01*
X65321428Y-90980714D01*
X65392857Y-91028333D01*
X65428571Y-91075952D01*
X65464285Y-91171190D01*
X65464285Y-91456904D01*
X65428571Y-91552142D01*
X65392857Y-91599761D01*
X65321428Y-91647380D01*
X65214285Y-91647380D01*
X66107142Y-91647380D02*
X66107142Y-90647380D01*
X66107142Y-91599761D02*
X66035714Y-91647380D01*
X65892857Y-91647380D01*
X65821428Y-91599761D01*
X65785714Y-91552142D01*
X65750000Y-91456904D01*
X65750000Y-91171190D01*
X65785714Y-91075952D01*
X65821428Y-91028333D01*
X65892857Y-90980714D01*
X66035714Y-90980714D01*
X66107142Y-91028333D01*
X66750000Y-91599761D02*
X66678571Y-91647380D01*
X66535714Y-91647380D01*
X66464285Y-91599761D01*
X66428571Y-91504523D01*
X66428571Y-91123571D01*
X66464285Y-91028333D01*
X66535714Y-90980714D01*
X66678571Y-90980714D01*
X66750000Y-91028333D01*
X66785714Y-91123571D01*
X66785714Y-91218809D01*
X66428571Y-91314047D01*
X67107142Y-91647380D02*
X67107142Y-90980714D01*
X67107142Y-91171190D02*
X67142857Y-91075952D01*
X67178571Y-91028333D01*
X67250000Y-90980714D01*
X67321428Y-90980714D01*
X57821428Y-93257380D02*
X57821428Y-92733571D01*
X57785714Y-92638333D01*
X57714285Y-92590714D01*
X57571428Y-92590714D01*
X57500000Y-92638333D01*
X57821428Y-93209761D02*
X57750000Y-93257380D01*
X57571428Y-93257380D01*
X57500000Y-93209761D01*
X57464285Y-93114523D01*
X57464285Y-93019285D01*
X57500000Y-92924047D01*
X57571428Y-92876428D01*
X57750000Y-92876428D01*
X57821428Y-92828809D01*
X58178571Y-92590714D02*
X58178571Y-93257380D01*
X58178571Y-92685952D02*
X58214285Y-92638333D01*
X58285714Y-92590714D01*
X58392857Y-92590714D01*
X58464285Y-92638333D01*
X58500000Y-92733571D01*
X58500000Y-93257380D01*
X59178571Y-93257380D02*
X59178571Y-92257380D01*
X59178571Y-93209761D02*
X59107142Y-93257380D01*
X58964285Y-93257380D01*
X58892857Y-93209761D01*
X58857142Y-93162142D01*
X58821428Y-93066904D01*
X58821428Y-92781190D01*
X58857142Y-92685952D01*
X58892857Y-92638333D01*
X58964285Y-92590714D01*
X59107142Y-92590714D01*
X59178571Y-92638333D01*
X60357142Y-92733571D02*
X60464285Y-92781190D01*
X60500000Y-92828809D01*
X60535714Y-92924047D01*
X60535714Y-93066904D01*
X60500000Y-93162142D01*
X60464285Y-93209761D01*
X60392857Y-93257380D01*
X60107142Y-93257380D01*
X60107142Y-92257380D01*
X60357142Y-92257380D01*
X60428571Y-92305000D01*
X60464285Y-92352619D01*
X60500000Y-92447857D01*
X60500000Y-92543095D01*
X60464285Y-92638333D01*
X60428571Y-92685952D01*
X60357142Y-92733571D01*
X60107142Y-92733571D01*
X61142857Y-93209761D02*
X61071428Y-93257380D01*
X60928571Y-93257380D01*
X60857142Y-93209761D01*
X60821428Y-93114523D01*
X60821428Y-92733571D01*
X60857142Y-92638333D01*
X60928571Y-92590714D01*
X61071428Y-92590714D01*
X61142857Y-92638333D01*
X61178571Y-92733571D01*
X61178571Y-92828809D01*
X60821428Y-92924047D01*
X61785714Y-93209761D02*
X61714285Y-93257380D01*
X61571428Y-93257380D01*
X61500000Y-93209761D01*
X61464285Y-93114523D01*
X61464285Y-92733571D01*
X61500000Y-92638333D01*
X61571428Y-92590714D01*
X61714285Y-92590714D01*
X61785714Y-92638333D01*
X61821428Y-92733571D01*
X61821428Y-92828809D01*
X61464285Y-92924047D01*
X62142857Y-93257380D02*
X62142857Y-92257380D01*
X62142857Y-92733571D02*
X62571428Y-92733571D01*
X62571428Y-93257380D02*
X62571428Y-92257380D01*
X62928571Y-93257380D02*
X62928571Y-92590714D01*
X62928571Y-92257380D02*
X62892857Y-92305000D01*
X62928571Y-92352619D01*
X62964285Y-92305000D01*
X62928571Y-92257380D01*
X62928571Y-92352619D01*
X63214285Y-92590714D02*
X63392857Y-93257380D01*
X63571428Y-92590714D01*
X64142857Y-93209761D02*
X64071428Y-93257380D01*
X63928571Y-93257380D01*
X63857142Y-93209761D01*
X63821428Y-93114523D01*
X63821428Y-92733571D01*
X63857142Y-92638333D01*
X63928571Y-92590714D01*
X64071428Y-92590714D01*
X64142857Y-92638333D01*
X64178571Y-92733571D01*
X64178571Y-92828809D01*
X63821428Y-92924047D01*
X64500000Y-93162142D02*
X64535714Y-93209761D01*
X64500000Y-93257380D01*
X64464285Y-93209761D01*
X64500000Y-93162142D01*
X64500000Y-93257380D01*
X59928571Y-94200714D02*
X60107142Y-94867380D01*
X60285714Y-94200714D01*
X60714285Y-93867380D02*
X60785714Y-93867380D01*
X60857142Y-93915000D01*
X60892857Y-93962619D01*
X60928571Y-94057857D01*
X60964285Y-94248333D01*
X60964285Y-94486428D01*
X60928571Y-94676904D01*
X60892857Y-94772142D01*
X60857142Y-94819761D01*
X60785714Y-94867380D01*
X60714285Y-94867380D01*
X60642857Y-94819761D01*
X60607142Y-94772142D01*
X60571428Y-94676904D01*
X60535714Y-94486428D01*
X60535714Y-94248333D01*
X60571428Y-94057857D01*
X60607142Y-93962619D01*
X60642857Y-93915000D01*
X60714285Y-93867380D01*
X61285714Y-94772142D02*
X61321428Y-94819761D01*
X61285714Y-94867380D01*
X61250000Y-94819761D01*
X61285714Y-94772142D01*
X61285714Y-94867380D01*
X62035714Y-94867380D02*
X61607142Y-94867380D01*
X61821428Y-94867380D02*
X61821428Y-93867380D01*
X61750000Y-94010238D01*
X61678571Y-94105476D01*
X61607142Y-94153095D01*
D11*
X79176309Y-78392857D02*
X79676309Y-78392857D01*
X79676309Y-78583333D01*
X79652500Y-78630952D01*
X79628690Y-78654761D01*
X79581071Y-78678571D01*
X79509642Y-78678571D01*
X79462023Y-78654761D01*
X79438214Y-78630952D01*
X79414404Y-78583333D01*
X79414404Y-78392857D01*
X79509642Y-79107142D02*
X79176309Y-79107142D01*
X79509642Y-78892857D02*
X79247738Y-78892857D01*
X79200119Y-78916666D01*
X79176309Y-78964285D01*
X79176309Y-79035714D01*
X79200119Y-79083333D01*
X79223928Y-79107142D01*
X79176309Y-79416666D02*
X79200119Y-79369047D01*
X79247738Y-79345238D01*
X79676309Y-79345238D01*
X79176309Y-79678571D02*
X79200119Y-79630952D01*
X79247738Y-79607142D01*
X79676309Y-79607142D01*
X79366785Y-79869047D02*
X79366785Y-80250000D01*
X79509642Y-80702380D02*
X79176309Y-80702380D01*
X79509642Y-80488095D02*
X79247738Y-80488095D01*
X79200119Y-80511904D01*
X79176309Y-80559523D01*
X79176309Y-80630952D01*
X79200119Y-80678571D01*
X79223928Y-80702380D01*
X79509642Y-80940476D02*
X79009642Y-80940476D01*
X79485833Y-80940476D02*
X79509642Y-80988095D01*
X79509642Y-81083333D01*
X79485833Y-81130952D01*
X79462023Y-81154761D01*
X79414404Y-81178571D01*
X79271547Y-81178571D01*
X79223928Y-81154761D01*
X79200119Y-81130952D01*
X79176309Y-81083333D01*
X79176309Y-80988095D01*
X79200119Y-80940476D01*
X79176309Y-81773809D02*
X79509642Y-81773809D01*
X79414404Y-81773809D02*
X79462023Y-81797619D01*
X79485833Y-81821428D01*
X79509642Y-81869047D01*
X79509642Y-81916666D01*
X79200119Y-82273809D02*
X79176309Y-82226190D01*
X79176309Y-82130952D01*
X79200119Y-82083333D01*
X79247738Y-82059523D01*
X79438214Y-82059523D01*
X79485833Y-82083333D01*
X79509642Y-82130952D01*
X79509642Y-82226190D01*
X79485833Y-82273809D01*
X79438214Y-82297619D01*
X79390595Y-82297619D01*
X79342976Y-82059523D01*
X79200119Y-82488095D02*
X79176309Y-82535714D01*
X79176309Y-82630952D01*
X79200119Y-82678571D01*
X79247738Y-82702380D01*
X79271547Y-82702380D01*
X79319166Y-82678571D01*
X79342976Y-82630952D01*
X79342976Y-82559523D01*
X79366785Y-82511904D01*
X79414404Y-82488095D01*
X79438214Y-82488095D01*
X79485833Y-82511904D01*
X79509642Y-82559523D01*
X79509642Y-82630952D01*
X79485833Y-82678571D01*
X79176309Y-82916666D02*
X79509642Y-82916666D01*
X79676309Y-82916666D02*
X79652500Y-82892857D01*
X79628690Y-82916666D01*
X79652500Y-82940476D01*
X79676309Y-82916666D01*
X79628690Y-82916666D01*
X79200119Y-83130952D02*
X79176309Y-83178571D01*
X79176309Y-83273809D01*
X79200119Y-83321428D01*
X79247738Y-83345238D01*
X79271547Y-83345238D01*
X79319166Y-83321428D01*
X79342976Y-83273809D01*
X79342976Y-83202380D01*
X79366785Y-83154761D01*
X79414404Y-83130952D01*
X79438214Y-83130952D01*
X79485833Y-83154761D01*
X79509642Y-83202380D01*
X79509642Y-83273809D01*
X79485833Y-83321428D01*
X79509642Y-83488095D02*
X79509642Y-83678571D01*
X79676309Y-83559523D02*
X79247738Y-83559523D01*
X79200119Y-83583333D01*
X79176309Y-83630952D01*
X79176309Y-83678571D01*
X79176309Y-83916666D02*
X79200119Y-83869047D01*
X79223928Y-83845238D01*
X79271547Y-83821428D01*
X79414404Y-83821428D01*
X79462023Y-83845238D01*
X79485833Y-83869047D01*
X79509642Y-83916666D01*
X79509642Y-83988095D01*
X79485833Y-84035714D01*
X79462023Y-84059523D01*
X79414404Y-84083333D01*
X79271547Y-84083333D01*
X79223928Y-84059523D01*
X79200119Y-84035714D01*
X79176309Y-83988095D01*
X79176309Y-83916666D01*
X79176309Y-84297619D02*
X79509642Y-84297619D01*
X79414404Y-84297619D02*
X79462023Y-84321428D01*
X79485833Y-84345238D01*
X79509642Y-84392857D01*
X79509642Y-84440476D01*
X79200119Y-84583333D02*
X79176309Y-84630952D01*
X79176309Y-84726190D01*
X79200119Y-84773809D01*
X79247738Y-84797619D01*
X79271547Y-84797619D01*
X79319166Y-84773809D01*
X79342976Y-84726190D01*
X79342976Y-84654761D01*
X79366785Y-84607142D01*
X79414404Y-84583333D01*
X79438214Y-84583333D01*
X79485833Y-84607142D01*
X79509642Y-84654761D01*
X79509642Y-84726190D01*
X79485833Y-84773809D01*
X79176309Y-85607142D02*
X79438214Y-85607142D01*
X79485833Y-85583333D01*
X79509642Y-85535714D01*
X79509642Y-85440476D01*
X79485833Y-85392857D01*
X79200119Y-85607142D02*
X79176309Y-85559523D01*
X79176309Y-85440476D01*
X79200119Y-85392857D01*
X79247738Y-85369047D01*
X79295357Y-85369047D01*
X79342976Y-85392857D01*
X79366785Y-85440476D01*
X79366785Y-85559523D01*
X79390595Y-85607142D01*
X79509642Y-85845238D02*
X79176309Y-85845238D01*
X79462023Y-85845238D02*
X79485833Y-85869047D01*
X79509642Y-85916666D01*
X79509642Y-85988095D01*
X79485833Y-86035714D01*
X79438214Y-86059523D01*
X79176309Y-86059523D01*
X79176309Y-86511904D02*
X79676309Y-86511904D01*
X79200119Y-86511904D02*
X79176309Y-86464285D01*
X79176309Y-86369047D01*
X79200119Y-86321428D01*
X79223928Y-86297619D01*
X79271547Y-86273809D01*
X79414404Y-86273809D01*
X79462023Y-86297619D01*
X79485833Y-86321428D01*
X79509642Y-86369047D01*
X79509642Y-86464285D01*
X79485833Y-86511904D01*
X79509642Y-87059523D02*
X79509642Y-87250000D01*
X79176309Y-87130952D02*
X79604880Y-87130952D01*
X79652500Y-87154761D01*
X79676309Y-87202380D01*
X79676309Y-87250000D01*
X79176309Y-87416666D02*
X79509642Y-87416666D01*
X79676309Y-87416666D02*
X79652500Y-87392857D01*
X79628690Y-87416666D01*
X79652500Y-87440476D01*
X79676309Y-87416666D01*
X79628690Y-87416666D01*
X79176309Y-87726190D02*
X79200119Y-87678571D01*
X79247738Y-87654761D01*
X79676309Y-87654761D01*
X79509642Y-87845238D02*
X79509642Y-88035714D01*
X79676309Y-87916666D02*
X79247738Y-87916666D01*
X79200119Y-87940476D01*
X79176309Y-87988095D01*
X79176309Y-88035714D01*
X79200119Y-88392857D02*
X79176309Y-88345238D01*
X79176309Y-88250000D01*
X79200119Y-88202380D01*
X79247738Y-88178571D01*
X79438214Y-88178571D01*
X79485833Y-88202380D01*
X79509642Y-88250000D01*
X79509642Y-88345238D01*
X79485833Y-88392857D01*
X79438214Y-88416666D01*
X79390595Y-88416666D01*
X79342976Y-88178571D01*
X79176309Y-88630952D02*
X79509642Y-88630952D01*
X79414404Y-88630952D02*
X79462023Y-88654761D01*
X79485833Y-88678571D01*
X79509642Y-88726190D01*
X79509642Y-88773809D01*
X79200119Y-89535714D02*
X79176309Y-89488095D01*
X79176309Y-89392857D01*
X79200119Y-89345238D01*
X79223928Y-89321428D01*
X79271547Y-89297619D01*
X79414404Y-89297619D01*
X79462023Y-89321428D01*
X79485833Y-89345238D01*
X79509642Y-89392857D01*
X79509642Y-89488095D01*
X79485833Y-89535714D01*
X79176309Y-89964285D02*
X79438214Y-89964285D01*
X79485833Y-89940476D01*
X79509642Y-89892857D01*
X79509642Y-89797619D01*
X79485833Y-89750000D01*
X79200119Y-89964285D02*
X79176309Y-89916666D01*
X79176309Y-89797619D01*
X79200119Y-89750000D01*
X79247738Y-89726190D01*
X79295357Y-89726190D01*
X79342976Y-89750000D01*
X79366785Y-89797619D01*
X79366785Y-89916666D01*
X79390595Y-89964285D01*
X79509642Y-90202380D02*
X79009642Y-90202380D01*
X79485833Y-90202380D02*
X79509642Y-90250000D01*
X79509642Y-90345238D01*
X79485833Y-90392857D01*
X79462023Y-90416666D01*
X79414404Y-90440476D01*
X79271547Y-90440476D01*
X79223928Y-90416666D01*
X79200119Y-90392857D01*
X79176309Y-90345238D01*
X79176309Y-90250000D01*
X79200119Y-90202380D01*
X79176309Y-90869047D02*
X79438214Y-90869047D01*
X79485833Y-90845238D01*
X79509642Y-90797619D01*
X79509642Y-90702380D01*
X79485833Y-90654761D01*
X79200119Y-90869047D02*
X79176309Y-90821428D01*
X79176309Y-90702380D01*
X79200119Y-90654761D01*
X79247738Y-90630952D01*
X79295357Y-90630952D01*
X79342976Y-90654761D01*
X79366785Y-90702380D01*
X79366785Y-90821428D01*
X79390595Y-90869047D01*
X79200119Y-91321428D02*
X79176309Y-91273809D01*
X79176309Y-91178571D01*
X79200119Y-91130952D01*
X79223928Y-91107142D01*
X79271547Y-91083333D01*
X79414404Y-91083333D01*
X79462023Y-91107142D01*
X79485833Y-91130952D01*
X79509642Y-91178571D01*
X79509642Y-91273809D01*
X79485833Y-91321428D01*
X79176309Y-91535714D02*
X79509642Y-91535714D01*
X79676309Y-91535714D02*
X79652500Y-91511904D01*
X79628690Y-91535714D01*
X79652500Y-91559523D01*
X79676309Y-91535714D01*
X79628690Y-91535714D01*
X79509642Y-91702380D02*
X79509642Y-91892857D01*
X79676309Y-91773809D02*
X79247738Y-91773809D01*
X79200119Y-91797619D01*
X79176309Y-91845238D01*
X79176309Y-91892857D01*
X79176309Y-92130952D02*
X79200119Y-92083333D01*
X79223928Y-92059523D01*
X79271547Y-92035714D01*
X79414404Y-92035714D01*
X79462023Y-92059523D01*
X79485833Y-92083333D01*
X79509642Y-92130952D01*
X79509642Y-92202380D01*
X79485833Y-92250000D01*
X79462023Y-92273809D01*
X79414404Y-92297619D01*
X79271547Y-92297619D01*
X79223928Y-92273809D01*
X79200119Y-92250000D01*
X79176309Y-92202380D01*
X79176309Y-92130952D01*
X79176309Y-92511904D02*
X79509642Y-92511904D01*
X79414404Y-92511904D02*
X79462023Y-92535714D01*
X79485833Y-92559523D01*
X79509642Y-92607142D01*
X79509642Y-92654761D01*
X79200119Y-92797619D02*
X79176309Y-92845238D01*
X79176309Y-92940476D01*
X79200119Y-92988095D01*
X79247738Y-93011904D01*
X79271547Y-93011904D01*
X79319166Y-92988095D01*
X79342976Y-92940476D01*
X79342976Y-92869047D01*
X79366785Y-92821428D01*
X79414404Y-92797619D01*
X79438214Y-92797619D01*
X79485833Y-92821428D01*
X79509642Y-92869047D01*
X79509642Y-92940476D01*
X79485833Y-92988095D01*
X79200119Y-93250000D02*
X79176309Y-93250000D01*
X79128690Y-93226190D01*
X79104880Y-93202380D01*
X78371309Y-76404761D02*
X78704642Y-76404761D01*
X78609404Y-76404761D02*
X78657023Y-76428571D01*
X78680833Y-76452380D01*
X78704642Y-76500000D01*
X78704642Y-76547619D01*
X78395119Y-76904761D02*
X78371309Y-76857142D01*
X78371309Y-76761904D01*
X78395119Y-76714285D01*
X78442738Y-76690476D01*
X78633214Y-76690476D01*
X78680833Y-76714285D01*
X78704642Y-76761904D01*
X78704642Y-76857142D01*
X78680833Y-76904761D01*
X78633214Y-76928571D01*
X78585595Y-76928571D01*
X78537976Y-76690476D01*
X78395119Y-77357142D02*
X78371309Y-77309523D01*
X78371309Y-77214285D01*
X78395119Y-77166666D01*
X78418928Y-77142857D01*
X78466547Y-77119047D01*
X78609404Y-77119047D01*
X78657023Y-77142857D01*
X78680833Y-77166666D01*
X78704642Y-77214285D01*
X78704642Y-77309523D01*
X78680833Y-77357142D01*
X78371309Y-77642857D02*
X78395119Y-77595238D01*
X78418928Y-77571428D01*
X78466547Y-77547619D01*
X78609404Y-77547619D01*
X78657023Y-77571428D01*
X78680833Y-77595238D01*
X78704642Y-77642857D01*
X78704642Y-77714285D01*
X78680833Y-77761904D01*
X78657023Y-77785714D01*
X78609404Y-77809523D01*
X78466547Y-77809523D01*
X78418928Y-77785714D01*
X78395119Y-77761904D01*
X78371309Y-77714285D01*
X78371309Y-77642857D01*
X78371309Y-78023809D02*
X78704642Y-78023809D01*
X78657023Y-78023809D02*
X78680833Y-78047619D01*
X78704642Y-78095238D01*
X78704642Y-78166666D01*
X78680833Y-78214285D01*
X78633214Y-78238095D01*
X78371309Y-78238095D01*
X78633214Y-78238095D02*
X78680833Y-78261904D01*
X78704642Y-78309523D01*
X78704642Y-78380952D01*
X78680833Y-78428571D01*
X78633214Y-78452380D01*
X78371309Y-78452380D01*
X78371309Y-78690476D02*
X78704642Y-78690476D01*
X78657023Y-78690476D02*
X78680833Y-78714285D01*
X78704642Y-78761904D01*
X78704642Y-78833333D01*
X78680833Y-78880952D01*
X78633214Y-78904761D01*
X78371309Y-78904761D01*
X78633214Y-78904761D02*
X78680833Y-78928571D01*
X78704642Y-78976190D01*
X78704642Y-79047619D01*
X78680833Y-79095238D01*
X78633214Y-79119047D01*
X78371309Y-79119047D01*
X78395119Y-79547619D02*
X78371309Y-79500000D01*
X78371309Y-79404761D01*
X78395119Y-79357142D01*
X78442738Y-79333333D01*
X78633214Y-79333333D01*
X78680833Y-79357142D01*
X78704642Y-79404761D01*
X78704642Y-79500000D01*
X78680833Y-79547619D01*
X78633214Y-79571428D01*
X78585595Y-79571428D01*
X78537976Y-79333333D01*
X78704642Y-79785714D02*
X78371309Y-79785714D01*
X78657023Y-79785714D02*
X78680833Y-79809523D01*
X78704642Y-79857142D01*
X78704642Y-79928571D01*
X78680833Y-79976190D01*
X78633214Y-80000000D01*
X78371309Y-80000000D01*
X78371309Y-80452380D02*
X78871309Y-80452380D01*
X78395119Y-80452380D02*
X78371309Y-80404761D01*
X78371309Y-80309523D01*
X78395119Y-80261904D01*
X78418928Y-80238095D01*
X78466547Y-80214285D01*
X78609404Y-80214285D01*
X78657023Y-80238095D01*
X78680833Y-80261904D01*
X78704642Y-80309523D01*
X78704642Y-80404761D01*
X78680833Y-80452380D01*
X78395119Y-80880952D02*
X78371309Y-80833333D01*
X78371309Y-80738095D01*
X78395119Y-80690476D01*
X78442738Y-80666666D01*
X78633214Y-80666666D01*
X78680833Y-80690476D01*
X78704642Y-80738095D01*
X78704642Y-80833333D01*
X78680833Y-80880952D01*
X78633214Y-80904761D01*
X78585595Y-80904761D01*
X78537976Y-80666666D01*
X78371309Y-81333333D02*
X78871309Y-81333333D01*
X78395119Y-81333333D02*
X78371309Y-81285714D01*
X78371309Y-81190476D01*
X78395119Y-81142857D01*
X78418928Y-81119047D01*
X78466547Y-81095238D01*
X78609404Y-81095238D01*
X78657023Y-81119047D01*
X78680833Y-81142857D01*
X78704642Y-81190476D01*
X78704642Y-81285714D01*
X78680833Y-81333333D01*
X78704642Y-81880952D02*
X78704642Y-82071428D01*
X78371309Y-81952380D02*
X78799880Y-81952380D01*
X78847500Y-81976190D01*
X78871309Y-82023809D01*
X78871309Y-82071428D01*
X78371309Y-82309523D02*
X78395119Y-82261904D01*
X78418928Y-82238095D01*
X78466547Y-82214285D01*
X78609404Y-82214285D01*
X78657023Y-82238095D01*
X78680833Y-82261904D01*
X78704642Y-82309523D01*
X78704642Y-82380952D01*
X78680833Y-82428571D01*
X78657023Y-82452380D01*
X78609404Y-82476190D01*
X78466547Y-82476190D01*
X78418928Y-82452380D01*
X78395119Y-82428571D01*
X78371309Y-82380952D01*
X78371309Y-82309523D01*
X78371309Y-82690476D02*
X78704642Y-82690476D01*
X78609404Y-82690476D02*
X78657023Y-82714285D01*
X78680833Y-82738095D01*
X78704642Y-82785714D01*
X78704642Y-82833333D01*
X78371309Y-83380952D02*
X78704642Y-83380952D01*
X78609404Y-83380952D02*
X78657023Y-83404761D01*
X78680833Y-83428571D01*
X78704642Y-83476190D01*
X78704642Y-83523809D01*
X78371309Y-83761904D02*
X78395119Y-83714285D01*
X78418928Y-83690476D01*
X78466547Y-83666666D01*
X78609404Y-83666666D01*
X78657023Y-83690476D01*
X78680833Y-83714285D01*
X78704642Y-83761904D01*
X78704642Y-83833333D01*
X78680833Y-83880952D01*
X78657023Y-83904761D01*
X78609404Y-83928571D01*
X78466547Y-83928571D01*
X78418928Y-83904761D01*
X78395119Y-83880952D01*
X78371309Y-83833333D01*
X78371309Y-83761904D01*
X78704642Y-84071428D02*
X78704642Y-84261904D01*
X78871309Y-84142857D02*
X78442738Y-84142857D01*
X78395119Y-84166666D01*
X78371309Y-84214285D01*
X78371309Y-84261904D01*
X78371309Y-84642857D02*
X78633214Y-84642857D01*
X78680833Y-84619047D01*
X78704642Y-84571428D01*
X78704642Y-84476190D01*
X78680833Y-84428571D01*
X78395119Y-84642857D02*
X78371309Y-84595238D01*
X78371309Y-84476190D01*
X78395119Y-84428571D01*
X78442738Y-84404761D01*
X78490357Y-84404761D01*
X78537976Y-84428571D01*
X78561785Y-84476190D01*
X78561785Y-84595238D01*
X78585595Y-84642857D01*
X78371309Y-84880952D02*
X78704642Y-84880952D01*
X78609404Y-84880952D02*
X78657023Y-84904761D01*
X78680833Y-84928571D01*
X78704642Y-84976190D01*
X78704642Y-85023809D01*
X78704642Y-85142857D02*
X78371309Y-85261904D01*
X78704642Y-85380952D02*
X78371309Y-85261904D01*
X78252261Y-85214285D01*
X78228452Y-85190476D01*
X78204642Y-85142857D01*
X78395119Y-86142857D02*
X78371309Y-86095238D01*
X78371309Y-86000000D01*
X78395119Y-85952380D01*
X78442738Y-85928571D01*
X78633214Y-85928571D01*
X78680833Y-85952380D01*
X78704642Y-86000000D01*
X78704642Y-86095238D01*
X78680833Y-86142857D01*
X78633214Y-86166666D01*
X78585595Y-86166666D01*
X78537976Y-85928571D01*
X78704642Y-86380952D02*
X78371309Y-86380952D01*
X78657023Y-86380952D02*
X78680833Y-86404761D01*
X78704642Y-86452380D01*
X78704642Y-86523809D01*
X78680833Y-86571428D01*
X78633214Y-86595238D01*
X78371309Y-86595238D01*
X78395119Y-87047619D02*
X78371309Y-87000000D01*
X78371309Y-86904761D01*
X78395119Y-86857142D01*
X78418928Y-86833333D01*
X78466547Y-86809523D01*
X78609404Y-86809523D01*
X78657023Y-86833333D01*
X78680833Y-86857142D01*
X78704642Y-86904761D01*
X78704642Y-87000000D01*
X78680833Y-87047619D01*
X78371309Y-87333333D02*
X78395119Y-87285714D01*
X78418928Y-87261904D01*
X78466547Y-87238095D01*
X78609404Y-87238095D01*
X78657023Y-87261904D01*
X78680833Y-87285714D01*
X78704642Y-87333333D01*
X78704642Y-87404761D01*
X78680833Y-87452380D01*
X78657023Y-87476190D01*
X78609404Y-87500000D01*
X78466547Y-87500000D01*
X78418928Y-87476190D01*
X78395119Y-87452380D01*
X78371309Y-87404761D01*
X78371309Y-87333333D01*
X78371309Y-87928571D02*
X78871309Y-87928571D01*
X78395119Y-87928571D02*
X78371309Y-87880952D01*
X78371309Y-87785714D01*
X78395119Y-87738095D01*
X78418928Y-87714285D01*
X78466547Y-87690476D01*
X78609404Y-87690476D01*
X78657023Y-87714285D01*
X78680833Y-87738095D01*
X78704642Y-87785714D01*
X78704642Y-87880952D01*
X78680833Y-87928571D01*
X78395119Y-88357142D02*
X78371309Y-88309523D01*
X78371309Y-88214285D01*
X78395119Y-88166666D01*
X78442738Y-88142857D01*
X78633214Y-88142857D01*
X78680833Y-88166666D01*
X78704642Y-88214285D01*
X78704642Y-88309523D01*
X78680833Y-88357142D01*
X78633214Y-88380952D01*
X78585595Y-88380952D01*
X78537976Y-88142857D01*
X78371309Y-88595238D02*
X78704642Y-88595238D01*
X78609404Y-88595238D02*
X78657023Y-88619047D01*
X78680833Y-88642857D01*
X78704642Y-88690476D01*
X78704642Y-88738095D01*
X78704642Y-89285714D02*
X78204642Y-89285714D01*
X78680833Y-89285714D02*
X78704642Y-89333333D01*
X78704642Y-89428571D01*
X78680833Y-89476190D01*
X78657023Y-89500000D01*
X78609404Y-89523809D01*
X78466547Y-89523809D01*
X78418928Y-89500000D01*
X78395119Y-89476190D01*
X78371309Y-89428571D01*
X78371309Y-89333333D01*
X78395119Y-89285714D01*
X78371309Y-89738095D02*
X78704642Y-89738095D01*
X78609404Y-89738095D02*
X78657023Y-89761904D01*
X78680833Y-89785714D01*
X78704642Y-89833333D01*
X78704642Y-89880952D01*
X78371309Y-90119047D02*
X78395119Y-90071428D01*
X78418928Y-90047619D01*
X78466547Y-90023809D01*
X78609404Y-90023809D01*
X78657023Y-90047619D01*
X78680833Y-90071428D01*
X78704642Y-90119047D01*
X78704642Y-90190476D01*
X78680833Y-90238095D01*
X78657023Y-90261904D01*
X78609404Y-90285714D01*
X78466547Y-90285714D01*
X78418928Y-90261904D01*
X78395119Y-90238095D01*
X78371309Y-90190476D01*
X78371309Y-90119047D01*
X78704642Y-90500000D02*
X78204642Y-90500000D01*
X78680833Y-90500000D02*
X78704642Y-90547619D01*
X78704642Y-90642857D01*
X78680833Y-90690476D01*
X78657023Y-90714285D01*
X78609404Y-90738095D01*
X78466547Y-90738095D01*
X78418928Y-90714285D01*
X78395119Y-90690476D01*
X78371309Y-90642857D01*
X78371309Y-90547619D01*
X78395119Y-90500000D01*
X78395119Y-91142857D02*
X78371309Y-91095238D01*
X78371309Y-90999999D01*
X78395119Y-90952380D01*
X78442738Y-90928571D01*
X78633214Y-90928571D01*
X78680833Y-90952380D01*
X78704642Y-90999999D01*
X78704642Y-91095238D01*
X78680833Y-91142857D01*
X78633214Y-91166666D01*
X78585595Y-91166666D01*
X78537976Y-90928571D01*
X78371309Y-91380952D02*
X78704642Y-91380952D01*
X78609404Y-91380952D02*
X78657023Y-91404761D01*
X78680833Y-91428571D01*
X78704642Y-91476190D01*
X78704642Y-91523809D01*
X78371309Y-92142857D02*
X78395119Y-92095238D01*
X78418928Y-92071428D01*
X78466547Y-92047619D01*
X78609404Y-92047619D01*
X78657023Y-92071428D01*
X78680833Y-92095238D01*
X78704642Y-92142857D01*
X78704642Y-92214285D01*
X78680833Y-92261904D01*
X78657023Y-92285714D01*
X78609404Y-92309523D01*
X78466547Y-92309523D01*
X78418928Y-92285714D01*
X78395119Y-92261904D01*
X78371309Y-92214285D01*
X78371309Y-92142857D01*
X78704642Y-92523809D02*
X78204642Y-92523809D01*
X78680833Y-92523809D02*
X78704642Y-92571428D01*
X78704642Y-92666666D01*
X78680833Y-92714285D01*
X78657023Y-92738095D01*
X78609404Y-92761904D01*
X78466547Y-92761904D01*
X78418928Y-92738095D01*
X78395119Y-92714285D01*
X78371309Y-92666666D01*
X78371309Y-92571428D01*
X78395119Y-92523809D01*
X78395119Y-93166666D02*
X78371309Y-93119047D01*
X78371309Y-93023809D01*
X78395119Y-92976190D01*
X78442738Y-92952380D01*
X78633214Y-92952380D01*
X78680833Y-92976190D01*
X78704642Y-93023809D01*
X78704642Y-93119047D01*
X78680833Y-93166666D01*
X78633214Y-93190476D01*
X78585595Y-93190476D01*
X78537976Y-92952380D01*
X78371309Y-93404761D02*
X78704642Y-93404761D01*
X78609404Y-93404761D02*
X78657023Y-93428571D01*
X78680833Y-93452380D01*
X78704642Y-93499999D01*
X78704642Y-93547619D01*
X78371309Y-93928571D02*
X78633214Y-93928571D01*
X78680833Y-93904761D01*
X78704642Y-93857142D01*
X78704642Y-93761904D01*
X78680833Y-93714285D01*
X78395119Y-93928571D02*
X78371309Y-93880952D01*
X78371309Y-93761904D01*
X78395119Y-93714285D01*
X78442738Y-93690476D01*
X78490357Y-93690476D01*
X78537976Y-93714285D01*
X78561785Y-93761904D01*
X78561785Y-93880952D01*
X78585595Y-93928571D01*
X78704642Y-94095238D02*
X78704642Y-94285714D01*
X78871309Y-94166666D02*
X78442738Y-94166666D01*
X78395119Y-94190476D01*
X78371309Y-94238095D01*
X78371309Y-94285714D01*
X78371309Y-94452380D02*
X78704642Y-94452380D01*
X78871309Y-94452380D02*
X78847500Y-94428571D01*
X78823690Y-94452380D01*
X78847500Y-94476190D01*
X78871309Y-94452380D01*
X78823690Y-94452380D01*
X78371309Y-94761904D02*
X78395119Y-94714285D01*
X78418928Y-94690476D01*
X78466547Y-94666666D01*
X78609404Y-94666666D01*
X78657023Y-94690476D01*
X78680833Y-94714285D01*
X78704642Y-94761904D01*
X78704642Y-94833333D01*
X78680833Y-94880952D01*
X78657023Y-94904761D01*
X78609404Y-94928571D01*
X78466547Y-94928571D01*
X78418928Y-94904761D01*
X78395119Y-94880952D01*
X78371309Y-94833333D01*
X78371309Y-94761904D01*
X78704642Y-95142857D02*
X78371309Y-95142857D01*
X78657023Y-95142857D02*
X78680833Y-95166666D01*
X78704642Y-95214285D01*
X78704642Y-95285714D01*
X78680833Y-95333333D01*
X78633214Y-95357142D01*
X78371309Y-95357142D01*
X78418928Y-95595238D02*
X78395119Y-95619047D01*
X78371309Y-95595238D01*
X78395119Y-95571428D01*
X78418928Y-95595238D01*
X78371309Y-95595238D01*
X57285714Y-119823690D02*
X57285714Y-119323690D01*
X57285714Y-119514166D02*
X57333333Y-119490357D01*
X57428571Y-119490357D01*
X57476190Y-119514166D01*
X57500000Y-119537976D01*
X57523809Y-119585595D01*
X57523809Y-119728452D01*
X57500000Y-119776071D01*
X57476190Y-119799880D01*
X57428571Y-119823690D01*
X57333333Y-119823690D01*
X57285714Y-119799880D01*
X57809523Y-119823690D02*
X57761904Y-119799880D01*
X57738095Y-119776071D01*
X57714285Y-119728452D01*
X57714285Y-119585595D01*
X57738095Y-119537976D01*
X57761904Y-119514166D01*
X57809523Y-119490357D01*
X57880952Y-119490357D01*
X57928571Y-119514166D01*
X57952380Y-119537976D01*
X57976190Y-119585595D01*
X57976190Y-119728452D01*
X57952380Y-119776071D01*
X57928571Y-119799880D01*
X57880952Y-119823690D01*
X57809523Y-119823690D01*
X58404761Y-119823690D02*
X58404761Y-119561785D01*
X58380952Y-119514166D01*
X58333333Y-119490357D01*
X58238095Y-119490357D01*
X58190476Y-119514166D01*
X58404761Y-119799880D02*
X58357142Y-119823690D01*
X58238095Y-119823690D01*
X58190476Y-119799880D01*
X58166666Y-119752261D01*
X58166666Y-119704642D01*
X58190476Y-119657023D01*
X58238095Y-119633214D01*
X58357142Y-119633214D01*
X58404761Y-119609404D01*
X58642857Y-119823690D02*
X58642857Y-119490357D01*
X58642857Y-119585595D02*
X58666666Y-119537976D01*
X58690476Y-119514166D01*
X58738095Y-119490357D01*
X58785714Y-119490357D01*
X59166666Y-119823690D02*
X59166666Y-119323690D01*
X59166666Y-119799880D02*
X59119047Y-119823690D01*
X59023809Y-119823690D01*
X58976190Y-119799880D01*
X58952380Y-119776071D01*
X58928571Y-119728452D01*
X58928571Y-119585595D01*
X58952380Y-119537976D01*
X58976190Y-119514166D01*
X59023809Y-119490357D01*
X59119047Y-119490357D01*
X59166666Y-119514166D01*
X60000000Y-119823690D02*
X60000000Y-119323690D01*
X60000000Y-119799880D02*
X59952380Y-119823690D01*
X59857142Y-119823690D01*
X59809523Y-119799880D01*
X59785714Y-119776071D01*
X59761904Y-119728452D01*
X59761904Y-119585595D01*
X59785714Y-119537976D01*
X59809523Y-119514166D01*
X59857142Y-119490357D01*
X59952380Y-119490357D01*
X60000000Y-119514166D01*
X60428571Y-119799880D02*
X60380952Y-119823690D01*
X60285714Y-119823690D01*
X60238095Y-119799880D01*
X60214285Y-119752261D01*
X60214285Y-119561785D01*
X60238095Y-119514166D01*
X60285714Y-119490357D01*
X60380952Y-119490357D01*
X60428571Y-119514166D01*
X60452380Y-119561785D01*
X60452380Y-119609404D01*
X60214285Y-119657023D01*
X60619047Y-119490357D02*
X60738095Y-119823690D01*
X60857142Y-119490357D01*
X61238095Y-119799880D02*
X61190476Y-119823690D01*
X61095238Y-119823690D01*
X61047619Y-119799880D01*
X61023809Y-119752261D01*
X61023809Y-119561785D01*
X61047619Y-119514166D01*
X61095238Y-119490357D01*
X61190476Y-119490357D01*
X61238095Y-119514166D01*
X61261904Y-119561785D01*
X61261904Y-119609404D01*
X61023809Y-119657023D01*
X61547619Y-119823690D02*
X61500000Y-119799880D01*
X61476190Y-119752261D01*
X61476190Y-119323690D01*
X61809523Y-119823690D02*
X61761904Y-119799880D01*
X61738095Y-119776071D01*
X61714285Y-119728452D01*
X61714285Y-119585595D01*
X61738095Y-119537976D01*
X61761904Y-119514166D01*
X61809523Y-119490357D01*
X61880952Y-119490357D01*
X61928571Y-119514166D01*
X61952380Y-119537976D01*
X61976190Y-119585595D01*
X61976190Y-119728452D01*
X61952380Y-119776071D01*
X61928571Y-119799880D01*
X61880952Y-119823690D01*
X61809523Y-119823690D01*
X62190476Y-119490357D02*
X62190476Y-119990357D01*
X62190476Y-119514166D02*
X62238095Y-119490357D01*
X62333333Y-119490357D01*
X62380952Y-119514166D01*
X62404761Y-119537976D01*
X62428571Y-119585595D01*
X62428571Y-119728452D01*
X62404761Y-119776071D01*
X62380952Y-119799880D01*
X62333333Y-119823690D01*
X62238095Y-119823690D01*
X62190476Y-119799880D01*
X62833333Y-119799880D02*
X62785714Y-119823690D01*
X62690476Y-119823690D01*
X62642857Y-119799880D01*
X62619047Y-119752261D01*
X62619047Y-119561785D01*
X62642857Y-119514166D01*
X62690476Y-119490357D01*
X62785714Y-119490357D01*
X62833333Y-119514166D01*
X62857142Y-119561785D01*
X62857142Y-119609404D01*
X62619047Y-119657023D01*
X63285714Y-119823690D02*
X63285714Y-119323690D01*
X63285714Y-119799880D02*
X63238095Y-119823690D01*
X63142857Y-119823690D01*
X63095238Y-119799880D01*
X63071428Y-119776071D01*
X63047619Y-119728452D01*
X63047619Y-119585595D01*
X63071428Y-119537976D01*
X63095238Y-119514166D01*
X63142857Y-119490357D01*
X63238095Y-119490357D01*
X63285714Y-119514166D01*
X63833333Y-119490357D02*
X64023809Y-119490357D01*
X63904761Y-119823690D02*
X63904761Y-119395119D01*
X63928571Y-119347500D01*
X63976190Y-119323690D01*
X64023809Y-119323690D01*
X64261904Y-119823690D02*
X64214285Y-119799880D01*
X64190476Y-119776071D01*
X64166666Y-119728452D01*
X64166666Y-119585595D01*
X64190476Y-119537976D01*
X64214285Y-119514166D01*
X64261904Y-119490357D01*
X64333333Y-119490357D01*
X64380952Y-119514166D01*
X64404761Y-119537976D01*
X64428571Y-119585595D01*
X64428571Y-119728452D01*
X64404761Y-119776071D01*
X64380952Y-119799880D01*
X64333333Y-119823690D01*
X64261904Y-119823690D01*
X64642857Y-119823690D02*
X64642857Y-119490357D01*
X64642857Y-119585595D02*
X64666666Y-119537976D01*
X64690476Y-119514166D01*
X64738095Y-119490357D01*
X64785714Y-119490357D01*
X48047619Y-120628690D02*
X48047619Y-120128690D01*
X48261904Y-120628690D02*
X48261904Y-120366785D01*
X48238095Y-120319166D01*
X48190476Y-120295357D01*
X48119047Y-120295357D01*
X48071428Y-120319166D01*
X48047619Y-120342976D01*
X48428571Y-120295357D02*
X48619047Y-120295357D01*
X48500000Y-120128690D02*
X48500000Y-120557261D01*
X48523809Y-120604880D01*
X48571428Y-120628690D01*
X48619047Y-120628690D01*
X48714285Y-120295357D02*
X48904761Y-120295357D01*
X48785714Y-120128690D02*
X48785714Y-120557261D01*
X48809523Y-120604880D01*
X48857142Y-120628690D01*
X48904761Y-120628690D01*
X49071428Y-120295357D02*
X49071428Y-120795357D01*
X49071428Y-120319166D02*
X49119047Y-120295357D01*
X49214285Y-120295357D01*
X49261904Y-120319166D01*
X49285714Y-120342976D01*
X49309523Y-120390595D01*
X49309523Y-120533452D01*
X49285714Y-120581071D01*
X49261904Y-120604880D01*
X49214285Y-120628690D01*
X49119047Y-120628690D01*
X49071428Y-120604880D01*
X49500000Y-120604880D02*
X49547619Y-120628690D01*
X49642857Y-120628690D01*
X49690476Y-120604880D01*
X49714285Y-120557261D01*
X49714285Y-120533452D01*
X49690476Y-120485833D01*
X49642857Y-120462023D01*
X49571428Y-120462023D01*
X49523809Y-120438214D01*
X49500000Y-120390595D01*
X49500000Y-120366785D01*
X49523809Y-120319166D01*
X49571428Y-120295357D01*
X49642857Y-120295357D01*
X49690476Y-120319166D01*
X49928571Y-120581071D02*
X49952380Y-120604880D01*
X49928571Y-120628690D01*
X49904761Y-120604880D01*
X49928571Y-120581071D01*
X49928571Y-120628690D01*
X49928571Y-120319166D02*
X49952380Y-120342976D01*
X49928571Y-120366785D01*
X49904761Y-120342976D01*
X49928571Y-120319166D01*
X49928571Y-120366785D01*
X50523809Y-120104880D02*
X50095238Y-120747738D01*
X51047619Y-120104880D02*
X50619047Y-120747738D01*
X51428571Y-120295357D02*
X51428571Y-120700119D01*
X51404761Y-120747738D01*
X51380952Y-120771547D01*
X51333333Y-120795357D01*
X51261904Y-120795357D01*
X51214285Y-120771547D01*
X51428571Y-120604880D02*
X51380952Y-120628690D01*
X51285714Y-120628690D01*
X51238095Y-120604880D01*
X51214285Y-120581071D01*
X51190476Y-120533452D01*
X51190476Y-120390595D01*
X51214285Y-120342976D01*
X51238095Y-120319166D01*
X51285714Y-120295357D01*
X51380952Y-120295357D01*
X51428571Y-120319166D01*
X51666666Y-120628690D02*
X51666666Y-120295357D01*
X51666666Y-120128690D02*
X51642857Y-120152500D01*
X51666666Y-120176309D01*
X51690476Y-120152500D01*
X51666666Y-120128690D01*
X51666666Y-120176309D01*
X51833333Y-120295357D02*
X52023809Y-120295357D01*
X51904761Y-120128690D02*
X51904761Y-120557261D01*
X51928571Y-120604880D01*
X51976190Y-120628690D01*
X52023809Y-120628690D01*
X52190476Y-120628690D02*
X52190476Y-120128690D01*
X52404761Y-120628690D02*
X52404761Y-120366785D01*
X52380952Y-120319166D01*
X52333333Y-120295357D01*
X52261904Y-120295357D01*
X52214285Y-120319166D01*
X52190476Y-120342976D01*
X52857142Y-120295357D02*
X52857142Y-120628690D01*
X52642857Y-120295357D02*
X52642857Y-120557261D01*
X52666666Y-120604880D01*
X52714285Y-120628690D01*
X52785714Y-120628690D01*
X52833333Y-120604880D01*
X52857142Y-120581071D01*
X53095238Y-120628690D02*
X53095238Y-120128690D01*
X53095238Y-120319166D02*
X53142857Y-120295357D01*
X53238095Y-120295357D01*
X53285714Y-120319166D01*
X53309523Y-120342976D01*
X53333333Y-120390595D01*
X53333333Y-120533452D01*
X53309523Y-120581071D01*
X53285714Y-120604880D01*
X53238095Y-120628690D01*
X53142857Y-120628690D01*
X53095238Y-120604880D01*
X53547619Y-120581071D02*
X53571428Y-120604880D01*
X53547619Y-120628690D01*
X53523809Y-120604880D01*
X53547619Y-120581071D01*
X53547619Y-120628690D01*
X54000000Y-120604880D02*
X53952380Y-120628690D01*
X53857142Y-120628690D01*
X53809523Y-120604880D01*
X53785714Y-120581071D01*
X53761904Y-120533452D01*
X53761904Y-120390595D01*
X53785714Y-120342976D01*
X53809523Y-120319166D01*
X53857142Y-120295357D01*
X53952380Y-120295357D01*
X54000000Y-120319166D01*
X54285714Y-120628690D02*
X54238095Y-120604880D01*
X54214285Y-120581071D01*
X54190476Y-120533452D01*
X54190476Y-120390595D01*
X54214285Y-120342976D01*
X54238095Y-120319166D01*
X54285714Y-120295357D01*
X54357142Y-120295357D01*
X54404761Y-120319166D01*
X54428571Y-120342976D01*
X54452380Y-120390595D01*
X54452380Y-120533452D01*
X54428571Y-120581071D01*
X54404761Y-120604880D01*
X54357142Y-120628690D01*
X54285714Y-120628690D01*
X54666666Y-120628690D02*
X54666666Y-120295357D01*
X54666666Y-120342976D02*
X54690476Y-120319166D01*
X54738095Y-120295357D01*
X54809523Y-120295357D01*
X54857142Y-120319166D01*
X54880952Y-120366785D01*
X54880952Y-120628690D01*
X54880952Y-120366785D02*
X54904761Y-120319166D01*
X54952380Y-120295357D01*
X55023809Y-120295357D01*
X55071428Y-120319166D01*
X55095238Y-120366785D01*
X55095238Y-120628690D01*
X55690476Y-120104880D02*
X55261904Y-120747738D01*
X55952380Y-120128690D02*
X56047619Y-120128690D01*
X56095238Y-120152500D01*
X56142857Y-120200119D01*
X56166666Y-120295357D01*
X56166666Y-120462023D01*
X56142857Y-120557261D01*
X56095238Y-120604880D01*
X56047619Y-120628690D01*
X55952380Y-120628690D01*
X55904761Y-120604880D01*
X55857142Y-120557261D01*
X55833333Y-120462023D01*
X55833333Y-120295357D01*
X55857142Y-120200119D01*
X55904761Y-120152500D01*
X55952380Y-120128690D01*
X56380952Y-120295357D02*
X56380952Y-120795357D01*
X56380952Y-120319166D02*
X56428571Y-120295357D01*
X56523809Y-120295357D01*
X56571428Y-120319166D01*
X56595238Y-120342976D01*
X56619047Y-120390595D01*
X56619047Y-120533452D01*
X56595238Y-120581071D01*
X56571428Y-120604880D01*
X56523809Y-120628690D01*
X56428571Y-120628690D01*
X56380952Y-120604880D01*
X57023809Y-120604880D02*
X56976190Y-120628690D01*
X56880952Y-120628690D01*
X56833333Y-120604880D01*
X56809523Y-120557261D01*
X56809523Y-120366785D01*
X56833333Y-120319166D01*
X56880952Y-120295357D01*
X56976190Y-120295357D01*
X57023809Y-120319166D01*
X57047619Y-120366785D01*
X57047619Y-120414404D01*
X56809523Y-120462023D01*
X57261904Y-120295357D02*
X57261904Y-120628690D01*
X57261904Y-120342976D02*
X57285714Y-120319166D01*
X57333333Y-120295357D01*
X57404761Y-120295357D01*
X57452380Y-120319166D01*
X57476190Y-120366785D01*
X57476190Y-120628690D01*
X57714285Y-120438214D02*
X58095238Y-120438214D01*
X58309523Y-120176309D02*
X58333333Y-120152500D01*
X58380952Y-120128690D01*
X58500000Y-120128690D01*
X58547619Y-120152500D01*
X58571428Y-120176309D01*
X58595238Y-120223928D01*
X58595238Y-120271547D01*
X58571428Y-120342976D01*
X58285714Y-120628690D01*
X58595238Y-120628690D01*
X58809523Y-120438214D02*
X59190476Y-120438214D01*
X59428571Y-120628690D02*
X59428571Y-120128690D01*
X59619047Y-120128690D01*
X59666666Y-120152500D01*
X59690476Y-120176309D01*
X59714285Y-120223928D01*
X59714285Y-120295357D01*
X59690476Y-120342976D01*
X59666666Y-120366785D01*
X59619047Y-120390595D01*
X59428571Y-120390595D01*
X59928571Y-120628690D02*
X59928571Y-120128690D01*
X60142857Y-120628690D02*
X60142857Y-120366785D01*
X60119047Y-120319166D01*
X60071428Y-120295357D01*
X60000000Y-120295357D01*
X59952380Y-120319166D01*
X59928571Y-120342976D01*
X60452380Y-120628690D02*
X60404761Y-120604880D01*
X60380952Y-120581071D01*
X60357142Y-120533452D01*
X60357142Y-120390595D01*
X60380952Y-120342976D01*
X60404761Y-120319166D01*
X60452380Y-120295357D01*
X60523809Y-120295357D01*
X60571428Y-120319166D01*
X60595238Y-120342976D01*
X60619047Y-120390595D01*
X60619047Y-120533452D01*
X60595238Y-120581071D01*
X60571428Y-120604880D01*
X60523809Y-120628690D01*
X60452380Y-120628690D01*
X60761904Y-120295357D02*
X60952380Y-120295357D01*
X60833333Y-120128690D02*
X60833333Y-120557261D01*
X60857142Y-120604880D01*
X60904761Y-120628690D01*
X60952380Y-120628690D01*
X61190476Y-120628690D02*
X61142857Y-120604880D01*
X61119047Y-120581071D01*
X61095238Y-120533452D01*
X61095238Y-120390595D01*
X61119047Y-120342976D01*
X61142857Y-120319166D01*
X61190476Y-120295357D01*
X61261904Y-120295357D01*
X61309523Y-120319166D01*
X61333333Y-120342976D01*
X61357142Y-120390595D01*
X61357142Y-120533452D01*
X61333333Y-120581071D01*
X61309523Y-120604880D01*
X61261904Y-120628690D01*
X61190476Y-120628690D01*
X61571428Y-120295357D02*
X61571428Y-120628690D01*
X61571428Y-120342976D02*
X61595238Y-120319166D01*
X61642857Y-120295357D01*
X61714285Y-120295357D01*
X61761904Y-120319166D01*
X61785714Y-120366785D01*
X61785714Y-120628690D01*
X62023809Y-120438214D02*
X62404761Y-120438214D01*
X62642857Y-120628690D02*
X62642857Y-120128690D01*
X62809523Y-120485833D01*
X62976190Y-120128690D01*
X62976190Y-120628690D01*
X63214285Y-120628690D02*
X63214285Y-120295357D01*
X63214285Y-120128690D02*
X63190476Y-120152500D01*
X63214285Y-120176309D01*
X63238095Y-120152500D01*
X63214285Y-120128690D01*
X63214285Y-120176309D01*
X63666666Y-120604880D02*
X63619047Y-120628690D01*
X63523809Y-120628690D01*
X63476190Y-120604880D01*
X63452380Y-120581071D01*
X63428571Y-120533452D01*
X63428571Y-120390595D01*
X63452380Y-120342976D01*
X63476190Y-120319166D01*
X63523809Y-120295357D01*
X63619047Y-120295357D01*
X63666666Y-120319166D01*
X63880952Y-120628690D02*
X63880952Y-120295357D01*
X63880952Y-120390595D02*
X63904761Y-120342976D01*
X63928571Y-120319166D01*
X63976190Y-120295357D01*
X64023809Y-120295357D01*
X64261904Y-120628690D02*
X64214285Y-120604880D01*
X64190476Y-120581071D01*
X64166666Y-120533452D01*
X64166666Y-120390595D01*
X64190476Y-120342976D01*
X64214285Y-120319166D01*
X64261904Y-120295357D01*
X64333333Y-120295357D01*
X64380952Y-120319166D01*
X64404761Y-120342976D01*
X64428571Y-120390595D01*
X64428571Y-120533452D01*
X64404761Y-120581071D01*
X64380952Y-120604880D01*
X64333333Y-120628690D01*
X64261904Y-120628690D01*
X64619047Y-120604880D02*
X64666666Y-120628690D01*
X64761904Y-120628690D01*
X64809523Y-120604880D01*
X64833333Y-120557261D01*
X64833333Y-120533452D01*
X64809523Y-120485833D01*
X64761904Y-120462023D01*
X64690476Y-120462023D01*
X64642857Y-120438214D01*
X64619047Y-120390595D01*
X64619047Y-120366785D01*
X64642857Y-120319166D01*
X64690476Y-120295357D01*
X64761904Y-120295357D01*
X64809523Y-120319166D01*
X65261904Y-120604880D02*
X65214285Y-120628690D01*
X65119047Y-120628690D01*
X65071428Y-120604880D01*
X65047619Y-120581071D01*
X65023809Y-120533452D01*
X65023809Y-120390595D01*
X65047619Y-120342976D01*
X65071428Y-120319166D01*
X65119047Y-120295357D01*
X65214285Y-120295357D01*
X65261904Y-120319166D01*
X65547619Y-120628690D02*
X65500000Y-120604880D01*
X65476190Y-120581071D01*
X65452380Y-120533452D01*
X65452380Y-120390595D01*
X65476190Y-120342976D01*
X65500000Y-120319166D01*
X65547619Y-120295357D01*
X65619047Y-120295357D01*
X65666666Y-120319166D01*
X65690476Y-120342976D01*
X65714285Y-120390595D01*
X65714285Y-120533452D01*
X65690476Y-120581071D01*
X65666666Y-120604880D01*
X65619047Y-120628690D01*
X65547619Y-120628690D01*
X65928571Y-120295357D02*
X65928571Y-120795357D01*
X65928571Y-120319166D02*
X65976190Y-120295357D01*
X66071428Y-120295357D01*
X66119047Y-120319166D01*
X66142857Y-120342976D01*
X66166666Y-120390595D01*
X66166666Y-120533452D01*
X66142857Y-120581071D01*
X66119047Y-120604880D01*
X66071428Y-120628690D01*
X65976190Y-120628690D01*
X65928571Y-120604880D01*
X66571428Y-120604880D02*
X66523809Y-120628690D01*
X66428571Y-120628690D01*
X66380952Y-120604880D01*
X66357142Y-120557261D01*
X66357142Y-120366785D01*
X66380952Y-120319166D01*
X66428571Y-120295357D01*
X66523809Y-120295357D01*
X66571428Y-120319166D01*
X66595238Y-120366785D01*
X66595238Y-120414404D01*
X66357142Y-120462023D01*
X67166666Y-120104880D02*
X66738095Y-120747738D01*
X67285714Y-120128690D02*
X67595238Y-120128690D01*
X67428571Y-120319166D01*
X67500000Y-120319166D01*
X67547619Y-120342976D01*
X67571428Y-120366785D01*
X67595238Y-120414404D01*
X67595238Y-120533452D01*
X67571428Y-120581071D01*
X67547619Y-120604880D01*
X67500000Y-120628690D01*
X67357142Y-120628690D01*
X67309523Y-120604880D01*
X67285714Y-120581071D01*
X67809523Y-120438214D02*
X68190476Y-120438214D01*
X68642857Y-120628690D02*
X68642857Y-120366785D01*
X68619047Y-120319166D01*
X68571428Y-120295357D01*
X68476190Y-120295357D01*
X68428571Y-120319166D01*
X68642857Y-120604880D02*
X68595238Y-120628690D01*
X68476190Y-120628690D01*
X68428571Y-120604880D01*
X68404761Y-120557261D01*
X68404761Y-120509642D01*
X68428571Y-120462023D01*
X68476190Y-120438214D01*
X68595238Y-120438214D01*
X68642857Y-120414404D01*
X68833333Y-120628690D02*
X69095238Y-120295357D01*
X68833333Y-120295357D02*
X69095238Y-120628690D01*
X69285714Y-120628690D02*
X69285714Y-120295357D01*
X69285714Y-120128690D02*
X69261904Y-120152500D01*
X69285714Y-120176309D01*
X69309523Y-120152500D01*
X69285714Y-120128690D01*
X69285714Y-120176309D01*
X69500000Y-120604880D02*
X69547619Y-120628690D01*
X69642857Y-120628690D01*
X69690476Y-120604880D01*
X69714285Y-120557261D01*
X69714285Y-120533452D01*
X69690476Y-120485833D01*
X69642857Y-120462023D01*
X69571428Y-120462023D01*
X69523809Y-120438214D01*
X69500000Y-120390595D01*
X69500000Y-120366785D01*
X69523809Y-120319166D01*
X69571428Y-120295357D01*
X69642857Y-120295357D01*
X69690476Y-120319166D01*
X69928571Y-120438214D02*
X70309523Y-120438214D01*
X70761904Y-120604880D02*
X70714285Y-120628690D01*
X70619047Y-120628690D01*
X70571428Y-120604880D01*
X70547619Y-120581071D01*
X70523809Y-120533452D01*
X70523809Y-120390595D01*
X70547619Y-120342976D01*
X70571428Y-120319166D01*
X70619047Y-120295357D01*
X70714285Y-120295357D01*
X70761904Y-120319166D01*
X71047619Y-120628690D02*
X71000000Y-120604880D01*
X70976190Y-120581071D01*
X70952380Y-120533452D01*
X70952380Y-120390595D01*
X70976190Y-120342976D01*
X71000000Y-120319166D01*
X71047619Y-120295357D01*
X71119047Y-120295357D01*
X71166666Y-120319166D01*
X71190476Y-120342976D01*
X71214285Y-120390595D01*
X71214285Y-120533452D01*
X71190476Y-120581071D01*
X71166666Y-120604880D01*
X71119047Y-120628690D01*
X71047619Y-120628690D01*
X71428571Y-120295357D02*
X71428571Y-120628690D01*
X71428571Y-120342976D02*
X71452380Y-120319166D01*
X71500000Y-120295357D01*
X71571428Y-120295357D01*
X71619047Y-120319166D01*
X71642857Y-120366785D01*
X71642857Y-120628690D01*
X71809523Y-120295357D02*
X72000000Y-120295357D01*
X71880952Y-120128690D02*
X71880952Y-120557261D01*
X71904761Y-120604880D01*
X71952380Y-120628690D01*
X72000000Y-120628690D01*
X72166666Y-120628690D02*
X72166666Y-120295357D01*
X72166666Y-120390595D02*
X72190476Y-120342976D01*
X72214285Y-120319166D01*
X72261904Y-120295357D01*
X72309523Y-120295357D01*
X72547619Y-120628690D02*
X72500000Y-120604880D01*
X72476190Y-120581071D01*
X72452380Y-120533452D01*
X72452380Y-120390595D01*
X72476190Y-120342976D01*
X72500000Y-120319166D01*
X72547619Y-120295357D01*
X72619047Y-120295357D01*
X72666666Y-120319166D01*
X72690476Y-120342976D01*
X72714285Y-120390595D01*
X72714285Y-120533452D01*
X72690476Y-120581071D01*
X72666666Y-120604880D01*
X72619047Y-120628690D01*
X72547619Y-120628690D01*
X73000000Y-120628690D02*
X72952380Y-120604880D01*
X72928571Y-120557261D01*
X72928571Y-120128690D01*
X73261904Y-120628690D02*
X73214285Y-120604880D01*
X73190476Y-120557261D01*
X73190476Y-120128690D01*
X73642857Y-120604880D02*
X73595238Y-120628690D01*
X73500000Y-120628690D01*
X73452380Y-120604880D01*
X73428571Y-120557261D01*
X73428571Y-120366785D01*
X73452380Y-120319166D01*
X73500000Y-120295357D01*
X73595238Y-120295357D01*
X73642857Y-120319166D01*
X73666666Y-120366785D01*
X73666666Y-120414404D01*
X73428571Y-120462023D01*
X73880952Y-120628690D02*
X73880952Y-120295357D01*
X73880952Y-120390595D02*
X73904761Y-120342976D01*
X73928571Y-120319166D01*
X73976190Y-120295357D01*
X74023809Y-120295357D01*
X55440476Y-70823690D02*
X55440476Y-70323690D01*
X55440476Y-70514166D02*
X55488095Y-70490357D01*
X55583333Y-70490357D01*
X55630952Y-70514166D01*
X55654761Y-70537976D01*
X55678571Y-70585595D01*
X55678571Y-70728452D01*
X55654761Y-70776071D01*
X55630952Y-70799880D01*
X55583333Y-70823690D01*
X55488095Y-70823690D01*
X55440476Y-70799880D01*
X55964285Y-70823690D02*
X55916666Y-70799880D01*
X55892857Y-70776071D01*
X55869047Y-70728452D01*
X55869047Y-70585595D01*
X55892857Y-70537976D01*
X55916666Y-70514166D01*
X55964285Y-70490357D01*
X56035714Y-70490357D01*
X56083333Y-70514166D01*
X56107142Y-70537976D01*
X56130952Y-70585595D01*
X56130952Y-70728452D01*
X56107142Y-70776071D01*
X56083333Y-70799880D01*
X56035714Y-70823690D01*
X55964285Y-70823690D01*
X56559523Y-70823690D02*
X56559523Y-70561785D01*
X56535714Y-70514166D01*
X56488095Y-70490357D01*
X56392857Y-70490357D01*
X56345238Y-70514166D01*
X56559523Y-70799880D02*
X56511904Y-70823690D01*
X56392857Y-70823690D01*
X56345238Y-70799880D01*
X56321428Y-70752261D01*
X56321428Y-70704642D01*
X56345238Y-70657023D01*
X56392857Y-70633214D01*
X56511904Y-70633214D01*
X56559523Y-70609404D01*
X56797619Y-70823690D02*
X56797619Y-70490357D01*
X56797619Y-70585595D02*
X56821428Y-70537976D01*
X56845238Y-70514166D01*
X56892857Y-70490357D01*
X56940476Y-70490357D01*
X57321428Y-70823690D02*
X57321428Y-70323690D01*
X57321428Y-70799880D02*
X57273809Y-70823690D01*
X57178571Y-70823690D01*
X57130952Y-70799880D01*
X57107142Y-70776071D01*
X57083333Y-70728452D01*
X57083333Y-70585595D01*
X57107142Y-70537976D01*
X57130952Y-70514166D01*
X57178571Y-70490357D01*
X57273809Y-70490357D01*
X57321428Y-70514166D01*
X57940476Y-70823690D02*
X57940476Y-70323690D01*
X57940476Y-70514166D02*
X57988095Y-70490357D01*
X58083333Y-70490357D01*
X58130952Y-70514166D01*
X58154761Y-70537976D01*
X58178571Y-70585595D01*
X58178571Y-70728452D01*
X58154761Y-70776071D01*
X58130952Y-70799880D01*
X58083333Y-70823690D01*
X57988095Y-70823690D01*
X57940476Y-70799880D01*
X58345238Y-70490357D02*
X58464285Y-70823690D01*
X58583333Y-70490357D02*
X58464285Y-70823690D01*
X58416666Y-70942738D01*
X58392857Y-70966547D01*
X58345238Y-70990357D01*
X59130952Y-70680833D02*
X59369047Y-70680833D01*
X59083333Y-70823690D02*
X59249999Y-70323690D01*
X59416666Y-70823690D01*
X59583333Y-70490357D02*
X59583333Y-70823690D01*
X59583333Y-70537976D02*
X59607142Y-70514166D01*
X59654761Y-70490357D01*
X59726190Y-70490357D01*
X59773809Y-70514166D01*
X59797619Y-70561785D01*
X59797619Y-70823690D01*
X60249999Y-70823690D02*
X60249999Y-70323690D01*
X60249999Y-70799880D02*
X60202380Y-70823690D01*
X60107142Y-70823690D01*
X60059523Y-70799880D01*
X60035714Y-70776071D01*
X60011904Y-70728452D01*
X60011904Y-70585595D01*
X60035714Y-70537976D01*
X60059523Y-70514166D01*
X60107142Y-70490357D01*
X60202380Y-70490357D01*
X60249999Y-70514166D01*
X60488095Y-70823690D02*
X60488095Y-70490357D01*
X60488095Y-70585595D02*
X60511904Y-70537976D01*
X60535714Y-70514166D01*
X60583333Y-70490357D01*
X60630952Y-70490357D01*
X60988095Y-70799880D02*
X60940476Y-70823690D01*
X60845238Y-70823690D01*
X60797619Y-70799880D01*
X60773809Y-70752261D01*
X60773809Y-70561785D01*
X60797619Y-70514166D01*
X60845238Y-70490357D01*
X60940476Y-70490357D01*
X60988095Y-70514166D01*
X61011904Y-70561785D01*
X61011904Y-70609404D01*
X60773809Y-70657023D01*
X61607142Y-70823690D02*
X61607142Y-70323690D01*
X61773809Y-70680833D01*
X61940476Y-70323690D01*
X61940476Y-70823690D01*
X62392857Y-70823690D02*
X62392857Y-70561785D01*
X62369047Y-70514166D01*
X62321428Y-70490357D01*
X62226190Y-70490357D01*
X62178571Y-70514166D01*
X62392857Y-70799880D02*
X62345238Y-70823690D01*
X62226190Y-70823690D01*
X62178571Y-70799880D01*
X62154761Y-70752261D01*
X62154761Y-70704642D01*
X62178571Y-70657023D01*
X62226190Y-70633214D01*
X62345238Y-70633214D01*
X62392857Y-70609404D01*
X62630952Y-70823690D02*
X62630952Y-70490357D01*
X62630952Y-70323690D02*
X62607142Y-70347500D01*
X62630952Y-70371309D01*
X62654761Y-70347500D01*
X62630952Y-70323690D01*
X62630952Y-70371309D01*
X63083333Y-70823690D02*
X63083333Y-70561785D01*
X63059523Y-70514166D01*
X63011904Y-70490357D01*
X62916666Y-70490357D01*
X62869047Y-70514166D01*
X63083333Y-70799880D02*
X63035714Y-70823690D01*
X62916666Y-70823690D01*
X62869047Y-70799880D01*
X62845238Y-70752261D01*
X62845238Y-70704642D01*
X62869047Y-70657023D01*
X62916666Y-70633214D01*
X63035714Y-70633214D01*
X63083333Y-70609404D01*
X63988095Y-70776071D02*
X63964285Y-70799880D01*
X63892857Y-70823690D01*
X63845238Y-70823690D01*
X63773809Y-70799880D01*
X63726190Y-70752261D01*
X63702380Y-70704642D01*
X63678571Y-70609404D01*
X63678571Y-70537976D01*
X63702380Y-70442738D01*
X63726190Y-70395119D01*
X63773809Y-70347500D01*
X63845238Y-70323690D01*
X63892857Y-70323690D01*
X63964285Y-70347500D01*
X63988095Y-70371309D01*
X64202380Y-70823690D02*
X64202380Y-70323690D01*
X64416666Y-70823690D02*
X64416666Y-70561785D01*
X64392857Y-70514166D01*
X64345238Y-70490357D01*
X64273809Y-70490357D01*
X64226190Y-70514166D01*
X64202380Y-70537976D01*
X64869047Y-70823690D02*
X64869047Y-70561785D01*
X64845238Y-70514166D01*
X64797619Y-70490357D01*
X64702380Y-70490357D01*
X64654761Y-70514166D01*
X64869047Y-70799880D02*
X64821428Y-70823690D01*
X64702380Y-70823690D01*
X64654761Y-70799880D01*
X64630952Y-70752261D01*
X64630952Y-70704642D01*
X64654761Y-70657023D01*
X64702380Y-70633214D01*
X64821428Y-70633214D01*
X64869047Y-70609404D01*
X65321428Y-70490357D02*
X65321428Y-70895119D01*
X65297619Y-70942738D01*
X65273809Y-70966547D01*
X65226190Y-70990357D01*
X65154761Y-70990357D01*
X65107142Y-70966547D01*
X65321428Y-70799880D02*
X65273809Y-70823690D01*
X65178571Y-70823690D01*
X65130952Y-70799880D01*
X65107142Y-70776071D01*
X65083333Y-70728452D01*
X65083333Y-70585595D01*
X65107142Y-70537976D01*
X65130952Y-70514166D01*
X65178571Y-70490357D01*
X65273809Y-70490357D01*
X65321428Y-70514166D01*
X65773809Y-70823690D02*
X65773809Y-70561785D01*
X65749999Y-70514166D01*
X65702380Y-70490357D01*
X65607142Y-70490357D01*
X65559523Y-70514166D01*
X65773809Y-70799880D02*
X65726190Y-70823690D01*
X65607142Y-70823690D01*
X65559523Y-70799880D01*
X65535714Y-70752261D01*
X65535714Y-70704642D01*
X65559523Y-70657023D01*
X65607142Y-70633214D01*
X65726190Y-70633214D01*
X65773809Y-70609404D01*
X65988095Y-70799880D02*
X66035714Y-70823690D01*
X66130952Y-70823690D01*
X66178571Y-70799880D01*
X66202380Y-70752261D01*
X66202380Y-70728452D01*
X66178571Y-70680833D01*
X66130952Y-70657023D01*
X66059523Y-70657023D01*
X66011904Y-70633214D01*
X65988095Y-70585595D01*
X65988095Y-70561785D01*
X66011904Y-70514166D01*
X66059523Y-70490357D01*
X66130952Y-70490357D01*
X66178571Y-70514166D01*
X57392857Y-71628690D02*
X57392857Y-71366785D01*
X57369047Y-71319166D01*
X57321428Y-71295357D01*
X57226190Y-71295357D01*
X57178571Y-71319166D01*
X57392857Y-71604880D02*
X57345238Y-71628690D01*
X57226190Y-71628690D01*
X57178571Y-71604880D01*
X57154761Y-71557261D01*
X57154761Y-71509642D01*
X57178571Y-71462023D01*
X57226190Y-71438214D01*
X57345238Y-71438214D01*
X57392857Y-71414404D01*
X57630952Y-71295357D02*
X57630952Y-71628690D01*
X57630952Y-71342976D02*
X57654761Y-71319166D01*
X57702380Y-71295357D01*
X57773809Y-71295357D01*
X57821428Y-71319166D01*
X57845238Y-71366785D01*
X57845238Y-71628690D01*
X58297619Y-71628690D02*
X58297619Y-71128690D01*
X58297619Y-71604880D02*
X58250000Y-71628690D01*
X58154761Y-71628690D01*
X58107142Y-71604880D01*
X58083333Y-71581071D01*
X58059523Y-71533452D01*
X58059523Y-71390595D01*
X58083333Y-71342976D01*
X58107142Y-71319166D01*
X58154761Y-71295357D01*
X58250000Y-71295357D01*
X58297619Y-71319166D01*
X58916666Y-71366785D02*
X59083333Y-71366785D01*
X59154761Y-71628690D02*
X58916666Y-71628690D01*
X58916666Y-71128690D01*
X59154761Y-71128690D01*
X59583333Y-71295357D02*
X59583333Y-71700119D01*
X59559523Y-71747738D01*
X59535714Y-71771547D01*
X59488095Y-71795357D01*
X59416666Y-71795357D01*
X59369047Y-71771547D01*
X59583333Y-71604880D02*
X59535714Y-71628690D01*
X59440476Y-71628690D01*
X59392857Y-71604880D01*
X59369047Y-71581071D01*
X59345238Y-71533452D01*
X59345238Y-71390595D01*
X59369047Y-71342976D01*
X59392857Y-71319166D01*
X59440476Y-71295357D01*
X59535714Y-71295357D01*
X59583333Y-71319166D01*
X59892857Y-71628690D02*
X59845238Y-71604880D01*
X59821428Y-71557261D01*
X59821428Y-71128690D01*
X60297619Y-71628690D02*
X60297619Y-71366785D01*
X60273809Y-71319166D01*
X60226190Y-71295357D01*
X60130952Y-71295357D01*
X60083333Y-71319166D01*
X60297619Y-71604880D02*
X60250000Y-71628690D01*
X60130952Y-71628690D01*
X60083333Y-71604880D01*
X60059523Y-71557261D01*
X60059523Y-71509642D01*
X60083333Y-71462023D01*
X60130952Y-71438214D01*
X60250000Y-71438214D01*
X60297619Y-71414404D01*
X60535714Y-71295357D02*
X60535714Y-71628690D01*
X60535714Y-71342976D02*
X60559523Y-71319166D01*
X60607142Y-71295357D01*
X60678571Y-71295357D01*
X60726190Y-71319166D01*
X60750000Y-71366785D01*
X60750000Y-71628690D01*
X60916666Y-71295357D02*
X61107142Y-71295357D01*
X60988095Y-71128690D02*
X60988095Y-71557261D01*
X61011904Y-71604880D01*
X61059523Y-71628690D01*
X61107142Y-71628690D01*
X61273809Y-71628690D02*
X61273809Y-71295357D01*
X61273809Y-71128690D02*
X61250000Y-71152500D01*
X61273809Y-71176309D01*
X61297619Y-71152500D01*
X61273809Y-71128690D01*
X61273809Y-71176309D01*
X61511904Y-71295357D02*
X61511904Y-71628690D01*
X61511904Y-71342976D02*
X61535714Y-71319166D01*
X61583333Y-71295357D01*
X61654761Y-71295357D01*
X61702380Y-71319166D01*
X61726190Y-71366785D01*
X61726190Y-71628690D01*
X62154761Y-71604880D02*
X62107142Y-71628690D01*
X62011904Y-71628690D01*
X61964285Y-71604880D01*
X61940476Y-71557261D01*
X61940476Y-71366785D01*
X61964285Y-71319166D01*
X62011904Y-71295357D01*
X62107142Y-71295357D01*
X62154761Y-71319166D01*
X62178571Y-71366785D01*
X62178571Y-71414404D01*
X61940476Y-71462023D01*
X62702380Y-71128690D02*
X62869047Y-71628690D01*
X63035714Y-71128690D01*
X63202380Y-71628690D02*
X63202380Y-71295357D01*
X63202380Y-71128690D02*
X63178571Y-71152500D01*
X63202380Y-71176309D01*
X63226190Y-71152500D01*
X63202380Y-71128690D01*
X63202380Y-71176309D01*
X63654761Y-71295357D02*
X63654761Y-71700119D01*
X63630952Y-71747738D01*
X63607142Y-71771547D01*
X63559523Y-71795357D01*
X63488095Y-71795357D01*
X63440476Y-71771547D01*
X63654761Y-71604880D02*
X63607142Y-71628690D01*
X63511904Y-71628690D01*
X63464285Y-71604880D01*
X63440476Y-71581071D01*
X63416666Y-71533452D01*
X63416666Y-71390595D01*
X63440476Y-71342976D01*
X63464285Y-71319166D01*
X63511904Y-71295357D01*
X63607142Y-71295357D01*
X63654761Y-71319166D01*
X63892857Y-71295357D02*
X63892857Y-71628690D01*
X63892857Y-71342976D02*
X63916666Y-71319166D01*
X63964285Y-71295357D01*
X64035714Y-71295357D01*
X64083333Y-71319166D01*
X64107142Y-71366785D01*
X64107142Y-71628690D01*
X64559523Y-71628690D02*
X64559523Y-71366785D01*
X64535714Y-71319166D01*
X64488095Y-71295357D01*
X64392857Y-71295357D01*
X64345238Y-71319166D01*
X64559523Y-71604880D02*
X64511904Y-71628690D01*
X64392857Y-71628690D01*
X64345238Y-71604880D01*
X64321428Y-71557261D01*
X64321428Y-71509642D01*
X64345238Y-71462023D01*
X64392857Y-71438214D01*
X64511904Y-71438214D01*
X64559523Y-71414404D01*
X64869047Y-71628690D02*
X64821428Y-71604880D01*
X64797619Y-71557261D01*
X64797619Y-71128690D01*
X79676309Y-98142857D02*
X79176309Y-98309523D01*
X79676309Y-98476190D01*
X79176309Y-98714285D02*
X79200119Y-98666666D01*
X79223928Y-98642857D01*
X79271547Y-98619047D01*
X79414404Y-98619047D01*
X79462023Y-98642857D01*
X79485833Y-98666666D01*
X79509642Y-98714285D01*
X79509642Y-98785714D01*
X79485833Y-98833333D01*
X79462023Y-98857142D01*
X79414404Y-98880952D01*
X79271547Y-98880952D01*
X79223928Y-98857142D01*
X79200119Y-98833333D01*
X79176309Y-98785714D01*
X79176309Y-98714285D01*
X79176309Y-99166666D02*
X79200119Y-99119047D01*
X79247738Y-99095238D01*
X79676309Y-99095238D01*
X79509642Y-99285714D02*
X79509642Y-99476190D01*
X79676309Y-99357142D02*
X79247738Y-99357142D01*
X79200119Y-99380952D01*
X79176309Y-99428571D01*
X79176309Y-99476190D01*
X79176309Y-99857142D02*
X79438214Y-99857142D01*
X79485833Y-99833333D01*
X79509642Y-99785714D01*
X79509642Y-99690476D01*
X79485833Y-99642857D01*
X79200119Y-99857142D02*
X79176309Y-99809523D01*
X79176309Y-99690476D01*
X79200119Y-99642857D01*
X79247738Y-99619047D01*
X79295357Y-99619047D01*
X79342976Y-99642857D01*
X79366785Y-99690476D01*
X79366785Y-99809523D01*
X79390595Y-99857142D01*
X79509642Y-100309523D02*
X79104880Y-100309523D01*
X79057261Y-100285714D01*
X79033452Y-100261904D01*
X79009642Y-100214285D01*
X79009642Y-100142857D01*
X79033452Y-100095238D01*
X79200119Y-100309523D02*
X79176309Y-100261904D01*
X79176309Y-100166666D01*
X79200119Y-100119047D01*
X79223928Y-100095238D01*
X79271547Y-100071428D01*
X79414404Y-100071428D01*
X79462023Y-100095238D01*
X79485833Y-100119047D01*
X79509642Y-100166666D01*
X79509642Y-100261904D01*
X79485833Y-100309523D01*
X79200119Y-100738095D02*
X79176309Y-100690476D01*
X79176309Y-100595238D01*
X79200119Y-100547619D01*
X79247738Y-100523809D01*
X79438214Y-100523809D01*
X79485833Y-100547619D01*
X79509642Y-100595238D01*
X79509642Y-100690476D01*
X79485833Y-100738095D01*
X79438214Y-100761904D01*
X79390595Y-100761904D01*
X79342976Y-100523809D01*
X79176309Y-101571428D02*
X79676309Y-101571428D01*
X79200119Y-101571428D02*
X79176309Y-101523809D01*
X79176309Y-101428571D01*
X79200119Y-101380952D01*
X79223928Y-101357142D01*
X79271547Y-101333333D01*
X79414404Y-101333333D01*
X79462023Y-101357142D01*
X79485833Y-101380952D01*
X79509642Y-101428571D01*
X79509642Y-101523809D01*
X79485833Y-101571428D01*
X79176309Y-101809523D02*
X79509642Y-101809523D01*
X79676309Y-101809523D02*
X79652500Y-101785714D01*
X79628690Y-101809523D01*
X79652500Y-101833333D01*
X79676309Y-101809523D01*
X79628690Y-101809523D01*
X79509642Y-102000000D02*
X79176309Y-102119047D01*
X79509642Y-102238095D01*
X79176309Y-102428571D02*
X79509642Y-102428571D01*
X79676309Y-102428571D02*
X79652500Y-102404761D01*
X79628690Y-102428571D01*
X79652500Y-102452380D01*
X79676309Y-102428571D01*
X79628690Y-102428571D01*
X79176309Y-102880952D02*
X79676309Y-102880952D01*
X79200119Y-102880952D02*
X79176309Y-102833333D01*
X79176309Y-102738095D01*
X79200119Y-102690476D01*
X79223928Y-102666666D01*
X79271547Y-102642857D01*
X79414404Y-102642857D01*
X79462023Y-102666666D01*
X79485833Y-102690476D01*
X79509642Y-102738095D01*
X79509642Y-102833333D01*
X79485833Y-102880952D01*
X79200119Y-103309523D02*
X79176309Y-103261904D01*
X79176309Y-103166666D01*
X79200119Y-103119047D01*
X79247738Y-103095238D01*
X79438214Y-103095238D01*
X79485833Y-103119047D01*
X79509642Y-103166666D01*
X79509642Y-103261904D01*
X79485833Y-103309523D01*
X79438214Y-103333333D01*
X79390595Y-103333333D01*
X79342976Y-103095238D01*
X79176309Y-103547619D02*
X79509642Y-103547619D01*
X79414404Y-103547619D02*
X79462023Y-103571428D01*
X79485833Y-103595238D01*
X79509642Y-103642857D01*
X79509642Y-103690476D01*
X79509642Y-104166666D02*
X79509642Y-104357142D01*
X79176309Y-104238095D02*
X79604880Y-104238095D01*
X79652500Y-104261904D01*
X79676309Y-104309523D01*
X79676309Y-104357142D01*
X79176309Y-104523809D02*
X79509642Y-104523809D01*
X79414404Y-104523809D02*
X79462023Y-104547619D01*
X79485833Y-104571428D01*
X79509642Y-104619047D01*
X79509642Y-104666666D01*
X79176309Y-104904761D02*
X79200119Y-104857142D01*
X79223928Y-104833333D01*
X79271547Y-104809523D01*
X79414404Y-104809523D01*
X79462023Y-104833333D01*
X79485833Y-104857142D01*
X79509642Y-104904761D01*
X79509642Y-104976190D01*
X79485833Y-105023809D01*
X79462023Y-105047619D01*
X79414404Y-105071428D01*
X79271547Y-105071428D01*
X79223928Y-105047619D01*
X79200119Y-105023809D01*
X79176309Y-104976190D01*
X79176309Y-104904761D01*
X79176309Y-105285714D02*
X79509642Y-105285714D01*
X79462023Y-105285714D02*
X79485833Y-105309523D01*
X79509642Y-105357142D01*
X79509642Y-105428571D01*
X79485833Y-105476190D01*
X79438214Y-105500000D01*
X79176309Y-105500000D01*
X79438214Y-105500000D02*
X79485833Y-105523809D01*
X79509642Y-105571428D01*
X79509642Y-105642857D01*
X79485833Y-105690476D01*
X79438214Y-105714285D01*
X79176309Y-105714285D01*
X79676309Y-106571428D02*
X79676309Y-106333333D01*
X79438214Y-106309523D01*
X79462023Y-106333333D01*
X79485833Y-106380952D01*
X79485833Y-106500000D01*
X79462023Y-106547619D01*
X79438214Y-106571428D01*
X79390595Y-106595238D01*
X79271547Y-106595238D01*
X79223928Y-106571428D01*
X79200119Y-106547619D01*
X79176309Y-106500000D01*
X79176309Y-106380952D01*
X79200119Y-106333333D01*
X79223928Y-106309523D01*
X79676309Y-106738095D02*
X79176309Y-106904761D01*
X79676309Y-107071428D01*
X79509642Y-107547619D02*
X79509642Y-107738095D01*
X79676309Y-107619047D02*
X79247738Y-107619047D01*
X79200119Y-107642857D01*
X79176309Y-107690476D01*
X79176309Y-107738095D01*
X79176309Y-107976190D02*
X79200119Y-107928571D01*
X79223928Y-107904761D01*
X79271547Y-107880952D01*
X79414404Y-107880952D01*
X79462023Y-107904761D01*
X79485833Y-107928571D01*
X79509642Y-107976190D01*
X79509642Y-108047619D01*
X79485833Y-108095238D01*
X79462023Y-108119047D01*
X79414404Y-108142857D01*
X79271547Y-108142857D01*
X79223928Y-108119047D01*
X79200119Y-108095238D01*
X79176309Y-108047619D01*
X79176309Y-107976190D01*
X79676309Y-108690476D02*
X79676309Y-108999999D01*
X79485833Y-108833333D01*
X79485833Y-108904761D01*
X79462023Y-108952380D01*
X79438214Y-108976190D01*
X79390595Y-108999999D01*
X79271547Y-108999999D01*
X79223928Y-108976190D01*
X79200119Y-108952380D01*
X79176309Y-108904761D01*
X79176309Y-108761904D01*
X79200119Y-108714285D01*
X79223928Y-108690476D01*
X79676309Y-109142857D02*
X79176309Y-109309523D01*
X79676309Y-109476190D01*
X78704642Y-97000000D02*
X78704642Y-97190476D01*
X78371309Y-97071428D02*
X78799880Y-97071428D01*
X78847500Y-97095238D01*
X78871309Y-97142857D01*
X78871309Y-97190476D01*
X78371309Y-97428571D02*
X78395119Y-97380952D01*
X78418928Y-97357142D01*
X78466547Y-97333333D01*
X78609404Y-97333333D01*
X78657023Y-97357142D01*
X78680833Y-97380952D01*
X78704642Y-97428571D01*
X78704642Y-97500000D01*
X78680833Y-97547619D01*
X78657023Y-97571428D01*
X78609404Y-97595238D01*
X78466547Y-97595238D01*
X78418928Y-97571428D01*
X78395119Y-97547619D01*
X78371309Y-97500000D01*
X78371309Y-97428571D01*
X78371309Y-97809523D02*
X78704642Y-97809523D01*
X78609404Y-97809523D02*
X78657023Y-97833333D01*
X78680833Y-97857142D01*
X78704642Y-97904761D01*
X78704642Y-97952380D01*
X78704642Y-98428571D02*
X78704642Y-98619047D01*
X78871309Y-98500000D02*
X78442738Y-98500000D01*
X78395119Y-98523809D01*
X78371309Y-98571428D01*
X78371309Y-98619047D01*
X78371309Y-98785714D02*
X78871309Y-98785714D01*
X78371309Y-99000000D02*
X78633214Y-99000000D01*
X78680833Y-98976190D01*
X78704642Y-98928571D01*
X78704642Y-98857142D01*
X78680833Y-98809523D01*
X78657023Y-98785714D01*
X78395119Y-99428571D02*
X78371309Y-99380952D01*
X78371309Y-99285714D01*
X78395119Y-99238095D01*
X78442738Y-99214285D01*
X78633214Y-99214285D01*
X78680833Y-99238095D01*
X78704642Y-99285714D01*
X78704642Y-99380952D01*
X78680833Y-99428571D01*
X78633214Y-99452380D01*
X78585595Y-99452380D01*
X78537976Y-99214285D01*
X78633214Y-100214285D02*
X78609404Y-100285714D01*
X78585595Y-100309523D01*
X78537976Y-100333333D01*
X78466547Y-100333333D01*
X78418928Y-100309523D01*
X78395119Y-100285714D01*
X78371309Y-100238095D01*
X78371309Y-100047619D01*
X78871309Y-100047619D01*
X78871309Y-100214285D01*
X78847500Y-100261904D01*
X78823690Y-100285714D01*
X78776071Y-100309523D01*
X78728452Y-100309523D01*
X78680833Y-100285714D01*
X78657023Y-100261904D01*
X78633214Y-100214285D01*
X78633214Y-100047619D01*
X78395119Y-100738095D02*
X78371309Y-100690476D01*
X78371309Y-100595238D01*
X78395119Y-100547619D01*
X78442738Y-100523809D01*
X78633214Y-100523809D01*
X78680833Y-100547619D01*
X78704642Y-100595238D01*
X78704642Y-100690476D01*
X78680833Y-100738095D01*
X78633214Y-100761904D01*
X78585595Y-100761904D01*
X78537976Y-100523809D01*
X78395119Y-101166666D02*
X78371309Y-101119047D01*
X78371309Y-101023809D01*
X78395119Y-100976190D01*
X78442738Y-100952380D01*
X78633214Y-100952380D01*
X78680833Y-100976190D01*
X78704642Y-101023809D01*
X78704642Y-101119047D01*
X78680833Y-101166666D01*
X78633214Y-101190476D01*
X78585595Y-101190476D01*
X78537976Y-100952380D01*
X78371309Y-101404761D02*
X78871309Y-101404761D01*
X78633214Y-101404761D02*
X78633214Y-101690476D01*
X78371309Y-101690476D02*
X78871309Y-101690476D01*
X78371309Y-101928571D02*
X78704642Y-101928571D01*
X78871309Y-101928571D02*
X78847500Y-101904761D01*
X78823690Y-101928571D01*
X78847500Y-101952380D01*
X78871309Y-101928571D01*
X78823690Y-101928571D01*
X78704642Y-102119047D02*
X78371309Y-102238095D01*
X78704642Y-102357142D01*
X78395119Y-102738095D02*
X78371309Y-102690476D01*
X78371309Y-102595238D01*
X78395119Y-102547619D01*
X78442738Y-102523809D01*
X78633214Y-102523809D01*
X78680833Y-102547619D01*
X78704642Y-102595238D01*
X78704642Y-102690476D01*
X78680833Y-102738095D01*
X78633214Y-102761904D01*
X78585595Y-102761904D01*
X78537976Y-102523809D01*
X78395119Y-103547619D02*
X78371309Y-103500000D01*
X78371309Y-103404761D01*
X78395119Y-103357142D01*
X78442738Y-103333333D01*
X78633214Y-103333333D01*
X78680833Y-103357142D01*
X78704642Y-103404761D01*
X78704642Y-103500000D01*
X78680833Y-103547619D01*
X78633214Y-103571428D01*
X78585595Y-103571428D01*
X78537976Y-103333333D01*
X78395119Y-103761904D02*
X78371309Y-103809523D01*
X78371309Y-103904761D01*
X78395119Y-103952380D01*
X78442738Y-103976190D01*
X78466547Y-103976190D01*
X78514166Y-103952380D01*
X78537976Y-103904761D01*
X78537976Y-103833333D01*
X78561785Y-103785714D01*
X78609404Y-103761904D01*
X78633214Y-103761904D01*
X78680833Y-103785714D01*
X78704642Y-103833333D01*
X78704642Y-103904761D01*
X78680833Y-103952380D01*
X78704642Y-104190476D02*
X78204642Y-104190476D01*
X78680833Y-104190476D02*
X78704642Y-104238095D01*
X78704642Y-104333333D01*
X78680833Y-104380952D01*
X78657023Y-104404761D01*
X78609404Y-104428571D01*
X78466547Y-104428571D01*
X78418928Y-104404761D01*
X78395119Y-104380952D01*
X78371309Y-104333333D01*
X78371309Y-104238095D01*
X78395119Y-104190476D01*
X78871309Y-104595238D02*
X78871309Y-104904761D01*
X78680833Y-104738095D01*
X78680833Y-104809523D01*
X78657023Y-104857142D01*
X78633214Y-104880952D01*
X78585595Y-104904761D01*
X78466547Y-104904761D01*
X78418928Y-104880952D01*
X78395119Y-104857142D01*
X78371309Y-104809523D01*
X78371309Y-104666666D01*
X78395119Y-104619047D01*
X78418928Y-104595238D01*
X78823690Y-105095238D02*
X78847500Y-105119047D01*
X78871309Y-105166666D01*
X78871309Y-105285714D01*
X78847500Y-105333333D01*
X78823690Y-105357142D01*
X78776071Y-105380952D01*
X78728452Y-105380952D01*
X78657023Y-105357142D01*
X78371309Y-105071428D01*
X78371309Y-105380952D01*
X78704642Y-105976190D02*
X78204642Y-105976190D01*
X78680833Y-105976190D02*
X78704642Y-106023809D01*
X78704642Y-106119047D01*
X78680833Y-106166666D01*
X78657023Y-106190476D01*
X78609404Y-106214285D01*
X78466547Y-106214285D01*
X78418928Y-106190476D01*
X78395119Y-106166666D01*
X78371309Y-106119047D01*
X78371309Y-106023809D01*
X78395119Y-105976190D01*
X78371309Y-106500000D02*
X78395119Y-106452380D01*
X78418928Y-106428571D01*
X78466547Y-106404761D01*
X78609404Y-106404761D01*
X78657023Y-106428571D01*
X78680833Y-106452380D01*
X78704642Y-106500000D01*
X78704642Y-106571428D01*
X78680833Y-106619047D01*
X78657023Y-106642857D01*
X78609404Y-106666666D01*
X78466547Y-106666666D01*
X78418928Y-106642857D01*
X78395119Y-106619047D01*
X78371309Y-106571428D01*
X78371309Y-106500000D01*
X78704642Y-106833333D02*
X78371309Y-106928571D01*
X78609404Y-107023809D01*
X78371309Y-107119047D01*
X78704642Y-107214285D01*
X78395119Y-107595238D02*
X78371309Y-107547619D01*
X78371309Y-107452380D01*
X78395119Y-107404761D01*
X78442738Y-107380952D01*
X78633214Y-107380952D01*
X78680833Y-107404761D01*
X78704642Y-107452380D01*
X78704642Y-107547619D01*
X78680833Y-107595238D01*
X78633214Y-107619047D01*
X78585595Y-107619047D01*
X78537976Y-107380952D01*
X78371309Y-107833333D02*
X78704642Y-107833333D01*
X78609404Y-107833333D02*
X78657023Y-107857142D01*
X78680833Y-107880952D01*
X78704642Y-107928571D01*
X78704642Y-107976190D01*
X78395119Y-108500000D02*
X78371309Y-108547619D01*
X78371309Y-108642857D01*
X78395119Y-108690476D01*
X78442738Y-108714285D01*
X78466547Y-108714285D01*
X78514166Y-108690476D01*
X78537976Y-108642857D01*
X78537976Y-108571428D01*
X78561785Y-108523809D01*
X78609404Y-108500000D01*
X78633214Y-108500000D01*
X78680833Y-108523809D01*
X78704642Y-108571428D01*
X78704642Y-108642857D01*
X78680833Y-108690476D01*
X78704642Y-109142857D02*
X78371309Y-109142857D01*
X78704642Y-108928571D02*
X78442738Y-108928571D01*
X78395119Y-108952380D01*
X78371309Y-109000000D01*
X78371309Y-109071428D01*
X78395119Y-109119047D01*
X78418928Y-109142857D01*
X78704642Y-109380952D02*
X78204642Y-109380952D01*
X78680833Y-109380952D02*
X78704642Y-109428571D01*
X78704642Y-109523809D01*
X78680833Y-109571428D01*
X78657023Y-109595238D01*
X78609404Y-109619047D01*
X78466547Y-109619047D01*
X78418928Y-109595238D01*
X78395119Y-109571428D01*
X78371309Y-109523809D01*
X78371309Y-109428571D01*
X78395119Y-109380952D01*
X78704642Y-109833333D02*
X78204642Y-109833333D01*
X78680833Y-109833333D02*
X78704642Y-109880952D01*
X78704642Y-109976190D01*
X78680833Y-110023809D01*
X78657023Y-110047619D01*
X78609404Y-110071428D01*
X78466547Y-110071428D01*
X78418928Y-110047619D01*
X78395119Y-110023809D01*
X78371309Y-109976190D01*
X78371309Y-109880952D01*
X78395119Y-109833333D01*
X78371309Y-110357142D02*
X78395119Y-110309523D01*
X78442738Y-110285714D01*
X78871309Y-110285714D01*
X78704642Y-110500000D02*
X78371309Y-110619047D01*
X78704642Y-110738095D02*
X78371309Y-110619047D01*
X78252261Y-110571428D01*
X78228452Y-110547619D01*
X78204642Y-110500000D01*
X78418928Y-110928571D02*
X78395119Y-110952380D01*
X78371309Y-110928571D01*
X78395119Y-110904761D01*
X78418928Y-110928571D01*
X78371309Y-110928571D01*
X53607142Y-96226190D02*
X53607142Y-95726190D01*
X53821428Y-96226190D02*
X53821428Y-95964285D01*
X53797619Y-95916666D01*
X53750000Y-95892857D01*
X53678571Y-95892857D01*
X53630952Y-95916666D01*
X53607142Y-95940476D01*
X53988095Y-95892857D02*
X54178571Y-95892857D01*
X54059523Y-95726190D02*
X54059523Y-96154761D01*
X54083333Y-96202380D01*
X54130952Y-96226190D01*
X54178571Y-96226190D01*
X54273809Y-95892857D02*
X54464285Y-95892857D01*
X54345238Y-95726190D02*
X54345238Y-96154761D01*
X54369047Y-96202380D01*
X54416666Y-96226190D01*
X54464285Y-96226190D01*
X54630952Y-95892857D02*
X54630952Y-96392857D01*
X54630952Y-95916666D02*
X54678571Y-95892857D01*
X54773809Y-95892857D01*
X54821428Y-95916666D01*
X54845238Y-95940476D01*
X54869047Y-95988095D01*
X54869047Y-96130952D01*
X54845238Y-96178571D01*
X54821428Y-96202380D01*
X54773809Y-96226190D01*
X54678571Y-96226190D01*
X54630952Y-96202380D01*
X55059523Y-96202380D02*
X55107142Y-96226190D01*
X55202380Y-96226190D01*
X55250000Y-96202380D01*
X55273809Y-96154761D01*
X55273809Y-96130952D01*
X55250000Y-96083333D01*
X55202380Y-96059523D01*
X55130952Y-96059523D01*
X55083333Y-96035714D01*
X55059523Y-95988095D01*
X55059523Y-95964285D01*
X55083333Y-95916666D01*
X55130952Y-95892857D01*
X55202380Y-95892857D01*
X55250000Y-95916666D01*
X55488095Y-96178571D02*
X55511904Y-96202380D01*
X55488095Y-96226190D01*
X55464285Y-96202380D01*
X55488095Y-96178571D01*
X55488095Y-96226190D01*
X55488095Y-95916666D02*
X55511904Y-95940476D01*
X55488095Y-95964285D01*
X55464285Y-95940476D01*
X55488095Y-95916666D01*
X55488095Y-95964285D01*
X56083333Y-95702380D02*
X55654761Y-96345238D01*
X56607142Y-95702380D02*
X56178571Y-96345238D01*
X56988095Y-95892857D02*
X56988095Y-96297619D01*
X56964285Y-96345238D01*
X56940476Y-96369047D01*
X56892857Y-96392857D01*
X56821428Y-96392857D01*
X56773809Y-96369047D01*
X56988095Y-96202380D02*
X56940476Y-96226190D01*
X56845238Y-96226190D01*
X56797619Y-96202380D01*
X56773809Y-96178571D01*
X56750000Y-96130952D01*
X56750000Y-95988095D01*
X56773809Y-95940476D01*
X56797619Y-95916666D01*
X56845238Y-95892857D01*
X56940476Y-95892857D01*
X56988095Y-95916666D01*
X57226190Y-96226190D02*
X57226190Y-95892857D01*
X57226190Y-95726190D02*
X57202380Y-95750000D01*
X57226190Y-95773809D01*
X57250000Y-95750000D01*
X57226190Y-95726190D01*
X57226190Y-95773809D01*
X57392857Y-95892857D02*
X57583333Y-95892857D01*
X57464285Y-95726190D02*
X57464285Y-96154761D01*
X57488095Y-96202380D01*
X57535714Y-96226190D01*
X57583333Y-96226190D01*
X57750000Y-96226190D02*
X57750000Y-95726190D01*
X57964285Y-96226190D02*
X57964285Y-95964285D01*
X57940476Y-95916666D01*
X57892857Y-95892857D01*
X57821428Y-95892857D01*
X57773809Y-95916666D01*
X57750000Y-95940476D01*
X58416666Y-95892857D02*
X58416666Y-96226190D01*
X58202380Y-95892857D02*
X58202380Y-96154761D01*
X58226190Y-96202380D01*
X58273809Y-96226190D01*
X58345238Y-96226190D01*
X58392857Y-96202380D01*
X58416666Y-96178571D01*
X58654761Y-96226190D02*
X58654761Y-95726190D01*
X58654761Y-95916666D02*
X58702380Y-95892857D01*
X58797619Y-95892857D01*
X58845238Y-95916666D01*
X58869047Y-95940476D01*
X58892857Y-95988095D01*
X58892857Y-96130952D01*
X58869047Y-96178571D01*
X58845238Y-96202380D01*
X58797619Y-96226190D01*
X58702380Y-96226190D01*
X58654761Y-96202380D01*
X59107142Y-96178571D02*
X59130952Y-96202380D01*
X59107142Y-96226190D01*
X59083333Y-96202380D01*
X59107142Y-96178571D01*
X59107142Y-96226190D01*
X59559523Y-96202380D02*
X59511904Y-96226190D01*
X59416666Y-96226190D01*
X59369047Y-96202380D01*
X59345238Y-96178571D01*
X59321428Y-96130952D01*
X59321428Y-95988095D01*
X59345238Y-95940476D01*
X59369047Y-95916666D01*
X59416666Y-95892857D01*
X59511904Y-95892857D01*
X59559523Y-95916666D01*
X59845238Y-96226190D02*
X59797619Y-96202380D01*
X59773809Y-96178571D01*
X59750000Y-96130952D01*
X59750000Y-95988095D01*
X59773809Y-95940476D01*
X59797619Y-95916666D01*
X59845238Y-95892857D01*
X59916666Y-95892857D01*
X59964285Y-95916666D01*
X59988095Y-95940476D01*
X60011904Y-95988095D01*
X60011904Y-96130952D01*
X59988095Y-96178571D01*
X59964285Y-96202380D01*
X59916666Y-96226190D01*
X59845238Y-96226190D01*
X60226190Y-96226190D02*
X60226190Y-95892857D01*
X60226190Y-95940476D02*
X60250000Y-95916666D01*
X60297619Y-95892857D01*
X60369047Y-95892857D01*
X60416666Y-95916666D01*
X60440476Y-95964285D01*
X60440476Y-96226190D01*
X60440476Y-95964285D02*
X60464285Y-95916666D01*
X60511904Y-95892857D01*
X60583333Y-95892857D01*
X60630952Y-95916666D01*
X60654761Y-95964285D01*
X60654761Y-96226190D01*
X61250000Y-95702380D02*
X60821428Y-96345238D01*
X61630952Y-96226190D02*
X61630952Y-95964285D01*
X61607142Y-95916666D01*
X61559523Y-95892857D01*
X61464285Y-95892857D01*
X61416666Y-95916666D01*
X61630952Y-96202380D02*
X61583333Y-96226190D01*
X61464285Y-96226190D01*
X61416666Y-96202380D01*
X61392857Y-96154761D01*
X61392857Y-96107142D01*
X61416666Y-96059523D01*
X61464285Y-96035714D01*
X61583333Y-96035714D01*
X61630952Y-96011904D01*
X61869047Y-96226190D02*
X61869047Y-95892857D01*
X61869047Y-95940476D02*
X61892857Y-95916666D01*
X61940476Y-95892857D01*
X62011904Y-95892857D01*
X62059523Y-95916666D01*
X62083333Y-95964285D01*
X62083333Y-96226190D01*
X62083333Y-95964285D02*
X62107142Y-95916666D01*
X62154761Y-95892857D01*
X62226190Y-95892857D01*
X62273809Y-95916666D01*
X62297619Y-95964285D01*
X62297619Y-96226190D01*
X62750000Y-96202380D02*
X62702380Y-96226190D01*
X62607142Y-96226190D01*
X62559523Y-96202380D01*
X62535714Y-96178571D01*
X62511904Y-96130952D01*
X62511904Y-95988095D01*
X62535714Y-95940476D01*
X62559523Y-95916666D01*
X62607142Y-95892857D01*
X62702380Y-95892857D01*
X62750000Y-95916666D01*
X62964285Y-96226190D02*
X62964285Y-95726190D01*
X63178571Y-96226190D02*
X63178571Y-95964285D01*
X63154761Y-95916666D01*
X63107142Y-95892857D01*
X63035714Y-95892857D01*
X62988095Y-95916666D01*
X62964285Y-95940476D01*
X63630952Y-96226190D02*
X63630952Y-95964285D01*
X63607142Y-95916666D01*
X63559523Y-95892857D01*
X63464285Y-95892857D01*
X63416666Y-95916666D01*
X63630952Y-96202380D02*
X63583333Y-96226190D01*
X63464285Y-96226190D01*
X63416666Y-96202380D01*
X63392857Y-96154761D01*
X63392857Y-96107142D01*
X63416666Y-96059523D01*
X63464285Y-96035714D01*
X63583333Y-96035714D01*
X63630952Y-96011904D01*
X64083333Y-95892857D02*
X64083333Y-96297619D01*
X64059523Y-96345238D01*
X64035714Y-96369047D01*
X63988095Y-96392857D01*
X63916666Y-96392857D01*
X63869047Y-96369047D01*
X64083333Y-96202380D02*
X64035714Y-96226190D01*
X63940476Y-96226190D01*
X63892857Y-96202380D01*
X63869047Y-96178571D01*
X63845238Y-96130952D01*
X63845238Y-95988095D01*
X63869047Y-95940476D01*
X63892857Y-95916666D01*
X63940476Y-95892857D01*
X64035714Y-95892857D01*
X64083333Y-95916666D01*
X64535714Y-96226190D02*
X64535714Y-95964285D01*
X64511904Y-95916666D01*
X64464285Y-95892857D01*
X64369047Y-95892857D01*
X64321428Y-95916666D01*
X64535714Y-96202380D02*
X64488095Y-96226190D01*
X64369047Y-96226190D01*
X64321428Y-96202380D01*
X64297619Y-96154761D01*
X64297619Y-96107142D01*
X64321428Y-96059523D01*
X64369047Y-96035714D01*
X64488095Y-96035714D01*
X64535714Y-96011904D01*
X64750000Y-96202380D02*
X64797619Y-96226190D01*
X64892857Y-96226190D01*
X64940476Y-96202380D01*
X64964285Y-96154761D01*
X64964285Y-96130952D01*
X64940476Y-96083333D01*
X64892857Y-96059523D01*
X64821428Y-96059523D01*
X64773809Y-96035714D01*
X64750000Y-95988095D01*
X64750000Y-95964285D01*
X64773809Y-95916666D01*
X64821428Y-95892857D01*
X64892857Y-95892857D01*
X64940476Y-95916666D01*
X65535714Y-95702380D02*
X65107142Y-96345238D01*
X65869047Y-95964285D02*
X65940476Y-95988095D01*
X65964285Y-96011904D01*
X65988095Y-96059523D01*
X65988095Y-96130952D01*
X65964285Y-96178571D01*
X65940476Y-96202380D01*
X65892857Y-96226190D01*
X65702380Y-96226190D01*
X65702380Y-95726190D01*
X65869047Y-95726190D01*
X65916666Y-95750000D01*
X65940476Y-95773809D01*
X65964285Y-95821428D01*
X65964285Y-95869047D01*
X65940476Y-95916666D01*
X65916666Y-95940476D01*
X65869047Y-95964285D01*
X65702380Y-95964285D01*
X66392857Y-96202380D02*
X66345238Y-96226190D01*
X66250000Y-96226190D01*
X66202380Y-96202380D01*
X66178571Y-96154761D01*
X66178571Y-95964285D01*
X66202380Y-95916666D01*
X66250000Y-95892857D01*
X66345238Y-95892857D01*
X66392857Y-95916666D01*
X66416666Y-95964285D01*
X66416666Y-96011904D01*
X66178571Y-96059523D01*
X66821428Y-96202380D02*
X66773809Y-96226190D01*
X66678571Y-96226190D01*
X66630952Y-96202380D01*
X66607142Y-96154761D01*
X66607142Y-95964285D01*
X66630952Y-95916666D01*
X66678571Y-95892857D01*
X66773809Y-95892857D01*
X66821428Y-95916666D01*
X66845238Y-95964285D01*
X66845238Y-96011904D01*
X66607142Y-96059523D01*
X67059523Y-96226190D02*
X67059523Y-95726190D01*
X67059523Y-95964285D02*
X67345238Y-95964285D01*
X67345238Y-96226190D02*
X67345238Y-95726190D01*
X67583333Y-96226190D02*
X67583333Y-95892857D01*
X67583333Y-95726190D02*
X67559523Y-95750000D01*
X67583333Y-95773809D01*
X67607142Y-95750000D01*
X67583333Y-95726190D01*
X67583333Y-95773809D01*
X67773809Y-95892857D02*
X67892857Y-96226190D01*
X68011904Y-95892857D01*
X68392857Y-96202380D02*
X68345238Y-96226190D01*
X68250000Y-96226190D01*
X68202380Y-96202380D01*
X68178571Y-96154761D01*
X68178571Y-95964285D01*
X68202380Y-95916666D01*
X68250000Y-95892857D01*
X68345238Y-95892857D01*
X68392857Y-95916666D01*
X68416666Y-95964285D01*
X68416666Y-96011904D01*
X68178571Y-96059523D01*
D10*
%TO.C,R1*%
X66833333Y-102452380D02*
X66500000Y-101976190D01*
X66261904Y-102452380D02*
X66261904Y-101452380D01*
X66642857Y-101452380D01*
X66738095Y-101500000D01*
X66785714Y-101547619D01*
X66833333Y-101642857D01*
X66833333Y-101785714D01*
X66785714Y-101880952D01*
X66738095Y-101928571D01*
X66642857Y-101976190D01*
X66261904Y-101976190D01*
X67785714Y-102452380D02*
X67214285Y-102452380D01*
X67500000Y-102452380D02*
X67500000Y-101452380D01*
X67404761Y-101595238D01*
X67309523Y-101690476D01*
X67214285Y-101738095D01*
X70309523Y-102452380D02*
X69738095Y-102452380D01*
X70023809Y-102452380D02*
X70023809Y-101452380D01*
X69928571Y-101595238D01*
X69833333Y-101690476D01*
X69738095Y-101738095D01*
X70738095Y-102452380D02*
X70738095Y-101452380D01*
X70833333Y-102071428D02*
X71119047Y-102452380D01*
X71119047Y-101785714D02*
X70738095Y-102166666D01*
X71500000Y-102452380D02*
X71738095Y-102452380D01*
X71738095Y-102261904D01*
X71642857Y-102214285D01*
X71547619Y-102119047D01*
X71500000Y-101976190D01*
X71500000Y-101738095D01*
X71547619Y-101595238D01*
X71642857Y-101500000D01*
X71785714Y-101452380D01*
X71976190Y-101452380D01*
X72119047Y-101500000D01*
X72214285Y-101595238D01*
X72261904Y-101738095D01*
X72261904Y-101976190D01*
X72214285Y-102119047D01*
X72119047Y-102214285D01*
X72023809Y-102261904D01*
X72023809Y-102452380D01*
X72261904Y-102452380D01*
%TO.C,C2*%
X67833333Y-95357142D02*
X67785714Y-95404761D01*
X67642857Y-95452380D01*
X67547619Y-95452380D01*
X67404761Y-95404761D01*
X67309523Y-95309523D01*
X67261904Y-95214285D01*
X67214285Y-95023809D01*
X67214285Y-94880952D01*
X67261904Y-94690476D01*
X67309523Y-94595238D01*
X67404761Y-94500000D01*
X67547619Y-94452380D01*
X67642857Y-94452380D01*
X67785714Y-94500000D01*
X67833333Y-94547619D01*
X68214285Y-94547619D02*
X68261904Y-94500000D01*
X68357142Y-94452380D01*
X68595238Y-94452380D01*
X68690476Y-94500000D01*
X68738095Y-94547619D01*
X68785714Y-94642857D01*
X68785714Y-94738095D01*
X68738095Y-94880952D01*
X68166666Y-95452380D01*
X68785714Y-95452380D01*
X71357142Y-94547619D02*
X71404761Y-94500000D01*
X71500000Y-94452380D01*
X71738095Y-94452380D01*
X71833333Y-94500000D01*
X71880952Y-94547619D01*
X71928571Y-94642857D01*
X71928571Y-94738095D01*
X71880952Y-94880952D01*
X71309523Y-95452380D01*
X71928571Y-95452380D01*
X72309523Y-94547619D02*
X72357142Y-94500000D01*
X72452380Y-94452380D01*
X72690476Y-94452380D01*
X72785714Y-94500000D01*
X72833333Y-94547619D01*
X72880952Y-94642857D01*
X72880952Y-94738095D01*
X72833333Y-94880952D01*
X72261904Y-95452380D01*
X72880952Y-95452380D01*
X73309523Y-94785714D02*
X73309523Y-95452380D01*
X73309523Y-94880952D02*
X73357142Y-94833333D01*
X73452380Y-94785714D01*
X73595238Y-94785714D01*
X73690476Y-94833333D01*
X73738095Y-94928571D01*
X73738095Y-95452380D01*
X74547619Y-94928571D02*
X74214285Y-94928571D01*
X74214285Y-95452380D02*
X74214285Y-94452380D01*
X74690476Y-94452380D01*
%TO.C,J2*%
X68666666Y-114452380D02*
X68666666Y-115166666D01*
X68619047Y-115309523D01*
X68523809Y-115404761D01*
X68380952Y-115452380D01*
X68285714Y-115452380D01*
X69095238Y-114547619D02*
X69142857Y-114500000D01*
X69238095Y-114452380D01*
X69476190Y-114452380D01*
X69571428Y-114500000D01*
X69619047Y-114547619D01*
X69666666Y-114642857D01*
X69666666Y-114738095D01*
X69619047Y-114880952D01*
X69047619Y-115452380D01*
X69666666Y-115452380D01*
X56738095Y-110500000D02*
X56642857Y-110452380D01*
X56500000Y-110452380D01*
X56357142Y-110500000D01*
X56261904Y-110595238D01*
X56214285Y-110690476D01*
X56166666Y-110880952D01*
X56166666Y-111023809D01*
X56214285Y-111214285D01*
X56261904Y-111309523D01*
X56357142Y-111404761D01*
X56500000Y-111452380D01*
X56595238Y-111452380D01*
X56738095Y-111404761D01*
X56785714Y-111357142D01*
X56785714Y-111023809D01*
X56595238Y-111023809D01*
X57214285Y-111452380D02*
X57214285Y-110452380D01*
X57785714Y-111452380D01*
X57785714Y-110452380D01*
X58261904Y-111452380D02*
X58261904Y-110452380D01*
X58500000Y-110452380D01*
X58642857Y-110500000D01*
X58738095Y-110595238D01*
X58785714Y-110690476D01*
X58833333Y-110880952D01*
X58833333Y-111023809D01*
X58785714Y-111214285D01*
X58738095Y-111309523D01*
X58642857Y-111404761D01*
X58500000Y-111452380D01*
X58261904Y-111452380D01*
X59880952Y-110452380D02*
X60214285Y-111452380D01*
X60547619Y-110452380D01*
X61452380Y-111357142D02*
X61404761Y-111404761D01*
X61261904Y-111452380D01*
X61166666Y-111452380D01*
X61023809Y-111404761D01*
X60928571Y-111309523D01*
X60880952Y-111214285D01*
X60833333Y-111023809D01*
X60833333Y-110880952D01*
X60880952Y-110690476D01*
X60928571Y-110595238D01*
X61023809Y-110500000D01*
X61166666Y-110452380D01*
X61261904Y-110452380D01*
X61404761Y-110500000D01*
X61452380Y-110547619D01*
X62452380Y-111357142D02*
X62404761Y-111404761D01*
X62261904Y-111452380D01*
X62166666Y-111452380D01*
X62023809Y-111404761D01*
X61928571Y-111309523D01*
X61880952Y-111214285D01*
X61833333Y-111023809D01*
X61833333Y-110880952D01*
X61880952Y-110690476D01*
X61928571Y-110595238D01*
X62023809Y-110500000D01*
X62166666Y-110452380D01*
X62261904Y-110452380D01*
X62404761Y-110500000D01*
X62452380Y-110547619D01*
X63976190Y-110928571D02*
X64119047Y-110976190D01*
X64166666Y-111023809D01*
X64214285Y-111119047D01*
X64214285Y-111261904D01*
X64166666Y-111357142D01*
X64119047Y-111404761D01*
X64023809Y-111452380D01*
X63642857Y-111452380D01*
X63642857Y-110452380D01*
X63976190Y-110452380D01*
X64071428Y-110500000D01*
X64119047Y-110547619D01*
X64166666Y-110642857D01*
X64166666Y-110738095D01*
X64119047Y-110833333D01*
X64071428Y-110880952D01*
X63976190Y-110928571D01*
X63642857Y-110928571D01*
X65357142Y-111166666D02*
X65833333Y-111166666D01*
X65261904Y-111452380D02*
X65595238Y-110452380D01*
X65928571Y-111452380D01*
%TO.C,R2*%
X49833333Y-109452380D02*
X49500000Y-108976190D01*
X49261904Y-109452380D02*
X49261904Y-108452380D01*
X49642857Y-108452380D01*
X49738095Y-108500000D01*
X49785714Y-108547619D01*
X49833333Y-108642857D01*
X49833333Y-108785714D01*
X49785714Y-108880952D01*
X49738095Y-108928571D01*
X49642857Y-108976190D01*
X49261904Y-108976190D01*
X50214285Y-108547619D02*
X50261904Y-108500000D01*
X50357142Y-108452380D01*
X50595238Y-108452380D01*
X50690476Y-108500000D01*
X50738095Y-108547619D01*
X50785714Y-108642857D01*
X50785714Y-108738095D01*
X50738095Y-108880952D01*
X50166666Y-109452380D01*
X50785714Y-109452380D01*
X52833333Y-109452380D02*
X52261904Y-109452380D01*
X52547619Y-109452380D02*
X52547619Y-108452380D01*
X52452380Y-108595238D01*
X52357142Y-108690476D01*
X52261904Y-108738095D01*
X53261904Y-109452380D02*
X53261904Y-108452380D01*
X53357142Y-109071428D02*
X53642857Y-109452380D01*
X53642857Y-108785714D02*
X53261904Y-109166666D01*
X54214285Y-108880952D02*
X54119047Y-108833333D01*
X54071428Y-108785714D01*
X54023809Y-108690476D01*
X54023809Y-108642857D01*
X54071428Y-108547619D01*
X54119047Y-108500000D01*
X54214285Y-108452380D01*
X54404761Y-108452380D01*
X54500000Y-108500000D01*
X54547619Y-108547619D01*
X54595238Y-108642857D01*
X54595238Y-108690476D01*
X54547619Y-108785714D01*
X54500000Y-108833333D01*
X54404761Y-108880952D01*
X54214285Y-108880952D01*
X54119047Y-108928571D01*
X54071428Y-108976190D01*
X54023809Y-109071428D01*
X54023809Y-109261904D01*
X54071428Y-109357142D01*
X54119047Y-109404761D01*
X54214285Y-109452380D01*
X54404761Y-109452380D01*
X54500000Y-109404761D01*
X54547619Y-109357142D01*
X54595238Y-109261904D01*
X54595238Y-109071428D01*
X54547619Y-108976190D01*
X54500000Y-108928571D01*
X54404761Y-108880952D01*
X54976190Y-109452380D02*
X55214285Y-109452380D01*
X55214285Y-109261904D01*
X55119047Y-109214285D01*
X55023809Y-109119047D01*
X54976190Y-108976190D01*
X54976190Y-108738095D01*
X55023809Y-108595238D01*
X55119047Y-108500000D01*
X55261904Y-108452380D01*
X55452380Y-108452380D01*
X55595238Y-108500000D01*
X55690476Y-108595238D01*
X55738095Y-108738095D01*
X55738095Y-108976190D01*
X55690476Y-109119047D01*
X55595238Y-109214285D01*
X55500000Y-109261904D01*
X55500000Y-109452380D01*
X55738095Y-109452380D01*
%TO.C,C1*%
X48833333Y-95357142D02*
X48785714Y-95404761D01*
X48642857Y-95452380D01*
X48547619Y-95452380D01*
X48404761Y-95404761D01*
X48309523Y-95309523D01*
X48261904Y-95214285D01*
X48214285Y-95023809D01*
X48214285Y-94880952D01*
X48261904Y-94690476D01*
X48309523Y-94595238D01*
X48404761Y-94500000D01*
X48547619Y-94452380D01*
X48642857Y-94452380D01*
X48785714Y-94500000D01*
X48833333Y-94547619D01*
X49785714Y-95452380D02*
X49214285Y-95452380D01*
X49500000Y-95452380D02*
X49500000Y-94452380D01*
X49404761Y-94595238D01*
X49309523Y-94690476D01*
X49214285Y-94738095D01*
X52357142Y-94547619D02*
X52404761Y-94500000D01*
X52500000Y-94452380D01*
X52738095Y-94452380D01*
X52833333Y-94500000D01*
X52880952Y-94547619D01*
X52928571Y-94642857D01*
X52928571Y-94738095D01*
X52880952Y-94880952D01*
X52309523Y-95452380D01*
X52928571Y-95452380D01*
X53309523Y-94547619D02*
X53357142Y-94500000D01*
X53452380Y-94452380D01*
X53690476Y-94452380D01*
X53785714Y-94500000D01*
X53833333Y-94547619D01*
X53880952Y-94642857D01*
X53880952Y-94738095D01*
X53833333Y-94880952D01*
X53261904Y-95452380D01*
X53880952Y-95452380D01*
X54309523Y-94785714D02*
X54309523Y-95452380D01*
X54309523Y-94880952D02*
X54357142Y-94833333D01*
X54452380Y-94785714D01*
X54595238Y-94785714D01*
X54690476Y-94833333D01*
X54738095Y-94928571D01*
X54738095Y-95452380D01*
X55547619Y-94928571D02*
X55214285Y-94928571D01*
X55214285Y-95452380D02*
X55214285Y-94452380D01*
X55690476Y-94452380D01*
%TO.C,R6*%
X66833333Y-88452380D02*
X66500000Y-87976190D01*
X66261904Y-88452380D02*
X66261904Y-87452380D01*
X66642857Y-87452380D01*
X66738095Y-87500000D01*
X66785714Y-87547619D01*
X66833333Y-87642857D01*
X66833333Y-87785714D01*
X66785714Y-87880952D01*
X66738095Y-87928571D01*
X66642857Y-87976190D01*
X66261904Y-87976190D01*
X67690476Y-87452380D02*
X67500000Y-87452380D01*
X67404761Y-87500000D01*
X67357142Y-87547619D01*
X67261904Y-87690476D01*
X67214285Y-87880952D01*
X67214285Y-88261904D01*
X67261904Y-88357142D01*
X67309523Y-88404761D01*
X67404761Y-88452380D01*
X67595238Y-88452380D01*
X67690476Y-88404761D01*
X67738095Y-88357142D01*
X67785714Y-88261904D01*
X67785714Y-88023809D01*
X67738095Y-87928571D01*
X67690476Y-87880952D01*
X67595238Y-87833333D01*
X67404761Y-87833333D01*
X67309523Y-87880952D01*
X67261904Y-87928571D01*
X67214285Y-88023809D01*
X70309523Y-88452380D02*
X69738095Y-88452380D01*
X70023809Y-88452380D02*
X70023809Y-87452380D01*
X69928571Y-87595238D01*
X69833333Y-87690476D01*
X69738095Y-87738095D01*
X70738095Y-88452380D02*
X70738095Y-87452380D01*
X70833333Y-88071428D02*
X71119047Y-88452380D01*
X71119047Y-87785714D02*
X70738095Y-88166666D01*
X71500000Y-88452380D02*
X71738095Y-88452380D01*
X71738095Y-88261904D01*
X71642857Y-88214285D01*
X71547619Y-88119047D01*
X71500000Y-87976190D01*
X71500000Y-87738095D01*
X71547619Y-87595238D01*
X71642857Y-87500000D01*
X71785714Y-87452380D01*
X71976190Y-87452380D01*
X72119047Y-87500000D01*
X72214285Y-87595238D01*
X72261904Y-87738095D01*
X72261904Y-87976190D01*
X72214285Y-88119047D01*
X72119047Y-88214285D01*
X72023809Y-88261904D01*
X72023809Y-88452380D01*
X72261904Y-88452380D01*
%TO.C,R3*%
X49833333Y-102452380D02*
X49500000Y-101976190D01*
X49261904Y-102452380D02*
X49261904Y-101452380D01*
X49642857Y-101452380D01*
X49738095Y-101500000D01*
X49785714Y-101547619D01*
X49833333Y-101642857D01*
X49833333Y-101785714D01*
X49785714Y-101880952D01*
X49738095Y-101928571D01*
X49642857Y-101976190D01*
X49261904Y-101976190D01*
X50166666Y-101452380D02*
X50785714Y-101452380D01*
X50452380Y-101833333D01*
X50595238Y-101833333D01*
X50690476Y-101880952D01*
X50738095Y-101928571D01*
X50785714Y-102023809D01*
X50785714Y-102261904D01*
X50738095Y-102357142D01*
X50690476Y-102404761D01*
X50595238Y-102452380D01*
X50309523Y-102452380D01*
X50214285Y-102404761D01*
X50166666Y-102357142D01*
X53309523Y-102452380D02*
X52738095Y-102452380D01*
X53023809Y-102452380D02*
X53023809Y-101452380D01*
X52928571Y-101595238D01*
X52833333Y-101690476D01*
X52738095Y-101738095D01*
X53738095Y-102452380D02*
X53738095Y-101452380D01*
X53833333Y-102071428D02*
X54119047Y-102452380D01*
X54119047Y-101785714D02*
X53738095Y-102166666D01*
X54500000Y-102452380D02*
X54738095Y-102452380D01*
X54738095Y-102261904D01*
X54642857Y-102214285D01*
X54547619Y-102119047D01*
X54500000Y-101976190D01*
X54500000Y-101738095D01*
X54547619Y-101595238D01*
X54642857Y-101500000D01*
X54785714Y-101452380D01*
X54976190Y-101452380D01*
X55119047Y-101500000D01*
X55214285Y-101595238D01*
X55261904Y-101738095D01*
X55261904Y-101976190D01*
X55214285Y-102119047D01*
X55119047Y-102214285D01*
X55023809Y-102261904D01*
X55023809Y-102452380D01*
X55261904Y-102452380D01*
%TO.C,H4*%
X78238095Y-115452380D02*
X78238095Y-114452380D01*
X78238095Y-114928571D02*
X78809523Y-114928571D01*
X78809523Y-115452380D02*
X78809523Y-114452380D01*
X79714285Y-114785714D02*
X79714285Y-115452380D01*
X79476190Y-114404761D02*
X79238095Y-115119047D01*
X79857142Y-115119047D01*
%TO.C,H1*%
X43238095Y-75452380D02*
X43238095Y-74452380D01*
X43238095Y-74928571D02*
X43809523Y-74928571D01*
X43809523Y-75452380D02*
X43809523Y-74452380D01*
X44809523Y-75452380D02*
X44238095Y-75452380D01*
X44523809Y-75452380D02*
X44523809Y-74452380D01*
X44428571Y-74595238D01*
X44333333Y-74690476D01*
X44238095Y-74738095D01*
%TO.C,R5*%
X49833333Y-88452380D02*
X49500000Y-87976190D01*
X49261904Y-88452380D02*
X49261904Y-87452380D01*
X49642857Y-87452380D01*
X49738095Y-87500000D01*
X49785714Y-87547619D01*
X49833333Y-87642857D01*
X49833333Y-87785714D01*
X49785714Y-87880952D01*
X49738095Y-87928571D01*
X49642857Y-87976190D01*
X49261904Y-87976190D01*
X50738095Y-87452380D02*
X50261904Y-87452380D01*
X50214285Y-87928571D01*
X50261904Y-87880952D01*
X50357142Y-87833333D01*
X50595238Y-87833333D01*
X50690476Y-87880952D01*
X50738095Y-87928571D01*
X50785714Y-88023809D01*
X50785714Y-88261904D01*
X50738095Y-88357142D01*
X50690476Y-88404761D01*
X50595238Y-88452380D01*
X50357142Y-88452380D01*
X50261904Y-88404761D01*
X50214285Y-88357142D01*
X53309523Y-88452380D02*
X52738095Y-88452380D01*
X53023809Y-88452380D02*
X53023809Y-87452380D01*
X52928571Y-87595238D01*
X52833333Y-87690476D01*
X52738095Y-87738095D01*
X53738095Y-88452380D02*
X53738095Y-87452380D01*
X53833333Y-88071428D02*
X54119047Y-88452380D01*
X54119047Y-87785714D02*
X53738095Y-88166666D01*
X54500000Y-88452380D02*
X54738095Y-88452380D01*
X54738095Y-88261904D01*
X54642857Y-88214285D01*
X54547619Y-88119047D01*
X54500000Y-87976190D01*
X54500000Y-87738095D01*
X54547619Y-87595238D01*
X54642857Y-87500000D01*
X54785714Y-87452380D01*
X54976190Y-87452380D01*
X55119047Y-87500000D01*
X55214285Y-87595238D01*
X55261904Y-87738095D01*
X55261904Y-87976190D01*
X55214285Y-88119047D01*
X55119047Y-88214285D01*
X55023809Y-88261904D01*
X55023809Y-88452380D01*
X55261904Y-88452380D01*
%TO.C,R4*%
X66833333Y-109452380D02*
X66500000Y-108976190D01*
X66261904Y-109452380D02*
X66261904Y-108452380D01*
X66642857Y-108452380D01*
X66738095Y-108500000D01*
X66785714Y-108547619D01*
X66833333Y-108642857D01*
X66833333Y-108785714D01*
X66785714Y-108880952D01*
X66738095Y-108928571D01*
X66642857Y-108976190D01*
X66261904Y-108976190D01*
X67690476Y-108785714D02*
X67690476Y-109452380D01*
X67452380Y-108404761D02*
X67214285Y-109119047D01*
X67833333Y-109119047D01*
X69833333Y-109452380D02*
X69261904Y-109452380D01*
X69547619Y-109452380D02*
X69547619Y-108452380D01*
X69452380Y-108595238D01*
X69357142Y-108690476D01*
X69261904Y-108738095D01*
X70261904Y-109452380D02*
X70261904Y-108452380D01*
X70357142Y-109071428D02*
X70642857Y-109452380D01*
X70642857Y-108785714D02*
X70261904Y-109166666D01*
X71214285Y-108880952D02*
X71119047Y-108833333D01*
X71071428Y-108785714D01*
X71023809Y-108690476D01*
X71023809Y-108642857D01*
X71071428Y-108547619D01*
X71119047Y-108500000D01*
X71214285Y-108452380D01*
X71404761Y-108452380D01*
X71500000Y-108500000D01*
X71547619Y-108547619D01*
X71595238Y-108642857D01*
X71595238Y-108690476D01*
X71547619Y-108785714D01*
X71500000Y-108833333D01*
X71404761Y-108880952D01*
X71214285Y-108880952D01*
X71119047Y-108928571D01*
X71071428Y-108976190D01*
X71023809Y-109071428D01*
X71023809Y-109261904D01*
X71071428Y-109357142D01*
X71119047Y-109404761D01*
X71214285Y-109452380D01*
X71404761Y-109452380D01*
X71500000Y-109404761D01*
X71547619Y-109357142D01*
X71595238Y-109261904D01*
X71595238Y-109071428D01*
X71547619Y-108976190D01*
X71500000Y-108928571D01*
X71404761Y-108880952D01*
X71976190Y-109452380D02*
X72214285Y-109452380D01*
X72214285Y-109261904D01*
X72119047Y-109214285D01*
X72023809Y-109119047D01*
X71976190Y-108976190D01*
X71976190Y-108738095D01*
X72023809Y-108595238D01*
X72119047Y-108500000D01*
X72261904Y-108452380D01*
X72452380Y-108452380D01*
X72595238Y-108500000D01*
X72690476Y-108595238D01*
X72738095Y-108738095D01*
X72738095Y-108976190D01*
X72690476Y-109119047D01*
X72595238Y-109214285D01*
X72500000Y-109261904D01*
X72500000Y-109452380D01*
X72738095Y-109452380D01*
%TO.C,H2*%
X43238095Y-115452380D02*
X43238095Y-114452380D01*
X43238095Y-114928571D02*
X43809523Y-114928571D01*
X43809523Y-115452380D02*
X43809523Y-114452380D01*
X44238095Y-114547619D02*
X44285714Y-114500000D01*
X44380952Y-114452380D01*
X44619047Y-114452380D01*
X44714285Y-114500000D01*
X44761904Y-114547619D01*
X44809523Y-114642857D01*
X44809523Y-114738095D01*
X44761904Y-114880952D01*
X44190476Y-115452380D01*
X44809523Y-115452380D01*
%TO.C,J1*%
X68666666Y-76452380D02*
X68666666Y-77166666D01*
X68619047Y-77309523D01*
X68523809Y-77404761D01*
X68380952Y-77452380D01*
X68285714Y-77452380D01*
X69666666Y-77452380D02*
X69095238Y-77452380D01*
X69380952Y-77452380D02*
X69380952Y-76452380D01*
X69285714Y-76595238D01*
X69190476Y-76690476D01*
X69095238Y-76738095D01*
X55916666Y-81241666D02*
X56392857Y-81241666D01*
X55821428Y-81527380D02*
X56154761Y-80527380D01*
X56488095Y-81527380D01*
X57916666Y-81003571D02*
X58059523Y-81051190D01*
X58107142Y-81098809D01*
X58154761Y-81194047D01*
X58154761Y-81336904D01*
X58107142Y-81432142D01*
X58059523Y-81479761D01*
X57964285Y-81527380D01*
X57583333Y-81527380D01*
X57583333Y-80527380D01*
X57916666Y-80527380D01*
X58011904Y-80575000D01*
X58059523Y-80622619D01*
X58107142Y-80717857D01*
X58107142Y-80813095D01*
X58059523Y-80908333D01*
X58011904Y-80955952D01*
X57916666Y-81003571D01*
X57583333Y-81003571D01*
X59202380Y-80527380D02*
X59535714Y-81527380D01*
X59869047Y-80527380D01*
X60773809Y-81432142D02*
X60726190Y-81479761D01*
X60583333Y-81527380D01*
X60488095Y-81527380D01*
X60345238Y-81479761D01*
X60250000Y-81384523D01*
X60202380Y-81289285D01*
X60154761Y-81098809D01*
X60154761Y-80955952D01*
X60202380Y-80765476D01*
X60250000Y-80670238D01*
X60345238Y-80575000D01*
X60488095Y-80527380D01*
X60583333Y-80527380D01*
X60726190Y-80575000D01*
X60773809Y-80622619D01*
X61773809Y-81432142D02*
X61726190Y-81479761D01*
X61583333Y-81527380D01*
X61488095Y-81527380D01*
X61345238Y-81479761D01*
X61250000Y-81384523D01*
X61202380Y-81289285D01*
X61154761Y-81098809D01*
X61154761Y-80955952D01*
X61202380Y-80765476D01*
X61250000Y-80670238D01*
X61345238Y-80575000D01*
X61488095Y-80527380D01*
X61583333Y-80527380D01*
X61726190Y-80575000D01*
X61773809Y-80622619D01*
X63488095Y-80575000D02*
X63392857Y-80527380D01*
X63250000Y-80527380D01*
X63107142Y-80575000D01*
X63011904Y-80670238D01*
X62964285Y-80765476D01*
X62916666Y-80955952D01*
X62916666Y-81098809D01*
X62964285Y-81289285D01*
X63011904Y-81384523D01*
X63107142Y-81479761D01*
X63250000Y-81527380D01*
X63345238Y-81527380D01*
X63488095Y-81479761D01*
X63535714Y-81432142D01*
X63535714Y-81098809D01*
X63345238Y-81098809D01*
X63964285Y-81527380D02*
X63964285Y-80527380D01*
X64535714Y-81527380D01*
X64535714Y-80527380D01*
X65011904Y-81527380D02*
X65011904Y-80527380D01*
X65250000Y-80527380D01*
X65392857Y-80575000D01*
X65488095Y-80670238D01*
X65535714Y-80765476D01*
X65583333Y-80955952D01*
X65583333Y-81098809D01*
X65535714Y-81289285D01*
X65488095Y-81384523D01*
X65392857Y-81479761D01*
X65250000Y-81527380D01*
X65011904Y-81527380D01*
%TO.C,H3*%
X78238095Y-75452380D02*
X78238095Y-74452380D01*
X78238095Y-74928571D02*
X78809523Y-74928571D01*
X78809523Y-75452380D02*
X78809523Y-74452380D01*
X79190476Y-74452380D02*
X79809523Y-74452380D01*
X79476190Y-74833333D01*
X79619047Y-74833333D01*
X79714285Y-74880952D01*
X79761904Y-74928571D01*
X79809523Y-75023809D01*
X79809523Y-75261904D01*
X79761904Y-75357142D01*
X79714285Y-75404761D01*
X79619047Y-75452380D01*
X79333333Y-75452380D01*
X79238095Y-75404761D01*
X79190476Y-75357142D01*
D12*
%TO.C,R1*%
X64380000Y-100720000D02*
X73620000Y-100720000D01*
X73620000Y-100720000D02*
X73620000Y-97280000D01*
X64380000Y-97280000D02*
X64380000Y-100720000D01*
X74310000Y-99000000D02*
X73620000Y-99000000D01*
X73620000Y-97280000D02*
X64380000Y-97280000D01*
X63690000Y-99000000D02*
X64380000Y-99000000D01*
%TO.C,C2*%
X69960000Y-94080000D02*
X69960000Y-89920000D01*
X69760000Y-94067000D02*
X69760000Y-92840000D01*
X68799000Y-91160000D02*
X68799000Y-90292000D01*
X69199000Y-91160000D02*
X69199000Y-90076000D01*
X68559000Y-93516000D02*
X68559000Y-92840000D01*
X68399000Y-91160000D02*
X68399000Y-90649000D01*
X68679000Y-91160000D02*
X68679000Y-90381000D01*
X69920000Y-94079000D02*
X69920000Y-89921000D01*
X68279000Y-91160000D02*
X68279000Y-90800000D01*
X69680000Y-91160000D02*
X69680000Y-89944000D01*
X69880000Y-94077000D02*
X69880000Y-89923000D01*
X68319000Y-91160000D02*
X68319000Y-90746000D01*
X69560000Y-94034000D02*
X69560000Y-92840000D01*
X69360000Y-93982000D02*
X69360000Y-92840000D01*
X68359000Y-91160000D02*
X68359000Y-90696000D01*
X69320000Y-93968000D02*
X69320000Y-92840000D01*
X72269801Y-93195000D02*
X71869801Y-93195000D01*
X68959000Y-91160000D02*
X68959000Y-90192000D01*
X68319000Y-93254000D02*
X68319000Y-92840000D01*
X69279000Y-91160000D02*
X69279000Y-90046000D01*
X68919000Y-91160000D02*
X68919000Y-90215000D01*
X69640000Y-91160000D02*
X69640000Y-89950000D01*
X68799000Y-93708000D02*
X68799000Y-92840000D01*
X68239000Y-93142000D02*
X68239000Y-92840000D01*
X68519000Y-91160000D02*
X68519000Y-90522000D01*
X69520000Y-94025000D02*
X69520000Y-92840000D01*
X69400000Y-91160000D02*
X69400000Y-90006000D01*
X69039000Y-91160000D02*
X69039000Y-90149000D01*
X67919000Y-92370000D02*
X67919000Y-91630000D01*
X70000000Y-94080000D02*
X70000000Y-89920000D01*
X68599000Y-93552000D02*
X68599000Y-92840000D01*
X68279000Y-93200000D02*
X68279000Y-92840000D01*
X69480000Y-91160000D02*
X69480000Y-89984000D01*
X69720000Y-91160000D02*
X69720000Y-89938000D01*
X69079000Y-93870000D02*
X69079000Y-92840000D01*
X68359000Y-93304000D02*
X68359000Y-92840000D01*
X69039000Y-93851000D02*
X69039000Y-92840000D01*
X68239000Y-91160000D02*
X68239000Y-90858000D01*
X69560000Y-91160000D02*
X69560000Y-89966000D01*
X68999000Y-93830000D02*
X68999000Y-92840000D01*
X69159000Y-93907000D02*
X69159000Y-92840000D01*
X68199000Y-91160000D02*
X68199000Y-90920000D01*
X68879000Y-91160000D02*
X68879000Y-90240000D01*
X68199000Y-93080000D02*
X68199000Y-92840000D01*
X69199000Y-93924000D02*
X69199000Y-92840000D01*
X69119000Y-91160000D02*
X69119000Y-90111000D01*
X68119000Y-92940000D02*
X68119000Y-91060000D01*
X68639000Y-91160000D02*
X68639000Y-90413000D01*
X69640000Y-94050000D02*
X69640000Y-92840000D01*
X69400000Y-93994000D02*
X69400000Y-92840000D01*
X67959000Y-92537000D02*
X67959000Y-91463000D01*
X69440000Y-94005000D02*
X69440000Y-92840000D01*
X68039000Y-92768000D02*
X68039000Y-91232000D01*
X68559000Y-91160000D02*
X68559000Y-90484000D01*
X69800000Y-94071000D02*
X69800000Y-92840000D01*
X69600000Y-91160000D02*
X69600000Y-89958000D01*
X69239000Y-91160000D02*
X69239000Y-90060000D01*
X68439000Y-93396000D02*
X68439000Y-92840000D01*
X68719000Y-93650000D02*
X68719000Y-92840000D01*
X68399000Y-93351000D02*
X68399000Y-92840000D01*
X69680000Y-94056000D02*
X69680000Y-92840000D01*
X68919000Y-93785000D02*
X68919000Y-92840000D01*
X68639000Y-93587000D02*
X68639000Y-92840000D01*
X69720000Y-94062000D02*
X69720000Y-92840000D01*
X69119000Y-93889000D02*
X69119000Y-92840000D01*
X68079000Y-92859000D02*
X68079000Y-91141000D01*
X68759000Y-93680000D02*
X68759000Y-92840000D01*
X69800000Y-91160000D02*
X69800000Y-89929000D01*
X69520000Y-91160000D02*
X69520000Y-89975000D01*
X69360000Y-91160000D02*
X69360000Y-90018000D01*
X69079000Y-91160000D02*
X69079000Y-90130000D01*
X69840000Y-94074000D02*
X69840000Y-89926000D01*
X68839000Y-93735000D02*
X68839000Y-92840000D01*
X69760000Y-91160000D02*
X69760000Y-89933000D01*
X68719000Y-91160000D02*
X68719000Y-90350000D01*
X68479000Y-93438000D02*
X68479000Y-92840000D01*
X68159000Y-93013000D02*
X68159000Y-90987000D01*
X67999000Y-92664000D02*
X67999000Y-91336000D01*
X68999000Y-91160000D02*
X68999000Y-90170000D01*
X69480000Y-94016000D02*
X69480000Y-92840000D01*
X68839000Y-91160000D02*
X68839000Y-90265000D01*
X69440000Y-91160000D02*
X69440000Y-89995000D01*
X68519000Y-93478000D02*
X68519000Y-92840000D01*
X68439000Y-91160000D02*
X68439000Y-90604000D01*
X68479000Y-91160000D02*
X68479000Y-90562000D01*
X69159000Y-91160000D02*
X69159000Y-90093000D01*
X68759000Y-91160000D02*
X68759000Y-90320000D01*
X68599000Y-91160000D02*
X68599000Y-90448000D01*
X68679000Y-93619000D02*
X68679000Y-92840000D01*
X68959000Y-93808000D02*
X68959000Y-92840000D01*
X69320000Y-91160000D02*
X69320000Y-90032000D01*
X69600000Y-94042000D02*
X69600000Y-92840000D01*
X72069801Y-93395000D02*
X72069801Y-92995000D01*
X68879000Y-93760000D02*
X68879000Y-92840000D01*
X69279000Y-93954000D02*
X69279000Y-92840000D01*
X69239000Y-93940000D02*
X69239000Y-92840000D01*
X72120000Y-92000000D02*
G75*
G03*
X72120000Y-92000000I-2120000J0D01*
G01*
%TO.C,J2*%
X64000000Y-117975000D02*
X64000000Y-117225000D01*
X66350000Y-118275000D02*
X67600000Y-118275000D01*
X65500000Y-117225000D02*
X65500000Y-117975000D01*
X55450000Y-112775000D02*
X61000000Y-112775000D01*
X67310000Y-117985000D02*
X67310000Y-112015000D01*
X67310000Y-112015000D02*
X54690000Y-112015000D01*
X67300000Y-117225000D02*
X65500000Y-117225000D01*
X54700000Y-115725000D02*
X55450000Y-115725000D01*
X66550000Y-115725000D02*
X66550000Y-112775000D01*
X58000000Y-117225000D02*
X58000000Y-117975000D01*
X54700000Y-117225000D02*
X54700000Y-117975000D01*
X54700000Y-117975000D02*
X56500000Y-117975000D01*
X54690000Y-112015000D02*
X54690000Y-117985000D01*
X56500000Y-117975000D02*
X56500000Y-117225000D01*
X55450000Y-115725000D02*
X55450000Y-112775000D01*
X56500000Y-117225000D02*
X54700000Y-117225000D01*
X67600000Y-118275000D02*
X67600000Y-117025000D01*
X64000000Y-117225000D02*
X58000000Y-117225000D01*
X65500000Y-117975000D02*
X67300000Y-117975000D01*
X58000000Y-117975000D02*
X64000000Y-117975000D01*
X54690000Y-117985000D02*
X67310000Y-117985000D01*
X67300000Y-115725000D02*
X66550000Y-115725000D01*
X67300000Y-117975000D02*
X67300000Y-117225000D01*
X66550000Y-112775000D02*
X61000000Y-112775000D01*
%TO.C,R2*%
X47730000Y-107720000D02*
X56970000Y-107720000D01*
X56970000Y-104280000D02*
X47730000Y-104280000D01*
X56970000Y-107720000D02*
X56970000Y-104280000D01*
X57660000Y-106000000D02*
X56970000Y-106000000D01*
X47730000Y-104280000D02*
X47730000Y-107720000D01*
X47040000Y-106000000D02*
X47730000Y-106000000D01*
%TO.C,C1*%
X49559000Y-91160000D02*
X49559000Y-90484000D01*
X50440000Y-91160000D02*
X50440000Y-89995000D01*
X50159000Y-91160000D02*
X50159000Y-90093000D01*
X49599000Y-93552000D02*
X49599000Y-92840000D01*
X50520000Y-94025000D02*
X50520000Y-92840000D01*
X50239000Y-93940000D02*
X50239000Y-92840000D01*
X49839000Y-91160000D02*
X49839000Y-90265000D01*
X50560000Y-94034000D02*
X50560000Y-92840000D01*
X49919000Y-91160000D02*
X49919000Y-90215000D01*
X49279000Y-91160000D02*
X49279000Y-90800000D01*
X50480000Y-91160000D02*
X50480000Y-89984000D01*
X49879000Y-93760000D02*
X49879000Y-92840000D01*
X49319000Y-91160000D02*
X49319000Y-90746000D01*
X50800000Y-94071000D02*
X50800000Y-92840000D01*
X50920000Y-94079000D02*
X50920000Y-89921000D01*
X49199000Y-91160000D02*
X49199000Y-90920000D01*
X49319000Y-93254000D02*
X49319000Y-92840000D01*
X49199000Y-93080000D02*
X49199000Y-92840000D01*
X50320000Y-93968000D02*
X50320000Y-92840000D01*
X49239000Y-93142000D02*
X49239000Y-92840000D01*
X49999000Y-93830000D02*
X49999000Y-92840000D01*
X50279000Y-91160000D02*
X50279000Y-90046000D01*
X49679000Y-91160000D02*
X49679000Y-90381000D01*
X49359000Y-91160000D02*
X49359000Y-90696000D01*
X53069801Y-93395000D02*
X53069801Y-92995000D01*
X50640000Y-91160000D02*
X50640000Y-89950000D01*
X50800000Y-91160000D02*
X50800000Y-89929000D01*
X50720000Y-91160000D02*
X50720000Y-89938000D01*
X50880000Y-94077000D02*
X50880000Y-89923000D01*
X48919000Y-92370000D02*
X48919000Y-91630000D01*
X49119000Y-92940000D02*
X49119000Y-91060000D01*
X50440000Y-94005000D02*
X50440000Y-92840000D01*
X50079000Y-93870000D02*
X50079000Y-92840000D01*
X50760000Y-91160000D02*
X50760000Y-89933000D01*
X50360000Y-91160000D02*
X50360000Y-90018000D01*
X49799000Y-93708000D02*
X49799000Y-92840000D01*
X49519000Y-93478000D02*
X49519000Y-92840000D01*
X49079000Y-92859000D02*
X49079000Y-91141000D01*
X50119000Y-91160000D02*
X50119000Y-90111000D01*
X50039000Y-91160000D02*
X50039000Y-90149000D01*
X49959000Y-91160000D02*
X49959000Y-90192000D01*
X50239000Y-91160000D02*
X50239000Y-90060000D01*
X49479000Y-93438000D02*
X49479000Y-92840000D01*
X53269801Y-93195000D02*
X52869801Y-93195000D01*
X49639000Y-93587000D02*
X49639000Y-92840000D01*
X50560000Y-91160000D02*
X50560000Y-89966000D01*
X49919000Y-93785000D02*
X49919000Y-92840000D01*
X49279000Y-93200000D02*
X49279000Y-92840000D01*
X50840000Y-94074000D02*
X50840000Y-89926000D01*
X49559000Y-93516000D02*
X49559000Y-92840000D01*
X49359000Y-93304000D02*
X49359000Y-92840000D01*
X49599000Y-91160000D02*
X49599000Y-90448000D01*
X48959000Y-92537000D02*
X48959000Y-91463000D01*
X49639000Y-91160000D02*
X49639000Y-90413000D01*
X49759000Y-93680000D02*
X49759000Y-92840000D01*
X49759000Y-91160000D02*
X49759000Y-90320000D01*
X50159000Y-93907000D02*
X50159000Y-92840000D01*
X50199000Y-91160000D02*
X50199000Y-90076000D01*
X49479000Y-91160000D02*
X49479000Y-90562000D01*
X50960000Y-94080000D02*
X50960000Y-89920000D01*
X49159000Y-93013000D02*
X49159000Y-90987000D01*
X49439000Y-93396000D02*
X49439000Y-92840000D01*
X49719000Y-93650000D02*
X49719000Y-92840000D01*
X50600000Y-94042000D02*
X50600000Y-92840000D01*
X50320000Y-91160000D02*
X50320000Y-90032000D01*
X50079000Y-91160000D02*
X50079000Y-90130000D01*
X50680000Y-94056000D02*
X50680000Y-92840000D01*
X49679000Y-93619000D02*
X49679000Y-92840000D01*
X49999000Y-91160000D02*
X49999000Y-90170000D01*
X49039000Y-92768000D02*
X49039000Y-91232000D01*
X50279000Y-93954000D02*
X50279000Y-92840000D01*
X50039000Y-93851000D02*
X50039000Y-92840000D01*
X50640000Y-94050000D02*
X50640000Y-92840000D01*
X51000000Y-94080000D02*
X51000000Y-89920000D01*
X50520000Y-91160000D02*
X50520000Y-89975000D01*
X49439000Y-91160000D02*
X49439000Y-90604000D01*
X49879000Y-91160000D02*
X49879000Y-90240000D01*
X50199000Y-93924000D02*
X50199000Y-92840000D01*
X50480000Y-94016000D02*
X50480000Y-92840000D01*
X49719000Y-91160000D02*
X49719000Y-90350000D01*
X48999000Y-92664000D02*
X48999000Y-91336000D01*
X50600000Y-91160000D02*
X50600000Y-89958000D01*
X49799000Y-91160000D02*
X49799000Y-90292000D01*
X50119000Y-93889000D02*
X50119000Y-92840000D01*
X49839000Y-93735000D02*
X49839000Y-92840000D01*
X50720000Y-94062000D02*
X50720000Y-92840000D01*
X49399000Y-93351000D02*
X49399000Y-92840000D01*
X49399000Y-91160000D02*
X49399000Y-90649000D01*
X50680000Y-91160000D02*
X50680000Y-89944000D01*
X49959000Y-93808000D02*
X49959000Y-92840000D01*
X50360000Y-93982000D02*
X50360000Y-92840000D01*
X49519000Y-91160000D02*
X49519000Y-90522000D01*
X50400000Y-93994000D02*
X50400000Y-92840000D01*
X49239000Y-91160000D02*
X49239000Y-90858000D01*
X50760000Y-94067000D02*
X50760000Y-92840000D01*
X50400000Y-91160000D02*
X50400000Y-90006000D01*
X53120000Y-92000000D02*
G75*
G03*
X53120000Y-92000000I-2120000J0D01*
G01*
%TO.C,R6*%
X73620000Y-86720000D02*
X73620000Y-83280000D01*
X74310000Y-85000000D02*
X73620000Y-85000000D01*
X63690000Y-85000000D02*
X64380000Y-85000000D01*
X73620000Y-83280000D02*
X64380000Y-83280000D01*
X64380000Y-86720000D02*
X73620000Y-86720000D01*
X64380000Y-83280000D02*
X64380000Y-86720000D01*
%TO.C,R3*%
X47380000Y-100720000D02*
X56620000Y-100720000D01*
X56620000Y-100720000D02*
X56620000Y-97280000D01*
X57310000Y-99000000D02*
X56620000Y-99000000D01*
X56620000Y-97280000D02*
X47380000Y-97280000D01*
X47380000Y-97280000D02*
X47380000Y-100720000D01*
X46690000Y-99000000D02*
X47380000Y-99000000D01*
%TO.C,R5*%
X47380000Y-86720000D02*
X56620000Y-86720000D01*
X56620000Y-83280000D02*
X47380000Y-83280000D01*
X57310000Y-85000000D02*
X56620000Y-85000000D01*
X56620000Y-86720000D02*
X56620000Y-83280000D01*
X47380000Y-83280000D02*
X47380000Y-86720000D01*
X46690000Y-85000000D02*
X47380000Y-85000000D01*
%TO.C,R4*%
X63690000Y-106000000D02*
X64380000Y-106000000D01*
X73620000Y-104280000D02*
X64380000Y-104280000D01*
X64380000Y-104280000D02*
X64380000Y-107720000D01*
X73620000Y-107720000D02*
X73620000Y-104280000D01*
X74310000Y-106000000D02*
X73620000Y-106000000D01*
X64380000Y-107720000D02*
X73620000Y-107720000D01*
%TO.C,J1*%
X55400000Y-73725000D02*
X54150000Y-73725000D01*
X54440000Y-79985000D02*
X67060000Y-79985000D01*
X55200000Y-79225000D02*
X60750000Y-79225000D01*
X54150000Y-73725000D02*
X54150000Y-74975000D01*
X63750000Y-74025000D02*
X57750000Y-74025000D01*
X56250000Y-74775000D02*
X56250000Y-74025000D01*
X65250000Y-74775000D02*
X67050000Y-74775000D01*
X54450000Y-76275000D02*
X55200000Y-76275000D01*
X67060000Y-79985000D02*
X67060000Y-74015000D01*
X67050000Y-74775000D02*
X67050000Y-74025000D01*
X63750000Y-74775000D02*
X63750000Y-74025000D01*
X54440000Y-74015000D02*
X54440000Y-79985000D01*
X54450000Y-74025000D02*
X54450000Y-74775000D01*
X67050000Y-74025000D02*
X65250000Y-74025000D01*
X57750000Y-74025000D02*
X57750000Y-74775000D01*
X66300000Y-76275000D02*
X66300000Y-79225000D01*
X67060000Y-74015000D02*
X54440000Y-74015000D01*
X56250000Y-74025000D02*
X54450000Y-74025000D01*
X66300000Y-79225000D02*
X60750000Y-79225000D01*
X57750000Y-74775000D02*
X63750000Y-74775000D01*
X65250000Y-74025000D02*
X65250000Y-74775000D01*
X55200000Y-76275000D02*
X55200000Y-79225000D01*
X54450000Y-74775000D02*
X56250000Y-74775000D01*
X67050000Y-76275000D02*
X66300000Y-76275000D01*
%TD*%
M02*
