%TF.GenerationSoftware,KiCad,Pcbnew,(6.0.6)*%
%TF.CreationDate,2022-08-24T10:35:02+01:00*%
%TF.ProjectId,board2,626f6172-6432-42e6-9b69-6361645f7063,rev?*%
%TF.SameCoordinates,Original*%
%TF.FileFunction,Copper,L2,Bot*%
%TF.FilePolarity,Positive*%
%FSLAX46Y46*%
G04 Gerber Fmt 4.6, Leading zero omitted, Abs format (unit mm)*
G04 Created by KiCad (PCBNEW (6.0.6)) date 2022-08-24 10:35:02*
%MOMM*%
%LPD*%
G01*
G04 APERTURE LIST*
G04 Aperture macros list*
%AMRoundRect*
0 Rectangle with rounded corners*
0 $1 Rounding radius*
0 $2 $3 $4 $5 $6 $7 $8 $9 X,Y pos of 4 corners*
0 Add a 4 corners polygon primitive as box body*
4,1,4,$2,$3,$4,$5,$6,$7,$8,$9,$2,$3,0*
0 Add four circle primitives for the rounded corners*
1,1,$1+$1,$2,$3*
1,1,$1+$1,$4,$5*
1,1,$1+$1,$6,$7*
1,1,$1+$1,$8,$9*
0 Add four rect primitives between the rounded corners*
20,1,$1+$1,$2,$3,$4,$5,0*
20,1,$1+$1,$4,$5,$6,$7,0*
20,1,$1+$1,$6,$7,$8,$9,0*
20,1,$1+$1,$8,$9,$2,$3,0*%
G04 Aperture macros list end*
%TA.AperFunction,ComponentPad*%
%ADD10C,1.600000*%
%TD*%
%TA.AperFunction,ComponentPad*%
%ADD11O,1.600000X1.600000*%
%TD*%
%TA.AperFunction,ComponentPad*%
%ADD12R,1.200000X1.200000*%
%TD*%
%TA.AperFunction,ComponentPad*%
%ADD13C,1.200000*%
%TD*%
%TA.AperFunction,ComponentPad*%
%ADD14RoundRect,0.250000X0.600000X0.725000X-0.600000X0.725000X-0.600000X-0.725000X0.600000X-0.725000X0*%
%TD*%
%TA.AperFunction,ComponentPad*%
%ADD15O,1.700000X1.950000*%
%TD*%
%TA.AperFunction,ComponentPad*%
%ADD16RoundRect,0.250000X-0.600000X-0.725000X0.600000X-0.725000X0.600000X0.725000X-0.600000X0.725000X0*%
%TD*%
%TA.AperFunction,Conductor*%
%ADD17C,0.500000*%
%TD*%
G04 APERTURE END LIST*
D10*
%TO.P,R1,1*%
%TO.N,Net-(J2-Pad1)*%
X75350000Y-99000000D03*
D11*
%TO.P,R1,2*%
%TO.N,Net-(J1-Pad2)*%
X62650000Y-99000000D03*
%TD*%
D12*
%TO.P,C2,1*%
%TO.N,GND*%
X71000000Y-92000000D03*
D13*
%TO.P,C2,2*%
%TO.N,Net-(J1-Pad2)*%
X69000000Y-92000000D03*
%TD*%
D14*
%TO.P,J2,1,Pin_1*%
%TO.N,Net-(J2-Pad1)*%
X64750000Y-115525000D03*
D15*
%TO.P,J2,2,Pin_2*%
%TO.N,Net-(J2-Pad2)*%
X62250000Y-115525000D03*
%TO.P,J2,3,Pin_3*%
%TO.N,+5V*%
X59750000Y-115525000D03*
%TO.P,J2,4,Pin_4*%
%TO.N,GND*%
X57250000Y-115525000D03*
%TD*%
D10*
%TO.P,R2,1*%
%TO.N,GND*%
X46000000Y-106000000D03*
D11*
%TO.P,R2,2*%
%TO.N,Net-(J2-Pad2)*%
X58700000Y-106000000D03*
%TD*%
D12*
%TO.P,C1,1*%
%TO.N,GND*%
X52000000Y-92000000D03*
D13*
%TO.P,C1,2*%
%TO.N,Net-(C1-Pad2)*%
X50000000Y-92000000D03*
%TD*%
D10*
%TO.P,R6,1*%
%TO.N,Net-(J1-Pad2)*%
X62650000Y-85000000D03*
D11*
%TO.P,R6,2*%
%TO.N,+5V*%
X75350000Y-85000000D03*
%TD*%
D10*
%TO.P,R3,1*%
%TO.N,Net-(J2-Pad2)*%
X58350000Y-99000000D03*
D11*
%TO.P,R3,2*%
%TO.N,Net-(C1-Pad2)*%
X45650000Y-99000000D03*
%TD*%
D10*
%TO.P,R5,1*%
%TO.N,Net-(C1-Pad2)*%
X45650000Y-85000000D03*
D11*
%TO.P,R5,2*%
%TO.N,+5V*%
X58350000Y-85000000D03*
%TD*%
D10*
%TO.P,R4,1*%
%TO.N,GND*%
X62650000Y-106000000D03*
D11*
%TO.P,R4,2*%
%TO.N,Net-(J2-Pad1)*%
X75350000Y-106000000D03*
%TD*%
D16*
%TO.P,J1,1,Pin_1*%
%TO.N,Net-(C1-Pad2)*%
X57000000Y-76475000D03*
D15*
%TO.P,J1,2,Pin_2*%
%TO.N,Net-(J1-Pad2)*%
X59500000Y-76475000D03*
%TO.P,J1,3,Pin_3*%
%TO.N,+5V*%
X62000000Y-76475000D03*
%TO.P,J1,4,Pin_4*%
%TO.N,GND*%
X64500000Y-76475000D03*
%TD*%
D17*
%TO.N,Net-(C1-Pad2)*%
X57000000Y-76475000D02*
X48475000Y-85000000D01*
X50000000Y-92000000D02*
X50000000Y-86525000D01*
X48475000Y-85000000D02*
X45650000Y-85000000D01*
X45650000Y-96350000D02*
X45650000Y-99000000D01*
X50000000Y-86525000D02*
X48475000Y-85000000D01*
X57000000Y-76475000D02*
X56525000Y-76475000D01*
X50000000Y-92000000D02*
X45650000Y-96350000D01*
%TO.N,Net-(J1-Pad2)*%
X62650000Y-86650000D02*
X68000000Y-92000000D01*
X69000000Y-91000000D02*
X69000000Y-92000000D01*
X59475000Y-76475000D02*
X59500000Y-76475000D01*
X69000000Y-73000000D02*
X69000000Y-79000000D01*
X68000000Y-72000000D02*
X69000000Y-73000000D01*
X72000000Y-88000000D02*
X69000000Y-91000000D01*
X59000000Y-73000000D02*
X59000000Y-76000000D01*
X67000000Y-72000000D02*
X68000000Y-72000000D01*
X78000000Y-86000000D02*
X76000000Y-88000000D01*
X62650000Y-85000000D02*
X62650000Y-86650000D01*
X60000000Y-72000000D02*
X59000000Y-73000000D01*
X59000000Y-76000000D02*
X59475000Y-76475000D01*
X69000000Y-92000000D02*
X62650000Y-98350000D01*
X78000000Y-81000000D02*
X78000000Y-86000000D01*
X60000000Y-72000000D02*
X67000000Y-72000000D01*
X68000000Y-92000000D02*
X69000000Y-92000000D01*
X62650000Y-98350000D02*
X62650000Y-99000000D01*
X70000000Y-80000000D02*
X69000000Y-79000000D01*
X77000000Y-80000000D02*
X70000000Y-80000000D01*
X78000000Y-81000000D02*
X77000000Y-80000000D01*
X76000000Y-88000000D02*
X72000000Y-88000000D01*
%TO.N,+5V*%
X62000000Y-76475000D02*
X62000000Y-81350000D01*
X75000000Y-82000000D02*
X61350000Y-82000000D01*
X62000000Y-81350000D02*
X61175000Y-82175000D01*
X61350000Y-82000000D02*
X61175000Y-82175000D01*
X75350000Y-85000000D02*
X75350000Y-82350000D01*
X58350000Y-89650000D02*
X58350000Y-85000000D01*
X75350000Y-82350000D02*
X75000000Y-82000000D01*
X59750000Y-115525000D02*
X59750000Y-110750000D01*
X53000000Y-104000000D02*
X53000000Y-95000000D01*
X53000000Y-95000000D02*
X58350000Y-89650000D01*
X59750000Y-110750000D02*
X53000000Y-104000000D01*
X61175000Y-82175000D02*
X58350000Y-85000000D01*
%TO.N,Net-(J2-Pad1)*%
X75350000Y-99000000D02*
X75350000Y-106000000D01*
X64750000Y-115525000D02*
X65825000Y-115525000D01*
X65825000Y-115525000D02*
X75350000Y-106000000D01*
%TO.N,Net-(J2-Pad2)*%
X62250000Y-109550000D02*
X62250000Y-115525000D01*
X58700000Y-106000000D02*
X62250000Y-109550000D01*
X58350000Y-105650000D02*
X58700000Y-106000000D01*
X58350000Y-99000000D02*
X58350000Y-105650000D01*
%TD*%
%TA.AperFunction,Conductor*%
%TO.N,GND*%
G36*
X79942121Y-70020002D02*
G01*
X79988614Y-70073658D01*
X80000000Y-70126000D01*
X80000000Y-119874000D01*
X79979998Y-119942121D01*
X79926342Y-119988614D01*
X79874000Y-120000000D01*
X43126000Y-120000000D01*
X43057879Y-119979998D01*
X43011386Y-119926342D01*
X43000000Y-119874000D01*
X43000000Y-119000000D01*
X44000000Y-119000000D01*
X52000000Y-119000000D01*
X52000000Y-115795193D01*
X55899410Y-115795193D01*
X55906124Y-115874325D01*
X55907914Y-115884797D01*
X55963130Y-116097535D01*
X55966665Y-116107575D01*
X56056937Y-116307970D01*
X56062106Y-116317256D01*
X56184850Y-116499575D01*
X56191519Y-116507870D01*
X56343228Y-116666900D01*
X56351186Y-116673941D01*
X56527525Y-116805141D01*
X56536562Y-116810745D01*
X56732484Y-116910357D01*
X56742335Y-116914357D01*
X56952240Y-116979534D01*
X56962624Y-116981817D01*
X56978043Y-116983861D01*
X56992207Y-116981665D01*
X56996000Y-116968478D01*
X56996000Y-115797115D01*
X56991525Y-115781876D01*
X56990135Y-115780671D01*
X56982452Y-115779000D01*
X55916151Y-115779000D01*
X55901473Y-115783310D01*
X55899410Y-115795193D01*
X52000000Y-115795193D01*
X52000000Y-115253174D01*
X55896496Y-115253174D01*
X55897915Y-115266414D01*
X55912550Y-115271000D01*
X56977885Y-115271000D01*
X56993124Y-115266525D01*
X56994329Y-115265135D01*
X56996000Y-115257452D01*
X56996000Y-114083808D01*
X56992027Y-114070277D01*
X56981420Y-114068752D01*
X56863579Y-114093477D01*
X56853383Y-114096537D01*
X56648971Y-114177263D01*
X56639439Y-114181994D01*
X56451538Y-114296016D01*
X56442948Y-114302280D01*
X56276948Y-114446327D01*
X56269528Y-114453958D01*
X56130174Y-114623911D01*
X56124150Y-114632678D01*
X56015424Y-114823682D01*
X56010959Y-114833346D01*
X55935969Y-115039941D01*
X55933198Y-115050208D01*
X55896496Y-115253174D01*
X52000000Y-115253174D01*
X52000000Y-111000000D01*
X44000000Y-111000000D01*
X44000000Y-119000000D01*
X43000000Y-119000000D01*
X43000000Y-107086062D01*
X45278493Y-107086062D01*
X45287789Y-107098077D01*
X45338994Y-107133931D01*
X45348489Y-107139414D01*
X45545947Y-107231490D01*
X45556239Y-107235236D01*
X45766688Y-107291625D01*
X45777481Y-107293528D01*
X45994525Y-107312517D01*
X46005475Y-107312517D01*
X46222519Y-107293528D01*
X46233312Y-107291625D01*
X46443761Y-107235236D01*
X46454053Y-107231490D01*
X46651511Y-107139414D01*
X46661006Y-107133931D01*
X46713048Y-107097491D01*
X46721424Y-107087012D01*
X46714356Y-107073566D01*
X46012812Y-106372022D01*
X45998868Y-106364408D01*
X45997035Y-106364539D01*
X45990420Y-106368790D01*
X45284923Y-107074287D01*
X45278493Y-107086062D01*
X43000000Y-107086062D01*
X43000000Y-106005475D01*
X44687483Y-106005475D01*
X44706472Y-106222519D01*
X44708375Y-106233312D01*
X44764764Y-106443761D01*
X44768510Y-106454053D01*
X44860586Y-106651511D01*
X44866069Y-106661006D01*
X44902509Y-106713048D01*
X44912988Y-106721424D01*
X44926434Y-106714356D01*
X45627978Y-106012812D01*
X45634356Y-106001132D01*
X46364408Y-106001132D01*
X46364539Y-106002965D01*
X46368790Y-106009580D01*
X47074287Y-106715077D01*
X47086062Y-106721507D01*
X47098077Y-106712211D01*
X47133931Y-106661006D01*
X47139414Y-106651511D01*
X47231490Y-106454053D01*
X47235236Y-106443761D01*
X47291625Y-106233312D01*
X47293528Y-106222519D01*
X47312517Y-106005475D01*
X47312517Y-105994525D01*
X47293528Y-105777481D01*
X47291625Y-105766688D01*
X47235236Y-105556239D01*
X47231490Y-105545947D01*
X47139414Y-105348489D01*
X47133931Y-105338994D01*
X47097491Y-105286952D01*
X47087012Y-105278576D01*
X47073566Y-105285644D01*
X46372022Y-105987188D01*
X46364408Y-106001132D01*
X45634356Y-106001132D01*
X45635592Y-105998868D01*
X45635461Y-105997035D01*
X45631210Y-105990420D01*
X44925713Y-105284923D01*
X44913938Y-105278493D01*
X44901923Y-105287789D01*
X44866069Y-105338994D01*
X44860586Y-105348489D01*
X44768510Y-105545947D01*
X44764764Y-105556239D01*
X44708375Y-105766688D01*
X44706472Y-105777481D01*
X44687483Y-105994525D01*
X44687483Y-106005475D01*
X43000000Y-106005475D01*
X43000000Y-104912988D01*
X45278576Y-104912988D01*
X45285644Y-104926434D01*
X45987188Y-105627978D01*
X46001132Y-105635592D01*
X46002965Y-105635461D01*
X46009580Y-105631210D01*
X46715077Y-104925713D01*
X46721507Y-104913938D01*
X46712211Y-104901923D01*
X46661006Y-104866069D01*
X46651511Y-104860586D01*
X46454053Y-104768510D01*
X46443761Y-104764764D01*
X46233312Y-104708375D01*
X46222519Y-104706472D01*
X46005475Y-104687483D01*
X45994525Y-104687483D01*
X45777481Y-104706472D01*
X45766688Y-104708375D01*
X45556239Y-104764764D01*
X45545947Y-104768510D01*
X45348489Y-104860586D01*
X45338994Y-104866069D01*
X45286952Y-104902509D01*
X45278576Y-104912988D01*
X43000000Y-104912988D01*
X43000000Y-99000000D01*
X44336502Y-99000000D01*
X44356457Y-99228087D01*
X44415716Y-99449243D01*
X44418039Y-99454224D01*
X44418039Y-99454225D01*
X44510151Y-99651762D01*
X44510154Y-99651767D01*
X44512477Y-99656749D01*
X44643802Y-99844300D01*
X44805700Y-100006198D01*
X44810208Y-100009355D01*
X44810211Y-100009357D01*
X44837769Y-100028653D01*
X44993251Y-100137523D01*
X44998233Y-100139846D01*
X44998238Y-100139849D01*
X45195775Y-100231961D01*
X45200757Y-100234284D01*
X45206065Y-100235706D01*
X45206067Y-100235707D01*
X45416598Y-100292119D01*
X45416600Y-100292119D01*
X45421913Y-100293543D01*
X45650000Y-100313498D01*
X45878087Y-100293543D01*
X45883400Y-100292119D01*
X45883402Y-100292119D01*
X46093933Y-100235707D01*
X46093935Y-100235706D01*
X46099243Y-100234284D01*
X46104225Y-100231961D01*
X46301762Y-100139849D01*
X46301767Y-100139846D01*
X46306749Y-100137523D01*
X46462231Y-100028653D01*
X46489789Y-100009357D01*
X46489792Y-100009355D01*
X46494300Y-100006198D01*
X46656198Y-99844300D01*
X46787523Y-99656749D01*
X46789846Y-99651767D01*
X46789849Y-99651762D01*
X46881961Y-99454225D01*
X46881961Y-99454224D01*
X46884284Y-99449243D01*
X46943543Y-99228087D01*
X46963498Y-99000000D01*
X46943543Y-98771913D01*
X46884284Y-98550757D01*
X46881961Y-98545775D01*
X46789849Y-98348238D01*
X46789846Y-98348233D01*
X46787523Y-98343251D01*
X46656198Y-98155700D01*
X46494300Y-97993802D01*
X46462229Y-97971345D01*
X46417901Y-97915890D01*
X46408500Y-97868133D01*
X46408500Y-96716371D01*
X46428502Y-96648250D01*
X46445405Y-96627276D01*
X49925665Y-93147016D01*
X49987977Y-93112990D01*
X50019704Y-93110208D01*
X50058263Y-93111723D01*
X50259883Y-93082490D01*
X50265347Y-93080635D01*
X50265352Y-93080634D01*
X50447327Y-93018862D01*
X50447332Y-93018860D01*
X50452799Y-93017004D01*
X50630551Y-92917458D01*
X50760018Y-92809782D01*
X50825181Y-92781601D01*
X50895236Y-92793125D01*
X50951105Y-92846144D01*
X50955214Y-92853648D01*
X51031715Y-92955724D01*
X51044276Y-92968285D01*
X51146351Y-93044786D01*
X51161946Y-93053324D01*
X51282394Y-93098478D01*
X51297649Y-93102105D01*
X51348514Y-93107631D01*
X51355328Y-93108000D01*
X51727885Y-93108000D01*
X51743124Y-93103525D01*
X51744329Y-93102135D01*
X51746000Y-93094452D01*
X51746000Y-93089884D01*
X52254000Y-93089884D01*
X52258475Y-93105123D01*
X52259865Y-93106328D01*
X52267548Y-93107999D01*
X52644669Y-93107999D01*
X52651490Y-93107629D01*
X52702352Y-93102105D01*
X52717604Y-93098479D01*
X52838054Y-93053324D01*
X52853649Y-93044786D01*
X52955724Y-92968285D01*
X52968285Y-92955724D01*
X53044786Y-92853649D01*
X53053324Y-92838054D01*
X53098478Y-92717606D01*
X53102105Y-92702351D01*
X53107631Y-92651486D01*
X53108000Y-92644672D01*
X53108000Y-92272115D01*
X53103525Y-92256876D01*
X53102135Y-92255671D01*
X53094452Y-92254000D01*
X52272115Y-92254000D01*
X52256876Y-92258475D01*
X52255671Y-92259865D01*
X52254000Y-92267548D01*
X52254000Y-93089884D01*
X51746000Y-93089884D01*
X51746000Y-91727885D01*
X52254000Y-91727885D01*
X52258475Y-91743124D01*
X52259865Y-91744329D01*
X52267548Y-91746000D01*
X53089884Y-91746000D01*
X53105123Y-91741525D01*
X53106328Y-91740135D01*
X53107999Y-91732452D01*
X53107999Y-91355331D01*
X53107629Y-91348510D01*
X53102105Y-91297648D01*
X53098479Y-91282396D01*
X53053324Y-91161946D01*
X53044786Y-91146351D01*
X52968285Y-91044276D01*
X52955724Y-91031715D01*
X52853649Y-90955214D01*
X52838054Y-90946676D01*
X52717606Y-90901522D01*
X52702351Y-90897895D01*
X52651486Y-90892369D01*
X52644672Y-90892000D01*
X52272115Y-90892000D01*
X52256876Y-90896475D01*
X52255671Y-90897865D01*
X52254000Y-90905548D01*
X52254000Y-91727885D01*
X51746000Y-91727885D01*
X51746000Y-90910116D01*
X51741525Y-90894877D01*
X51740135Y-90893672D01*
X51732452Y-90892001D01*
X51355331Y-90892001D01*
X51348510Y-90892371D01*
X51297648Y-90897895D01*
X51282396Y-90901521D01*
X51161946Y-90946676D01*
X51146351Y-90955214D01*
X51044276Y-91031715D01*
X51031715Y-91044276D01*
X50985326Y-91106173D01*
X50928467Y-91148688D01*
X50857649Y-91153714D01*
X50795355Y-91119654D01*
X50761365Y-91057323D01*
X50758500Y-91030608D01*
X50758500Y-86592070D01*
X50759933Y-86573120D01*
X50762099Y-86558885D01*
X50762099Y-86558881D01*
X50763199Y-86551651D01*
X50759870Y-86510716D01*
X50758915Y-86498982D01*
X50758500Y-86488767D01*
X50758500Y-86480707D01*
X50755209Y-86452480D01*
X50754778Y-86448121D01*
X50749454Y-86382662D01*
X50749453Y-86382659D01*
X50748860Y-86375364D01*
X50746604Y-86368400D01*
X50745417Y-86362461D01*
X50744030Y-86356590D01*
X50743182Y-86349319D01*
X50740686Y-86342443D01*
X50740684Y-86342434D01*
X50718275Y-86280702D01*
X50716865Y-86276598D01*
X50694352Y-86207101D01*
X50690556Y-86200846D01*
X50688057Y-86195387D01*
X50685329Y-86189939D01*
X50682833Y-86183063D01*
X50642805Y-86122010D01*
X50640481Y-86118327D01*
X50605504Y-86060686D01*
X50605501Y-86060682D01*
X50602595Y-86055893D01*
X50598886Y-86051694D01*
X50598883Y-86051689D01*
X50595197Y-86047516D01*
X50595224Y-86047492D01*
X50592571Y-86044500D01*
X50589868Y-86041267D01*
X50585856Y-86035148D01*
X50529617Y-85981872D01*
X50527175Y-85979494D01*
X49636776Y-85089095D01*
X49602750Y-85026783D01*
X49607815Y-84955968D01*
X49636776Y-84910905D01*
X56552276Y-77995405D01*
X56614588Y-77961379D01*
X56641371Y-77958500D01*
X57650400Y-77958500D01*
X57653646Y-77958163D01*
X57653650Y-77958163D01*
X57749308Y-77948238D01*
X57749312Y-77948237D01*
X57756166Y-77947526D01*
X57762702Y-77945345D01*
X57762704Y-77945345D01*
X57916998Y-77893868D01*
X57923946Y-77891550D01*
X58074348Y-77798478D01*
X58199305Y-77673303D01*
X58289081Y-77527660D01*
X58341852Y-77480168D01*
X58411924Y-77468744D01*
X58477048Y-77497018D01*
X58487510Y-77506805D01*
X58529215Y-77550523D01*
X58596576Y-77621135D01*
X58781542Y-77758754D01*
X58786293Y-77761170D01*
X58786297Y-77761172D01*
X58859673Y-77798478D01*
X58987051Y-77863240D01*
X58992145Y-77864822D01*
X58992148Y-77864823D01*
X59157583Y-77916192D01*
X59207227Y-77931607D01*
X59212516Y-77932308D01*
X59430489Y-77961198D01*
X59430494Y-77961198D01*
X59435774Y-77961898D01*
X59441103Y-77961698D01*
X59441105Y-77961698D01*
X59550966Y-77957574D01*
X59666158Y-77953249D01*
X59891791Y-77905907D01*
X59896750Y-77903949D01*
X59896752Y-77903948D01*
X60101256Y-77823185D01*
X60101258Y-77823184D01*
X60106221Y-77821224D01*
X60111525Y-77818006D01*
X60298757Y-77704390D01*
X60298756Y-77704390D01*
X60303317Y-77701623D01*
X60343134Y-77667072D01*
X60473412Y-77554023D01*
X60473414Y-77554021D01*
X60477445Y-77550523D01*
X60544500Y-77468744D01*
X60620240Y-77376373D01*
X60620244Y-77376367D01*
X60623624Y-77372245D01*
X60641552Y-77340750D01*
X60692632Y-77291445D01*
X60762262Y-77277583D01*
X60828333Y-77303566D01*
X60855573Y-77332716D01*
X60937441Y-77454319D01*
X61096576Y-77621135D01*
X61100854Y-77624318D01*
X61190713Y-77691175D01*
X61233426Y-77747885D01*
X61241500Y-77792264D01*
X61241500Y-80983629D01*
X61221498Y-81051750D01*
X61204595Y-81072724D01*
X60875850Y-81401469D01*
X60867577Y-81409037D01*
X60866268Y-81410132D01*
X60860148Y-81414144D01*
X60830951Y-81444965D01*
X60806872Y-81470383D01*
X60804494Y-81472825D01*
X58612990Y-83664329D01*
X58550678Y-83698355D01*
X58512913Y-83700755D01*
X58355475Y-83686981D01*
X58350000Y-83686502D01*
X58121913Y-83706457D01*
X58116600Y-83707881D01*
X58116598Y-83707881D01*
X57906067Y-83764293D01*
X57906065Y-83764294D01*
X57900757Y-83765716D01*
X57895776Y-83768039D01*
X57895775Y-83768039D01*
X57698238Y-83860151D01*
X57698233Y-83860154D01*
X57693251Y-83862477D01*
X57616970Y-83915890D01*
X57510211Y-83990643D01*
X57510208Y-83990645D01*
X57505700Y-83993802D01*
X57343802Y-84155700D01*
X57212477Y-84343251D01*
X57210154Y-84348233D01*
X57210151Y-84348238D01*
X57118039Y-84545775D01*
X57115716Y-84550757D01*
X57056457Y-84771913D01*
X57036502Y-85000000D01*
X57056457Y-85228087D01*
X57115716Y-85449243D01*
X57118039Y-85454224D01*
X57118039Y-85454225D01*
X57210151Y-85651762D01*
X57210154Y-85651767D01*
X57212477Y-85656749D01*
X57343802Y-85844300D01*
X57505700Y-86006198D01*
X57537771Y-86028655D01*
X57582099Y-86084110D01*
X57591500Y-86131867D01*
X57591500Y-89283629D01*
X57571498Y-89351750D01*
X57554595Y-89372724D01*
X52511089Y-94416230D01*
X52496677Y-94428616D01*
X52485082Y-94437149D01*
X52485077Y-94437154D01*
X52479182Y-94441492D01*
X52474443Y-94447070D01*
X52474440Y-94447073D01*
X52444965Y-94481768D01*
X52438035Y-94489284D01*
X52432340Y-94494979D01*
X52430060Y-94497861D01*
X52414719Y-94517251D01*
X52411928Y-94520655D01*
X52369409Y-94570703D01*
X52364667Y-94576285D01*
X52361339Y-94582801D01*
X52357972Y-94587850D01*
X52354805Y-94592979D01*
X52350266Y-94598716D01*
X52319345Y-94664875D01*
X52317442Y-94668769D01*
X52284231Y-94733808D01*
X52282492Y-94740916D01*
X52280393Y-94746559D01*
X52278476Y-94752322D01*
X52275378Y-94758950D01*
X52273888Y-94766112D01*
X52273888Y-94766113D01*
X52260514Y-94830412D01*
X52259544Y-94834696D01*
X52242192Y-94905610D01*
X52241500Y-94916764D01*
X52241464Y-94916762D01*
X52241225Y-94920755D01*
X52240851Y-94924947D01*
X52239360Y-94932115D01*
X52239558Y-94939432D01*
X52241454Y-95009521D01*
X52241500Y-95012928D01*
X52241500Y-103932930D01*
X52240067Y-103951880D01*
X52236801Y-103973349D01*
X52237394Y-103980641D01*
X52237394Y-103980644D01*
X52241085Y-104026018D01*
X52241500Y-104036233D01*
X52241500Y-104044293D01*
X52241925Y-104047937D01*
X52244789Y-104072507D01*
X52245222Y-104076882D01*
X52251140Y-104149637D01*
X52253396Y-104156601D01*
X52254587Y-104162560D01*
X52255971Y-104168415D01*
X52256818Y-104175681D01*
X52281735Y-104244327D01*
X52283152Y-104248455D01*
X52305649Y-104317899D01*
X52309445Y-104324154D01*
X52311951Y-104329628D01*
X52314670Y-104335058D01*
X52317167Y-104341937D01*
X52321180Y-104348057D01*
X52321180Y-104348058D01*
X52357186Y-104402976D01*
X52359523Y-104406680D01*
X52397405Y-104469107D01*
X52401121Y-104473315D01*
X52401122Y-104473316D01*
X52404803Y-104477484D01*
X52404776Y-104477508D01*
X52407429Y-104480500D01*
X52410132Y-104483733D01*
X52414144Y-104489852D01*
X52419456Y-104494884D01*
X52470383Y-104543128D01*
X52472825Y-104545506D01*
X58954595Y-111027276D01*
X58988621Y-111089588D01*
X58991500Y-111116371D01*
X58991500Y-114202192D01*
X58971498Y-114270313D01*
X58945897Y-114297471D01*
X58946683Y-114298377D01*
X58849484Y-114382722D01*
X58772555Y-114449477D01*
X58769168Y-114453608D01*
X58629760Y-114623627D01*
X58629756Y-114623633D01*
X58626376Y-114627755D01*
X58623738Y-114632390D01*
X58623733Y-114632398D01*
X58608171Y-114659735D01*
X58557088Y-114709041D01*
X58487458Y-114722902D01*
X58421387Y-114696918D01*
X58394149Y-114667768D01*
X58315148Y-114550422D01*
X58308481Y-114542130D01*
X58156772Y-114383100D01*
X58148814Y-114376059D01*
X57972475Y-114244859D01*
X57963438Y-114239255D01*
X57767516Y-114139643D01*
X57757665Y-114135643D01*
X57547760Y-114070466D01*
X57537376Y-114068183D01*
X57521957Y-114066139D01*
X57507793Y-114068335D01*
X57504000Y-114081522D01*
X57504000Y-116966192D01*
X57507973Y-116979723D01*
X57518580Y-116981248D01*
X57636421Y-116956523D01*
X57646617Y-116953463D01*
X57851029Y-116872737D01*
X57860561Y-116868006D01*
X58048462Y-116753984D01*
X58057052Y-116747720D01*
X58223052Y-116603673D01*
X58230472Y-116596042D01*
X58369826Y-116426089D01*
X58375848Y-116417326D01*
X58391238Y-116390289D01*
X58442320Y-116340982D01*
X58511951Y-116327120D01*
X58578022Y-116353103D01*
X58605261Y-116382253D01*
X58634773Y-116426089D01*
X58687441Y-116504319D01*
X58691120Y-116508176D01*
X58691122Y-116508178D01*
X58752710Y-116572738D01*
X58846576Y-116671135D01*
X59031542Y-116808754D01*
X59036293Y-116811170D01*
X59036297Y-116811172D01*
X59099481Y-116843296D01*
X59237051Y-116913240D01*
X59242145Y-116914822D01*
X59242148Y-116914823D01*
X59407583Y-116966192D01*
X59457227Y-116981607D01*
X59462516Y-116982308D01*
X59680489Y-117011198D01*
X59680494Y-117011198D01*
X59685774Y-117011898D01*
X59691103Y-117011698D01*
X59691105Y-117011698D01*
X59800966Y-117007573D01*
X59916158Y-117003249D01*
X59938802Y-116998498D01*
X60136572Y-116957002D01*
X60141791Y-116955907D01*
X60146750Y-116953949D01*
X60146752Y-116953948D01*
X60351256Y-116873185D01*
X60351258Y-116873184D01*
X60356221Y-116871224D01*
X60361525Y-116868006D01*
X60548757Y-116754390D01*
X60548756Y-116754390D01*
X60553317Y-116751623D01*
X60593134Y-116717072D01*
X60723412Y-116604023D01*
X60723414Y-116604021D01*
X60727445Y-116600523D01*
X60791048Y-116522954D01*
X60870240Y-116426373D01*
X60870244Y-116426367D01*
X60873624Y-116422245D01*
X60891552Y-116390750D01*
X60942632Y-116341445D01*
X61012262Y-116327583D01*
X61078333Y-116353566D01*
X61105573Y-116382716D01*
X61110983Y-116390752D01*
X61187441Y-116504319D01*
X61191120Y-116508176D01*
X61191122Y-116508178D01*
X61252710Y-116572738D01*
X61346576Y-116671135D01*
X61531542Y-116808754D01*
X61536293Y-116811170D01*
X61536297Y-116811172D01*
X61599481Y-116843296D01*
X61737051Y-116913240D01*
X61742145Y-116914822D01*
X61742148Y-116914823D01*
X61907583Y-116966192D01*
X61957227Y-116981607D01*
X61962516Y-116982308D01*
X62180489Y-117011198D01*
X62180494Y-117011198D01*
X62185774Y-117011898D01*
X62191103Y-117011698D01*
X62191105Y-117011698D01*
X62300966Y-117007573D01*
X62416158Y-117003249D01*
X62438802Y-116998498D01*
X62636572Y-116957002D01*
X62641791Y-116955907D01*
X62646750Y-116953949D01*
X62646752Y-116953948D01*
X62851256Y-116873185D01*
X62851258Y-116873184D01*
X62856221Y-116871224D01*
X62861525Y-116868006D01*
X63048757Y-116754390D01*
X63048756Y-116754390D01*
X63053317Y-116751623D01*
X63093134Y-116717072D01*
X63223412Y-116604023D01*
X63223414Y-116604021D01*
X63227445Y-116600523D01*
X63256670Y-116564880D01*
X63315329Y-116524886D01*
X63386299Y-116522954D01*
X63447048Y-116559698D01*
X63461248Y-116578468D01*
X63477062Y-116604023D01*
X63551522Y-116724348D01*
X63676697Y-116849305D01*
X63682927Y-116853145D01*
X63682928Y-116853146D01*
X63820090Y-116937694D01*
X63827262Y-116942115D01*
X63862938Y-116953948D01*
X63988611Y-116995632D01*
X63988613Y-116995632D01*
X63995139Y-116997797D01*
X64001975Y-116998497D01*
X64001978Y-116998498D01*
X64037663Y-117002154D01*
X64099600Y-117008500D01*
X65400400Y-117008500D01*
X65403646Y-117008163D01*
X65403650Y-117008163D01*
X65499308Y-116998238D01*
X65499312Y-116998237D01*
X65506166Y-116997526D01*
X65512702Y-116995345D01*
X65512704Y-116995345D01*
X65644806Y-116951272D01*
X65673946Y-116941550D01*
X65824348Y-116848478D01*
X65949305Y-116723303D01*
X65981462Y-116671135D01*
X66038275Y-116578968D01*
X66038276Y-116578966D01*
X66042115Y-116572738D01*
X66092031Y-116422245D01*
X66095632Y-116411389D01*
X66095632Y-116411387D01*
X66097797Y-116404861D01*
X66100114Y-116382253D01*
X66108386Y-116301511D01*
X66135227Y-116235783D01*
X66167904Y-116209309D01*
X66166937Y-116207833D01*
X66227976Y-116167814D01*
X66231680Y-116165477D01*
X66294107Y-116127595D01*
X66302484Y-116120197D01*
X66302508Y-116120224D01*
X66305500Y-116117571D01*
X66308733Y-116114868D01*
X66314852Y-116110856D01*
X66368128Y-116054617D01*
X66370506Y-116052175D01*
X70784905Y-111637776D01*
X70847217Y-111603750D01*
X70918032Y-111608815D01*
X70974868Y-111651362D01*
X70999679Y-111717882D01*
X71000000Y-111726871D01*
X71000000Y-119000000D01*
X79000000Y-119000000D01*
X79000000Y-111000000D01*
X71726871Y-111000000D01*
X71658750Y-110979998D01*
X71612257Y-110926342D01*
X71602153Y-110856068D01*
X71631647Y-110791488D01*
X71637776Y-110784905D01*
X75087010Y-107335671D01*
X75149322Y-107301645D01*
X75187087Y-107299245D01*
X75344525Y-107313019D01*
X75350000Y-107313498D01*
X75578087Y-107293543D01*
X75583400Y-107292119D01*
X75583402Y-107292119D01*
X75793933Y-107235707D01*
X75793935Y-107235706D01*
X75799243Y-107234284D01*
X75805235Y-107231490D01*
X76001762Y-107139849D01*
X76001767Y-107139846D01*
X76006749Y-107137523D01*
X76111611Y-107064098D01*
X76189789Y-107009357D01*
X76189792Y-107009355D01*
X76194300Y-107006198D01*
X76356198Y-106844300D01*
X76487523Y-106656749D01*
X76489846Y-106651767D01*
X76489849Y-106651762D01*
X76581961Y-106454225D01*
X76581961Y-106454224D01*
X76584284Y-106449243D01*
X76604976Y-106372022D01*
X76642119Y-106233402D01*
X76642119Y-106233400D01*
X76643543Y-106228087D01*
X76663498Y-106000000D01*
X76643543Y-105771913D01*
X76606981Y-105635461D01*
X76585707Y-105556067D01*
X76585706Y-105556065D01*
X76584284Y-105550757D01*
X76489966Y-105348489D01*
X76489849Y-105348238D01*
X76489846Y-105348233D01*
X76487523Y-105343251D01*
X76356198Y-105155700D01*
X76194300Y-104993802D01*
X76162229Y-104971345D01*
X76117901Y-104915890D01*
X76108500Y-104868133D01*
X76108500Y-100131867D01*
X76128502Y-100063746D01*
X76162228Y-100028655D01*
X76194300Y-100006198D01*
X76356198Y-99844300D01*
X76487523Y-99656749D01*
X76489846Y-99651767D01*
X76489849Y-99651762D01*
X76581961Y-99454225D01*
X76581961Y-99454224D01*
X76584284Y-99449243D01*
X76643543Y-99228087D01*
X76663498Y-99000000D01*
X76643543Y-98771913D01*
X76584284Y-98550757D01*
X76581961Y-98545775D01*
X76489849Y-98348238D01*
X76489846Y-98348233D01*
X76487523Y-98343251D01*
X76356198Y-98155700D01*
X76194300Y-97993802D01*
X76189792Y-97990645D01*
X76189789Y-97990643D01*
X76083030Y-97915890D01*
X76006749Y-97862477D01*
X76001765Y-97860153D01*
X76001762Y-97860151D01*
X75804225Y-97768039D01*
X75804224Y-97768039D01*
X75799243Y-97765716D01*
X75793935Y-97764294D01*
X75793933Y-97764293D01*
X75583402Y-97707881D01*
X75583400Y-97707881D01*
X75578087Y-97706457D01*
X75350000Y-97686502D01*
X75121913Y-97706457D01*
X75116600Y-97707881D01*
X75116598Y-97707881D01*
X74906067Y-97764293D01*
X74906065Y-97764294D01*
X74900757Y-97765716D01*
X74895776Y-97768039D01*
X74895775Y-97768039D01*
X74698238Y-97860151D01*
X74698235Y-97860153D01*
X74693251Y-97862477D01*
X74616970Y-97915890D01*
X74510211Y-97990643D01*
X74510208Y-97990645D01*
X74505700Y-97993802D01*
X74343802Y-98155700D01*
X74212477Y-98343251D01*
X74210154Y-98348233D01*
X74210151Y-98348238D01*
X74118039Y-98545775D01*
X74115716Y-98550757D01*
X74056457Y-98771913D01*
X74036502Y-99000000D01*
X74056457Y-99228087D01*
X74115716Y-99449243D01*
X74118039Y-99454224D01*
X74118039Y-99454225D01*
X74210151Y-99651762D01*
X74210154Y-99651767D01*
X74212477Y-99656749D01*
X74343802Y-99844300D01*
X74505700Y-100006198D01*
X74537771Y-100028655D01*
X74582099Y-100084110D01*
X74591500Y-100131867D01*
X74591500Y-104868133D01*
X74571498Y-104936254D01*
X74537772Y-104971345D01*
X74505700Y-104993802D01*
X74343802Y-105155700D01*
X74212477Y-105343251D01*
X74210154Y-105348233D01*
X74210151Y-105348238D01*
X74210034Y-105348489D01*
X74115716Y-105550757D01*
X74114294Y-105556065D01*
X74114293Y-105556067D01*
X74093019Y-105635461D01*
X74056457Y-105771913D01*
X74036502Y-106000000D01*
X74036981Y-106005475D01*
X74050755Y-106162913D01*
X74036766Y-106232518D01*
X74014329Y-106262990D01*
X66039092Y-114238227D01*
X65976780Y-114272253D01*
X65905965Y-114267188D01*
X65860980Y-114238306D01*
X65828484Y-114205867D01*
X65823303Y-114200695D01*
X65792965Y-114181994D01*
X65678968Y-114111725D01*
X65678966Y-114111724D01*
X65672738Y-114107885D01*
X65553498Y-114068335D01*
X65511389Y-114054368D01*
X65511387Y-114054368D01*
X65504861Y-114052203D01*
X65498025Y-114051503D01*
X65498022Y-114051502D01*
X65454969Y-114047091D01*
X65400400Y-114041500D01*
X64099600Y-114041500D01*
X64096354Y-114041837D01*
X64096350Y-114041837D01*
X64000692Y-114051762D01*
X64000688Y-114051763D01*
X63993834Y-114052474D01*
X63987298Y-114054655D01*
X63987296Y-114054655D01*
X63855194Y-114098728D01*
X63826054Y-114108450D01*
X63675652Y-114201522D01*
X63550695Y-114326697D01*
X63477170Y-114445977D01*
X63460920Y-114472339D01*
X63408148Y-114519832D01*
X63338076Y-114531256D01*
X63272952Y-114502982D01*
X63262490Y-114493195D01*
X63157103Y-114382722D01*
X63153424Y-114378865D01*
X63059287Y-114308824D01*
X63016574Y-114252115D01*
X63008500Y-114207736D01*
X63008500Y-109617069D01*
X63009933Y-109598118D01*
X63012099Y-109583883D01*
X63012099Y-109583881D01*
X63013199Y-109576651D01*
X63008915Y-109523982D01*
X63008500Y-109513767D01*
X63008500Y-109505707D01*
X63005211Y-109477493D01*
X63004778Y-109473118D01*
X62999454Y-109407661D01*
X62999453Y-109407658D01*
X62998860Y-109400363D01*
X62996604Y-109393399D01*
X62995413Y-109387440D01*
X62994029Y-109381585D01*
X62993182Y-109374319D01*
X62968265Y-109305673D01*
X62966848Y-109301545D01*
X62946607Y-109239064D01*
X62946606Y-109239062D01*
X62944351Y-109232101D01*
X62940555Y-109225846D01*
X62938049Y-109220372D01*
X62935330Y-109214942D01*
X62932833Y-109208063D01*
X62892814Y-109147024D01*
X62890467Y-109143305D01*
X62852595Y-109080893D01*
X62845197Y-109072516D01*
X62845224Y-109072492D01*
X62842571Y-109069500D01*
X62839868Y-109066267D01*
X62835856Y-109060148D01*
X62779617Y-109006872D01*
X62777175Y-109004494D01*
X60858743Y-107086062D01*
X61928493Y-107086062D01*
X61937789Y-107098077D01*
X61988994Y-107133931D01*
X61998489Y-107139414D01*
X62195947Y-107231490D01*
X62206239Y-107235236D01*
X62416688Y-107291625D01*
X62427481Y-107293528D01*
X62644525Y-107312517D01*
X62655475Y-107312517D01*
X62872519Y-107293528D01*
X62883312Y-107291625D01*
X63093761Y-107235236D01*
X63104053Y-107231490D01*
X63301511Y-107139414D01*
X63311006Y-107133931D01*
X63363048Y-107097491D01*
X63371424Y-107087012D01*
X63364356Y-107073566D01*
X62662812Y-106372022D01*
X62648868Y-106364408D01*
X62647035Y-106364539D01*
X62640420Y-106368790D01*
X61934923Y-107074287D01*
X61928493Y-107086062D01*
X60858743Y-107086062D01*
X60035671Y-106262990D01*
X60001645Y-106200678D01*
X59999245Y-106162913D01*
X60013019Y-106005475D01*
X61337483Y-106005475D01*
X61356472Y-106222519D01*
X61358375Y-106233312D01*
X61414764Y-106443761D01*
X61418510Y-106454053D01*
X61510586Y-106651511D01*
X61516069Y-106661006D01*
X61552509Y-106713048D01*
X61562988Y-106721424D01*
X61576434Y-106714356D01*
X62277978Y-106012812D01*
X62284356Y-106001132D01*
X63014408Y-106001132D01*
X63014539Y-106002965D01*
X63018790Y-106009580D01*
X63724287Y-106715077D01*
X63736062Y-106721507D01*
X63748077Y-106712211D01*
X63783931Y-106661006D01*
X63789414Y-106651511D01*
X63881490Y-106454053D01*
X63885236Y-106443761D01*
X63941625Y-106233312D01*
X63943528Y-106222519D01*
X63962517Y-106005475D01*
X63962517Y-105994525D01*
X63943528Y-105777481D01*
X63941625Y-105766688D01*
X63885236Y-105556239D01*
X63881490Y-105545947D01*
X63789414Y-105348489D01*
X63783931Y-105338994D01*
X63747491Y-105286952D01*
X63737012Y-105278576D01*
X63723566Y-105285644D01*
X63022022Y-105987188D01*
X63014408Y-106001132D01*
X62284356Y-106001132D01*
X62285592Y-105998868D01*
X62285461Y-105997035D01*
X62281210Y-105990420D01*
X61575713Y-105284923D01*
X61563938Y-105278493D01*
X61551923Y-105287789D01*
X61516069Y-105338994D01*
X61510586Y-105348489D01*
X61418510Y-105545947D01*
X61414764Y-105556239D01*
X61358375Y-105766688D01*
X61356472Y-105777481D01*
X61337483Y-105994525D01*
X61337483Y-106005475D01*
X60013019Y-106005475D01*
X60013498Y-106000000D01*
X59993543Y-105771913D01*
X59956981Y-105635461D01*
X59935707Y-105556067D01*
X59935706Y-105556065D01*
X59934284Y-105550757D01*
X59839966Y-105348489D01*
X59839849Y-105348238D01*
X59839846Y-105348233D01*
X59837523Y-105343251D01*
X59706198Y-105155700D01*
X59544300Y-104993802D01*
X59539792Y-104990645D01*
X59539789Y-104990643D01*
X59428886Y-104912988D01*
X61928576Y-104912988D01*
X61935644Y-104926434D01*
X62637188Y-105627978D01*
X62651132Y-105635592D01*
X62652965Y-105635461D01*
X62659580Y-105631210D01*
X63365077Y-104925713D01*
X63371507Y-104913938D01*
X63362211Y-104901923D01*
X63311006Y-104866069D01*
X63301511Y-104860586D01*
X63104053Y-104768510D01*
X63093761Y-104764764D01*
X62883312Y-104708375D01*
X62872519Y-104706472D01*
X62655475Y-104687483D01*
X62644525Y-104687483D01*
X62427481Y-104706472D01*
X62416688Y-104708375D01*
X62206239Y-104764764D01*
X62195947Y-104768510D01*
X61998489Y-104860586D01*
X61988994Y-104866069D01*
X61936952Y-104902509D01*
X61928576Y-104912988D01*
X59428886Y-104912988D01*
X59413920Y-104902509D01*
X59356749Y-104862477D01*
X59351767Y-104860154D01*
X59351762Y-104860151D01*
X59181250Y-104780641D01*
X59127965Y-104733724D01*
X59108500Y-104666446D01*
X59108500Y-100131867D01*
X59128502Y-100063746D01*
X59162228Y-100028655D01*
X59194300Y-100006198D01*
X59356198Y-99844300D01*
X59487523Y-99656749D01*
X59489846Y-99651767D01*
X59489849Y-99651762D01*
X59581961Y-99454225D01*
X59581961Y-99454224D01*
X59584284Y-99449243D01*
X59643543Y-99228087D01*
X59663498Y-99000000D01*
X59643543Y-98771913D01*
X59584284Y-98550757D01*
X59581961Y-98545775D01*
X59489849Y-98348238D01*
X59489846Y-98348233D01*
X59487523Y-98343251D01*
X59356198Y-98155700D01*
X59194300Y-97993802D01*
X59189792Y-97990645D01*
X59189789Y-97990643D01*
X59083030Y-97915890D01*
X59006749Y-97862477D01*
X59001765Y-97860153D01*
X59001762Y-97860151D01*
X58804225Y-97768039D01*
X58804224Y-97768039D01*
X58799243Y-97765716D01*
X58793935Y-97764294D01*
X58793933Y-97764293D01*
X58583402Y-97707881D01*
X58583400Y-97707881D01*
X58578087Y-97706457D01*
X58350000Y-97686502D01*
X58121913Y-97706457D01*
X58116600Y-97707881D01*
X58116598Y-97707881D01*
X57906067Y-97764293D01*
X57906065Y-97764294D01*
X57900757Y-97765716D01*
X57895776Y-97768039D01*
X57895775Y-97768039D01*
X57698238Y-97860151D01*
X57698235Y-97860153D01*
X57693251Y-97862477D01*
X57616970Y-97915890D01*
X57510211Y-97990643D01*
X57510208Y-97990645D01*
X57505700Y-97993802D01*
X57343802Y-98155700D01*
X57212477Y-98343251D01*
X57210154Y-98348233D01*
X57210151Y-98348238D01*
X57118039Y-98545775D01*
X57115716Y-98550757D01*
X57056457Y-98771913D01*
X57036502Y-99000000D01*
X57056457Y-99228087D01*
X57115716Y-99449243D01*
X57118039Y-99454224D01*
X57118039Y-99454225D01*
X57210151Y-99651762D01*
X57210154Y-99651767D01*
X57212477Y-99656749D01*
X57343802Y-99844300D01*
X57505700Y-100006198D01*
X57537771Y-100028655D01*
X57582099Y-100084110D01*
X57591500Y-100131867D01*
X57591500Y-105262074D01*
X57568713Y-105334344D01*
X57565637Y-105338737D01*
X57565633Y-105338743D01*
X57562477Y-105343251D01*
X57560154Y-105348233D01*
X57560151Y-105348238D01*
X57560034Y-105348489D01*
X57465716Y-105550757D01*
X57464294Y-105556065D01*
X57464293Y-105556067D01*
X57443019Y-105635461D01*
X57406457Y-105771913D01*
X57386502Y-106000000D01*
X57406457Y-106228087D01*
X57407881Y-106233400D01*
X57407881Y-106233402D01*
X57445025Y-106372022D01*
X57465716Y-106449243D01*
X57468039Y-106454224D01*
X57468039Y-106454225D01*
X57560151Y-106651762D01*
X57560154Y-106651767D01*
X57562477Y-106656749D01*
X57693802Y-106844300D01*
X57855700Y-107006198D01*
X57860208Y-107009355D01*
X57860211Y-107009357D01*
X57938389Y-107064098D01*
X58043251Y-107137523D01*
X58048233Y-107139846D01*
X58048238Y-107139849D01*
X58244765Y-107231490D01*
X58250757Y-107234284D01*
X58256065Y-107235706D01*
X58256067Y-107235707D01*
X58466598Y-107292119D01*
X58466600Y-107292119D01*
X58471913Y-107293543D01*
X58700000Y-107313498D01*
X58705475Y-107313019D01*
X58862913Y-107299245D01*
X58932518Y-107313234D01*
X58962990Y-107335671D01*
X61454595Y-109827276D01*
X61488621Y-109889588D01*
X61491500Y-109916371D01*
X61491500Y-114202192D01*
X61471498Y-114270313D01*
X61445897Y-114297471D01*
X61446683Y-114298377D01*
X61349484Y-114382722D01*
X61272555Y-114449477D01*
X61269168Y-114453608D01*
X61129760Y-114623627D01*
X61129756Y-114623633D01*
X61126376Y-114627755D01*
X61108448Y-114659250D01*
X61057368Y-114708555D01*
X60987738Y-114722417D01*
X60921667Y-114696434D01*
X60894427Y-114667284D01*
X60867814Y-114627755D01*
X60812559Y-114545681D01*
X60653424Y-114378865D01*
X60559287Y-114308824D01*
X60516574Y-114252115D01*
X60508500Y-114207736D01*
X60508500Y-110817070D01*
X60509933Y-110798120D01*
X60512099Y-110783885D01*
X60512099Y-110783881D01*
X60513199Y-110776651D01*
X60508915Y-110723982D01*
X60508500Y-110713767D01*
X60508500Y-110705707D01*
X60505209Y-110677480D01*
X60504778Y-110673121D01*
X60499454Y-110607662D01*
X60499453Y-110607659D01*
X60498860Y-110600364D01*
X60496604Y-110593400D01*
X60495417Y-110587461D01*
X60494030Y-110581590D01*
X60493182Y-110574319D01*
X60490686Y-110567443D01*
X60490684Y-110567434D01*
X60468275Y-110505702D01*
X60466865Y-110501598D01*
X60444352Y-110432101D01*
X60440556Y-110425846D01*
X60438057Y-110420387D01*
X60435329Y-110414939D01*
X60432833Y-110408063D01*
X60392805Y-110347010D01*
X60390481Y-110343327D01*
X60355500Y-110285680D01*
X60355499Y-110285679D01*
X60352595Y-110280893D01*
X60345198Y-110272517D01*
X60345225Y-110272493D01*
X60342570Y-110269499D01*
X60339868Y-110266268D01*
X60335856Y-110260148D01*
X60279617Y-110206872D01*
X60277175Y-110204494D01*
X53795405Y-103722724D01*
X53761379Y-103660412D01*
X53758500Y-103633629D01*
X53758500Y-95366371D01*
X53778502Y-95298250D01*
X53795405Y-95277276D01*
X58838911Y-90233770D01*
X58853323Y-90221384D01*
X58864918Y-90212851D01*
X58864923Y-90212846D01*
X58870818Y-90208508D01*
X58875557Y-90202930D01*
X58875560Y-90202927D01*
X58905035Y-90168232D01*
X58911965Y-90160716D01*
X58917661Y-90155020D01*
X58919924Y-90152159D01*
X58919929Y-90152154D01*
X58935293Y-90132734D01*
X58938082Y-90129333D01*
X58980592Y-90079296D01*
X58980594Y-90079294D01*
X58985333Y-90073715D01*
X58988662Y-90067195D01*
X58992028Y-90062148D01*
X58995193Y-90057024D01*
X58999735Y-90051283D01*
X59030637Y-89985164D01*
X59032565Y-89981218D01*
X59062442Y-89922708D01*
X59062443Y-89922706D01*
X59065769Y-89916192D01*
X59067508Y-89909086D01*
X59069609Y-89903436D01*
X59071524Y-89897679D01*
X59074622Y-89891050D01*
X59089491Y-89819565D01*
X59090461Y-89815282D01*
X59106473Y-89749844D01*
X59107808Y-89744390D01*
X59108500Y-89733236D01*
X59108535Y-89733238D01*
X59108775Y-89729266D01*
X59109152Y-89725045D01*
X59110641Y-89717885D01*
X59108546Y-89640458D01*
X59108500Y-89637050D01*
X59108500Y-86131867D01*
X59128502Y-86063746D01*
X59162228Y-86028655D01*
X59194300Y-86006198D01*
X59356198Y-85844300D01*
X59487523Y-85656749D01*
X59489846Y-85651767D01*
X59489849Y-85651762D01*
X59581961Y-85454225D01*
X59581961Y-85454224D01*
X59584284Y-85449243D01*
X59643543Y-85228087D01*
X59663498Y-85000000D01*
X59649245Y-84837087D01*
X59663234Y-84767482D01*
X59685671Y-84737010D01*
X61627276Y-82795405D01*
X61689588Y-82761379D01*
X61716371Y-82758500D01*
X74465500Y-82758500D01*
X74533621Y-82778502D01*
X74580114Y-82832158D01*
X74591500Y-82884500D01*
X74591500Y-83868133D01*
X74571498Y-83936254D01*
X74537772Y-83971345D01*
X74505700Y-83993802D01*
X74343802Y-84155700D01*
X74212477Y-84343251D01*
X74210154Y-84348233D01*
X74210151Y-84348238D01*
X74118039Y-84545775D01*
X74115716Y-84550757D01*
X74056457Y-84771913D01*
X74036502Y-85000000D01*
X74056457Y-85228087D01*
X74115716Y-85449243D01*
X74118039Y-85454224D01*
X74118039Y-85454225D01*
X74210151Y-85651762D01*
X74210154Y-85651767D01*
X74212477Y-85656749D01*
X74343802Y-85844300D01*
X74505700Y-86006198D01*
X74510208Y-86009355D01*
X74510211Y-86009357D01*
X74559598Y-86043938D01*
X74693251Y-86137523D01*
X74698233Y-86139846D01*
X74698238Y-86139849D01*
X74842462Y-86207101D01*
X74900757Y-86234284D01*
X74906065Y-86235706D01*
X74906067Y-86235707D01*
X75116598Y-86292119D01*
X75116600Y-86292119D01*
X75121913Y-86293543D01*
X75350000Y-86313498D01*
X75578087Y-86293543D01*
X75583400Y-86292119D01*
X75583402Y-86292119D01*
X75793933Y-86235707D01*
X75793935Y-86235706D01*
X75799243Y-86234284D01*
X75857538Y-86207101D01*
X76001762Y-86139849D01*
X76001767Y-86139846D01*
X76006749Y-86137523D01*
X76140402Y-86043938D01*
X76189789Y-86009357D01*
X76189792Y-86009355D01*
X76194300Y-86006198D01*
X76356198Y-85844300D01*
X76487523Y-85656749D01*
X76489846Y-85651767D01*
X76489849Y-85651762D01*
X76581961Y-85454225D01*
X76581961Y-85454224D01*
X76584284Y-85449243D01*
X76643543Y-85228087D01*
X76663498Y-85000000D01*
X76643543Y-84771913D01*
X76584284Y-84550757D01*
X76581961Y-84545775D01*
X76489849Y-84348238D01*
X76489846Y-84348233D01*
X76487523Y-84343251D01*
X76356198Y-84155700D01*
X76194300Y-83993802D01*
X76162229Y-83971345D01*
X76117901Y-83915890D01*
X76108500Y-83868133D01*
X76108500Y-82417070D01*
X76109933Y-82398120D01*
X76112099Y-82383885D01*
X76112099Y-82383881D01*
X76113199Y-82376651D01*
X76108915Y-82323982D01*
X76108500Y-82313767D01*
X76108500Y-82305707D01*
X76105209Y-82277480D01*
X76104778Y-82273121D01*
X76099453Y-82207660D01*
X76098860Y-82200364D01*
X76096605Y-82193403D01*
X76095418Y-82187463D01*
X76094029Y-82181588D01*
X76093182Y-82174319D01*
X76068264Y-82105670D01*
X76066847Y-82101542D01*
X76046607Y-82039064D01*
X76046606Y-82039062D01*
X76044351Y-82032101D01*
X76040555Y-82025846D01*
X76038049Y-82020372D01*
X76035330Y-82014942D01*
X76032833Y-82008063D01*
X75992814Y-81947024D01*
X75990467Y-81943305D01*
X75952595Y-81880893D01*
X75945197Y-81872516D01*
X75945224Y-81872492D01*
X75942571Y-81869500D01*
X75939868Y-81866267D01*
X75935856Y-81860148D01*
X75879617Y-81806872D01*
X75877175Y-81804494D01*
X75583770Y-81511089D01*
X75571384Y-81496677D01*
X75562851Y-81485082D01*
X75562846Y-81485077D01*
X75558508Y-81479182D01*
X75552930Y-81474443D01*
X75552927Y-81474440D01*
X75518232Y-81444965D01*
X75510716Y-81438035D01*
X75505021Y-81432340D01*
X75488736Y-81419456D01*
X75482749Y-81414719D01*
X75479345Y-81411928D01*
X75429297Y-81369409D01*
X75429295Y-81369408D01*
X75423715Y-81364667D01*
X75417199Y-81361339D01*
X75412150Y-81357972D01*
X75407021Y-81354805D01*
X75401284Y-81350266D01*
X75335125Y-81319345D01*
X75331225Y-81317439D01*
X75324845Y-81314181D01*
X75266192Y-81284231D01*
X75259084Y-81282492D01*
X75253441Y-81280393D01*
X75247678Y-81278476D01*
X75241050Y-81275378D01*
X75169583Y-81260513D01*
X75165299Y-81259543D01*
X75094390Y-81242192D01*
X75088788Y-81241844D01*
X75088785Y-81241844D01*
X75083236Y-81241500D01*
X75083238Y-81241464D01*
X75079245Y-81241225D01*
X75075053Y-81240851D01*
X75067885Y-81239360D01*
X75001675Y-81241151D01*
X74990479Y-81241454D01*
X74987072Y-81241500D01*
X62884500Y-81241500D01*
X62816379Y-81221498D01*
X62769886Y-81167842D01*
X62758500Y-81115500D01*
X62758500Y-77797808D01*
X62778502Y-77729687D01*
X62804103Y-77702529D01*
X62803317Y-77701623D01*
X62973412Y-77554023D01*
X62973414Y-77554021D01*
X62977445Y-77550523D01*
X63044500Y-77468744D01*
X63120240Y-77376373D01*
X63120244Y-77376367D01*
X63123624Y-77372245D01*
X63133520Y-77354861D01*
X63141829Y-77340265D01*
X63192912Y-77290959D01*
X63262542Y-77277098D01*
X63328613Y-77303082D01*
X63355851Y-77332232D01*
X63434852Y-77449578D01*
X63441519Y-77457870D01*
X63593228Y-77616900D01*
X63601186Y-77623941D01*
X63777525Y-77755141D01*
X63786562Y-77760745D01*
X63982484Y-77860357D01*
X63992335Y-77864357D01*
X64202240Y-77929534D01*
X64212624Y-77931817D01*
X64228043Y-77933861D01*
X64242207Y-77931665D01*
X64246000Y-77918478D01*
X64246000Y-77916192D01*
X64754000Y-77916192D01*
X64757973Y-77929723D01*
X64768580Y-77931248D01*
X64886421Y-77906523D01*
X64896617Y-77903463D01*
X65101029Y-77822737D01*
X65110561Y-77818006D01*
X65298462Y-77703984D01*
X65307052Y-77697720D01*
X65473052Y-77553673D01*
X65480472Y-77546042D01*
X65619826Y-77376089D01*
X65625850Y-77367322D01*
X65734576Y-77176318D01*
X65739041Y-77166654D01*
X65814031Y-76960059D01*
X65816802Y-76949792D01*
X65853504Y-76746826D01*
X65852085Y-76733586D01*
X65837450Y-76729000D01*
X64772115Y-76729000D01*
X64756876Y-76733475D01*
X64755671Y-76734865D01*
X64754000Y-76742548D01*
X64754000Y-77916192D01*
X64246000Y-77916192D01*
X64246000Y-76202885D01*
X64754000Y-76202885D01*
X64758475Y-76218124D01*
X64759865Y-76219329D01*
X64767548Y-76221000D01*
X65833849Y-76221000D01*
X65848527Y-76216690D01*
X65850590Y-76204807D01*
X65843876Y-76125675D01*
X65842086Y-76115203D01*
X65786870Y-75902465D01*
X65783335Y-75892425D01*
X65693063Y-75692030D01*
X65687894Y-75682744D01*
X65565150Y-75500425D01*
X65558481Y-75492130D01*
X65406772Y-75333100D01*
X65398814Y-75326059D01*
X65222475Y-75194859D01*
X65213438Y-75189255D01*
X65017516Y-75089643D01*
X65007665Y-75085643D01*
X64797760Y-75020466D01*
X64787376Y-75018183D01*
X64771957Y-75016139D01*
X64757793Y-75018335D01*
X64754000Y-75031522D01*
X64754000Y-76202885D01*
X64246000Y-76202885D01*
X64246000Y-75033808D01*
X64242027Y-75020277D01*
X64231420Y-75018752D01*
X64113579Y-75043477D01*
X64103383Y-75046537D01*
X63898971Y-75127263D01*
X63889439Y-75131994D01*
X63701538Y-75246016D01*
X63692948Y-75252280D01*
X63526948Y-75396327D01*
X63519528Y-75403958D01*
X63380174Y-75573911D01*
X63374152Y-75582674D01*
X63358762Y-75609711D01*
X63307680Y-75659018D01*
X63238049Y-75672880D01*
X63171978Y-75646897D01*
X63144739Y-75617747D01*
X63108869Y-75564468D01*
X63062559Y-75495681D01*
X63003918Y-75434209D01*
X62907103Y-75332722D01*
X62903424Y-75328865D01*
X62718458Y-75191246D01*
X62713707Y-75188830D01*
X62713703Y-75188828D01*
X62595588Y-75128776D01*
X62512949Y-75086760D01*
X62507855Y-75085178D01*
X62507852Y-75085177D01*
X62297871Y-75019976D01*
X62292773Y-75018393D01*
X62287484Y-75017692D01*
X62069511Y-74988802D01*
X62069506Y-74988802D01*
X62064226Y-74988102D01*
X62058897Y-74988302D01*
X62058895Y-74988302D01*
X61949034Y-74992427D01*
X61833842Y-74996751D01*
X61828623Y-74997846D01*
X61806566Y-75002474D01*
X61608209Y-75044093D01*
X61603250Y-75046051D01*
X61603248Y-75046052D01*
X61398744Y-75126815D01*
X61398742Y-75126816D01*
X61393779Y-75128776D01*
X61389220Y-75131543D01*
X61389217Y-75131544D01*
X61294113Y-75189255D01*
X61196683Y-75248377D01*
X61192653Y-75251874D01*
X61099484Y-75332722D01*
X61022555Y-75399477D01*
X61019168Y-75403608D01*
X60879760Y-75573627D01*
X60879756Y-75573633D01*
X60876376Y-75577755D01*
X60858448Y-75609250D01*
X60807368Y-75658555D01*
X60737738Y-75672417D01*
X60671667Y-75646434D01*
X60644427Y-75617284D01*
X60617814Y-75577755D01*
X60562559Y-75495681D01*
X60503918Y-75434209D01*
X60407103Y-75332722D01*
X60403424Y-75328865D01*
X60218458Y-75191246D01*
X60213707Y-75188830D01*
X60213703Y-75188828D01*
X60095588Y-75128776D01*
X60012949Y-75086760D01*
X59921777Y-75058450D01*
X59847136Y-75035273D01*
X59788010Y-74995970D01*
X59759520Y-74930941D01*
X59758500Y-74914941D01*
X59758500Y-73366371D01*
X59778502Y-73298250D01*
X59795405Y-73277276D01*
X60277276Y-72795405D01*
X60339588Y-72761379D01*
X60366371Y-72758500D01*
X67633629Y-72758500D01*
X67701750Y-72778502D01*
X67722724Y-72795405D01*
X68204595Y-73277276D01*
X68238621Y-73339588D01*
X68241500Y-73366371D01*
X68241500Y-78932930D01*
X68240067Y-78951880D01*
X68236801Y-78973349D01*
X68237394Y-78980641D01*
X68237394Y-78980644D01*
X68241085Y-79026018D01*
X68241500Y-79036233D01*
X68241500Y-79044293D01*
X68241925Y-79047937D01*
X68244789Y-79072507D01*
X68245222Y-79076882D01*
X68251140Y-79149637D01*
X68253396Y-79156601D01*
X68254587Y-79162560D01*
X68255971Y-79168415D01*
X68256818Y-79175681D01*
X68281735Y-79244327D01*
X68283152Y-79248455D01*
X68293499Y-79280393D01*
X68305649Y-79317899D01*
X68309445Y-79324154D01*
X68311951Y-79329628D01*
X68314670Y-79335058D01*
X68317167Y-79341937D01*
X68321180Y-79348057D01*
X68321180Y-79348058D01*
X68357186Y-79402976D01*
X68359523Y-79406680D01*
X68397405Y-79469107D01*
X68401121Y-79473315D01*
X68401122Y-79473316D01*
X68404803Y-79477484D01*
X68404776Y-79477508D01*
X68407429Y-79480500D01*
X68410132Y-79483733D01*
X68414144Y-79489852D01*
X68419456Y-79494884D01*
X68470383Y-79543128D01*
X68472825Y-79545506D01*
X69416230Y-80488911D01*
X69428616Y-80503323D01*
X69437149Y-80514918D01*
X69437154Y-80514923D01*
X69441492Y-80520818D01*
X69447070Y-80525557D01*
X69447073Y-80525560D01*
X69481768Y-80555035D01*
X69489284Y-80561965D01*
X69494980Y-80567661D01*
X69497841Y-80569924D01*
X69497846Y-80569929D01*
X69517266Y-80585293D01*
X69520667Y-80588082D01*
X69531220Y-80597047D01*
X69576285Y-80635333D01*
X69582805Y-80638662D01*
X69587852Y-80642028D01*
X69592976Y-80645193D01*
X69598717Y-80649735D01*
X69605348Y-80652834D01*
X69605351Y-80652836D01*
X69664830Y-80680634D01*
X69668776Y-80682562D01*
X69733808Y-80715769D01*
X69740914Y-80717508D01*
X69746564Y-80719609D01*
X69752321Y-80721524D01*
X69758950Y-80724622D01*
X69830435Y-80739491D01*
X69834701Y-80740457D01*
X69905610Y-80757808D01*
X69911212Y-80758156D01*
X69911215Y-80758156D01*
X69916764Y-80758500D01*
X69916762Y-80758535D01*
X69920734Y-80758775D01*
X69924955Y-80759152D01*
X69932115Y-80760641D01*
X70009542Y-80758546D01*
X70012950Y-80758500D01*
X76633629Y-80758500D01*
X76701750Y-80778502D01*
X76722724Y-80795405D01*
X77204595Y-81277276D01*
X77238621Y-81339588D01*
X77241500Y-81366371D01*
X77241500Y-85633629D01*
X77221498Y-85701750D01*
X77204595Y-85722724D01*
X75722724Y-87204595D01*
X75660412Y-87238621D01*
X75633629Y-87241500D01*
X72067070Y-87241500D01*
X72048120Y-87240067D01*
X72033885Y-87237901D01*
X72033881Y-87237901D01*
X72026651Y-87236801D01*
X72019359Y-87237394D01*
X72019356Y-87237394D01*
X71973982Y-87241085D01*
X71963767Y-87241500D01*
X71955707Y-87241500D01*
X71952073Y-87241924D01*
X71952067Y-87241924D01*
X71939042Y-87243443D01*
X71927480Y-87244791D01*
X71923132Y-87245221D01*
X71901059Y-87247016D01*
X71857662Y-87250546D01*
X71857659Y-87250547D01*
X71850364Y-87251140D01*
X71843400Y-87253396D01*
X71837461Y-87254583D01*
X71831590Y-87255970D01*
X71824319Y-87256818D01*
X71817443Y-87259314D01*
X71817434Y-87259316D01*
X71755702Y-87281725D01*
X71751598Y-87283135D01*
X71682101Y-87305648D01*
X71675846Y-87309444D01*
X71670387Y-87311943D01*
X71664939Y-87314671D01*
X71658063Y-87317167D01*
X71597010Y-87357195D01*
X71593327Y-87359519D01*
X71535686Y-87394496D01*
X71535682Y-87394499D01*
X71530893Y-87397405D01*
X71526694Y-87401114D01*
X71526689Y-87401117D01*
X71522516Y-87404803D01*
X71522492Y-87404776D01*
X71519500Y-87407429D01*
X71516267Y-87410132D01*
X71510148Y-87414144D01*
X71505116Y-87419456D01*
X71456872Y-87470383D01*
X71454494Y-87472825D01*
X68511089Y-90416230D01*
X68496677Y-90428616D01*
X68485082Y-90437149D01*
X68485077Y-90437154D01*
X68479182Y-90441492D01*
X68474443Y-90447070D01*
X68474440Y-90447073D01*
X68444965Y-90481768D01*
X68438035Y-90489284D01*
X68432340Y-90494979D01*
X68430060Y-90497861D01*
X68414719Y-90517251D01*
X68411928Y-90520655D01*
X68369409Y-90570703D01*
X68364667Y-90576285D01*
X68361339Y-90582801D01*
X68357972Y-90587850D01*
X68354805Y-90592979D01*
X68350266Y-90598716D01*
X68319345Y-90664875D01*
X68317442Y-90668769D01*
X68284231Y-90733808D01*
X68282492Y-90740916D01*
X68280393Y-90746559D01*
X68278476Y-90752322D01*
X68275378Y-90758950D01*
X68273888Y-90766112D01*
X68273888Y-90766113D01*
X68260514Y-90830412D01*
X68259543Y-90834701D01*
X68243515Y-90900203D01*
X68207895Y-90961617D01*
X68144727Y-90994025D01*
X68074065Y-90987136D01*
X68032031Y-90959350D01*
X63445405Y-86372724D01*
X63411379Y-86310412D01*
X63408500Y-86283629D01*
X63408500Y-86131867D01*
X63428502Y-86063746D01*
X63462228Y-86028655D01*
X63494300Y-86006198D01*
X63656198Y-85844300D01*
X63787523Y-85656749D01*
X63789846Y-85651767D01*
X63789849Y-85651762D01*
X63881961Y-85454225D01*
X63881961Y-85454224D01*
X63884284Y-85449243D01*
X63943543Y-85228087D01*
X63963498Y-85000000D01*
X63943543Y-84771913D01*
X63884284Y-84550757D01*
X63881961Y-84545775D01*
X63789849Y-84348238D01*
X63789846Y-84348233D01*
X63787523Y-84343251D01*
X63656198Y-84155700D01*
X63494300Y-83993802D01*
X63489792Y-83990645D01*
X63489789Y-83990643D01*
X63383030Y-83915890D01*
X63306749Y-83862477D01*
X63301767Y-83860154D01*
X63301762Y-83860151D01*
X63104225Y-83768039D01*
X63104224Y-83768039D01*
X63099243Y-83765716D01*
X63093935Y-83764294D01*
X63093933Y-83764293D01*
X62883402Y-83707881D01*
X62883400Y-83707881D01*
X62878087Y-83706457D01*
X62650000Y-83686502D01*
X62421913Y-83706457D01*
X62416600Y-83707881D01*
X62416598Y-83707881D01*
X62206067Y-83764293D01*
X62206065Y-83764294D01*
X62200757Y-83765716D01*
X62195776Y-83768039D01*
X62195775Y-83768039D01*
X61998238Y-83860151D01*
X61998233Y-83860154D01*
X61993251Y-83862477D01*
X61916970Y-83915890D01*
X61810211Y-83990643D01*
X61810208Y-83990645D01*
X61805700Y-83993802D01*
X61643802Y-84155700D01*
X61512477Y-84343251D01*
X61510154Y-84348233D01*
X61510151Y-84348238D01*
X61418039Y-84545775D01*
X61415716Y-84550757D01*
X61356457Y-84771913D01*
X61336502Y-85000000D01*
X61356457Y-85228087D01*
X61415716Y-85449243D01*
X61418039Y-85454224D01*
X61418039Y-85454225D01*
X61510151Y-85651762D01*
X61510154Y-85651767D01*
X61512477Y-85656749D01*
X61643802Y-85844300D01*
X61805700Y-86006198D01*
X61837771Y-86028655D01*
X61882099Y-86084110D01*
X61891500Y-86131867D01*
X61891500Y-86582930D01*
X61890067Y-86601880D01*
X61886801Y-86623349D01*
X61887394Y-86630641D01*
X61887394Y-86630644D01*
X61891085Y-86676018D01*
X61891500Y-86686233D01*
X61891500Y-86694293D01*
X61891925Y-86697937D01*
X61894789Y-86722507D01*
X61895222Y-86726882D01*
X61901140Y-86799637D01*
X61903396Y-86806601D01*
X61904587Y-86812560D01*
X61905971Y-86818415D01*
X61906818Y-86825681D01*
X61931735Y-86894327D01*
X61933152Y-86898455D01*
X61955649Y-86967899D01*
X61959445Y-86974154D01*
X61961951Y-86979628D01*
X61964670Y-86985058D01*
X61967167Y-86991937D01*
X61971180Y-86998057D01*
X61971180Y-86998058D01*
X62007186Y-87052976D01*
X62009523Y-87056680D01*
X62047405Y-87119107D01*
X62051121Y-87123315D01*
X62051122Y-87123316D01*
X62054803Y-87127484D01*
X62054776Y-87127508D01*
X62057429Y-87130500D01*
X62060132Y-87133733D01*
X62064144Y-87139852D01*
X62069456Y-87144884D01*
X62120383Y-87193128D01*
X62122825Y-87195506D01*
X67338224Y-92410905D01*
X67372250Y-92473217D01*
X67367185Y-92544032D01*
X67338224Y-92589095D01*
X62161089Y-97766230D01*
X62146677Y-97778616D01*
X62135078Y-97787152D01*
X62135073Y-97787157D01*
X62129182Y-97791492D01*
X62127278Y-97793733D01*
X62097278Y-97813969D01*
X61993251Y-97862477D01*
X61916970Y-97915890D01*
X61810211Y-97990643D01*
X61810208Y-97990645D01*
X61805700Y-97993802D01*
X61643802Y-98155700D01*
X61512477Y-98343251D01*
X61510154Y-98348233D01*
X61510151Y-98348238D01*
X61418039Y-98545775D01*
X61415716Y-98550757D01*
X61356457Y-98771913D01*
X61336502Y-99000000D01*
X61356457Y-99228087D01*
X61415716Y-99449243D01*
X61418039Y-99454224D01*
X61418039Y-99454225D01*
X61510151Y-99651762D01*
X61510154Y-99651767D01*
X61512477Y-99656749D01*
X61643802Y-99844300D01*
X61805700Y-100006198D01*
X61810208Y-100009355D01*
X61810211Y-100009357D01*
X61837769Y-100028653D01*
X61993251Y-100137523D01*
X61998233Y-100139846D01*
X61998238Y-100139849D01*
X62195775Y-100231961D01*
X62200757Y-100234284D01*
X62206065Y-100235706D01*
X62206067Y-100235707D01*
X62416598Y-100292119D01*
X62416600Y-100292119D01*
X62421913Y-100293543D01*
X62650000Y-100313498D01*
X62878087Y-100293543D01*
X62883400Y-100292119D01*
X62883402Y-100292119D01*
X63093933Y-100235707D01*
X63093935Y-100235706D01*
X63099243Y-100234284D01*
X63104225Y-100231961D01*
X63301762Y-100139849D01*
X63301767Y-100139846D01*
X63306749Y-100137523D01*
X63462231Y-100028653D01*
X63489789Y-100009357D01*
X63489792Y-100009355D01*
X63494300Y-100006198D01*
X63656198Y-99844300D01*
X63787523Y-99656749D01*
X63789846Y-99651767D01*
X63789849Y-99651762D01*
X63881961Y-99454225D01*
X63881961Y-99454224D01*
X63884284Y-99449243D01*
X63943543Y-99228087D01*
X63963498Y-99000000D01*
X63943543Y-98771913D01*
X63884284Y-98550757D01*
X63806334Y-98383591D01*
X63795673Y-98313400D01*
X63824653Y-98248587D01*
X63831434Y-98241247D01*
X68925665Y-93147016D01*
X68987977Y-93112990D01*
X69019704Y-93110208D01*
X69058263Y-93111723D01*
X69259883Y-93082490D01*
X69265347Y-93080635D01*
X69265352Y-93080634D01*
X69447327Y-93018862D01*
X69447332Y-93018860D01*
X69452799Y-93017004D01*
X69630551Y-92917458D01*
X69760018Y-92809782D01*
X69825181Y-92781601D01*
X69895236Y-92793125D01*
X69951105Y-92846144D01*
X69955214Y-92853648D01*
X70031715Y-92955724D01*
X70044276Y-92968285D01*
X70146351Y-93044786D01*
X70161946Y-93053324D01*
X70282394Y-93098478D01*
X70297649Y-93102105D01*
X70348514Y-93107631D01*
X70355328Y-93108000D01*
X70727885Y-93108000D01*
X70743124Y-93103525D01*
X70744329Y-93102135D01*
X70746000Y-93094452D01*
X70746000Y-93089884D01*
X71254000Y-93089884D01*
X71258475Y-93105123D01*
X71259865Y-93106328D01*
X71267548Y-93107999D01*
X71644669Y-93107999D01*
X71651490Y-93107629D01*
X71702352Y-93102105D01*
X71717604Y-93098479D01*
X71838054Y-93053324D01*
X71853649Y-93044786D01*
X71955724Y-92968285D01*
X71968285Y-92955724D01*
X72044786Y-92853649D01*
X72053324Y-92838054D01*
X72098478Y-92717606D01*
X72102105Y-92702351D01*
X72107631Y-92651486D01*
X72108000Y-92644672D01*
X72108000Y-92272115D01*
X72103525Y-92256876D01*
X72102135Y-92255671D01*
X72094452Y-92254000D01*
X71272115Y-92254000D01*
X71256876Y-92258475D01*
X71255671Y-92259865D01*
X71254000Y-92267548D01*
X71254000Y-93089884D01*
X70746000Y-93089884D01*
X70746000Y-91727885D01*
X71254000Y-91727885D01*
X71258475Y-91743124D01*
X71259865Y-91744329D01*
X71267548Y-91746000D01*
X72089884Y-91746000D01*
X72105123Y-91741525D01*
X72106328Y-91740135D01*
X72107999Y-91732452D01*
X72107999Y-91355331D01*
X72107629Y-91348510D01*
X72102105Y-91297648D01*
X72098479Y-91282396D01*
X72053324Y-91161946D01*
X72044786Y-91146351D01*
X71968285Y-91044276D01*
X71955724Y-91031715D01*
X71853649Y-90955214D01*
X71838054Y-90946676D01*
X71717606Y-90901522D01*
X71702351Y-90897895D01*
X71651486Y-90892369D01*
X71644672Y-90892000D01*
X71272115Y-90892000D01*
X71256876Y-90896475D01*
X71255671Y-90897865D01*
X71254000Y-90905548D01*
X71254000Y-91727885D01*
X70746000Y-91727885D01*
X70746000Y-90910116D01*
X70741525Y-90894877D01*
X70740135Y-90893672D01*
X70732452Y-90892001D01*
X70484870Y-90892001D01*
X70416749Y-90871999D01*
X70370256Y-90818343D01*
X70360152Y-90748069D01*
X70389646Y-90683489D01*
X70395775Y-90676906D01*
X72277276Y-88795405D01*
X72339588Y-88761379D01*
X72366371Y-88758500D01*
X75932930Y-88758500D01*
X75951880Y-88759933D01*
X75966115Y-88762099D01*
X75966119Y-88762099D01*
X75973349Y-88763199D01*
X75980641Y-88762606D01*
X75980644Y-88762606D01*
X76026018Y-88758915D01*
X76036233Y-88758500D01*
X76044293Y-88758500D01*
X76057583Y-88756951D01*
X76072507Y-88755211D01*
X76076882Y-88754778D01*
X76142339Y-88749454D01*
X76142342Y-88749453D01*
X76149637Y-88748860D01*
X76156601Y-88746604D01*
X76162560Y-88745413D01*
X76168415Y-88744029D01*
X76175681Y-88743182D01*
X76244327Y-88718265D01*
X76248455Y-88716848D01*
X76310936Y-88696607D01*
X76310938Y-88696606D01*
X76317899Y-88694351D01*
X76324154Y-88690555D01*
X76329628Y-88688049D01*
X76335058Y-88685330D01*
X76341937Y-88682833D01*
X76402976Y-88642814D01*
X76406680Y-88640477D01*
X76469107Y-88602595D01*
X76477484Y-88595197D01*
X76477508Y-88595224D01*
X76480500Y-88592571D01*
X76483733Y-88589868D01*
X76489852Y-88585856D01*
X76543128Y-88529617D01*
X76545506Y-88527175D01*
X78488911Y-86583770D01*
X78503323Y-86571384D01*
X78514918Y-86562851D01*
X78514923Y-86562846D01*
X78520818Y-86558508D01*
X78525557Y-86552930D01*
X78525560Y-86552927D01*
X78555035Y-86518232D01*
X78561965Y-86510716D01*
X78567660Y-86505021D01*
X78576474Y-86493880D01*
X78585281Y-86482749D01*
X78588072Y-86479345D01*
X78630591Y-86429297D01*
X78630592Y-86429295D01*
X78635333Y-86423715D01*
X78638661Y-86417199D01*
X78642028Y-86412150D01*
X78645195Y-86407021D01*
X78649734Y-86401284D01*
X78680655Y-86335125D01*
X78682561Y-86331225D01*
X78691613Y-86313498D01*
X78715769Y-86266192D01*
X78717508Y-86259084D01*
X78719607Y-86253441D01*
X78721524Y-86247678D01*
X78724622Y-86241050D01*
X78739487Y-86169583D01*
X78740457Y-86165299D01*
X78757808Y-86094390D01*
X78758500Y-86083236D01*
X78758536Y-86083238D01*
X78758775Y-86079245D01*
X78759149Y-86075053D01*
X78760640Y-86067885D01*
X78758546Y-85990479D01*
X78758500Y-85987072D01*
X78758500Y-81067070D01*
X78759933Y-81048120D01*
X78762099Y-81033885D01*
X78762099Y-81033881D01*
X78763199Y-81026651D01*
X78758915Y-80973982D01*
X78758500Y-80963767D01*
X78758500Y-80955707D01*
X78755209Y-80927480D01*
X78754778Y-80923121D01*
X78749454Y-80857662D01*
X78749453Y-80857659D01*
X78748860Y-80850364D01*
X78746604Y-80843400D01*
X78745417Y-80837461D01*
X78744030Y-80831590D01*
X78743182Y-80824319D01*
X78740686Y-80817443D01*
X78740684Y-80817434D01*
X78718275Y-80755702D01*
X78716865Y-80751598D01*
X78694352Y-80682101D01*
X78690556Y-80675846D01*
X78688057Y-80670387D01*
X78685329Y-80664939D01*
X78682833Y-80658063D01*
X78642805Y-80597010D01*
X78640481Y-80593327D01*
X78605500Y-80535680D01*
X78605499Y-80535679D01*
X78602595Y-80530893D01*
X78597886Y-80525560D01*
X78595198Y-80522517D01*
X78595225Y-80522493D01*
X78592570Y-80519499D01*
X78589868Y-80516268D01*
X78585856Y-80510148D01*
X78529617Y-80456872D01*
X78527175Y-80454494D01*
X77583770Y-79511089D01*
X77571384Y-79496677D01*
X77562851Y-79485082D01*
X77562846Y-79485077D01*
X77558508Y-79479182D01*
X77552930Y-79474443D01*
X77552927Y-79474440D01*
X77518232Y-79444965D01*
X77510716Y-79438035D01*
X77505021Y-79432340D01*
X77498880Y-79427482D01*
X77482749Y-79414719D01*
X77479345Y-79411928D01*
X77429297Y-79369409D01*
X77429295Y-79369408D01*
X77423715Y-79364667D01*
X77417199Y-79361339D01*
X77412150Y-79357972D01*
X77407021Y-79354805D01*
X77401284Y-79350266D01*
X77335125Y-79319345D01*
X77331225Y-79317439D01*
X77318490Y-79310936D01*
X77266192Y-79284231D01*
X77259084Y-79282492D01*
X77253441Y-79280393D01*
X77247678Y-79278476D01*
X77241050Y-79275378D01*
X77169583Y-79260513D01*
X77165299Y-79259543D01*
X77119716Y-79248389D01*
X77058301Y-79212769D01*
X77025894Y-79149600D01*
X77032783Y-79078939D01*
X77076780Y-79023219D01*
X77149664Y-79000000D01*
X79000000Y-79000000D01*
X79000000Y-71000000D01*
X71000000Y-71000000D01*
X71000000Y-79000000D01*
X71007794Y-79000000D01*
X71030170Y-79019389D01*
X71029466Y-79020201D01*
X71040826Y-79026404D01*
X71074851Y-79088716D01*
X71069787Y-79159532D01*
X71027241Y-79216368D01*
X70960721Y-79241179D01*
X70951731Y-79241500D01*
X70366371Y-79241500D01*
X70298250Y-79221498D01*
X70277276Y-79204595D01*
X69795405Y-78722724D01*
X69761379Y-78660412D01*
X69758500Y-78633629D01*
X69758500Y-73067070D01*
X69759933Y-73048120D01*
X69762099Y-73033885D01*
X69762099Y-73033881D01*
X69763199Y-73026651D01*
X69758915Y-72973982D01*
X69758500Y-72963767D01*
X69758500Y-72955707D01*
X69755209Y-72927480D01*
X69754778Y-72923121D01*
X69749454Y-72857662D01*
X69749453Y-72857659D01*
X69748860Y-72850364D01*
X69746604Y-72843400D01*
X69745417Y-72837461D01*
X69744030Y-72831590D01*
X69743182Y-72824319D01*
X69740686Y-72817443D01*
X69740684Y-72817434D01*
X69718275Y-72755702D01*
X69716865Y-72751598D01*
X69694352Y-72682101D01*
X69690556Y-72675846D01*
X69688057Y-72670387D01*
X69685329Y-72664939D01*
X69682833Y-72658063D01*
X69642805Y-72597010D01*
X69640481Y-72593327D01*
X69637158Y-72587850D01*
X69602595Y-72530893D01*
X69595198Y-72522517D01*
X69595225Y-72522493D01*
X69592570Y-72519499D01*
X69589868Y-72516268D01*
X69585856Y-72510148D01*
X69529617Y-72456872D01*
X69527175Y-72454494D01*
X68583770Y-71511089D01*
X68571384Y-71496677D01*
X68562851Y-71485082D01*
X68562846Y-71485077D01*
X68558508Y-71479182D01*
X68552930Y-71474443D01*
X68552927Y-71474440D01*
X68518232Y-71444965D01*
X68510716Y-71438035D01*
X68505021Y-71432340D01*
X68488736Y-71419456D01*
X68482749Y-71414719D01*
X68479345Y-71411928D01*
X68429297Y-71369409D01*
X68429295Y-71369408D01*
X68423715Y-71364667D01*
X68417199Y-71361339D01*
X68412150Y-71357972D01*
X68407021Y-71354805D01*
X68401284Y-71350266D01*
X68335125Y-71319345D01*
X68331225Y-71317439D01*
X68266192Y-71284231D01*
X68259084Y-71282492D01*
X68253441Y-71280393D01*
X68247678Y-71278476D01*
X68241050Y-71275378D01*
X68169583Y-71260513D01*
X68165299Y-71259543D01*
X68094390Y-71242192D01*
X68088788Y-71241844D01*
X68088785Y-71241844D01*
X68083236Y-71241500D01*
X68083238Y-71241464D01*
X68079245Y-71241225D01*
X68075053Y-71240851D01*
X68067885Y-71239360D01*
X68004120Y-71241085D01*
X67990479Y-71241454D01*
X67987072Y-71241500D01*
X60067070Y-71241500D01*
X60048120Y-71240067D01*
X60033885Y-71237901D01*
X60033881Y-71237901D01*
X60026651Y-71236801D01*
X60019359Y-71237394D01*
X60019356Y-71237394D01*
X59973982Y-71241085D01*
X59963767Y-71241500D01*
X59955707Y-71241500D01*
X59952073Y-71241924D01*
X59952067Y-71241924D01*
X59939042Y-71243443D01*
X59927480Y-71244791D01*
X59923132Y-71245221D01*
X59901059Y-71247016D01*
X59857662Y-71250546D01*
X59857659Y-71250547D01*
X59850364Y-71251140D01*
X59843400Y-71253396D01*
X59837461Y-71254583D01*
X59831590Y-71255970D01*
X59824319Y-71256818D01*
X59817443Y-71259314D01*
X59817434Y-71259316D01*
X59755702Y-71281725D01*
X59751598Y-71283135D01*
X59682101Y-71305648D01*
X59675846Y-71309444D01*
X59670387Y-71311943D01*
X59664939Y-71314671D01*
X59658063Y-71317167D01*
X59597010Y-71357195D01*
X59593337Y-71359513D01*
X59530893Y-71397405D01*
X59522517Y-71404802D01*
X59522493Y-71404775D01*
X59519499Y-71407430D01*
X59516268Y-71410132D01*
X59510148Y-71414144D01*
X59480951Y-71444965D01*
X59456872Y-71470383D01*
X59454494Y-71472825D01*
X58511089Y-72416230D01*
X58496677Y-72428616D01*
X58485082Y-72437149D01*
X58485077Y-72437154D01*
X58479182Y-72441492D01*
X58474443Y-72447070D01*
X58474440Y-72447073D01*
X58444965Y-72481768D01*
X58438035Y-72489284D01*
X58432340Y-72494979D01*
X58430060Y-72497861D01*
X58414719Y-72517251D01*
X58411928Y-72520655D01*
X58369409Y-72570703D01*
X58364667Y-72576285D01*
X58361339Y-72582801D01*
X58357972Y-72587850D01*
X58354805Y-72592979D01*
X58350266Y-72598716D01*
X58319345Y-72664875D01*
X58317442Y-72668769D01*
X58284231Y-72733808D01*
X58282492Y-72740916D01*
X58280393Y-72746559D01*
X58278476Y-72752322D01*
X58275378Y-72758950D01*
X58273888Y-72766112D01*
X58273888Y-72766113D01*
X58260514Y-72830412D01*
X58259544Y-72834696D01*
X58242192Y-72905610D01*
X58241500Y-72916764D01*
X58241464Y-72916762D01*
X58241225Y-72920755D01*
X58240851Y-72924947D01*
X58239360Y-72932115D01*
X58239558Y-72939432D01*
X58241454Y-73009521D01*
X58241500Y-73012928D01*
X58241500Y-75028691D01*
X58221498Y-75096812D01*
X58167842Y-75143305D01*
X58097568Y-75153409D01*
X58049384Y-75135951D01*
X57928968Y-75061725D01*
X57928966Y-75061724D01*
X57922738Y-75057885D01*
X57809353Y-75020277D01*
X57761389Y-75004368D01*
X57761387Y-75004368D01*
X57754861Y-75002203D01*
X57748025Y-75001503D01*
X57748022Y-75001502D01*
X57704969Y-74997091D01*
X57650400Y-74991500D01*
X56349600Y-74991500D01*
X56346354Y-74991837D01*
X56346350Y-74991837D01*
X56250692Y-75001762D01*
X56250688Y-75001763D01*
X56243834Y-75002474D01*
X56237298Y-75004655D01*
X56237296Y-75004655D01*
X56105194Y-75048728D01*
X56076054Y-75058450D01*
X55925652Y-75151522D01*
X55800695Y-75276697D01*
X55796855Y-75282927D01*
X55796854Y-75282928D01*
X55722466Y-75403608D01*
X55707885Y-75427262D01*
X55705581Y-75434209D01*
X55656432Y-75582390D01*
X55652203Y-75595139D01*
X55651503Y-75601975D01*
X55651502Y-75601978D01*
X55647091Y-75645031D01*
X55641500Y-75699600D01*
X55641500Y-76708629D01*
X55621498Y-76776750D01*
X55604595Y-76797724D01*
X48197724Y-84204595D01*
X48135412Y-84238621D01*
X48108629Y-84241500D01*
X46781867Y-84241500D01*
X46713746Y-84221498D01*
X46678655Y-84187772D01*
X46656198Y-84155700D01*
X46494300Y-83993802D01*
X46489792Y-83990645D01*
X46489789Y-83990643D01*
X46383030Y-83915890D01*
X46306749Y-83862477D01*
X46301767Y-83860154D01*
X46301762Y-83860151D01*
X46104225Y-83768039D01*
X46104224Y-83768039D01*
X46099243Y-83765716D01*
X46093935Y-83764294D01*
X46093933Y-83764293D01*
X45883402Y-83707881D01*
X45883400Y-83707881D01*
X45878087Y-83706457D01*
X45650000Y-83686502D01*
X45421913Y-83706457D01*
X45416600Y-83707881D01*
X45416598Y-83707881D01*
X45206067Y-83764293D01*
X45206065Y-83764294D01*
X45200757Y-83765716D01*
X45195776Y-83768039D01*
X45195775Y-83768039D01*
X44998238Y-83860151D01*
X44998233Y-83860154D01*
X44993251Y-83862477D01*
X44916970Y-83915890D01*
X44810211Y-83990643D01*
X44810208Y-83990645D01*
X44805700Y-83993802D01*
X44643802Y-84155700D01*
X44512477Y-84343251D01*
X44510154Y-84348233D01*
X44510151Y-84348238D01*
X44418039Y-84545775D01*
X44415716Y-84550757D01*
X44356457Y-84771913D01*
X44336502Y-85000000D01*
X44356457Y-85228087D01*
X44415716Y-85449243D01*
X44418039Y-85454224D01*
X44418039Y-85454225D01*
X44510151Y-85651762D01*
X44510154Y-85651767D01*
X44512477Y-85656749D01*
X44643802Y-85844300D01*
X44805700Y-86006198D01*
X44810208Y-86009355D01*
X44810211Y-86009357D01*
X44859598Y-86043938D01*
X44993251Y-86137523D01*
X44998233Y-86139846D01*
X44998238Y-86139849D01*
X45142462Y-86207101D01*
X45200757Y-86234284D01*
X45206065Y-86235706D01*
X45206067Y-86235707D01*
X45416598Y-86292119D01*
X45416600Y-86292119D01*
X45421913Y-86293543D01*
X45650000Y-86313498D01*
X45878087Y-86293543D01*
X45883400Y-86292119D01*
X45883402Y-86292119D01*
X46093933Y-86235707D01*
X46093935Y-86235706D01*
X46099243Y-86234284D01*
X46157538Y-86207101D01*
X46301762Y-86139849D01*
X46301767Y-86139846D01*
X46306749Y-86137523D01*
X46440402Y-86043938D01*
X46489789Y-86009357D01*
X46489792Y-86009355D01*
X46494300Y-86006198D01*
X46656198Y-85844300D01*
X46678655Y-85812229D01*
X46734110Y-85767901D01*
X46781867Y-85758500D01*
X48108629Y-85758500D01*
X48176750Y-85778502D01*
X48197724Y-85795405D01*
X49204595Y-86802276D01*
X49238621Y-86864588D01*
X49241500Y-86891371D01*
X49241500Y-91133609D01*
X49221498Y-91201730D01*
X49198580Y-91228338D01*
X49196821Y-91229881D01*
X49192478Y-91233690D01*
X49188911Y-91238215D01*
X49188906Y-91238220D01*
X49154081Y-91282396D01*
X49066351Y-91393681D01*
X48971492Y-91573978D01*
X48911078Y-91768543D01*
X48887132Y-91970859D01*
X48887662Y-91978951D01*
X48887421Y-91980031D01*
X48887359Y-91982396D01*
X48886895Y-91982384D01*
X48872163Y-92048233D01*
X48851028Y-92076291D01*
X45161089Y-95766230D01*
X45146677Y-95778616D01*
X45135082Y-95787149D01*
X45135077Y-95787154D01*
X45129182Y-95791492D01*
X45124443Y-95797070D01*
X45124440Y-95797073D01*
X45094965Y-95831768D01*
X45088035Y-95839284D01*
X45082340Y-95844979D01*
X45080060Y-95847861D01*
X45064719Y-95867251D01*
X45061928Y-95870655D01*
X45019409Y-95920703D01*
X45014667Y-95926285D01*
X45011339Y-95932801D01*
X45007972Y-95937850D01*
X45004805Y-95942979D01*
X45000266Y-95948716D01*
X44969345Y-96014875D01*
X44967442Y-96018769D01*
X44934231Y-96083808D01*
X44932492Y-96090916D01*
X44930393Y-96096559D01*
X44928476Y-96102322D01*
X44925378Y-96108950D01*
X44923888Y-96116112D01*
X44923888Y-96116113D01*
X44910514Y-96180412D01*
X44909544Y-96184696D01*
X44892192Y-96255610D01*
X44891500Y-96266764D01*
X44891464Y-96266762D01*
X44891225Y-96270755D01*
X44890851Y-96274947D01*
X44889360Y-96282115D01*
X44889558Y-96289432D01*
X44891454Y-96359521D01*
X44891500Y-96362928D01*
X44891500Y-97868133D01*
X44871498Y-97936254D01*
X44837772Y-97971345D01*
X44805700Y-97993802D01*
X44643802Y-98155700D01*
X44512477Y-98343251D01*
X44510154Y-98348233D01*
X44510151Y-98348238D01*
X44418039Y-98545775D01*
X44415716Y-98550757D01*
X44356457Y-98771913D01*
X44336502Y-99000000D01*
X43000000Y-99000000D01*
X43000000Y-79000000D01*
X44000000Y-79000000D01*
X52000000Y-79000000D01*
X52000000Y-71000000D01*
X44000000Y-71000000D01*
X44000000Y-79000000D01*
X43000000Y-79000000D01*
X43000000Y-70126000D01*
X43020002Y-70057879D01*
X43073658Y-70011386D01*
X43126000Y-70000000D01*
X79874000Y-70000000D01*
X79942121Y-70020002D01*
G37*
%TD.AperFunction*%
%TD*%
M02*
