M48
; DRILL file {KiCad 8.0.8-8.0.8-0~ubuntu24.04.1} date 2025-02-21T17:51:28+0000
; FORMAT={-:-/ absolute / inch / decimal}
; #@! TF.CreationDate,2025-02-21T17:51:28+00:00
; #@! TF.GenerationSoftware,Kicad,Pcbnew,8.0.8-8.0.8-0~ubuntu24.04.1
; #@! TF.FileFunction,Plated,1,2,PTH
FMAT,2
INCH
; #@! TA.AperFunction,Plated,PTH,ComponentDrill
T1C0.0315
; #@! TA.AperFunction,Plated,PTH,ComponentDrill
T2C0.0374
; #@! TA.AperFunction,Plated,PTH,ComponentDrill
T3C0.0394
%
G90
G05
T1
X4.2028Y-4.7638
X4.2028Y-4.9803
X4.2028Y-5.187
X4.3996Y-4.7638
X4.3996Y-4.9803
X4.3996Y-5.187
T2
X3.5728Y-3.2394
X3.5728Y-3.6724
X3.6713Y-3.2394
X3.6713Y-3.6724
X3.7697Y-3.2394
X3.7697Y-3.6724
X3.8681Y-3.2394
X3.8681Y-3.6724
T3
X3.3268Y-4.326
X3.3268Y-4.426
X3.3268Y-4.526
X3.3268Y-4.626
X3.3268Y-4.726
X3.3268Y-4.826
X3.3268Y-4.926
X3.3268Y-5.026
X3.3268Y-5.126
X3.3268Y-5.226
X3.3661Y-3.6315
X3.3661Y-3.7315
X3.4711Y-4.0661
X3.5711Y-4.0661
X3.6711Y-4.0661
X3.7711Y-4.0661
X3.8711Y-4.0661
X4.0059Y-4.3307
X4.0059Y-4.4307
X4.0059Y-4.5307
X4.0059Y-4.6307
X4.0059Y-4.7307
X4.0059Y-4.8307
X4.0059Y-4.9307
X4.0059Y-5.0307
X4.0059Y-5.1307
X4.0059Y-5.2307
X4.4902Y-3.2776
X4.4902Y-3.376
X4.4902Y-3.622
X4.4902Y-3.7205
X4.4902Y-3.9665
X4.4902Y-4.065
M30
