M48
; DRILL file {KiCad 8.0.9-8.0.9-0~ubuntu24.04.1} date 2025-02-28T17:11:56+0000
; FORMAT={-:-/ absolute / inch / decimal}
; #@! TF.CreationDate,2025-02-28T17:11:56+00:00
; #@! TF.GenerationSoftware,Kicad,Pcbnew,8.0.9-8.0.9-0~ubuntu24.04.1
; #@! TF.FileFunction,Plated,1,2,PTH
FMAT,2
INCH
; #@! TA.AperFunction,Plated,PTH,ViaDrill
T1C0.0157
; #@! TA.AperFunction,Plated,PTH,ComponentDrill
T2C0.0315
; #@! TA.AperFunction,Plated,PTH,ComponentDrill
T3C0.0354
; #@! TA.AperFunction,Plated,PTH,ComponentDrill
T4C0.0374
; #@! TA.AperFunction,Plated,PTH,ComponentDrill
T5C0.0394
; #@! TA.AperFunction,Plated,PTH,ComponentDrill
T6C0.0409
; #@! TA.AperFunction,Plated,PTH,ComponentDrill
T7C0.0433
; #@! TA.AperFunction,Plated,PTH,ComponentDrill
T8C0.0472
; #@! TA.AperFunction,Plated,PTH,ComponentDrill
T9C0.0630
%
G90
G05
T1
X5.378Y-2.8583
T2
X4.3386Y-2.2638
X4.3386Y-2.4606
X4.3602Y-3.315
X4.3602Y-3.5118
X4.3701Y-4.1161
X4.3701Y-4.313
X4.372Y-4.4291
X4.372Y-4.626
X4.372Y-4.748
X4.372Y-4.9449
X4.5406Y-3.3465
X4.5406Y-3.4465
X4.5406Y-3.5465
X4.5406Y-3.6465
X4.5406Y-3.7465
X4.5406Y-3.8465
X4.5406Y-3.9465
X4.5406Y-4.0465
X4.5435Y-2.4644
X4.5435Y-2.5644
X4.5435Y-2.6644
X4.5435Y-2.7644
X4.5435Y-2.8644
X4.5435Y-2.9644
X4.5435Y-3.0644
X4.5435Y-3.1644
X4.8406Y-3.3465
X4.8406Y-3.4465
X4.8406Y-3.5465
X4.8406Y-3.6465
X4.8406Y-3.7465
X4.8406Y-3.8465
X4.8406Y-3.9465
X4.8406Y-4.0465
X4.8435Y-2.4644
X4.8435Y-2.5644
X4.8435Y-2.6644
X4.8435Y-2.7644
X4.8435Y-2.8644
X4.8435Y-2.9644
X4.8435Y-3.0644
X4.8435Y-3.1644
X5.5315Y-5.5217
X5.7283Y-5.5217
X5.8937Y-4.6485
X5.935Y-5.5217
X5.9567Y-4.5236
X5.9567Y-4.622
X6.0197Y-4.4972
X6.0827Y-4.0157
X6.0827Y-4.1654
X6.1319Y-5.5217
X6.25Y-3.9173
X6.252Y-3.75
X6.3189Y-2.0866
X6.3189Y-2.2441
X6.3189Y-2.5591
X6.3209Y-2.4016
X6.3858Y-3.2598
X6.3858Y-3.4173
X6.3917Y-3.0945
X6.3937Y-2.937
X6.3957Y-4.5512
X6.3957Y-4.7087
X6.3976Y-4.3858
X6.4035Y-4.2205
X6.4094Y-5.1555
X6.4094Y-5.3228
X6.5197Y-1.874
X6.5197Y-2.748
X6.6811Y-4.8976
X6.7165Y-1.874
X6.7165Y-2.748
X6.75Y-3.9173
X6.752Y-3.75
X6.8189Y-2.0866
X6.8189Y-2.2441
X6.8189Y-2.5591
X6.8209Y-2.4016
X6.878Y-4.8976
X6.8858Y-3.2598
X6.8858Y-3.4173
X6.8917Y-3.0945
X6.8937Y-2.937
X6.8957Y-4.5512
X6.8957Y-4.7087
X6.8976Y-4.3858
X6.9035Y-4.2205
X6.9094Y-5.1555
X6.9094Y-5.3228
X6.939Y-3.6024
X6.939Y-3.7992
X6.9685Y-1.6555
X6.9685Y-2.1555
X6.9685Y-2.2717
X6.9685Y-2.7717
X6.9961Y-4.7087
X7.0Y-2.937
X7.0039Y-4.2283
X7.0118Y-3.4094
X7.0906Y-3.2362
X7.1024Y-4.3622
X7.1024Y-4.5591
X7.2874Y-3.2362
X7.4961Y-4.7087
X7.5Y-2.937
X7.5039Y-4.2283
X7.5118Y-3.4094
T3
X4.4571Y-1.6831
X4.5571Y-1.6831
T4
X4.0965Y-3.5374
X4.0965Y-3.6358
X4.0965Y-3.7343
X4.0965Y-3.8327
X4.0965Y-3.9311
X4.1004Y-2.872
X4.1004Y-2.9705
X4.1004Y-3.0689
X4.1004Y-3.1673
X4.1004Y-3.2657
X4.1024Y-2.2067
X4.1024Y-2.3051
X4.1024Y-2.4035
X4.1024Y-2.502
X4.1024Y-2.6004
X4.7736Y-4.4291
X4.7736Y-4.7736
X4.872Y-4.4291
X4.872Y-4.7736
X4.9705Y-4.4291
X4.9705Y-4.7736
X5.0689Y-4.4291
X5.0689Y-4.7736
X7.3819Y-2.1752
X7.3819Y-2.2736
X7.3819Y-2.372
X7.3819Y-2.4705
X7.3819Y-2.5689
X7.3819Y-3.6122
X7.3819Y-3.7106
X7.3819Y-3.8091
X7.3819Y-3.9075
X7.3819Y-4.0059
X7.3819Y-4.9508
X7.3819Y-5.0492
X7.3819Y-5.1476
X7.3819Y-5.2461
X7.3819Y-5.3445
T5
X4.1516Y-4.1969
X4.1516Y-4.2953
X4.1516Y-4.5689
X4.1516Y-4.6673
X4.1516Y-4.9409
X4.1516Y-5.0394
X4.1535Y-5.2756
X4.1535Y-5.3756
X4.1535Y-5.4756
X4.1535Y-5.5756
X4.1535Y-5.6756
X4.4193Y-5.8268
X4.4197Y-5.1476
X4.4488Y-1.8996
X4.4488Y-1.998
X4.5193Y-5.8268
X4.5197Y-5.1476
X4.5748Y-2.2047
X4.6193Y-5.8268
X4.6197Y-5.1476
X4.7193Y-5.8268
X4.7197Y-5.1476
X4.8193Y-5.8268
X4.8197Y-5.1476
X4.9193Y-5.8268
X4.9197Y-5.1476
X4.9291Y-2.2047
X5.0193Y-5.8268
X5.0197Y-5.1476
X5.1193Y-5.8268
X5.1197Y-5.1476
X5.2193Y-5.8268
X5.2197Y-5.1476
X5.3193Y-5.8268
X5.3197Y-5.1476
X5.5906Y-5.7579
X5.689Y-5.7579
X5.9646Y-5.7579
X6.063Y-5.7579
X6.3976Y-5.7677
X6.4961Y-5.7677
X6.8425Y-5.7677
X6.9409Y-5.7677
T6
X5.1457Y-1.7433
X5.1457Y-1.8433
X5.1457Y-1.9433
X5.1457Y-2.0433
X5.1457Y-2.1433
X5.1457Y-2.2433
X5.1457Y-2.3433
X5.1457Y-2.4433
X5.1457Y-2.5433
X5.1457Y-2.6433
X5.1457Y-2.7433
X5.1457Y-2.8433
X5.1457Y-2.9433
X5.1457Y-3.0433
X5.1457Y-3.1433
X5.1457Y-3.2433
X5.1457Y-3.3433
X5.1457Y-3.4433
X5.1457Y-3.5433
X6.1457Y-1.7433
X6.1457Y-1.8433
X6.1457Y-1.9433
X6.1457Y-2.0433
X6.1457Y-2.1433
X6.1457Y-2.2433
X6.1457Y-2.3433
X6.1457Y-2.4433
X6.1457Y-2.5433
X6.1457Y-2.6433
X6.1457Y-2.7433
X6.1457Y-2.8433
X6.1457Y-2.9433
X6.1457Y-3.0433
X6.1457Y-3.1433
X6.1457Y-3.2433
X6.1457Y-3.3433
X6.1457Y-3.4433
X6.1457Y-3.5433
T7
X5.8504Y-4.9154
X5.9173Y-5.061
X5.9843Y-4.9154
X6.0512Y-5.061
X6.1181Y-4.9154
T8
X5.5906Y-3.9961
X5.5906Y-4.1929
T9
X5.561Y-4.5031
X5.561Y-5.1031
T5
G00X4.6538Y-1.8602
M15
G01X4.6538Y-1.939
M16
G05
G00X4.8782Y-1.7815
M15
G01X4.7995Y-1.7815
M16
G05
G00X4.8782Y-2.0177
M15
G01X4.7995Y-2.0177
M16
G05
M30
