%TF.GenerationSoftware,KiCad,Pcbnew,8.0.9-8.0.9-0~ubuntu24.04.1*%
%TF.CreationDate,2025-02-28T17:11:59+00:00*%
%TF.ProjectId,integrated_board,696e7465-6772-4617-9465-645f626f6172,rev?*%
%TF.SameCoordinates,Original*%
%TF.FileFunction,Copper,L1,Top*%
%TF.FilePolarity,Positive*%
%FSLAX46Y46*%
G04 Gerber Fmt 4.6, Leading zero omitted, Abs format (unit mm)*
G04 Created by KiCad (PCBNEW 8.0.9-8.0.9-0~ubuntu24.04.1) date 2025-02-28 17:11:59*
%MOMM*%
%LPD*%
G01*
G04 APERTURE LIST*
G04 Aperture macros list*
%AMRoundRect*
0 Rectangle with rounded corners*
0 $1 Rounding radius*
0 $2 $3 $4 $5 $6 $7 $8 $9 X,Y pos of 4 corners*
0 Add a 4 corners polygon primitive as box body*
4,1,4,$2,$3,$4,$5,$6,$7,$8,$9,$2,$3,0*
0 Add four circle primitives for the rounded corners*
1,1,$1+$1,$2,$3*
1,1,$1+$1,$4,$5*
1,1,$1+$1,$6,$7*
1,1,$1+$1,$8,$9*
0 Add four rect primitives between the rounded corners*
20,1,$1+$1,$2,$3,$4,$5,0*
20,1,$1+$1,$4,$5,$6,$7,0*
20,1,$1+$1,$6,$7,$8,$9,0*
20,1,$1+$1,$8,$9,$2,$3,0*%
G04 Aperture macros list end*
%TA.AperFunction,ComponentPad*%
%ADD10RoundRect,0.250000X-0.750000X0.600000X-0.750000X-0.600000X0.750000X-0.600000X0.750000X0.600000X0*%
%TD*%
%TA.AperFunction,ComponentPad*%
%ADD11O,2.000000X1.700000*%
%TD*%
%TA.AperFunction,ComponentPad*%
%ADD12C,1.600000*%
%TD*%
%TA.AperFunction,ComponentPad*%
%ADD13O,1.600000X1.600000*%
%TD*%
%TA.AperFunction,ComponentPad*%
%ADD14C,2.000000*%
%TD*%
%TA.AperFunction,ComponentPad*%
%ADD15RoundRect,0.250000X-0.600000X-0.750000X0.600000X-0.750000X0.600000X0.750000X-0.600000X0.750000X0*%
%TD*%
%TA.AperFunction,ComponentPad*%
%ADD16O,1.700000X2.000000*%
%TD*%
%TA.AperFunction,ComponentPad*%
%ADD17R,1.700000X1.700000*%
%TD*%
%TA.AperFunction,ComponentPad*%
%ADD18O,1.700000X1.700000*%
%TD*%
%TA.AperFunction,ComponentPad*%
%ADD19RoundRect,0.250000X0.725000X-0.600000X0.725000X0.600000X-0.725000X0.600000X-0.725000X-0.600000X0*%
%TD*%
%TA.AperFunction,ComponentPad*%
%ADD20O,1.950000X1.700000*%
%TD*%
%TA.AperFunction,ComponentPad*%
%ADD21RoundRect,0.250000X-0.725000X0.600000X-0.725000X-0.600000X0.725000X-0.600000X0.725000X0.600000X0*%
%TD*%
%TA.AperFunction,ComponentPad*%
%ADD22RoundRect,0.250000X0.600000X0.725000X-0.600000X0.725000X-0.600000X-0.725000X0.600000X-0.725000X0*%
%TD*%
%TA.AperFunction,ComponentPad*%
%ADD23O,1.700000X1.950000*%
%TD*%
%TA.AperFunction,ComponentPad*%
%ADD24R,2.400000X1.600000*%
%TD*%
%TA.AperFunction,ComponentPad*%
%ADD25O,2.400000X1.600000*%
%TD*%
%TA.AperFunction,ComponentPad*%
%ADD26R,3.500000X3.500000*%
%TD*%
%TA.AperFunction,ComponentPad*%
%ADD27RoundRect,0.750000X-1.000000X0.750000X-1.000000X-0.750000X1.000000X-0.750000X1.000000X0.750000X0*%
%TD*%
%TA.AperFunction,ComponentPad*%
%ADD28RoundRect,0.875000X-0.875000X0.875000X-0.875000X-0.875000X0.875000X-0.875000X0.875000X0.875000X0*%
%TD*%
%TA.AperFunction,ComponentPad*%
%ADD29R,3.200000X3.200000*%
%TD*%
%TA.AperFunction,ComponentPad*%
%ADD30O,3.200000X3.200000*%
%TD*%
%TA.AperFunction,ComponentPad*%
%ADD31R,1.600000X1.600000*%
%TD*%
%TA.AperFunction,ComponentPad*%
%ADD32C,2.400000*%
%TD*%
%TA.AperFunction,ComponentPad*%
%ADD33R,1.800000X1.800000*%
%TD*%
%TA.AperFunction,ComponentPad*%
%ADD34O,1.800000X1.800000*%
%TD*%
%TA.AperFunction,ComponentPad*%
%ADD35C,1.800000*%
%TD*%
%TA.AperFunction,ComponentPad*%
%ADD36R,1.560000X1.560000*%
%TD*%
%TA.AperFunction,ComponentPad*%
%ADD37C,1.560000*%
%TD*%
%TA.AperFunction,ViaPad*%
%ADD38C,0.800000*%
%TD*%
%TA.AperFunction,Conductor*%
%ADD39C,1.000000*%
%TD*%
%TA.AperFunction,Conductor*%
%ADD40C,0.500000*%
%TD*%
%TA.AperFunction,Conductor*%
%ADD41C,0.350000*%
%TD*%
%TA.AperFunction,Conductor*%
%ADD42C,0.250000*%
%TD*%
G04 APERTURE END LIST*
D10*
%TO.P,J6,1,Pin_1*%
%TO.N,GND*%
X105450000Y-116050000D03*
D11*
%TO.P,J6,2,Pin_2*%
%TO.N,Net-(J6-Pin_2)*%
X105450000Y-118550000D03*
%TD*%
D10*
%TO.P,P1,1,Pin_1*%
%TO.N,Net-(P1-Pin_1)*%
X113000000Y-48250000D03*
D11*
%TO.P,P1,2,Pin_2*%
%TO.N,Net-(P1-Pin_2)*%
X113000000Y-50750000D03*
%TD*%
D12*
%TO.P,R3,1*%
%TO.N,GND*%
X175050000Y-78600000D03*
D13*
%TO.P,R3,2*%
%TO.N,encoderY_1*%
X162350000Y-78600000D03*
%TD*%
D14*
%TO.P,R7,1*%
%TO.N,Net-(D2-A)*%
X116200000Y-56000000D03*
%TO.P,R7,2*%
%TO.N,Net-(P1-Pin_2)*%
X125200000Y-56000000D03*
%TD*%
D15*
%TO.P,J4,1,Pin_1*%
%TO.N,GND*%
X151500000Y-146250000D03*
D16*
%TO.P,J4,2,Pin_2*%
%TO.N,Net-(J4-Pin_2)*%
X154000000Y-146250000D03*
%TD*%
D12*
%TO.P,R4,1*%
%TO.N,Net-(J14-Pin_1)*%
X178100000Y-86600000D03*
D13*
%TO.P,R4,2*%
%TO.N,+5V*%
X190800000Y-86600000D03*
%TD*%
D17*
%TO.P,J10,1,Pin_1*%
%TO.N,GND*%
X105500000Y-134000000D03*
D18*
%TO.P,J10,2,Pin_2*%
%TO.N,+5V*%
X105500000Y-136540000D03*
%TO.P,J10,3,Pin_3*%
%TO.N,I2C_SDA*%
X105500000Y-139080000D03*
%TO.P,J10,4,Pin_4*%
%TO.N,I2C_SCL*%
X105500000Y-141620000D03*
%TO.P,J10,5,Pin_5*%
%TO.N,I2C_INT*%
X105500000Y-144160000D03*
%TD*%
D15*
%TO.P,J11,1,Pin_1*%
%TO.N,GND*%
X142000000Y-146250000D03*
D16*
%TO.P,J11,2,Pin_2*%
%TO.N,Net-(J11-Pin_2)*%
X144500000Y-146250000D03*
%TD*%
D12*
%TO.P,C9,1*%
%TO.N,GND*%
X165600000Y-47600000D03*
%TO.P,C9,2*%
%TO.N,Net-(J12-Pin_1)*%
X170600000Y-47600000D03*
%TD*%
D19*
%TO.P,J12,1,Pin_1*%
%TO.N,Net-(J12-Pin_1)*%
X187500000Y-65250000D03*
D20*
%TO.P,J12,2,Pin_2*%
%TO.N,+5V*%
X187500000Y-62750000D03*
%TO.P,J12,3,Pin_3*%
%TO.N,Net-(J12-Pin_3)*%
X187500000Y-60250000D03*
%TO.P,J12,4,Pin_4*%
%TO.N,unconnected-(J12-Pin_4-Pad4)*%
X187500000Y-57750000D03*
%TO.P,J12,5,Pin_5*%
%TO.N,GND*%
X187500000Y-55250000D03*
%TD*%
D12*
%TO.P,R23,1*%
%TO.N,encoderZ_1*%
X162650000Y-107200000D03*
D13*
%TO.P,R23,2*%
%TO.N,Net-(J16-Pin_3)*%
X175350000Y-107200000D03*
%TD*%
D12*
%TO.P,R24,1*%
%TO.N,GND*%
X175200000Y-111400000D03*
D13*
%TO.P,R24,2*%
%TO.N,encoderZ_1*%
X162500000Y-111400000D03*
%TD*%
D12*
%TO.P,R25,1*%
%TO.N,Net-(J16-Pin_1)*%
X177700000Y-119600000D03*
D13*
%TO.P,R25,2*%
%TO.N,+5V*%
X190400000Y-119600000D03*
%TD*%
D12*
%TO.P,C3,1*%
%TO.N,GND*%
X110200000Y-57500000D03*
%TO.P,C3,2*%
%TO.N,+5V*%
X110200000Y-62500000D03*
%TD*%
%TO.P,C12,1*%
%TO.N,GND*%
X111050000Y-112500000D03*
%TO.P,C12,2*%
%TO.N,Net-(J6-Pin_2)*%
X111050000Y-117500000D03*
%TD*%
D21*
%TO.P,J13,1,Pin_1*%
%TO.N,Net-(J13-Pin_1)*%
X104200000Y-56050000D03*
D20*
%TO.P,J13,2,Pin_2*%
%TO.N,Net-(J13-Pin_2)*%
X104200000Y-58550000D03*
%TO.P,J13,3,Pin_3*%
%TO.N,Net-(J13-Pin_3)*%
X104200000Y-61050000D03*
%TO.P,J13,4,Pin_4*%
%TO.N,Net-(J13-Pin_4)*%
X104200000Y-63550000D03*
%TO.P,J13,5,Pin_5*%
%TO.N,+5V*%
X104200000Y-66050000D03*
%TD*%
D12*
%TO.P,R15,1*%
%TO.N,GND*%
X173200000Y-57000000D03*
D13*
%TO.P,R15,2*%
%TO.N,encoderX_1*%
X160500000Y-57000000D03*
%TD*%
D12*
%TO.P,R8,1*%
%TO.N,Net-(J11-Pin_2)*%
X171500000Y-95250000D03*
D13*
%TO.P,R8,2*%
%TO.N,Net-(R16-Pad2)*%
X158800000Y-95250000D03*
%TD*%
D22*
%TO.P,P2,1,Pin_1*%
%TO.N,I2C_SCL*%
X128750000Y-121250000D03*
D23*
%TO.P,P2,2,Pin_2*%
%TO.N,I2C_SDA*%
X126250000Y-121250000D03*
%TO.P,P2,3,Pin_3*%
%TO.N,+5V*%
X123750000Y-121250000D03*
%TO.P,P2,4,Pin_4*%
%TO.N,GND*%
X121250000Y-121250000D03*
%TD*%
D12*
%TO.P,R13,1*%
%TO.N,Net-(J12-Pin_1)*%
X177000000Y-42050000D03*
D13*
%TO.P,R13,2*%
%TO.N,+5V*%
X177000000Y-54750000D03*
%TD*%
D12*
%TO.P,R12,1*%
%TO.N,GND*%
X173250000Y-61000000D03*
D13*
%TO.P,R12,2*%
%TO.N,encoderX_2*%
X160550000Y-61000000D03*
%TD*%
D24*
%TO.P,U1,1,I1*%
%TO.N,unconnected-(U1-I1-Pad1)*%
X122950000Y-102780000D03*
D25*
%TO.P,U1,2,I2*%
%TO.N,unconnected-(U1-I2-Pad2)*%
X122950000Y-100240000D03*
%TO.P,U1,3,I3*%
%TO.N,Net-(U1-I3)*%
X122950000Y-97700000D03*
%TO.P,U1,4,I4*%
%TO.N,Net-(U1-I4)*%
X122950000Y-95160000D03*
%TO.P,U1,5,I5*%
%TO.N,Net-(U1-I5)*%
X122950000Y-92620000D03*
%TO.P,U1,6,I6*%
%TO.N,Net-(U1-I6)*%
X122950000Y-90080000D03*
%TO.P,U1,7,I7*%
%TO.N,Net-(U1-I7)*%
X122950000Y-87540000D03*
%TO.P,U1,8,GND*%
%TO.N,GND*%
X122950000Y-85000000D03*
%TO.P,U1,9,COM*%
%TO.N,+5V*%
X115330000Y-85000000D03*
%TO.P,U1,10,O7*%
%TO.N,Net-(J15-Pin_4)*%
X115330000Y-87540000D03*
%TO.P,U1,11,O6*%
%TO.N,Net-(J17-Pin_1)*%
X115330000Y-90080000D03*
%TO.P,U1,12,O5*%
%TO.N,Net-(J17-Pin_2)*%
X115330000Y-92620000D03*
%TO.P,U1,13,O4*%
%TO.N,Net-(J17-Pin_3)*%
X115330000Y-95160000D03*
%TO.P,U1,14,O3*%
%TO.N,Net-(J17-Pin_4)*%
X115330000Y-97700000D03*
%TO.P,U1,15,O2*%
%TO.N,unconnected-(U1-O2-Pad15)*%
X115330000Y-100240000D03*
%TO.P,U1,16,O1*%
%TO.N,unconnected-(U1-O1-Pad16)*%
X115330000Y-102780000D03*
%TD*%
D12*
%TO.P,C7,1*%
%TO.N,GND*%
X111000000Y-104550000D03*
%TO.P,C7,2*%
%TO.N,Net-(J5-Pin_2)*%
X111000000Y-109550000D03*
%TD*%
D19*
%TO.P,J14,1,Pin_1*%
%TO.N,Net-(J14-Pin_1)*%
X187500000Y-101750000D03*
D20*
%TO.P,J14,2,Pin_2*%
%TO.N,+5V*%
X187500000Y-99250000D03*
%TO.P,J14,3,Pin_3*%
%TO.N,Net-(J14-Pin_3)*%
X187500000Y-96750000D03*
%TO.P,J14,4,Pin_4*%
%TO.N,unconnected-(J14-Pin_4-Pad4)*%
X187500000Y-94250000D03*
%TO.P,J14,5,Pin_5*%
%TO.N,GND*%
X187500000Y-91750000D03*
%TD*%
D10*
%TO.P,J7,1,Pin_1*%
%TO.N,GND*%
X105450000Y-125500000D03*
D11*
%TO.P,J7,2,Pin_2*%
%TO.N,Net-(J7-Pin_2)*%
X105450000Y-128000000D03*
%TD*%
D22*
%TO.P,P16,1,Pin_1*%
%TO.N,TX*%
X128750000Y-112500000D03*
D23*
%TO.P,P16,2,Pin_2*%
%TO.N,RX*%
X126250000Y-112500000D03*
%TO.P,P16,3,Pin_3*%
%TO.N,+5V*%
X123750000Y-112500000D03*
%TO.P,P16,4,Pin_4*%
%TO.N,GND*%
X121250000Y-112500000D03*
%TD*%
D26*
%TO.P,CON1,1*%
%TO.N,Net-(P1-Pin_1)*%
X122907500Y-51250000D03*
D27*
%TO.P,CON1,2*%
%TO.N,GND*%
X122907500Y-45250000D03*
D28*
%TO.P,CON1,3*%
X118207500Y-48250000D03*
%TD*%
D15*
%TO.P,P10,1,Pin_1*%
%TO.N,Net-(P1-Pin_2)*%
X162500000Y-146500000D03*
D16*
%TO.P,P10,2,Pin_2*%
%TO.N,GND*%
X165000000Y-146500000D03*
%TD*%
D12*
%TO.P,R2,1*%
%TO.N,encoderY_1*%
X162400000Y-74600000D03*
D13*
%TO.P,R2,2*%
%TO.N,Net-(J14-Pin_3)*%
X175100000Y-74600000D03*
%TD*%
D12*
%TO.P,C4,1*%
%TO.N,GND*%
X110750000Y-84200000D03*
%TO.P,C4,2*%
%TO.N,+5V*%
X110750000Y-89200000D03*
%TD*%
D15*
%TO.P,P15,1,Pin_1*%
%TO.N,Net-(P1-Pin_2)*%
X173800000Y-146500000D03*
D16*
%TO.P,P15,2,Pin_2*%
%TO.N,GND*%
X176300000Y-146500000D03*
%TD*%
D29*
%TO.P,D1,1,K*%
%TO.N,Net-(D1-K)*%
X141250000Y-114380000D03*
D30*
%TO.P,D1,2,A*%
%TO.N,GND*%
X141250000Y-129620000D03*
%TD*%
D31*
%TO.P,C5,1*%
%TO.N,Net-(P1-Pin_2)*%
X149700000Y-118070937D03*
X151300000Y-117400000D03*
D12*
%TO.P,C5,2*%
%TO.N,GND*%
X151300000Y-114900000D03*
X152900000Y-114229063D03*
%TD*%
%TO.P,R6,1*%
%TO.N,GND*%
X174900000Y-82800000D03*
D13*
%TO.P,R6,2*%
%TO.N,encoderY_2*%
X162200000Y-82800000D03*
%TD*%
D19*
%TO.P,J16,1,Pin_1*%
%TO.N,Net-(J16-Pin_1)*%
X187500000Y-135750000D03*
D20*
%TO.P,J16,2,Pin_2*%
%TO.N,+5V*%
X187500000Y-133250000D03*
%TO.P,J16,3,Pin_3*%
%TO.N,Net-(J16-Pin_3)*%
X187500000Y-130750000D03*
%TO.P,J16,4,Pin_4*%
%TO.N,unconnected-(J16-Pin_4-Pad4)*%
X187500000Y-128250000D03*
%TO.P,J16,5,Pin_5*%
%TO.N,GND*%
X187500000Y-125750000D03*
%TD*%
D12*
%TO.P,R17,1*%
%TO.N,Net-(R16-Pad2)*%
X162800000Y-130950000D03*
D13*
%TO.P,R17,2*%
%TO.N,GND*%
X175500000Y-130950000D03*
%TD*%
D12*
%TO.P,R1,1*%
%TO.N,Net-(J14-Pin_3)*%
X177800000Y-74600000D03*
D13*
%TO.P,R1,2*%
%TO.N,+5V*%
X190500000Y-74600000D03*
%TD*%
D12*
%TO.P,C14,1*%
%TO.N,GND*%
X150750000Y-140250000D03*
%TO.P,C14,2*%
%TO.N,Net-(J4-Pin_2)*%
X155750000Y-140250000D03*
%TD*%
%TO.P,C8,1*%
%TO.N,GND*%
X165600000Y-69800000D03*
%TO.P,C8,2*%
%TO.N,Net-(J12-Pin_3)*%
X170600000Y-69800000D03*
%TD*%
D32*
%TO.P,L1,1,1*%
%TO.N,Net-(D1-K)*%
X142000000Y-106500000D03*
%TO.P,L1,2,2*%
%TO.N,+5V*%
X142000000Y-101500000D03*
%TD*%
D12*
%TO.P,C11,1*%
%TO.N,GND*%
X169700000Y-124400000D03*
%TO.P,C11,2*%
%TO.N,Net-(J16-Pin_1)*%
X174700000Y-124400000D03*
%TD*%
D33*
%TO.P,U3,1,VIN*%
%TO.N,Net-(P1-Pin_2)*%
X155400000Y-124850000D03*
D34*
%TO.P,U3,2,OUT*%
%TO.N,Net-(D1-K)*%
X153700000Y-128550000D03*
%TO.P,U3,3,GND*%
%TO.N,GND*%
X152000000Y-124850000D03*
%TO.P,U3,4,FB*%
%TO.N,+5V*%
X150300000Y-128550000D03*
%TO.P,U3,5,~{ON}/OFF*%
%TO.N,GND*%
X148600000Y-124850000D03*
%TD*%
D12*
%TO.P,R5,1*%
%TO.N,encoderY_2*%
X162200000Y-86800000D03*
D13*
%TO.P,R5,2*%
%TO.N,Net-(J14-Pin_1)*%
X174900000Y-86800000D03*
%TD*%
D21*
%TO.P,J17,1,Pin_1*%
%TO.N,Net-(J17-Pin_1)*%
X104050000Y-89850000D03*
D20*
%TO.P,J17,2,Pin_2*%
%TO.N,Net-(J17-Pin_2)*%
X104050000Y-92350000D03*
%TO.P,J17,3,Pin_3*%
%TO.N,Net-(J17-Pin_3)*%
X104050000Y-94850000D03*
%TO.P,J17,4,Pin_4*%
%TO.N,Net-(J17-Pin_4)*%
X104050000Y-97350000D03*
%TO.P,J17,5,Pin_5*%
%TO.N,+5V*%
X104050000Y-99850000D03*
%TD*%
D12*
%TO.P,R14,1*%
%TO.N,encoderX_1*%
X160500000Y-53000000D03*
D13*
%TO.P,R14,2*%
%TO.N,Net-(J12-Pin_1)*%
X173200000Y-53000000D03*
%TD*%
D12*
%TO.P,C1,1*%
%TO.N,GND*%
X185100000Y-82200000D03*
%TO.P,C1,2*%
%TO.N,Net-(J14-Pin_3)*%
X180100000Y-82200000D03*
%TD*%
%TO.P,C15,1*%
%TO.N,GND*%
X140500000Y-140250000D03*
%TO.P,C15,2*%
%TO.N,Net-(J11-Pin_2)*%
X145500000Y-140250000D03*
%TD*%
%TO.P,R10,1*%
%TO.N,Net-(J12-Pin_3)*%
X177000000Y-70400000D03*
D13*
%TO.P,R10,2*%
%TO.N,+5V*%
X177000000Y-57700000D03*
%TD*%
D33*
%TO.P,D2,1,K*%
%TO.N,GND*%
X113210000Y-42750000D03*
D35*
%TO.P,D2,2,A*%
%TO.N,Net-(D2-A)*%
X115750000Y-42750000D03*
%TD*%
D12*
%TO.P,R26,1*%
%TO.N,encoderZ_2*%
X162450000Y-119600000D03*
D13*
%TO.P,R26,2*%
%TO.N,Net-(J16-Pin_1)*%
X175150000Y-119600000D03*
%TD*%
D12*
%TO.P,R11,1*%
%TO.N,encoderX_2*%
X160500000Y-65000000D03*
D13*
%TO.P,R11,2*%
%TO.N,Net-(J12-Pin_3)*%
X173200000Y-65000000D03*
%TD*%
D12*
%TO.P,R9,1*%
%TO.N,Net-(R16-Pad2)*%
X158750000Y-99500000D03*
D13*
%TO.P,R9,2*%
%TO.N,Net-(J4-Pin_2)*%
X171450000Y-99500000D03*
%TD*%
D24*
%TO.P,U2,1,I1*%
%TO.N,Net-(U2-I1)*%
X123025000Y-80375000D03*
D25*
%TO.P,U2,2,I2*%
%TO.N,Net-(U2-I2)*%
X123025000Y-77835000D03*
%TO.P,U2,3,I3*%
%TO.N,Net-(U2-I3)*%
X123025000Y-75295000D03*
%TO.P,U2,4,I4*%
%TO.N,Net-(U2-I4)*%
X123025000Y-72755000D03*
%TO.P,U2,5,I5*%
%TO.N,Net-(U2-I5)*%
X123025000Y-70215000D03*
%TO.P,U2,6,I6*%
%TO.N,Net-(U2-I6)*%
X123025000Y-67675000D03*
%TO.P,U2,7,I7*%
%TO.N,Net-(U2-I7)*%
X123025000Y-65135000D03*
%TO.P,U2,8,GND*%
%TO.N,GND*%
X123025000Y-62595000D03*
%TO.P,U2,9,COM*%
%TO.N,+5V*%
X115405000Y-62595000D03*
%TO.P,U2,10,O7*%
%TO.N,Net-(J13-Pin_1)*%
X115405000Y-65135000D03*
%TO.P,U2,11,O6*%
%TO.N,Net-(J13-Pin_2)*%
X115405000Y-67675000D03*
%TO.P,U2,12,O5*%
%TO.N,Net-(J13-Pin_3)*%
X115405000Y-70215000D03*
%TO.P,U2,13,O4*%
%TO.N,Net-(J13-Pin_4)*%
X115405000Y-72755000D03*
%TO.P,U2,14,O3*%
%TO.N,Net-(J15-Pin_1)*%
X115405000Y-75295000D03*
%TO.P,U2,15,O2*%
%TO.N,Net-(J15-Pin_2)*%
X115405000Y-77835000D03*
%TO.P,U2,16,O1*%
%TO.N,Net-(J15-Pin_3)*%
X115405000Y-80375000D03*
%TD*%
D12*
%TO.P,R27,1*%
%TO.N,GND*%
X175150000Y-115600000D03*
D13*
%TO.P,R27,2*%
%TO.N,encoderZ_2*%
X162450000Y-115600000D03*
%TD*%
D21*
%TO.P,J15,1,Pin_1*%
%TO.N,Net-(J15-Pin_1)*%
X104150000Y-72950000D03*
D20*
%TO.P,J15,2,Pin_2*%
%TO.N,Net-(J15-Pin_2)*%
X104150000Y-75450000D03*
%TO.P,J15,3,Pin_3*%
%TO.N,Net-(J15-Pin_3)*%
X104150000Y-77950000D03*
%TO.P,J15,4,Pin_4*%
%TO.N,Net-(J15-Pin_4)*%
X104150000Y-80450000D03*
%TO.P,J15,5,Pin_5*%
%TO.N,+5V*%
X104150000Y-82950000D03*
%TD*%
D12*
%TO.P,R22,1*%
%TO.N,Net-(J16-Pin_3)*%
X177900000Y-107400000D03*
D13*
%TO.P,R22,2*%
%TO.N,+5V*%
X190600000Y-107400000D03*
%TD*%
D12*
%TO.P,R16,1*%
%TO.N,+5V*%
X175500000Y-135200000D03*
D13*
%TO.P,R16,2*%
%TO.N,Net-(R16-Pad2)*%
X162800000Y-135200000D03*
%TD*%
D12*
%TO.P,C13,1*%
%TO.N,GND*%
X111050000Y-120600000D03*
%TO.P,C13,2*%
%TO.N,Net-(J7-Pin_2)*%
X111050000Y-125600000D03*
%TD*%
%TO.P,C2,1*%
%TO.N,GND*%
X176250000Y-96500000D03*
%TO.P,C2,2*%
%TO.N,Net-(J14-Pin_1)*%
X176250000Y-91500000D03*
%TD*%
D31*
%TO.P,C6,1*%
%TO.N,+5V*%
X154500000Y-102000000D03*
D12*
%TO.P,C6,2*%
%TO.N,GND*%
X154500000Y-105800000D03*
%TD*%
D10*
%TO.P,J5,1,Pin_1*%
%TO.N,GND*%
X105450000Y-106600000D03*
D11*
%TO.P,J5,2,Pin_2*%
%TO.N,Net-(J5-Pin_2)*%
X105450000Y-109100000D03*
%TD*%
D36*
%TO.P,U4,1,3V3*%
%TO.N,+3V3*%
X156100000Y-90000000D03*
D37*
%TO.P,U4,2,EN*%
%TO.N,unconnected-(U4-EN-Pad2)*%
X156100000Y-87460000D03*
%TO.P,U4,3,SENSOR_VP*%
%TO.N,Net-(J4-Pin_2)*%
X156100000Y-84920000D03*
%TO.P,U4,4,SENSOR_VN*%
%TO.N,Net-(J11-Pin_2)*%
X156100000Y-82380000D03*
%TO.P,U4,5,IO34*%
%TO.N,encoderZ_2*%
X156100000Y-79840000D03*
%TO.P,U4,6,IO35*%
%TO.N,encoderZ_1*%
X156100000Y-77300000D03*
%TO.P,U4,7,IO32*%
%TO.N,I2C_SDA*%
X156100000Y-74760000D03*
%TO.P,U4,8,IO33*%
%TO.N,I2C_SCL*%
X156100000Y-72220000D03*
%TO.P,U4,9,IO25*%
%TO.N,encoderY_2*%
X156100000Y-69680000D03*
%TO.P,U4,10,IO26*%
%TO.N,encoderY_1*%
X156100000Y-67140000D03*
%TO.P,U4,11,IO27*%
%TO.N,encoderX_2*%
X156100000Y-64600000D03*
%TO.P,U4,12,IO14*%
%TO.N,encoderX_1*%
X156100000Y-62060000D03*
%TO.P,U4,13,IO12*%
%TO.N,unconnected-(U4-IO12-Pad13)*%
X156100000Y-59520000D03*
%TO.P,U4,14,GND1*%
%TO.N,GND*%
X156100000Y-56980000D03*
%TO.P,U4,15,IO13*%
%TO.N,I2C_INT*%
X156100000Y-54440000D03*
%TO.P,U4,16,SD2*%
%TO.N,unconnected-(U4-SD2-Pad16)*%
X156100000Y-51900000D03*
%TO.P,U4,17,SD3*%
%TO.N,unconnected-(U4-SD3-Pad17)*%
X156100000Y-49360000D03*
%TO.P,U4,18,CMD*%
%TO.N,unconnected-(U4-CMD-Pad18)*%
X156100000Y-46820000D03*
%TO.P,U4,19,EXT_5V*%
%TO.N,+5V*%
X156100000Y-44280000D03*
%TO.P,U4,20,GND3*%
%TO.N,GND*%
X130700000Y-90000000D03*
%TO.P,U4,21,IO23*%
%TO.N,Net-(U1-I3)*%
X130700000Y-87460000D03*
%TO.P,U4,22,IO22*%
%TO.N,Net-(U1-I4)*%
X130700000Y-84920000D03*
%TO.P,U4,23,TXD0*%
%TO.N,TX*%
X130700000Y-82380000D03*
%TO.P,U4,24,RXD0*%
%TO.N,RX*%
X130700000Y-79840000D03*
%TO.P,U4,25,IO21*%
%TO.N,Net-(U1-I5)*%
X130700000Y-77300000D03*
%TO.P,U4,26,GND2*%
%TO.N,GND*%
X130700000Y-74760000D03*
%TO.P,U4,27,IO19*%
%TO.N,Net-(U1-I6)*%
X130700000Y-72220000D03*
%TO.P,U4,28,IO18*%
%TO.N,Net-(U1-I7)*%
X130700000Y-69680000D03*
%TO.P,U4,29,IO5*%
%TO.N,Net-(U2-I1)*%
X130700000Y-67140000D03*
%TO.P,U4,30,IO17*%
%TO.N,Net-(U2-I2)*%
X130700000Y-64600000D03*
%TO.P,U4,31,IO16*%
%TO.N,Net-(U2-I3)*%
X130700000Y-62060000D03*
%TO.P,U4,32,IO4*%
%TO.N,Net-(U2-I4)*%
X130700000Y-59520000D03*
%TO.P,U4,33,IO0*%
%TO.N,Net-(U2-I5)*%
X130700000Y-56980000D03*
%TO.P,U4,34,IO2*%
%TO.N,Net-(U2-I6)*%
X130700000Y-54440000D03*
%TO.P,U4,35,IO15*%
%TO.N,Net-(U2-I7)*%
X130700000Y-51900000D03*
%TO.P,U4,36,SD1*%
%TO.N,unconnected-(U4-SD1-Pad36)*%
X130700000Y-49360000D03*
%TO.P,U4,37,SD0*%
%TO.N,unconnected-(U4-SD0-Pad37)*%
X130700000Y-46820000D03*
%TO.P,U4,38,CLK*%
%TO.N,unconnected-(U4-CLK-Pad38)*%
X130700000Y-44280000D03*
%TD*%
D12*
%TO.P,C10,1*%
%TO.N,GND*%
X180400000Y-110800000D03*
%TO.P,C10,2*%
%TO.N,Net-(J16-Pin_3)*%
X180400000Y-115800000D03*
%TD*%
D17*
%TO.P,J8,1,Pin_1*%
%TO.N,unconnected-(J8-Pin_1-Pad1)*%
X135110000Y-148000000D03*
D18*
%TO.P,J8,2,Pin_2*%
%TO.N,unconnected-(J8-Pin_2-Pad2)*%
X132570000Y-148000000D03*
%TO.P,J8,3,Pin_3*%
%TO.N,unconnected-(J8-Pin_3-Pad3)*%
X130030000Y-148000000D03*
%TO.P,J8,4,Pin_4*%
%TO.N,unconnected-(J8-Pin_4-Pad4)*%
X127490000Y-148000000D03*
%TO.P,J8,5,Pin_5*%
%TO.N,unconnected-(J8-Pin_5-Pad5)*%
X124950000Y-148000000D03*
%TO.P,J8,6,Pin_6*%
%TO.N,unconnected-(J8-Pin_6-Pad6)*%
X122410000Y-148000000D03*
%TO.P,J8,7,Pin_7*%
%TO.N,unconnected-(J8-Pin_7-Pad7)*%
X119870000Y-148000000D03*
%TO.P,J8,8,Pin_8*%
%TO.N,+5V*%
X117330000Y-148000000D03*
%TO.P,J8,9,Pin_9*%
%TO.N,GND*%
X114790000Y-148000000D03*
%TO.P,J8,10,Pin_10*%
%TO.N,unconnected-(J8-Pin_10-Pad10)*%
X112250000Y-148000000D03*
%TD*%
D17*
%TO.P,J9,1,Pin_1*%
%TO.N,GND*%
X112260000Y-130750000D03*
D18*
%TO.P,J9,2,Pin_2*%
%TO.N,+5V*%
X114800000Y-130750000D03*
%TO.P,J9,3,Pin_3*%
%TO.N,unconnected-(J9-Pin_3-Pad3)*%
X117340000Y-130750000D03*
%TO.P,J9,4,Pin_4*%
%TO.N,unconnected-(J9-Pin_4-Pad4)*%
X119880000Y-130750000D03*
%TO.P,J9,5,Pin_5*%
%TO.N,unconnected-(J9-Pin_5-Pad5)*%
X122420000Y-130750000D03*
%TO.P,J9,6,Pin_6*%
%TO.N,unconnected-(J9-Pin_6-Pad6)*%
X124960000Y-130750000D03*
%TO.P,J9,7,Pin_7*%
%TO.N,unconnected-(J9-Pin_7-Pad7)*%
X127500000Y-130750000D03*
%TO.P,J9,8,Pin_8*%
%TO.N,Net-(J7-Pin_2)*%
X130040000Y-130750000D03*
%TO.P,J9,9,Pin_9*%
%TO.N,Net-(J6-Pin_2)*%
X132580000Y-130750000D03*
%TO.P,J9,10,Pin_10*%
%TO.N,Net-(J5-Pin_2)*%
X135120000Y-130750000D03*
%TD*%
D38*
%TO.N,I2C_INT*%
X136600000Y-72600000D03*
%TD*%
D39*
%TO.N,GND*%
X114750000Y-148035000D02*
X114785000Y-148000000D01*
%TO.N,+5V*%
X148578679Y-128550000D02*
X136750000Y-140378679D01*
X190400000Y-133250000D02*
X187500000Y-133250000D01*
X95950000Y-128150000D02*
X97150000Y-126950000D01*
D40*
X189750000Y-54250000D02*
X189750000Y-60500000D01*
D39*
X190400000Y-138100000D02*
X190400000Y-133250000D01*
X97150000Y-126950000D02*
X97150000Y-99750000D01*
X175500000Y-139600000D02*
X175500000Y-135200000D01*
X97150000Y-99750000D02*
X97150000Y-98550000D01*
X154000000Y-102000000D02*
X153500000Y-101500000D01*
X97150000Y-69100000D02*
X103600000Y-69100000D01*
X98250000Y-135750000D02*
X95950000Y-135750000D01*
X190400000Y-133250000D02*
X190400000Y-119600000D01*
D40*
X106550000Y-129450000D02*
X115550000Y-129450000D01*
X115550000Y-129450000D02*
X123750000Y-121250000D01*
D39*
X106800000Y-129200000D02*
X113810000Y-129200000D01*
D40*
X177000000Y-54750000D02*
X177000000Y-57700000D01*
X177000000Y-57700000D02*
X181200000Y-53500000D01*
D41*
X189100000Y-99250000D02*
X190600000Y-97750000D01*
D39*
X107750000Y-150000000D02*
X115330000Y-150000000D01*
X158600000Y-139600000D02*
X188900000Y-139600000D01*
X105750000Y-130250000D02*
X106800000Y-129200000D01*
D40*
X190600000Y-107150000D02*
X190800000Y-106950000D01*
D39*
X110750000Y-89200000D02*
X111130000Y-89200000D01*
X103600000Y-69100000D02*
X105600000Y-67100000D01*
X158600000Y-148300000D02*
X158600000Y-139600000D01*
X104150000Y-82950000D02*
X104500000Y-82950000D01*
X158500000Y-106000000D02*
X158500000Y-131000000D01*
X105250000Y-67100000D02*
X104200000Y-66050000D01*
D40*
X190800000Y-106950000D02*
X190800000Y-86600000D01*
X189750000Y-60500000D02*
X187500000Y-62750000D01*
D39*
X111130000Y-89200000D02*
X115330000Y-85000000D01*
D40*
X190400000Y-119600000D02*
X190400000Y-107600000D01*
D39*
X157500000Y-132000000D02*
X151000000Y-132000000D01*
D40*
X190500000Y-65750000D02*
X190500000Y-74600000D01*
D39*
X117330000Y-148000000D02*
X119080000Y-149750000D01*
D40*
X177100000Y-57800000D02*
X177000000Y-57700000D01*
D39*
X154500000Y-102000000D02*
X158500000Y-106000000D01*
D40*
X190600000Y-107400000D02*
X190600000Y-107150000D01*
X105750000Y-130250000D02*
X106550000Y-129450000D01*
D39*
X150300000Y-128550000D02*
X148578679Y-128550000D01*
X188900000Y-139600000D02*
X190400000Y-138100000D01*
X153500000Y-101500000D02*
X142000000Y-101500000D01*
X136750000Y-140378679D02*
X136750000Y-149750000D01*
D41*
X187500000Y-99250000D02*
X189100000Y-99250000D01*
D39*
X97350000Y-82950000D02*
X104150000Y-82950000D01*
X103250000Y-145500000D02*
X107750000Y-150000000D01*
X105600000Y-67100000D02*
X110200000Y-62500000D01*
D40*
X189000000Y-53500000D02*
X189750000Y-54250000D01*
D39*
X150300000Y-131300000D02*
X150300000Y-128550000D01*
X103250000Y-140750000D02*
X103250000Y-145500000D01*
X105600000Y-67100000D02*
X105250000Y-67100000D01*
X100250000Y-135750000D02*
X98250000Y-135750000D01*
X151000000Y-132000000D02*
X150300000Y-131300000D01*
X104500000Y-82950000D02*
X110750000Y-89200000D01*
D40*
X123750000Y-112500000D02*
X123750000Y-121250000D01*
D39*
X97250000Y-99850000D02*
X104050000Y-99850000D01*
X115330000Y-150000000D02*
X117330000Y-148000000D01*
X97150000Y-98550000D02*
X97150000Y-82750000D01*
X97150000Y-82750000D02*
X97350000Y-82950000D01*
X98250000Y-135750000D02*
X104710000Y-135750000D01*
X119080000Y-149750000D02*
X136750000Y-149750000D01*
X157150000Y-149750000D02*
X158600000Y-148300000D01*
X104710000Y-135750000D02*
X105500000Y-136540000D01*
X158500000Y-131000000D02*
X157500000Y-132000000D01*
X136750000Y-149750000D02*
X157150000Y-149750000D01*
D40*
X190800000Y-86600000D02*
X190800000Y-74900000D01*
D39*
X154500000Y-102000000D02*
X154000000Y-102000000D01*
D40*
X190800000Y-74900000D02*
X190500000Y-74600000D01*
D39*
X97150000Y-82750000D02*
X97150000Y-79000000D01*
X113810000Y-129200000D02*
X114800000Y-130190000D01*
D40*
X181200000Y-53500000D02*
X189000000Y-53500000D01*
D39*
X97150000Y-99750000D02*
X97250000Y-99850000D01*
X98250000Y-135750000D02*
X103250000Y-140750000D01*
X114800000Y-130190000D02*
X114800000Y-130750000D01*
X95950000Y-135750000D02*
X95950000Y-128150000D01*
X105750000Y-130250000D02*
X100250000Y-135750000D01*
X97150000Y-79000000D02*
X97150000Y-69100000D01*
D40*
X190400000Y-107600000D02*
X190600000Y-107400000D01*
X187500000Y-62750000D02*
X190500000Y-65750000D01*
D39*
X110200000Y-62500000D02*
X115310000Y-62500000D01*
D40*
%TO.N,Net-(D1-K)*%
X151650000Y-126500000D02*
X153700000Y-128550000D01*
X141250000Y-119409189D02*
X148340811Y-126500000D01*
X141250000Y-114380000D02*
X141250000Y-119409189D01*
D41*
X142000000Y-106500000D02*
X142000000Y-113630000D01*
X142000000Y-113630000D02*
X141250000Y-114380000D01*
D40*
X148340811Y-126500000D02*
X151650000Y-126500000D01*
%TO.N,Net-(D2-A)*%
X111550000Y-46950000D02*
X115750000Y-42750000D01*
X111550000Y-51350000D02*
X111550000Y-46950000D01*
X116200000Y-56000000D02*
X111550000Y-51350000D01*
%TO.N,Net-(J13-Pin_1)*%
X117055000Y-61805000D02*
X111300000Y-56050000D01*
X111300000Y-56050000D02*
X104250000Y-56050000D01*
X115405000Y-65135000D02*
X117055000Y-63485000D01*
X117055000Y-63485000D02*
X117055000Y-61805000D01*
D41*
%TO.N,Net-(J15-Pin_1)*%
X115405000Y-75295000D02*
X106495000Y-75295000D01*
X106495000Y-75295000D02*
X104150000Y-72950000D01*
%TO.N,Net-(J15-Pin_2)*%
X104150000Y-75450000D02*
X106535000Y-77835000D01*
X106535000Y-77835000D02*
X115405000Y-77835000D01*
%TO.N,Net-(J15-Pin_3)*%
X106575000Y-80375000D02*
X115405000Y-80375000D01*
X104150000Y-77950000D02*
X106575000Y-80375000D01*
%TO.N,Net-(J15-Pin_4)*%
X116200000Y-83000000D02*
X117700000Y-84500000D01*
X117700000Y-84500000D02*
X117700000Y-86000000D01*
X104150000Y-80450000D02*
X106700000Y-83000000D01*
X117700000Y-86000000D02*
X116160000Y-87540000D01*
X106700000Y-83000000D02*
X116200000Y-83000000D01*
D40*
%TO.N,Net-(J17-Pin_1)*%
X104650000Y-90450000D02*
X104050000Y-89850000D01*
X114960000Y-90450000D02*
X104650000Y-90450000D01*
X115330000Y-90080000D02*
X114960000Y-90450000D01*
D41*
%TO.N,Net-(J17-Pin_2)*%
X104320000Y-92620000D02*
X104050000Y-92350000D01*
X115330000Y-92620000D02*
X104320000Y-92620000D01*
%TO.N,Net-(J17-Pin_3)*%
X104360000Y-95160000D02*
X104050000Y-94850000D01*
X115330000Y-95160000D02*
X104360000Y-95160000D01*
%TO.N,Net-(J17-Pin_4)*%
X115330000Y-97700000D02*
X104400000Y-97700000D01*
X104400000Y-97700000D02*
X104050000Y-97350000D01*
%TO.N,encoderZ_1*%
X156300000Y-77300000D02*
X156100000Y-77300000D01*
X160400000Y-81400000D02*
X156300000Y-77300000D01*
X160400000Y-88600000D02*
X160400000Y-81400000D01*
X162650000Y-107200000D02*
X162650000Y-111250000D01*
X173250000Y-90250000D02*
X172500000Y-89500000D01*
X161300000Y-89500000D02*
X160400000Y-88600000D01*
X162650000Y-107200000D02*
X162650000Y-104350000D01*
X162650000Y-111250000D02*
X162500000Y-111400000D01*
X172500000Y-89500000D02*
X161300000Y-89500000D01*
X162650000Y-104350000D02*
X162750000Y-104250000D01*
X173250000Y-104250000D02*
X173250000Y-90250000D01*
X162750000Y-104250000D02*
X173250000Y-104250000D01*
%TO.N,encoderZ_2*%
X172700000Y-102300000D02*
X172700000Y-90477818D01*
X161325000Y-114475000D02*
X161325000Y-104897182D01*
X162450000Y-115600000D02*
X162450000Y-119600000D01*
X159440000Y-83180000D02*
X156100000Y-79840000D01*
X172272182Y-90050000D02*
X161072182Y-90050000D01*
X161072182Y-90050000D02*
X159440000Y-88417818D01*
X172700000Y-90477818D02*
X172272182Y-90050000D01*
X161325000Y-104897182D02*
X162522182Y-103700000D01*
X162522182Y-103700000D02*
X171300000Y-103700000D01*
X159440000Y-88417818D02*
X159440000Y-83180000D01*
X162450000Y-115600000D02*
X161325000Y-114475000D01*
X171300000Y-103700000D02*
X172700000Y-102300000D01*
%TO.N,TX*%
X130450000Y-93300000D02*
X133000000Y-90750000D01*
X130450000Y-102050000D02*
X130450000Y-93300000D01*
X133000000Y-90750000D02*
X133000000Y-84680000D01*
X130450000Y-102050000D02*
X128750000Y-103750000D01*
X128750000Y-103750000D02*
X128750000Y-112500000D01*
X133000000Y-84680000D02*
X130700000Y-82380000D01*
%TO.N,encoderY_1*%
X162400000Y-74600000D02*
X162400000Y-73440000D01*
X162400000Y-74600000D02*
X162400000Y-78550000D01*
X162400000Y-73440000D02*
X156100000Y-67140000D01*
X162400000Y-78550000D02*
X162350000Y-78600000D01*
%TO.N,encoderY_2*%
X161175000Y-74755000D02*
X161175000Y-80775000D01*
X156100000Y-69680000D02*
X161175000Y-74755000D01*
X162200000Y-82800000D02*
X162200000Y-86800000D01*
X161200000Y-80800000D02*
X161200000Y-81800000D01*
X161200000Y-81800000D02*
X162200000Y-82800000D01*
X161175000Y-80775000D02*
X161200000Y-80800000D01*
%TO.N,encoderX_2*%
X160500000Y-61050000D02*
X160550000Y-61000000D01*
X160500000Y-65000000D02*
X160500000Y-61050000D01*
X160550000Y-64950000D02*
X160500000Y-65000000D01*
X156100000Y-64600000D02*
X160100000Y-64600000D01*
X160100000Y-64600000D02*
X160500000Y-65000000D01*
%TO.N,encoderX_1*%
X160500000Y-57660000D02*
X160500000Y-57000000D01*
X160500000Y-57000000D02*
X160500000Y-53000000D01*
X156100000Y-62060000D02*
X160500000Y-57660000D01*
D40*
%TO.N,Net-(U1-I5)*%
X128070000Y-87500000D02*
X122950000Y-92620000D01*
X130700000Y-77300000D02*
X128070000Y-79930000D01*
X128070000Y-79930000D02*
X128070000Y-87500000D01*
D41*
%TO.N,Net-(U2-I6)*%
X125350000Y-65350000D02*
X123025000Y-67675000D01*
X125777818Y-58600000D02*
X125350000Y-59027818D01*
X130700000Y-54440000D02*
X126540000Y-58600000D01*
X125350000Y-59027818D02*
X125350000Y-65350000D01*
X126540000Y-58600000D02*
X125777818Y-58600000D01*
%TO.N,Net-(U2-I3)*%
X127000000Y-71320000D02*
X127000000Y-64200000D01*
X129740000Y-62060000D02*
X130700000Y-62060000D01*
X123025000Y-75295000D02*
X127000000Y-71320000D01*
X128800000Y-62400000D02*
X129400000Y-62400000D01*
X127000000Y-64200000D02*
X128800000Y-62400000D01*
X129400000Y-62400000D02*
X129740000Y-62060000D01*
%TO.N,Net-(U2-I5)*%
X125900000Y-60017818D02*
X125900000Y-67340000D01*
X125900000Y-67340000D02*
X123025000Y-70215000D01*
X128937818Y-56980000D02*
X125900000Y-60017818D01*
X130700000Y-56980000D02*
X128937818Y-56980000D01*
%TO.N,Net-(U2-I2)*%
X127550000Y-73310000D02*
X123025000Y-77835000D01*
X130700000Y-64600000D02*
X127550000Y-67750000D01*
X127550000Y-67750000D02*
X127550000Y-73310000D01*
%TO.N,Net-(U2-I4)*%
X130700000Y-59520000D02*
X126450000Y-63770000D01*
X126450000Y-63770000D02*
X126450000Y-69330000D01*
X126450000Y-69330000D02*
X123025000Y-72755000D01*
%TO.N,Net-(U2-I7)*%
X123025000Y-65135000D02*
X123065000Y-65135000D01*
X127200000Y-57000000D02*
X127200000Y-55500000D01*
X129545000Y-53055000D02*
X130700000Y-51900000D01*
X124800000Y-63400000D02*
X124800000Y-58800000D01*
X127200000Y-55500000D02*
X129545000Y-53155000D01*
X126200000Y-58000000D02*
X127200000Y-57000000D01*
X123065000Y-65135000D02*
X124800000Y-63400000D01*
X124800000Y-58800000D02*
X125600000Y-58000000D01*
X129545000Y-53155000D02*
X129545000Y-53055000D01*
X125600000Y-58000000D02*
X126200000Y-58000000D01*
%TO.N,Net-(U2-I1)*%
X126218909Y-75418909D02*
X126218909Y-77181091D01*
X126218909Y-77181091D02*
X123025000Y-80375000D01*
X128100000Y-69740000D02*
X128100000Y-73537818D01*
X128100000Y-73537818D02*
X126218909Y-75418909D01*
X130700000Y-67140000D02*
X128100000Y-69740000D01*
%TO.N,Net-(U1-I7)*%
X128650000Y-73765636D02*
X128650000Y-71730000D01*
X125000000Y-85490000D02*
X125000000Y-79177818D01*
X127007818Y-77170000D02*
X127007818Y-75407818D01*
X125000000Y-79177818D02*
X127007818Y-77170000D01*
X128650000Y-71730000D02*
X130700000Y-69680000D01*
X127007818Y-75407818D02*
X128650000Y-73765636D01*
X122950000Y-87540000D02*
X125000000Y-85490000D01*
%TO.N,Net-(U1-I6)*%
X129920000Y-73273454D02*
X127557818Y-75635636D01*
X130700000Y-72220000D02*
X129920000Y-73000000D01*
X125550000Y-87480000D02*
X122950000Y-90080000D01*
X125550000Y-79600000D02*
X125550000Y-87480000D01*
X127557818Y-77592182D02*
X125550000Y-79600000D01*
X129920000Y-73000000D02*
X129920000Y-73273454D01*
X127557818Y-75635636D02*
X127557818Y-77592182D01*
D39*
%TO.N,Net-(P1-Pin_2)*%
X123500000Y-54300000D02*
X116550000Y-54300000D01*
X116550000Y-54300000D02*
X113000000Y-50750000D01*
X125200000Y-56000000D02*
X123500000Y-54300000D01*
D40*
%TO.N,Net-(P1-Pin_1)*%
X113000000Y-48250000D02*
X116000000Y-51250000D01*
X116000000Y-51250000D02*
X122907500Y-51250000D01*
D41*
%TO.N,Net-(J5-Pin_2)*%
X111000000Y-109550000D02*
X105900000Y-109550000D01*
X105900000Y-109550000D02*
X105450000Y-109100000D01*
%TO.N,Net-(J6-Pin_2)*%
X111050000Y-117500000D02*
X106500000Y-117500000D01*
X106500000Y-117500000D02*
X105450000Y-118550000D01*
D40*
%TO.N,Net-(U1-I3)*%
X129470000Y-88690000D02*
X130700000Y-87460000D01*
X129470000Y-91180000D02*
X129470000Y-88690000D01*
X122950000Y-97700000D02*
X129470000Y-91180000D01*
%TO.N,Net-(U1-I4)*%
X122950000Y-95160000D02*
X128770000Y-89340000D01*
X128770000Y-89340000D02*
X128770000Y-86850000D01*
X128770000Y-86850000D02*
X130700000Y-84920000D01*
D41*
%TO.N,Net-(J7-Pin_2)*%
X107850000Y-125600000D02*
X105450000Y-128000000D01*
X111050000Y-125600000D02*
X107850000Y-125600000D01*
D40*
%TO.N,Net-(J4-Pin_2)*%
X154000000Y-142000000D02*
X155750000Y-140250000D01*
X154000000Y-146250000D02*
X154000000Y-142000000D01*
X165838298Y-99500000D02*
X171450000Y-99500000D01*
X155750000Y-138750000D02*
X160500000Y-134000000D01*
X160500000Y-104838298D02*
X165838298Y-99500000D01*
X155750000Y-140250000D02*
X155750000Y-138750000D01*
X160500000Y-134000000D02*
X160500000Y-104838298D01*
%TO.N,Net-(J11-Pin_2)*%
X158500000Y-88361702D02*
X158500000Y-84780000D01*
X158500000Y-84780000D02*
X156100000Y-82380000D01*
X145500000Y-138750000D02*
X151300000Y-132950000D01*
X145500000Y-140250000D02*
X145500000Y-138750000D01*
X169098348Y-95250000D02*
X159800000Y-104548348D01*
X159800000Y-104548348D02*
X159800000Y-131200000D01*
X144500000Y-141250000D02*
X145500000Y-140250000D01*
X165388298Y-95250000D02*
X158500000Y-88361702D01*
X171500000Y-95250000D02*
X165388298Y-95250000D01*
X151300000Y-132950000D02*
X158050000Y-132950000D01*
X144500000Y-146250000D02*
X144500000Y-141250000D01*
X158050000Y-132950000D02*
X159800000Y-131200000D01*
X171500000Y-95250000D02*
X169098348Y-95250000D01*
D41*
%TO.N,I2C_SCL*%
X156100000Y-72220000D02*
X131000000Y-97320000D01*
X131000000Y-97320000D02*
X131000000Y-117050000D01*
X129000000Y-119050000D02*
X131000000Y-117050000D01*
X129000000Y-121250000D02*
X129000000Y-119050000D01*
%TO.N,I2C_INT*%
X154760000Y-54440000D02*
X156100000Y-54440000D01*
X136600000Y-72600000D02*
X154760000Y-54440000D01*
%TO.N,I2C_SDA*%
X131500000Y-126500000D02*
X138750000Y-126500000D01*
X138750000Y-92110000D02*
X156100000Y-74760000D01*
X138750000Y-126500000D02*
X138750000Y-92110000D01*
X138750000Y-130500000D02*
X138750000Y-126500000D01*
X126250000Y-121250000D02*
X131500000Y-126500000D01*
X105500000Y-139080000D02*
X130170000Y-139080000D01*
X130170000Y-139080000D02*
X138750000Y-130500000D01*
%TO.N,Net-(R16-Pad2)*%
X158800000Y-99450000D02*
X158750000Y-99500000D01*
X158800000Y-95250000D02*
X158800000Y-99450000D01*
D40*
X162800000Y-135200000D02*
X162800000Y-130950000D01*
D41*
%TO.N,Net-(J14-Pin_3)*%
X177800000Y-79900000D02*
X177800000Y-74600000D01*
X175100000Y-74600000D02*
X177800000Y-74600000D01*
X180100000Y-82200000D02*
X177800000Y-79900000D01*
%TO.N,Net-(J14-Pin_1)*%
X178100000Y-88750000D02*
X178100000Y-88900000D01*
X174900000Y-86800000D02*
X177900000Y-86800000D01*
X176250000Y-91500000D02*
X178100000Y-89650000D01*
X177900000Y-86800000D02*
X178100000Y-86600000D01*
X176250000Y-91500000D02*
X186500000Y-101750000D01*
X186500000Y-101750000D02*
X187500000Y-101750000D01*
X178100000Y-86600000D02*
X178100000Y-88750000D01*
X178100000Y-89650000D02*
X178100000Y-88750000D01*
%TO.N,Net-(J12-Pin_3)*%
X187150000Y-60250000D02*
X177000000Y-70400000D01*
X173600000Y-67000000D02*
X173200000Y-67000000D01*
X173200000Y-67200000D02*
X170600000Y-69800000D01*
X173200000Y-67000000D02*
X173200000Y-67200000D01*
X173200000Y-65000000D02*
X173200000Y-67000000D01*
D42*
X187500000Y-60250000D02*
X187150000Y-60250000D01*
D41*
X177000000Y-70400000D02*
X173600000Y-67000000D01*
%TO.N,Net-(J12-Pin_1)*%
X171925000Y-47125000D02*
X177000000Y-42050000D01*
D40*
X170600000Y-47600000D02*
X170600000Y-50400000D01*
X170600000Y-50400000D02*
X173200000Y-53000000D01*
D41*
X170000000Y-47600000D02*
X171450000Y-47600000D01*
D40*
X170600000Y-47600000D02*
X171450000Y-47600000D01*
X171450000Y-47600000D02*
X171925000Y-47125000D01*
D41*
%TO.N,Net-(J16-Pin_3)*%
X177900000Y-113300000D02*
X180400000Y-115800000D01*
X177900000Y-107400000D02*
X175550000Y-107400000D01*
X177900000Y-107400000D02*
X177900000Y-113300000D01*
X175550000Y-107400000D02*
X175350000Y-107200000D01*
D40*
%TO.N,Net-(J16-Pin_1)*%
X174700000Y-120050000D02*
X175150000Y-119600000D01*
D41*
X175150000Y-119600000D02*
X177700000Y-119600000D01*
D40*
X174700000Y-124400000D02*
X174700000Y-120050000D01*
D41*
X187500000Y-135750000D02*
X186050000Y-135750000D01*
X186050000Y-135750000D02*
X174700000Y-124400000D01*
%TD*%
M02*
