%TF.GenerationSoftware,KiCad,Pcbnew,8.0.8-8.0.8-0~ubuntu24.04.1*%
%TF.CreationDate,2025-02-05T15:43:01+00:00*%
%TF.ProjectId,integrated_board,696e7465-6772-4617-9465-645f626f6172,rev?*%
%TF.SameCoordinates,Original*%
%TF.FileFunction,Copper,L1,Top*%
%TF.FilePolarity,Positive*%
%FSLAX46Y46*%
G04 Gerber Fmt 4.6, Leading zero omitted, Abs format (unit mm)*
G04 Created by KiCad (PCBNEW 8.0.8-8.0.8-0~ubuntu24.04.1) date 2025-02-05 15:43:01*
%MOMM*%
%LPD*%
G01*
G04 APERTURE LIST*
G04 Aperture macros list*
%AMRoundRect*
0 Rectangle with rounded corners*
0 $1 Rounding radius*
0 $2 $3 $4 $5 $6 $7 $8 $9 X,Y pos of 4 corners*
0 Add a 4 corners polygon primitive as box body*
4,1,4,$2,$3,$4,$5,$6,$7,$8,$9,$2,$3,0*
0 Add four circle primitives for the rounded corners*
1,1,$1+$1,$2,$3*
1,1,$1+$1,$4,$5*
1,1,$1+$1,$6,$7*
1,1,$1+$1,$8,$9*
0 Add four rect primitives between the rounded corners*
20,1,$1+$1,$2,$3,$4,$5,0*
20,1,$1+$1,$4,$5,$6,$7,0*
20,1,$1+$1,$6,$7,$8,$9,0*
20,1,$1+$1,$8,$9,$2,$3,0*%
G04 Aperture macros list end*
%TA.AperFunction,ComponentPad*%
%ADD10RoundRect,0.250000X0.725000X-0.600000X0.725000X0.600000X-0.725000X0.600000X-0.725000X-0.600000X0*%
%TD*%
%TA.AperFunction,ComponentPad*%
%ADD11O,1.950000X1.700000*%
%TD*%
%TA.AperFunction,ComponentPad*%
%ADD12RoundRect,0.250000X-0.750000X0.600000X-0.750000X-0.600000X0.750000X-0.600000X0.750000X0.600000X0*%
%TD*%
%TA.AperFunction,ComponentPad*%
%ADD13O,2.000000X1.700000*%
%TD*%
%TA.AperFunction,ComponentPad*%
%ADD14C,1.600000*%
%TD*%
%TA.AperFunction,ComponentPad*%
%ADD15O,1.600000X1.600000*%
%TD*%
%TA.AperFunction,ComponentPad*%
%ADD16C,2.000000*%
%TD*%
%TA.AperFunction,ComponentPad*%
%ADD17RoundRect,0.250000X-0.600000X-0.750000X0.600000X-0.750000X0.600000X0.750000X-0.600000X0.750000X0*%
%TD*%
%TA.AperFunction,ComponentPad*%
%ADD18O,1.700000X2.000000*%
%TD*%
%TA.AperFunction,ComponentPad*%
%ADD19RoundRect,0.250000X-0.725000X0.600000X-0.725000X-0.600000X0.725000X-0.600000X0.725000X0.600000X0*%
%TD*%
%TA.AperFunction,ComponentPad*%
%ADD20R,2.400000X1.600000*%
%TD*%
%TA.AperFunction,ComponentPad*%
%ADD21O,2.400000X1.600000*%
%TD*%
%TA.AperFunction,ComponentPad*%
%ADD22R,3.500000X3.500000*%
%TD*%
%TA.AperFunction,ComponentPad*%
%ADD23RoundRect,0.750000X-1.000000X0.750000X-1.000000X-0.750000X1.000000X-0.750000X1.000000X0.750000X0*%
%TD*%
%TA.AperFunction,ComponentPad*%
%ADD24RoundRect,0.875000X-0.875000X0.875000X-0.875000X-0.875000X0.875000X-0.875000X0.875000X0.875000X0*%
%TD*%
%TA.AperFunction,ComponentPad*%
%ADD25R,3.200000X3.200000*%
%TD*%
%TA.AperFunction,ComponentPad*%
%ADD26O,3.200000X3.200000*%
%TD*%
%TA.AperFunction,ComponentPad*%
%ADD27R,1.600000X1.600000*%
%TD*%
%TA.AperFunction,ComponentPad*%
%ADD28C,2.400000*%
%TD*%
%TA.AperFunction,ComponentPad*%
%ADD29R,1.800000X1.800000*%
%TD*%
%TA.AperFunction,ComponentPad*%
%ADD30O,1.800000X1.800000*%
%TD*%
%TA.AperFunction,ComponentPad*%
%ADD31C,1.800000*%
%TD*%
%TA.AperFunction,ComponentPad*%
%ADD32R,1.700000X1.700000*%
%TD*%
%TA.AperFunction,ComponentPad*%
%ADD33O,1.700000X1.700000*%
%TD*%
%TA.AperFunction,ComponentPad*%
%ADD34R,1.560000X1.560000*%
%TD*%
%TA.AperFunction,ComponentPad*%
%ADD35C,1.560000*%
%TD*%
%TA.AperFunction,ViaPad*%
%ADD36C,0.800000*%
%TD*%
%TA.AperFunction,Conductor*%
%ADD37C,0.500000*%
%TD*%
%TA.AperFunction,Conductor*%
%ADD38C,1.000000*%
%TD*%
%TA.AperFunction,Conductor*%
%ADD39C,0.350000*%
%TD*%
G04 APERTURE END LIST*
D10*
%TO.P,J1,1,Pin_1*%
%TO.N,Net-(J1-Pin_1)*%
X188400000Y-136000000D03*
D11*
%TO.P,J1,2,Pin_2*%
%TO.N,Net-(J1-Pin_2)*%
X188400000Y-133500000D03*
%TO.P,J1,3,Pin_3*%
%TO.N,+5V*%
X188400000Y-131000000D03*
%TO.P,J1,4,Pin_4*%
%TO.N,GND*%
X188400000Y-128500000D03*
%TD*%
D12*
%TO.P,J6,1,Pin_1*%
%TO.N,GND*%
X105500000Y-112000000D03*
D13*
%TO.P,J6,2,Pin_2*%
%TO.N,Net-(J6-Pin_2)*%
X105500000Y-114500000D03*
%TD*%
D12*
%TO.P,P1,1,Pin_1*%
%TO.N,Net-(P1-Pin_1)*%
X113000000Y-48250000D03*
D13*
%TO.P,P1,2,Pin_2*%
%TO.N,Net-(P1-Pin_2)*%
X113000000Y-50750000D03*
%TD*%
D14*
%TO.P,R3,1*%
%TO.N,GND*%
X175050000Y-78600000D03*
D15*
%TO.P,R3,2*%
%TO.N,encoderY_1*%
X162350000Y-78600000D03*
%TD*%
D16*
%TO.P,R7,1*%
%TO.N,Net-(D2-A)*%
X116200000Y-56000000D03*
%TO.P,R7,2*%
%TO.N,Net-(P1-Pin_2)*%
X125200000Y-56000000D03*
%TD*%
D17*
%TO.P,J4,1,Pin_1*%
%TO.N,GND*%
X147500000Y-146250000D03*
D18*
%TO.P,J4,2,Pin_2*%
%TO.N,Net-(J4-Pin_2)*%
X150000000Y-146250000D03*
%TD*%
D14*
%TO.P,R4,1*%
%TO.N,Net-(J2-Pin_2)*%
X178100000Y-86600000D03*
D15*
%TO.P,R4,2*%
%TO.N,+5V*%
X190800000Y-86600000D03*
%TD*%
D17*
%TO.P,J11,1,Pin_1*%
%TO.N,GND*%
X138000000Y-146250000D03*
D18*
%TO.P,J11,2,Pin_2*%
%TO.N,Net-(J11-Pin_2)*%
X140500000Y-146250000D03*
%TD*%
D14*
%TO.P,C9,1*%
%TO.N,GND*%
X165600000Y-47600000D03*
%TO.P,C9,2*%
%TO.N,Net-(J3-Pin_2)*%
X170600000Y-47600000D03*
%TD*%
%TO.P,R23,1*%
%TO.N,encoderZ_1*%
X162650000Y-107200000D03*
D15*
%TO.P,R23,2*%
%TO.N,Net-(J1-Pin_1)*%
X175350000Y-107200000D03*
%TD*%
D14*
%TO.P,R24,1*%
%TO.N,GND*%
X175200000Y-111400000D03*
D15*
%TO.P,R24,2*%
%TO.N,encoderZ_1*%
X162500000Y-111400000D03*
%TD*%
D14*
%TO.P,R25,1*%
%TO.N,Net-(J1-Pin_2)*%
X177700000Y-119600000D03*
D15*
%TO.P,R25,2*%
%TO.N,+5V*%
X190400000Y-119600000D03*
%TD*%
D14*
%TO.P,C3,1*%
%TO.N,GND*%
X110200000Y-57500000D03*
%TO.P,C3,2*%
%TO.N,+5V*%
X110200000Y-62500000D03*
%TD*%
%TO.P,C12,1*%
%TO.N,GND*%
X111050000Y-112500000D03*
%TO.P,C12,2*%
%TO.N,Net-(J6-Pin_2)*%
X111050000Y-117500000D03*
%TD*%
D19*
%TO.P,J13,1,Pin_1*%
%TO.N,Net-(J13-Pin_1)*%
X104250000Y-52000000D03*
D11*
%TO.P,J13,2,Pin_2*%
%TO.N,Net-(J13-Pin_2)*%
X104250000Y-54500000D03*
%TO.P,J13,3,Pin_3*%
%TO.N,Net-(J13-Pin_3)*%
X104250000Y-57000000D03*
%TO.P,J13,4,Pin_4*%
%TO.N,Net-(J13-Pin_4)*%
X104250000Y-59500000D03*
%TO.P,J13,5,Pin_5*%
%TO.N,+5V*%
X104250000Y-62000000D03*
%TD*%
D14*
%TO.P,R15,1*%
%TO.N,GND*%
X173200000Y-57000000D03*
D15*
%TO.P,R15,2*%
%TO.N,encoderX_1*%
X160500000Y-57000000D03*
%TD*%
D19*
%TO.P,P2,1,Pin_1*%
%TO.N,Net-(J10-Pin_4)*%
X98250000Y-130750000D03*
D11*
%TO.P,P2,2,Pin_2*%
%TO.N,Net-(J10-Pin_3)*%
X98250000Y-133250000D03*
%TO.P,P2,3,Pin_3*%
%TO.N,+5V*%
X98250000Y-135750000D03*
%TO.P,P2,4,Pin_4*%
%TO.N,GND*%
X98250000Y-138250000D03*
%TD*%
D14*
%TO.P,R13,1*%
%TO.N,Net-(J3-Pin_2)*%
X177000000Y-42050000D03*
D15*
%TO.P,R13,2*%
%TO.N,+5V*%
X177000000Y-54750000D03*
%TD*%
D14*
%TO.P,R12,1*%
%TO.N,GND*%
X173250000Y-61000000D03*
D15*
%TO.P,R12,2*%
%TO.N,encoderX_2*%
X160550000Y-61000000D03*
%TD*%
D20*
%TO.P,U1,1,I1*%
%TO.N,unconnected-(U1-I1-Pad1)*%
X122950000Y-102780000D03*
D21*
%TO.P,U1,2,I2*%
%TO.N,unconnected-(U1-I2-Pad2)*%
X122950000Y-100240000D03*
%TO.P,U1,3,I3*%
%TO.N,Net-(U1-I3)*%
X122950000Y-97700000D03*
%TO.P,U1,4,I4*%
%TO.N,Net-(U1-I4)*%
X122950000Y-95160000D03*
%TO.P,U1,5,I5*%
%TO.N,Net-(U1-I5)*%
X122950000Y-92620000D03*
%TO.P,U1,6,I6*%
%TO.N,Net-(U1-I6)*%
X122950000Y-90080000D03*
%TO.P,U1,7,I7*%
%TO.N,Net-(U1-I7)*%
X122950000Y-87540000D03*
%TO.P,U1,8,GND*%
%TO.N,GND*%
X122950000Y-85000000D03*
%TO.P,U1,9,COM*%
%TO.N,+5V*%
X115330000Y-85000000D03*
%TO.P,U1,10,O7*%
%TO.N,Net-(J15-Pin_4)*%
X115330000Y-87540000D03*
%TO.P,U1,11,O6*%
%TO.N,Net-(J17-Pin_1)*%
X115330000Y-90080000D03*
%TO.P,U1,12,O5*%
%TO.N,Net-(J17-Pin_2)*%
X115330000Y-92620000D03*
%TO.P,U1,13,O4*%
%TO.N,Net-(J17-Pin_3)*%
X115330000Y-95160000D03*
%TO.P,U1,14,O3*%
%TO.N,Net-(J17-Pin_4)*%
X115330000Y-97700000D03*
%TO.P,U1,15,O2*%
%TO.N,unconnected-(U1-O2-Pad15)*%
X115330000Y-100240000D03*
%TO.P,U1,16,O1*%
%TO.N,unconnected-(U1-O1-Pad16)*%
X115330000Y-102780000D03*
%TD*%
D14*
%TO.P,C7,1*%
%TO.N,GND*%
X111000000Y-104550000D03*
%TO.P,C7,2*%
%TO.N,Net-(J5-Pin_2)*%
X111000000Y-109550000D03*
%TD*%
D12*
%TO.P,J7,1,Pin_1*%
%TO.N,GND*%
X105500000Y-121450000D03*
D13*
%TO.P,J7,2,Pin_2*%
%TO.N,Net-(J7-Pin_2)*%
X105500000Y-123950000D03*
%TD*%
D10*
%TO.P,J3,1,Pin_1*%
%TO.N,Net-(J3-Pin_1)*%
X187400000Y-62600000D03*
D11*
%TO.P,J3,2,Pin_2*%
%TO.N,Net-(J3-Pin_2)*%
X187400000Y-60100000D03*
%TO.P,J3,3,Pin_3*%
%TO.N,+5V*%
X187400000Y-57600000D03*
%TO.P,J3,4,Pin_4*%
%TO.N,GND*%
X187400000Y-55100000D03*
%TD*%
D22*
%TO.P,CON1,1*%
%TO.N,Net-(P1-Pin_1)*%
X122907500Y-51250000D03*
D23*
%TO.P,CON1,2*%
%TO.N,GND*%
X122907500Y-45250000D03*
D24*
%TO.P,CON1,3*%
X118207500Y-48250000D03*
%TD*%
D17*
%TO.P,P10,1,Pin_1*%
%TO.N,Net-(P1-Pin_2)*%
X162500000Y-146500000D03*
D18*
%TO.P,P10,2,Pin_2*%
%TO.N,GND*%
X165000000Y-146500000D03*
%TD*%
D14*
%TO.P,R2,1*%
%TO.N,encoderY_1*%
X162400000Y-74600000D03*
D15*
%TO.P,R2,2*%
%TO.N,Net-(J2-Pin_1)*%
X175100000Y-74600000D03*
%TD*%
D14*
%TO.P,C4,1*%
%TO.N,GND*%
X110750000Y-84200000D03*
%TO.P,C4,2*%
%TO.N,+5V*%
X110750000Y-89200000D03*
%TD*%
D17*
%TO.P,P15,1,Pin_1*%
%TO.N,Net-(P1-Pin_2)*%
X173800000Y-146500000D03*
D18*
%TO.P,P15,2,Pin_2*%
%TO.N,GND*%
X176300000Y-146500000D03*
%TD*%
D25*
%TO.P,D1,1,K*%
%TO.N,Net-(D1-K)*%
X141250000Y-114380000D03*
D26*
%TO.P,D1,2,A*%
%TO.N,GND*%
X141250000Y-129620000D03*
%TD*%
D27*
%TO.P,C5,1*%
%TO.N,Net-(P1-Pin_2)*%
X149700000Y-118070937D03*
X151300000Y-117400000D03*
D14*
%TO.P,C5,2*%
%TO.N,GND*%
X151300000Y-114900000D03*
X152900000Y-114229063D03*
%TD*%
%TO.P,R6,1*%
%TO.N,GND*%
X174900000Y-82800000D03*
D15*
%TO.P,R6,2*%
%TO.N,encoderY_2*%
X162200000Y-82800000D03*
%TD*%
D10*
%TO.P,J2,1,Pin_1*%
%TO.N,Net-(J2-Pin_1)*%
X187600000Y-100900000D03*
D11*
%TO.P,J2,2,Pin_2*%
%TO.N,Net-(J2-Pin_2)*%
X187600000Y-98400000D03*
%TO.P,J2,3,Pin_3*%
%TO.N,+5V*%
X187600000Y-95900000D03*
%TO.P,J2,4,Pin_4*%
%TO.N,GND*%
X187600000Y-93400000D03*
%TD*%
D14*
%TO.P,R1,1*%
%TO.N,Net-(J2-Pin_1)*%
X177800000Y-74600000D03*
D15*
%TO.P,R1,2*%
%TO.N,+5V*%
X190500000Y-74600000D03*
%TD*%
D14*
%TO.P,C14,1*%
%TO.N,GND*%
X146750000Y-140250000D03*
%TO.P,C14,2*%
%TO.N,Net-(J4-Pin_2)*%
X151750000Y-140250000D03*
%TD*%
%TO.P,C8,1*%
%TO.N,GND*%
X165600000Y-69800000D03*
%TO.P,C8,2*%
%TO.N,Net-(J3-Pin_1)*%
X170600000Y-69800000D03*
%TD*%
D28*
%TO.P,L1,1,1*%
%TO.N,Net-(D1-K)*%
X137200000Y-107000000D03*
%TO.P,L1,2,2*%
%TO.N,+5V*%
X137200000Y-102000000D03*
%TD*%
D14*
%TO.P,C11,1*%
%TO.N,GND*%
X169700000Y-124400000D03*
%TO.P,C11,2*%
%TO.N,Net-(J1-Pin_2)*%
X174700000Y-124400000D03*
%TD*%
D29*
%TO.P,U3,1,VIN*%
%TO.N,Net-(P1-Pin_2)*%
X155400000Y-124850000D03*
D30*
%TO.P,U3,2,OUT*%
%TO.N,Net-(D1-K)*%
X153700000Y-128550000D03*
%TO.P,U3,3,GND*%
%TO.N,GND*%
X152000000Y-124850000D03*
%TO.P,U3,4,FB*%
%TO.N,+5V*%
X150300000Y-128550000D03*
%TO.P,U3,5,~{ON}/OFF*%
%TO.N,GND*%
X148600000Y-124850000D03*
%TD*%
D14*
%TO.P,R5,1*%
%TO.N,encoderY_2*%
X162200000Y-86800000D03*
D15*
%TO.P,R5,2*%
%TO.N,Net-(J2-Pin_2)*%
X174900000Y-86800000D03*
%TD*%
D19*
%TO.P,J17,1,Pin_1*%
%TO.N,Net-(J17-Pin_1)*%
X104100000Y-85800000D03*
D11*
%TO.P,J17,2,Pin_2*%
%TO.N,Net-(J17-Pin_2)*%
X104100000Y-88300000D03*
%TO.P,J17,3,Pin_3*%
%TO.N,Net-(J17-Pin_3)*%
X104100000Y-90800000D03*
%TO.P,J17,4,Pin_4*%
%TO.N,Net-(J17-Pin_4)*%
X104100000Y-93300000D03*
%TO.P,J17,5,Pin_5*%
%TO.N,+5V*%
X104100000Y-95800000D03*
%TD*%
D14*
%TO.P,R14,1*%
%TO.N,encoderX_1*%
X160500000Y-53000000D03*
D15*
%TO.P,R14,2*%
%TO.N,Net-(J3-Pin_2)*%
X173200000Y-53000000D03*
%TD*%
D14*
%TO.P,C1,1*%
%TO.N,GND*%
X185100000Y-82200000D03*
%TO.P,C1,2*%
%TO.N,Net-(J2-Pin_1)*%
X180100000Y-82200000D03*
%TD*%
%TO.P,C15,1*%
%TO.N,GND*%
X136500000Y-140250000D03*
%TO.P,C15,2*%
%TO.N,Net-(J11-Pin_2)*%
X141500000Y-140250000D03*
%TD*%
%TO.P,R10,1*%
%TO.N,Net-(J3-Pin_1)*%
X177000000Y-70400000D03*
D15*
%TO.P,R10,2*%
%TO.N,+5V*%
X177000000Y-57700000D03*
%TD*%
D29*
%TO.P,D2,1,K*%
%TO.N,GND*%
X113210000Y-42750000D03*
D31*
%TO.P,D2,2,A*%
%TO.N,Net-(D2-A)*%
X115750000Y-42750000D03*
%TD*%
D14*
%TO.P,R26,1*%
%TO.N,encoderZ_2*%
X162450000Y-119600000D03*
D15*
%TO.P,R26,2*%
%TO.N,Net-(J1-Pin_2)*%
X175150000Y-119600000D03*
%TD*%
D14*
%TO.P,R11,1*%
%TO.N,encoderX_2*%
X160500000Y-65000000D03*
D15*
%TO.P,R11,2*%
%TO.N,Net-(J3-Pin_1)*%
X173200000Y-65000000D03*
%TD*%
D20*
%TO.P,U2,1,I1*%
%TO.N,Net-(U2-I1)*%
X123025000Y-80375000D03*
D21*
%TO.P,U2,2,I2*%
%TO.N,Net-(U2-I2)*%
X123025000Y-77835000D03*
%TO.P,U2,3,I3*%
%TO.N,Net-(U2-I3)*%
X123025000Y-75295000D03*
%TO.P,U2,4,I4*%
%TO.N,Net-(U2-I4)*%
X123025000Y-72755000D03*
%TO.P,U2,5,I5*%
%TO.N,Net-(U2-I5)*%
X123025000Y-70215000D03*
%TO.P,U2,6,I6*%
%TO.N,Net-(U2-I6)*%
X123025000Y-67675000D03*
%TO.P,U2,7,I7*%
%TO.N,Net-(U2-I7)*%
X123025000Y-65135000D03*
%TO.P,U2,8,GND*%
%TO.N,GND*%
X123025000Y-62595000D03*
%TO.P,U2,9,COM*%
%TO.N,+5V*%
X115405000Y-62595000D03*
%TO.P,U2,10,O7*%
%TO.N,Net-(J13-Pin_1)*%
X115405000Y-65135000D03*
%TO.P,U2,11,O6*%
%TO.N,Net-(J13-Pin_2)*%
X115405000Y-67675000D03*
%TO.P,U2,12,O5*%
%TO.N,Net-(J13-Pin_3)*%
X115405000Y-70215000D03*
%TO.P,U2,13,O4*%
%TO.N,Net-(J13-Pin_4)*%
X115405000Y-72755000D03*
%TO.P,U2,14,O3*%
%TO.N,Net-(J15-Pin_1)*%
X115405000Y-75295000D03*
%TO.P,U2,15,O2*%
%TO.N,Net-(J15-Pin_2)*%
X115405000Y-77835000D03*
%TO.P,U2,16,O1*%
%TO.N,Net-(J15-Pin_3)*%
X115405000Y-80375000D03*
%TD*%
D14*
%TO.P,R27,1*%
%TO.N,GND*%
X175150000Y-115600000D03*
D15*
%TO.P,R27,2*%
%TO.N,encoderZ_2*%
X162450000Y-115600000D03*
%TD*%
D19*
%TO.P,J15,1,Pin_1*%
%TO.N,Net-(J15-Pin_1)*%
X104200000Y-68900000D03*
D11*
%TO.P,J15,2,Pin_2*%
%TO.N,Net-(J15-Pin_2)*%
X104200000Y-71400000D03*
%TO.P,J15,3,Pin_3*%
%TO.N,Net-(J15-Pin_3)*%
X104200000Y-73900000D03*
%TO.P,J15,4,Pin_4*%
%TO.N,Net-(J15-Pin_4)*%
X104200000Y-76400000D03*
%TO.P,J15,5,Pin_5*%
%TO.N,+5V*%
X104200000Y-78900000D03*
%TD*%
D14*
%TO.P,R22,1*%
%TO.N,Net-(J1-Pin_1)*%
X177900000Y-107400000D03*
D15*
%TO.P,R22,2*%
%TO.N,+5V*%
X190600000Y-107400000D03*
%TD*%
D14*
%TO.P,C13,1*%
%TO.N,GND*%
X111050000Y-120600000D03*
%TO.P,C13,2*%
%TO.N,Net-(J7-Pin_2)*%
X111050000Y-125600000D03*
%TD*%
%TO.P,C2,1*%
%TO.N,GND*%
X172000000Y-93200000D03*
%TO.P,C2,2*%
%TO.N,Net-(J2-Pin_2)*%
X167000000Y-93200000D03*
%TD*%
D27*
%TO.P,C6,1*%
%TO.N,+5V*%
X149700000Y-102500000D03*
D14*
%TO.P,C6,2*%
%TO.N,GND*%
X149700000Y-106300000D03*
%TD*%
D12*
%TO.P,J5,1,Pin_1*%
%TO.N,GND*%
X105500000Y-102550000D03*
D13*
%TO.P,J5,2,Pin_2*%
%TO.N,Net-(J5-Pin_2)*%
X105500000Y-105050000D03*
%TD*%
D14*
%TO.P,C10,1*%
%TO.N,GND*%
X180400000Y-110800000D03*
%TO.P,C10,2*%
%TO.N,Net-(J1-Pin_1)*%
X180400000Y-115800000D03*
%TD*%
D32*
%TO.P,J10,1,Pin_1*%
%TO.N,GND*%
X105495000Y-144270000D03*
D33*
%TO.P,J10,2,Pin_2*%
%TO.N,+5V*%
X105495000Y-141730000D03*
%TO.P,J10,3,Pin_3*%
%TO.N,Net-(J10-Pin_3)*%
X105495000Y-139190000D03*
%TO.P,J10,4,Pin_4*%
%TO.N,Net-(J10-Pin_4)*%
X105495000Y-136650000D03*
%TO.P,J10,5,Pin_5*%
%TO.N,Net-(J10-Pin_5)*%
X105495000Y-134110000D03*
%TD*%
D32*
%TO.P,J8,1,Pin_1*%
%TO.N,Net-(J11-Pin_2)*%
X130025000Y-148000000D03*
D33*
%TO.P,J8,2,Pin_2*%
%TO.N,Net-(J4-Pin_2)*%
X127485000Y-148000000D03*
%TO.P,J8,3,Pin_3*%
%TO.N,unconnected-(J8-Pin_3-Pad3)*%
X124945000Y-148000000D03*
%TO.P,J8,4,Pin_4*%
%TO.N,unconnected-(J8-Pin_4-Pad4)*%
X122405000Y-148000000D03*
%TO.P,J8,5,Pin_5*%
%TO.N,unconnected-(J8-Pin_5-Pad5)*%
X119865000Y-148000000D03*
%TO.P,J8,6,Pin_6*%
%TO.N,unconnected-(J8-Pin_6-Pad6)*%
X117325000Y-148000000D03*
%TO.P,J8,7,Pin_7*%
%TO.N,+5V*%
X114785000Y-148000000D03*
%TO.P,J8,8,Pin_8*%
%TO.N,GND*%
X112245000Y-148000000D03*
%TD*%
D32*
%TO.P,J9,1,Pin_1*%
%TO.N,GND*%
X112245000Y-130750000D03*
D33*
%TO.P,J9,2,Pin_2*%
%TO.N,+5V*%
X114785000Y-130750000D03*
%TO.P,J9,3,Pin_3*%
%TO.N,unconnected-(J9-Pin_3-Pad3)*%
X117325000Y-130750000D03*
%TO.P,J9,4,Pin_4*%
%TO.N,unconnected-(J9-Pin_4-Pad4)*%
X119865000Y-130750000D03*
%TO.P,J9,5,Pin_5*%
%TO.N,unconnected-(J9-Pin_5-Pad5)*%
X122405000Y-130750000D03*
%TO.P,J9,6,Pin_6*%
%TO.N,Net-(J7-Pin_2)*%
X124945000Y-130750000D03*
%TO.P,J9,7,Pin_7*%
%TO.N,Net-(J6-Pin_2)*%
X127485000Y-130750000D03*
%TO.P,J9,8,Pin_8*%
%TO.N,Net-(J5-Pin_2)*%
X130025000Y-130750000D03*
%TD*%
D34*
%TO.P,U4,1,3V3*%
%TO.N,+3V3*%
X156100000Y-90000000D03*
D35*
%TO.P,U4,2,EN*%
%TO.N,unconnected-(U4-EN-Pad2)*%
X156100000Y-87460000D03*
%TO.P,U4,3,SENSOR_VP*%
%TO.N,switch2*%
X156100000Y-84920000D03*
%TO.P,U4,4,SENSOR_VN*%
%TO.N,switch1*%
X156100000Y-82380000D03*
%TO.P,U4,5,IO34*%
%TO.N,encoderZ_2*%
X156100000Y-79840000D03*
%TO.P,U4,6,IO35*%
%TO.N,encoderZ_1*%
X156100000Y-77300000D03*
%TO.P,U4,7,IO32*%
%TO.N,Net-(J10-Pin_3)*%
X156100000Y-74760000D03*
%TO.P,U4,8,IO33*%
%TO.N,Net-(J10-Pin_4)*%
X156100000Y-72220000D03*
%TO.P,U4,9,IO25*%
%TO.N,encoderY_2*%
X156100000Y-69680000D03*
%TO.P,U4,10,IO26*%
%TO.N,encoderY_1*%
X156100000Y-67140000D03*
%TO.P,U4,11,IO27*%
%TO.N,encoderX_2*%
X156100000Y-64600000D03*
%TO.P,U4,12,IO14*%
%TO.N,encoderX_1*%
X156100000Y-62060000D03*
%TO.P,U4,13,IO12*%
%TO.N,unconnected-(U4-IO12-Pad13)*%
X156100000Y-59520000D03*
%TO.P,U4,14,GND1*%
%TO.N,GND*%
X156100000Y-56980000D03*
%TO.P,U4,15,IO13*%
%TO.N,Net-(J10-Pin_5)*%
X156100000Y-54440000D03*
%TO.P,U4,16,SD2*%
%TO.N,unconnected-(U4-SD2-Pad16)*%
X156100000Y-51900000D03*
%TO.P,U4,17,SD3*%
%TO.N,unconnected-(U4-SD3-Pad17)*%
X156100000Y-49360000D03*
%TO.P,U4,18,CMD*%
%TO.N,unconnected-(U4-CMD-Pad18)*%
X156100000Y-46820000D03*
%TO.P,U4,19,EXT_5V*%
%TO.N,+5V*%
X156100000Y-44280000D03*
%TO.P,U4,20,GND3*%
%TO.N,GND*%
X130700000Y-90000000D03*
%TO.P,U4,21,IO23*%
%TO.N,Net-(U1-I3)*%
X130700000Y-87460000D03*
%TO.P,U4,22,IO22*%
%TO.N,Net-(U1-I4)*%
X130700000Y-84920000D03*
%TO.P,U4,23,TXD0*%
%TO.N,TX*%
X130700000Y-82380000D03*
%TO.P,U4,24,RXD0*%
%TO.N,RX*%
X130700000Y-79840000D03*
%TO.P,U4,25,IO21*%
%TO.N,Net-(U1-I5)*%
X130700000Y-77300000D03*
%TO.P,U4,26,GND2*%
%TO.N,GND*%
X130700000Y-74760000D03*
%TO.P,U4,27,IO19*%
%TO.N,Net-(U1-I6)*%
X130700000Y-72220000D03*
%TO.P,U4,28,IO18*%
%TO.N,Net-(U1-I7)*%
X130700000Y-69680000D03*
%TO.P,U4,29,IO5*%
%TO.N,Net-(U2-I1)*%
X130700000Y-67140000D03*
%TO.P,U4,30,IO17*%
%TO.N,Net-(U2-I2)*%
X130700000Y-64600000D03*
%TO.P,U4,31,IO16*%
%TO.N,Net-(U2-I3)*%
X130700000Y-62060000D03*
%TO.P,U4,32,IO4*%
%TO.N,Net-(U2-I4)*%
X130700000Y-59520000D03*
%TO.P,U4,33,IO0*%
%TO.N,Net-(U2-I5)*%
X130700000Y-56980000D03*
%TO.P,U4,34,IO2*%
%TO.N,Net-(U2-I6)*%
X130700000Y-54440000D03*
%TO.P,U4,35,IO15*%
%TO.N,Net-(U2-I7)*%
X130700000Y-51900000D03*
%TO.P,U4,36,SD1*%
%TO.N,unconnected-(U4-SD1-Pad36)*%
X130700000Y-49360000D03*
%TO.P,U4,37,SD0*%
%TO.N,unconnected-(U4-SD0-Pad37)*%
X130700000Y-46820000D03*
%TO.P,U4,38,CLK*%
%TO.N,unconnected-(U4-CLK-Pad38)*%
X130700000Y-44280000D03*
%TD*%
D36*
%TO.N,Net-(J10-Pin_5)*%
X136600000Y-72600000D03*
%TD*%
D37*
%TO.N,Net-(U1-I5)*%
X130700000Y-77300000D02*
X128070000Y-79930000D01*
X128070000Y-79930000D02*
X128070000Y-87500000D01*
X128070000Y-87500000D02*
X122950000Y-92620000D01*
%TO.N,Net-(U1-I4)*%
X122950000Y-95160000D02*
X128770000Y-89340000D01*
X128770000Y-89340000D02*
X128770000Y-86850000D01*
X128770000Y-86850000D02*
X130700000Y-84920000D01*
%TO.N,Net-(U1-I3)*%
X122950000Y-97700000D02*
X129470000Y-91180000D01*
X129470000Y-91180000D02*
X129470000Y-88690000D01*
X129470000Y-88690000D02*
X130700000Y-87460000D01*
%TO.N,Net-(D1-K)*%
X141250000Y-114380000D02*
X141250000Y-119409189D01*
X148340811Y-126500000D02*
X151650000Y-126500000D01*
X141250000Y-119409189D02*
X148340811Y-126500000D01*
X151650000Y-126500000D02*
X153700000Y-128550000D01*
D38*
%TO.N,+5V*%
X158600000Y-139600000D02*
X150300000Y-131300000D01*
X150300000Y-131300000D02*
X150300000Y-128550000D01*
D39*
%TO.N,Net-(J1-Pin_1)*%
X177900000Y-113300000D02*
X180400000Y-115800000D01*
X177900000Y-107400000D02*
X175550000Y-107400000D01*
X177900000Y-107400000D02*
X177900000Y-113300000D01*
X175550000Y-107400000D02*
X175350000Y-107200000D01*
D37*
%TO.N,Net-(J1-Pin_2)*%
X174700000Y-125700000D02*
X182500000Y-133500000D01*
X174700000Y-120050000D02*
X175150000Y-119600000D01*
D39*
X175150000Y-119600000D02*
X177700000Y-119600000D01*
D37*
X174700000Y-124400000D02*
X174700000Y-120050000D01*
X174700000Y-124400000D02*
X174700000Y-125700000D01*
X182500000Y-133500000D02*
X188400000Y-133500000D01*
D39*
%TO.N,Net-(J2-Pin_1)*%
X177800000Y-79900000D02*
X177800000Y-74600000D01*
X175100000Y-74600000D02*
X177800000Y-74600000D01*
X180100000Y-82200000D02*
X177800000Y-79900000D01*
%TO.N,Net-(J2-Pin_2)*%
X168472599Y-93227401D02*
X174900000Y-86800000D01*
X174900000Y-86800000D02*
X177900000Y-86800000D01*
X177900000Y-86800000D02*
X178100000Y-86600000D01*
X178100000Y-86600000D02*
X178100000Y-88900000D01*
X167000000Y-93227401D02*
X168472599Y-93227401D01*
X178100000Y-88900000D02*
X187600000Y-98400000D01*
D37*
%TO.N,+5V*%
X190600000Y-94600000D02*
X190600000Y-107400000D01*
X189200000Y-57600000D02*
X187400000Y-57600000D01*
D38*
X95950000Y-128150000D02*
X97150000Y-126950000D01*
X98250000Y-135750000D02*
X95950000Y-135750000D01*
X133900000Y-149750000D02*
X157150000Y-149750000D01*
D37*
X190500000Y-74600000D02*
X190500000Y-58900000D01*
D38*
X111915000Y-86735000D02*
X113650000Y-85000000D01*
D37*
X177000000Y-54750000D02*
X177000000Y-57700000D01*
D38*
X110250000Y-145282919D02*
X106697081Y-141730000D01*
X97150000Y-126950000D02*
X97150000Y-98550000D01*
X97150000Y-98550000D02*
X97150000Y-79000000D01*
D37*
X190800000Y-94000000D02*
X190800000Y-86600000D01*
D38*
X105495000Y-141730000D02*
X101200000Y-137435000D01*
X133700000Y-105500000D02*
X133700000Y-145250000D01*
X101200000Y-135750000D02*
X98250000Y-135750000D01*
D37*
X188000000Y-57800000D02*
X177100000Y-57800000D01*
D38*
X99900000Y-95800000D02*
X104100000Y-95800000D01*
D37*
X187600000Y-95900000D02*
X188900000Y-95900000D01*
D38*
X110750000Y-89200000D02*
X111130000Y-89200000D01*
D37*
X190400000Y-119600000D02*
X190400000Y-107600000D01*
D38*
X111130000Y-89200000D02*
X111915000Y-88415000D01*
X113650000Y-85000000D02*
X115330000Y-85000000D01*
D37*
X190400000Y-129600000D02*
X190400000Y-129000000D01*
D38*
X114785000Y-132440000D02*
X114785000Y-130750000D01*
D37*
X177100000Y-57800000D02*
X177000000Y-57700000D01*
X190500000Y-58900000D02*
X189200000Y-57600000D01*
D38*
X110250000Y-145282919D02*
X114800000Y-145282919D01*
X104200000Y-82650000D02*
X110750000Y-89200000D01*
D37*
X190400000Y-129000000D02*
X190400000Y-119600000D01*
D38*
X137200000Y-102000000D02*
X149200000Y-102000000D01*
X160500000Y-139600000D02*
X188900000Y-139600000D01*
X105495000Y-141730000D02*
X114785000Y-132440000D01*
X104200000Y-78900000D02*
X104200000Y-82650000D01*
X158600000Y-139600000D02*
X160500000Y-139600000D01*
X137200000Y-102000000D02*
X133700000Y-105500000D01*
X133667081Y-145282919D02*
X133700000Y-145250000D01*
X97150000Y-79000000D02*
X97250000Y-78900000D01*
X111180000Y-89150000D02*
X111915000Y-88415000D01*
D37*
X188900000Y-95900000D02*
X190800000Y-94000000D01*
D38*
X158600000Y-148300000D02*
X158600000Y-139600000D01*
X104250000Y-62000000D02*
X109700000Y-62000000D01*
X133700000Y-145250000D02*
X133700000Y-149550000D01*
X114800000Y-145282919D02*
X133667081Y-145282919D01*
X97250000Y-78900000D02*
X104200000Y-78900000D01*
X114785000Y-145297919D02*
X114800000Y-145282919D01*
X97150000Y-98550000D02*
X99900000Y-95800000D01*
X157150000Y-149750000D02*
X158600000Y-148300000D01*
X109700000Y-62000000D02*
X110200000Y-62500000D01*
D37*
X189000000Y-131000000D02*
X190400000Y-129600000D01*
D38*
X149200000Y-102000000D02*
X149700000Y-102500000D01*
X101200000Y-137435000D02*
X101200000Y-135750000D01*
D37*
X188900000Y-139600000D02*
X190500000Y-138000000D01*
D38*
X133700000Y-149550000D02*
X133900000Y-149750000D01*
D37*
X190800000Y-86600000D02*
X190800000Y-74900000D01*
X190500000Y-129100000D02*
X190400000Y-129000000D01*
X190800000Y-94000000D02*
X190800000Y-94400000D01*
D38*
X97150000Y-69100000D02*
X104250000Y-62000000D01*
D37*
X190800000Y-74900000D02*
X190500000Y-74600000D01*
D38*
X106697081Y-141730000D02*
X105495000Y-141730000D01*
X114750000Y-148035000D02*
X114785000Y-148000000D01*
D37*
X190800000Y-94400000D02*
X190600000Y-94600000D01*
X190500000Y-138000000D02*
X190500000Y-129100000D01*
X188400000Y-131000000D02*
X189000000Y-131000000D01*
D38*
X114785000Y-148000000D02*
X114785000Y-145297919D01*
X95950000Y-135750000D02*
X95950000Y-128150000D01*
X97150000Y-79000000D02*
X97150000Y-69100000D01*
D37*
X190400000Y-107600000D02*
X190600000Y-107400000D01*
D38*
X111915000Y-88415000D02*
X111915000Y-86735000D01*
X110200000Y-62500000D02*
X115310000Y-62500000D01*
D37*
%TO.N,Net-(D1-K)*%
X141250000Y-111050000D02*
X141250000Y-114380000D01*
X137200000Y-107000000D02*
X141250000Y-111050000D01*
%TO.N,Net-(D2-A)*%
X111550000Y-46950000D02*
X115750000Y-42750000D01*
X111550000Y-51350000D02*
X111550000Y-46950000D01*
X116200000Y-56000000D02*
X111550000Y-51350000D01*
%TO.N,Net-(J13-Pin_1)*%
X117055000Y-61805000D02*
X107250000Y-52000000D01*
X107250000Y-52000000D02*
X104250000Y-52000000D01*
X117055000Y-63485000D02*
X117055000Y-61805000D01*
X115405000Y-65135000D02*
X117055000Y-63485000D01*
%TO.N,Net-(J15-Pin_1)*%
X109010000Y-68900000D02*
X104200000Y-68900000D01*
X115405000Y-75295000D02*
X109010000Y-68900000D01*
%TO.N,Net-(J15-Pin_2)*%
X115405000Y-77835000D02*
X108970000Y-71400000D01*
X108970000Y-71400000D02*
X104200000Y-71400000D01*
%TO.N,Net-(J15-Pin_3)*%
X108930000Y-73900000D02*
X104200000Y-73900000D01*
X115405000Y-80375000D02*
X108930000Y-73900000D01*
D39*
%TO.N,Net-(J15-Pin_4)*%
X113700000Y-83000000D02*
X107100000Y-76400000D01*
X117700000Y-86000000D02*
X117700000Y-84500000D01*
X116160000Y-87540000D02*
X117700000Y-86000000D01*
X107100000Y-76400000D02*
X104200000Y-76400000D01*
X117700000Y-84500000D02*
X116200000Y-83000000D01*
X116200000Y-83000000D02*
X113700000Y-83000000D01*
D37*
%TO.N,Net-(J17-Pin_1)*%
X108750000Y-90450000D02*
X114960000Y-90450000D01*
X104100000Y-85800000D02*
X108750000Y-90450000D01*
X114960000Y-90450000D02*
X115330000Y-90080000D01*
%TO.N,Net-(J17-Pin_2)*%
X104100000Y-88300000D02*
X108420000Y-92620000D01*
X108420000Y-92620000D02*
X115330000Y-92620000D01*
%TO.N,Net-(J17-Pin_3)*%
X108460000Y-95160000D02*
X115330000Y-95160000D01*
X104100000Y-90800000D02*
X108460000Y-95160000D01*
%TO.N,Net-(J17-Pin_4)*%
X108500000Y-97700000D02*
X115330000Y-97700000D01*
X104100000Y-93300000D02*
X108500000Y-97700000D01*
D39*
%TO.N,encoderZ_1*%
X162650000Y-107200000D02*
X162650000Y-111250000D01*
X158100000Y-77300000D02*
X156100000Y-77300000D01*
X160400000Y-88600000D02*
X160400000Y-79600000D01*
X162650000Y-107200000D02*
X162650000Y-90850000D01*
X162650000Y-111250000D02*
X162500000Y-111400000D01*
X160400000Y-79600000D02*
X158100000Y-77300000D01*
X162650000Y-90850000D02*
X160400000Y-88600000D01*
%TO.N,encoderZ_2*%
X161325000Y-114475000D02*
X161325000Y-91125000D01*
X162450000Y-115600000D02*
X162450000Y-119600000D01*
X159800000Y-89600000D02*
X159800000Y-80200000D01*
X161325000Y-91125000D02*
X159800000Y-89600000D01*
X159440000Y-79840000D02*
X156100000Y-79840000D01*
X162450000Y-115600000D02*
X161325000Y-114475000D01*
X159800000Y-80200000D02*
X159440000Y-79840000D01*
%TO.N,encoderY_1*%
X162400000Y-74600000D02*
X162400000Y-73440000D01*
X162400000Y-74600000D02*
X162400000Y-78550000D01*
X162400000Y-73440000D02*
X156100000Y-67140000D01*
X162400000Y-78550000D02*
X162350000Y-78600000D01*
%TO.N,encoderY_2*%
X161175000Y-74755000D02*
X161175000Y-80775000D01*
X156100000Y-69680000D02*
X161175000Y-74755000D01*
X162200000Y-82800000D02*
X162200000Y-86800000D01*
X161200000Y-80800000D02*
X161200000Y-81800000D01*
X161200000Y-81800000D02*
X162200000Y-82800000D01*
X161175000Y-80775000D02*
X161200000Y-80800000D01*
%TO.N,encoderX_2*%
X160500000Y-61050000D02*
X160550000Y-61000000D01*
X160500000Y-65000000D02*
X160500000Y-61050000D01*
X160550000Y-64950000D02*
X160500000Y-65000000D01*
X156100000Y-64600000D02*
X160100000Y-64600000D01*
X160100000Y-64600000D02*
X160500000Y-65000000D01*
%TO.N,encoderX_1*%
X160500000Y-57660000D02*
X160500000Y-57000000D01*
X160500000Y-57000000D02*
X160500000Y-53000000D01*
X156100000Y-62060000D02*
X160500000Y-57660000D01*
D38*
%TO.N,Net-(P1-Pin_2)*%
X123500000Y-54300000D02*
X116550000Y-54300000D01*
X116550000Y-54300000D02*
X113000000Y-50750000D01*
X125200000Y-56000000D02*
X123500000Y-54300000D01*
D37*
%TO.N,Net-(P1-Pin_1)*%
X113000000Y-48250000D02*
X116000000Y-51250000D01*
X116000000Y-51250000D02*
X122907500Y-51250000D01*
D39*
%TO.N,Net-(J5-Pin_2)*%
X106500000Y-105050000D02*
X111000000Y-109550000D01*
X105500000Y-105050000D02*
X106500000Y-105050000D01*
%TO.N,Net-(J6-Pin_2)*%
X108050000Y-114500000D02*
X111050000Y-117500000D01*
X105500000Y-114500000D02*
X108050000Y-114500000D01*
%TO.N,Net-(J3-Pin_1)*%
X173200000Y-66600000D02*
X173200000Y-65000000D01*
X179600000Y-70400000D02*
X187400000Y-62600000D01*
X173200000Y-65000000D02*
X173200000Y-67200000D01*
X172400000Y-65000000D02*
X173200000Y-65000000D01*
X177000000Y-70400000D02*
X173200000Y-66600000D01*
X173200000Y-67200000D02*
X170600000Y-69800000D01*
X177000000Y-70400000D02*
X179600000Y-70400000D01*
D37*
%TO.N,Net-(J3-Pin_2)*%
X175750000Y-55550000D02*
X173200000Y-53000000D01*
D39*
X171925000Y-47125000D02*
X177000000Y-42050000D01*
D37*
X175750000Y-59550000D02*
X175750000Y-55550000D01*
X170600000Y-47600000D02*
X170600000Y-50400000D01*
X187400000Y-60100000D02*
X176300000Y-60100000D01*
X170600000Y-50400000D02*
X173200000Y-53000000D01*
D39*
X170000000Y-47600000D02*
X171450000Y-47600000D01*
D37*
X170600000Y-47600000D02*
X171450000Y-47600000D01*
X176300000Y-60100000D02*
X175750000Y-59550000D01*
X171450000Y-47600000D02*
X171925000Y-47125000D01*
D39*
%TO.N,Net-(J7-Pin_2)*%
X105500000Y-123950000D02*
X109400000Y-123950000D01*
X109400000Y-123950000D02*
X111050000Y-125600000D01*
%TO.N,Net-(J4-Pin_2)*%
X151750000Y-140250000D02*
X151750000Y-144500000D01*
X151750000Y-144500000D02*
X150000000Y-146250000D01*
%TO.N,Net-(J11-Pin_2)*%
X141500000Y-145250000D02*
X140500000Y-146250000D01*
X141500000Y-140250000D02*
X141500000Y-145250000D01*
%TO.N,Net-(J10-Pin_4)*%
X131000000Y-98250000D02*
X123250000Y-106000000D01*
X120400000Y-127650000D02*
X101400000Y-127650000D01*
X123250000Y-124800000D02*
X120400000Y-127650000D01*
X101400000Y-127650000D02*
X98300000Y-130750000D01*
X131000000Y-97320000D02*
X131000000Y-98250000D01*
X123250000Y-106000000D02*
X123250000Y-124800000D01*
X98300000Y-130750000D02*
X98250000Y-130750000D01*
X156100000Y-72220000D02*
X131000000Y-97320000D01*
%TO.N,Net-(J10-Pin_5)*%
X154760000Y-54440000D02*
X156100000Y-54440000D01*
X136600000Y-72600000D02*
X154760000Y-54440000D01*
%TO.N,Net-(J10-Pin_3)*%
X103400000Y-137095000D02*
X105495000Y-139190000D01*
X121850000Y-128650000D02*
X124075000Y-126425000D01*
X102877817Y-128650000D02*
X121850000Y-128650000D01*
X131550000Y-98477818D02*
X131550000Y-97650000D01*
X98250000Y-133250000D02*
X103300000Y-133250000D01*
X98277817Y-133250000D02*
X102877817Y-128650000D01*
X124075000Y-126425000D02*
X124075000Y-105952818D01*
X103300000Y-133250000D02*
X103400000Y-133350000D01*
X103400000Y-133350000D02*
X103400000Y-137095000D01*
X124075000Y-105952818D02*
X131550000Y-98477818D01*
X154440000Y-74760000D02*
X156100000Y-74760000D01*
X131550000Y-97650000D02*
X154440000Y-74760000D01*
%TO.N,Net-(U2-I2)*%
X127550000Y-73310000D02*
X123025000Y-77835000D01*
X130700000Y-64600000D02*
X127550000Y-67750000D01*
X127550000Y-67750000D02*
X127550000Y-73310000D01*
%TO.N,Net-(U2-I5)*%
X125900000Y-67340000D02*
X123025000Y-70215000D01*
X125900000Y-60017818D02*
X125900000Y-67340000D01*
%TO.N,Net-(U2-I7)*%
X125600000Y-58000000D02*
X126200000Y-58000000D01*
%TO.N,Net-(U2-I3)*%
X129400000Y-62400000D02*
X129740000Y-62060000D01*
%TO.N,Net-(U2-I7)*%
X129545000Y-53155000D02*
X129545000Y-53055000D01*
%TO.N,Net-(U2-I3)*%
X127000000Y-64200000D02*
X128800000Y-62400000D01*
%TO.N,Net-(U2-I7)*%
X124800000Y-58800000D02*
X125600000Y-58000000D01*
%TO.N,Net-(U2-I3)*%
X128800000Y-62400000D02*
X129400000Y-62400000D01*
%TO.N,Net-(U2-I7)*%
X123065000Y-65135000D02*
X124800000Y-63400000D01*
%TO.N,Net-(U2-I3)*%
X123025000Y-75295000D02*
X127000000Y-71320000D01*
%TO.N,Net-(U2-I7)*%
X126200000Y-58000000D02*
X127200000Y-57000000D01*
%TO.N,Net-(U2-I3)*%
X129740000Y-62060000D02*
X130700000Y-62060000D01*
%TO.N,Net-(U2-I7)*%
X127200000Y-55500000D02*
X129545000Y-53155000D01*
%TO.N,Net-(U2-I3)*%
X127000000Y-71320000D02*
X127000000Y-64200000D01*
%TO.N,Net-(U2-I7)*%
X124800000Y-63400000D02*
X124800000Y-58800000D01*
%TO.N,Net-(U2-I6)*%
X126540000Y-58600000D02*
X125777818Y-58600000D01*
%TO.N,Net-(U2-I7)*%
X129545000Y-53055000D02*
X130700000Y-51900000D01*
%TO.N,Net-(U2-I6)*%
X125350000Y-59027818D02*
X125350000Y-65350000D01*
%TO.N,Net-(U2-I7)*%
X127200000Y-57000000D02*
X127200000Y-55500000D01*
%TO.N,Net-(U2-I6)*%
X130700000Y-54440000D02*
X126540000Y-58600000D01*
%TO.N,Net-(U2-I7)*%
X123025000Y-65135000D02*
X123065000Y-65135000D01*
%TO.N,Net-(U2-I6)*%
X125777818Y-58600000D02*
X125350000Y-59027818D01*
%TO.N,Net-(U2-I4)*%
X126450000Y-69330000D02*
X123025000Y-72755000D01*
%TO.N,Net-(U2-I6)*%
X125350000Y-65350000D02*
X123025000Y-67675000D01*
%TO.N,Net-(U2-I4)*%
X126450000Y-63770000D02*
X126450000Y-69330000D01*
%TO.N,Net-(U2-I5)*%
X128937818Y-56980000D02*
X125900000Y-60017818D01*
X130700000Y-56980000D02*
X128937818Y-56980000D01*
%TO.N,Net-(U2-I4)*%
X130700000Y-59520000D02*
X126450000Y-63770000D01*
%TO.N,Net-(U1-I6)*%
X129920000Y-73273454D02*
X127557818Y-75635636D01*
%TO.N,Net-(U1-I7)*%
X122950000Y-87540000D02*
X125000000Y-85490000D01*
X127007818Y-75407818D02*
X128650000Y-73765636D01*
X128650000Y-71730000D02*
X130700000Y-69680000D01*
X125000000Y-79177818D02*
X127007818Y-77170000D01*
X127007818Y-77170000D02*
X127007818Y-75407818D01*
X125000000Y-85490000D02*
X125000000Y-79177818D01*
X128650000Y-73765636D02*
X128650000Y-71730000D01*
%TO.N,Net-(U2-I1)*%
X130700000Y-67140000D02*
X128100000Y-69740000D01*
X128100000Y-73537818D02*
X126218909Y-75418909D01*
X128100000Y-69740000D02*
X128100000Y-73537818D01*
X126218909Y-77181091D02*
X123025000Y-80375000D01*
X126218909Y-75418909D02*
X126218909Y-77181091D01*
%TO.N,Net-(U1-I6)*%
X130700000Y-72220000D02*
X129920000Y-73000000D01*
X125550000Y-87480000D02*
X122950000Y-90080000D01*
X125550000Y-79600000D02*
X125550000Y-87480000D01*
X127557818Y-77592182D02*
X125550000Y-79600000D01*
X129920000Y-73000000D02*
X129920000Y-73273454D01*
X127557818Y-75635636D02*
X127557818Y-77592182D01*
%TD*%
M02*
