%TF.GenerationSoftware,KiCad,Pcbnew,(6.0.6)*%
%TF.CreationDate,2022-08-24T10:35:02+01:00*%
%TF.ProjectId,board2,626f6172-6432-42e6-9b69-6361645f7063,rev?*%
%TF.SameCoordinates,Original*%
%TF.FileFunction,Other,ECO2*%
%FSLAX46Y46*%
G04 Gerber Fmt 4.6, Leading zero omitted, Abs format (unit mm)*
G04 Created by KiCad (PCBNEW (6.0.6)) date 2022-08-24 10:35:02*
%MOMM*%
%LPD*%
G01*
G04 APERTURE LIST*
%ADD10C,0.150000*%
G04 APERTURE END LIST*
D10*
X85635714Y-99142857D02*
X86302380Y-99142857D01*
X85254761Y-99380952D02*
X85969047Y-99619047D01*
X85969047Y-99000000D01*
X85302380Y-98428571D02*
X85302380Y-98333333D01*
X85350000Y-98238095D01*
X85397619Y-98190476D01*
X85492857Y-98142857D01*
X85683333Y-98095238D01*
X85921428Y-98095238D01*
X86111904Y-98142857D01*
X86207142Y-98190476D01*
X86254761Y-98238095D01*
X86302380Y-98333333D01*
X86302380Y-98428571D01*
X86254761Y-98523809D01*
X86207142Y-98571428D01*
X86111904Y-98619047D01*
X85921428Y-98666666D01*
X85683333Y-98666666D01*
X85492857Y-98619047D01*
X85397619Y-98571428D01*
X85350000Y-98523809D01*
X85302380Y-98428571D01*
X86207142Y-97666666D02*
X86254761Y-97619047D01*
X86302380Y-97666666D01*
X86254761Y-97714285D01*
X86207142Y-97666666D01*
X86302380Y-97666666D01*
X85302380Y-97000000D02*
X85302380Y-96904761D01*
X85350000Y-96809523D01*
X85397619Y-96761904D01*
X85492857Y-96714285D01*
X85683333Y-96666666D01*
X85921428Y-96666666D01*
X86111904Y-96714285D01*
X86207142Y-96761904D01*
X86254761Y-96809523D01*
X86302380Y-96904761D01*
X86302380Y-97000000D01*
X86254761Y-97095238D01*
X86207142Y-97142857D01*
X86111904Y-97190476D01*
X85921428Y-97238095D01*
X85683333Y-97238095D01*
X85492857Y-97190476D01*
X85397619Y-97142857D01*
X85350000Y-97095238D01*
X85302380Y-97000000D01*
X85302380Y-96047619D02*
X85302380Y-95952380D01*
X85350000Y-95857142D01*
X85397619Y-95809523D01*
X85492857Y-95761904D01*
X85683333Y-95714285D01*
X85921428Y-95714285D01*
X86111904Y-95761904D01*
X86207142Y-95809523D01*
X86254761Y-95857142D01*
X86302380Y-95952380D01*
X86302380Y-96047619D01*
X86254761Y-96142857D01*
X86207142Y-96190476D01*
X86111904Y-96238095D01*
X85921428Y-96285714D01*
X85683333Y-96285714D01*
X85492857Y-96238095D01*
X85397619Y-96190476D01*
X85350000Y-96142857D01*
X85302380Y-96047619D01*
X85302380Y-95095238D02*
X85302380Y-95000000D01*
X85350000Y-94904761D01*
X85397619Y-94857142D01*
X85492857Y-94809523D01*
X85683333Y-94761904D01*
X85921428Y-94761904D01*
X86111904Y-94809523D01*
X86207142Y-94857142D01*
X86254761Y-94904761D01*
X86302380Y-95000000D01*
X86302380Y-95095238D01*
X86254761Y-95190476D01*
X86207142Y-95238095D01*
X86111904Y-95285714D01*
X85921428Y-95333333D01*
X85683333Y-95333333D01*
X85492857Y-95285714D01*
X85397619Y-95238095D01*
X85350000Y-95190476D01*
X85302380Y-95095238D01*
X85302380Y-94142857D02*
X85302380Y-94047619D01*
X85350000Y-93952380D01*
X85397619Y-93904761D01*
X85492857Y-93857142D01*
X85683333Y-93809523D01*
X85921428Y-93809523D01*
X86111904Y-93857142D01*
X86207142Y-93904761D01*
X86254761Y-93952380D01*
X86302380Y-94047619D01*
X86302380Y-94142857D01*
X86254761Y-94238095D01*
X86207142Y-94285714D01*
X86111904Y-94333333D01*
X85921428Y-94380952D01*
X85683333Y-94380952D01*
X85492857Y-94333333D01*
X85397619Y-94285714D01*
X85350000Y-94238095D01*
X85302380Y-94142857D01*
X86302380Y-92619047D02*
X85635714Y-92619047D01*
X85730952Y-92619047D02*
X85683333Y-92571428D01*
X85635714Y-92476190D01*
X85635714Y-92333333D01*
X85683333Y-92238095D01*
X85778571Y-92190476D01*
X86302380Y-92190476D01*
X85778571Y-92190476D02*
X85683333Y-92142857D01*
X85635714Y-92047619D01*
X85635714Y-91904761D01*
X85683333Y-91809523D01*
X85778571Y-91761904D01*
X86302380Y-91761904D01*
X86302380Y-91285714D02*
X85635714Y-91285714D01*
X85730952Y-91285714D02*
X85683333Y-91238095D01*
X85635714Y-91142857D01*
X85635714Y-91000000D01*
X85683333Y-90904761D01*
X85778571Y-90857142D01*
X86302380Y-90857142D01*
X85778571Y-90857142D02*
X85683333Y-90809523D01*
X85635714Y-90714285D01*
X85635714Y-90571428D01*
X85683333Y-90476190D01*
X85778571Y-90428571D01*
X86302380Y-90428571D01*
X81500000Y-75000000D02*
X87586420Y-75000000D01*
X81500000Y-115000000D02*
X87586420Y-115000000D01*
X87000000Y-75000000D02*
X87000000Y-115000000D01*
X87000000Y-75000000D02*
X87000000Y-115000000D01*
X87000000Y-75000000D02*
X86413579Y-76126504D01*
X87000000Y-75000000D02*
X87586421Y-76126504D01*
X87000000Y-115000000D02*
X87586421Y-113873496D01*
X87000000Y-115000000D02*
X86413579Y-113873496D01*
X56833333Y-63302380D02*
X57452380Y-63302380D01*
X57119047Y-63683333D01*
X57261904Y-63683333D01*
X57357142Y-63730952D01*
X57404761Y-63778571D01*
X57452380Y-63873809D01*
X57452380Y-64111904D01*
X57404761Y-64207142D01*
X57357142Y-64254761D01*
X57261904Y-64302380D01*
X56976190Y-64302380D01*
X56880952Y-64254761D01*
X56833333Y-64207142D01*
X57928571Y-64302380D02*
X58119047Y-64302380D01*
X58214285Y-64254761D01*
X58261904Y-64207142D01*
X58357142Y-64064285D01*
X58404761Y-63873809D01*
X58404761Y-63492857D01*
X58357142Y-63397619D01*
X58309523Y-63350000D01*
X58214285Y-63302380D01*
X58023809Y-63302380D01*
X57928571Y-63350000D01*
X57880952Y-63397619D01*
X57833333Y-63492857D01*
X57833333Y-63730952D01*
X57880952Y-63826190D01*
X57928571Y-63873809D01*
X58023809Y-63921428D01*
X58214285Y-63921428D01*
X58309523Y-63873809D01*
X58357142Y-63826190D01*
X58404761Y-63730952D01*
X58833333Y-64207142D02*
X58880952Y-64254761D01*
X58833333Y-64302380D01*
X58785714Y-64254761D01*
X58833333Y-64207142D01*
X58833333Y-64302380D01*
X59499999Y-63302380D02*
X59595238Y-63302380D01*
X59690476Y-63350000D01*
X59738095Y-63397619D01*
X59785714Y-63492857D01*
X59833333Y-63683333D01*
X59833333Y-63921428D01*
X59785714Y-64111904D01*
X59738095Y-64207142D01*
X59690476Y-64254761D01*
X59595238Y-64302380D01*
X59499999Y-64302380D01*
X59404761Y-64254761D01*
X59357142Y-64207142D01*
X59309523Y-64111904D01*
X59261904Y-63921428D01*
X59261904Y-63683333D01*
X59309523Y-63492857D01*
X59357142Y-63397619D01*
X59404761Y-63350000D01*
X59499999Y-63302380D01*
X60452380Y-63302380D02*
X60547619Y-63302380D01*
X60642857Y-63350000D01*
X60690476Y-63397619D01*
X60738095Y-63492857D01*
X60785714Y-63683333D01*
X60785714Y-63921428D01*
X60738095Y-64111904D01*
X60690476Y-64207142D01*
X60642857Y-64254761D01*
X60547619Y-64302380D01*
X60452380Y-64302380D01*
X60357142Y-64254761D01*
X60309523Y-64207142D01*
X60261904Y-64111904D01*
X60214285Y-63921428D01*
X60214285Y-63683333D01*
X60261904Y-63492857D01*
X60309523Y-63397619D01*
X60357142Y-63350000D01*
X60452380Y-63302380D01*
X61404761Y-63302380D02*
X61499999Y-63302380D01*
X61595238Y-63350000D01*
X61642857Y-63397619D01*
X61690476Y-63492857D01*
X61738095Y-63683333D01*
X61738095Y-63921428D01*
X61690476Y-64111904D01*
X61642857Y-64207142D01*
X61595238Y-64254761D01*
X61499999Y-64302380D01*
X61404761Y-64302380D01*
X61309523Y-64254761D01*
X61261904Y-64207142D01*
X61214285Y-64111904D01*
X61166666Y-63921428D01*
X61166666Y-63683333D01*
X61214285Y-63492857D01*
X61261904Y-63397619D01*
X61309523Y-63350000D01*
X61404761Y-63302380D01*
X62357142Y-63302380D02*
X62452380Y-63302380D01*
X62547619Y-63350000D01*
X62595238Y-63397619D01*
X62642857Y-63492857D01*
X62690476Y-63683333D01*
X62690476Y-63921428D01*
X62642857Y-64111904D01*
X62595238Y-64207142D01*
X62547619Y-64254761D01*
X62452380Y-64302380D01*
X62357142Y-64302380D01*
X62261904Y-64254761D01*
X62214285Y-64207142D01*
X62166666Y-64111904D01*
X62119047Y-63921428D01*
X62119047Y-63683333D01*
X62166666Y-63492857D01*
X62214285Y-63397619D01*
X62261904Y-63350000D01*
X62357142Y-63302380D01*
X63880952Y-64302380D02*
X63880952Y-63635714D01*
X63880952Y-63730952D02*
X63928571Y-63683333D01*
X64023809Y-63635714D01*
X64166666Y-63635714D01*
X64261904Y-63683333D01*
X64309523Y-63778571D01*
X64309523Y-64302380D01*
X64309523Y-63778571D02*
X64357142Y-63683333D01*
X64452380Y-63635714D01*
X64595238Y-63635714D01*
X64690476Y-63683333D01*
X64738095Y-63778571D01*
X64738095Y-64302380D01*
X65214285Y-64302380D02*
X65214285Y-63635714D01*
X65214285Y-63730952D02*
X65261904Y-63683333D01*
X65357142Y-63635714D01*
X65500000Y-63635714D01*
X65595238Y-63683333D01*
X65642857Y-63778571D01*
X65642857Y-64302380D01*
X65642857Y-63778571D02*
X65690476Y-63683333D01*
X65785714Y-63635714D01*
X65928571Y-63635714D01*
X66023809Y-63683333D01*
X66071428Y-63778571D01*
X66071428Y-64302380D01*
X42000000Y-70500000D02*
X42000000Y-64413580D01*
X81000000Y-70500000D02*
X81000000Y-64413580D01*
X42000000Y-65000000D02*
X81000000Y-65000000D01*
X42000000Y-65000000D02*
X81000000Y-65000000D01*
X42000000Y-65000000D02*
X43126504Y-65586421D01*
X42000000Y-65000000D02*
X43126504Y-64413579D01*
X81000000Y-65000000D02*
X79873496Y-64413579D01*
X81000000Y-65000000D02*
X79873496Y-65586421D01*
X71580952Y-57452380D02*
X71104761Y-57452380D01*
X71057142Y-57928571D01*
X71104761Y-57880952D01*
X71200000Y-57833333D01*
X71438095Y-57833333D01*
X71533333Y-57880952D01*
X71580952Y-57928571D01*
X71628571Y-58023809D01*
X71628571Y-58261904D01*
X71580952Y-58357142D01*
X71533333Y-58404761D01*
X71438095Y-58452380D01*
X71200000Y-58452380D01*
X71104761Y-58404761D01*
X71057142Y-58357142D01*
X72057142Y-58357142D02*
X72104761Y-58404761D01*
X72057142Y-58452380D01*
X72009523Y-58404761D01*
X72057142Y-58357142D01*
X72057142Y-58452380D01*
X72961904Y-57452380D02*
X72771428Y-57452380D01*
X72676190Y-57500000D01*
X72628571Y-57547619D01*
X72533333Y-57690476D01*
X72485714Y-57880952D01*
X72485714Y-58261904D01*
X72533333Y-58357142D01*
X72580952Y-58404761D01*
X72676190Y-58452380D01*
X72866666Y-58452380D01*
X72961904Y-58404761D01*
X73009523Y-58357142D01*
X73057142Y-58261904D01*
X73057142Y-58023809D01*
X73009523Y-57928571D01*
X72961904Y-57880952D01*
X72866666Y-57833333D01*
X72676190Y-57833333D01*
X72580952Y-57880952D01*
X72533333Y-57928571D01*
X72485714Y-58023809D01*
X73676190Y-57452380D02*
X73771428Y-57452380D01*
X73866666Y-57500000D01*
X73914285Y-57547619D01*
X73961904Y-57642857D01*
X74009523Y-57833333D01*
X74009523Y-58071428D01*
X73961904Y-58261904D01*
X73914285Y-58357142D01*
X73866666Y-58404761D01*
X73771428Y-58452380D01*
X73676190Y-58452380D01*
X73580952Y-58404761D01*
X73533333Y-58357142D01*
X73485714Y-58261904D01*
X73438095Y-58071428D01*
X73438095Y-57833333D01*
X73485714Y-57642857D01*
X73533333Y-57547619D01*
X73580952Y-57500000D01*
X73676190Y-57452380D01*
X74628571Y-57452380D02*
X74723809Y-57452380D01*
X74819047Y-57500000D01*
X74866666Y-57547619D01*
X74914285Y-57642857D01*
X74961904Y-57833333D01*
X74961904Y-58071428D01*
X74914285Y-58261904D01*
X74866666Y-58357142D01*
X74819047Y-58404761D01*
X74723809Y-58452380D01*
X74628571Y-58452380D01*
X74533333Y-58404761D01*
X74485714Y-58357142D01*
X74438095Y-58261904D01*
X74390476Y-58071428D01*
X74390476Y-57833333D01*
X74438095Y-57642857D01*
X74485714Y-57547619D01*
X74533333Y-57500000D01*
X74628571Y-57452380D01*
X75580952Y-57452380D02*
X75676190Y-57452380D01*
X75771428Y-57500000D01*
X75819047Y-57547619D01*
X75866666Y-57642857D01*
X75914285Y-57833333D01*
X75914285Y-58071428D01*
X75866666Y-58261904D01*
X75819047Y-58357142D01*
X75771428Y-58404761D01*
X75676190Y-58452380D01*
X75580952Y-58452380D01*
X75485714Y-58404761D01*
X75438095Y-58357142D01*
X75390476Y-58261904D01*
X75342857Y-58071428D01*
X75342857Y-57833333D01*
X75390476Y-57642857D01*
X75438095Y-57547619D01*
X75485714Y-57500000D01*
X75580952Y-57452380D01*
X77104761Y-58452380D02*
X77104761Y-57785714D01*
X77104761Y-57880952D02*
X77152380Y-57833333D01*
X77247619Y-57785714D01*
X77390476Y-57785714D01*
X77485714Y-57833333D01*
X77533333Y-57928571D01*
X77533333Y-58452380D01*
X77533333Y-57928571D02*
X77580952Y-57833333D01*
X77676190Y-57785714D01*
X77819047Y-57785714D01*
X77914285Y-57833333D01*
X77961904Y-57928571D01*
X77961904Y-58452380D01*
X78438095Y-58452380D02*
X78438095Y-57785714D01*
X78438095Y-57880952D02*
X78485714Y-57833333D01*
X78580952Y-57785714D01*
X78723809Y-57785714D01*
X78819047Y-57833333D01*
X78866666Y-57928571D01*
X78866666Y-58452380D01*
X78866666Y-57928571D02*
X78914285Y-57833333D01*
X79009523Y-57785714D01*
X79152380Y-57785714D01*
X79247619Y-57833333D01*
X79295238Y-57928571D01*
X79295238Y-58452380D01*
X72200000Y-74500000D02*
X72200000Y-59413580D01*
X77800000Y-74500000D02*
X77800000Y-59413580D01*
X72200000Y-60000000D02*
X77800000Y-60000000D01*
X72200000Y-60000000D02*
X77800000Y-60000000D01*
X72200000Y-60000000D02*
X73326504Y-60586421D01*
X72200000Y-60000000D02*
X73326504Y-59413579D01*
X77800000Y-60000000D02*
X76673496Y-59413579D01*
X77800000Y-60000000D02*
X76673496Y-60586421D01*
X25302380Y-99095238D02*
X25302380Y-99571428D01*
X25778571Y-99619047D01*
X25730952Y-99571428D01*
X25683333Y-99476190D01*
X25683333Y-99238095D01*
X25730952Y-99142857D01*
X25778571Y-99095238D01*
X25873809Y-99047619D01*
X26111904Y-99047619D01*
X26207142Y-99095238D01*
X26254761Y-99142857D01*
X26302380Y-99238095D01*
X26302380Y-99476190D01*
X26254761Y-99571428D01*
X26207142Y-99619047D01*
X25397619Y-98666666D02*
X25350000Y-98619047D01*
X25302380Y-98523809D01*
X25302380Y-98285714D01*
X25350000Y-98190476D01*
X25397619Y-98142857D01*
X25492857Y-98095238D01*
X25588095Y-98095238D01*
X25730952Y-98142857D01*
X26302380Y-98714285D01*
X26302380Y-98095238D01*
X26207142Y-97666666D02*
X26254761Y-97619047D01*
X26302380Y-97666666D01*
X26254761Y-97714285D01*
X26207142Y-97666666D01*
X26302380Y-97666666D01*
X25302380Y-97000000D02*
X25302380Y-96904761D01*
X25350000Y-96809523D01*
X25397619Y-96761904D01*
X25492857Y-96714285D01*
X25683333Y-96666666D01*
X25921428Y-96666666D01*
X26111904Y-96714285D01*
X26207142Y-96761904D01*
X26254761Y-96809523D01*
X26302380Y-96904761D01*
X26302380Y-97000000D01*
X26254761Y-97095238D01*
X26207142Y-97142857D01*
X26111904Y-97190476D01*
X25921428Y-97238095D01*
X25683333Y-97238095D01*
X25492857Y-97190476D01*
X25397619Y-97142857D01*
X25350000Y-97095238D01*
X25302380Y-97000000D01*
X25302380Y-96047619D02*
X25302380Y-95952380D01*
X25350000Y-95857142D01*
X25397619Y-95809523D01*
X25492857Y-95761904D01*
X25683333Y-95714285D01*
X25921428Y-95714285D01*
X26111904Y-95761904D01*
X26207142Y-95809523D01*
X26254761Y-95857142D01*
X26302380Y-95952380D01*
X26302380Y-96047619D01*
X26254761Y-96142857D01*
X26207142Y-96190476D01*
X26111904Y-96238095D01*
X25921428Y-96285714D01*
X25683333Y-96285714D01*
X25492857Y-96238095D01*
X25397619Y-96190476D01*
X25350000Y-96142857D01*
X25302380Y-96047619D01*
X25302380Y-95095238D02*
X25302380Y-95000000D01*
X25350000Y-94904761D01*
X25397619Y-94857142D01*
X25492857Y-94809523D01*
X25683333Y-94761904D01*
X25921428Y-94761904D01*
X26111904Y-94809523D01*
X26207142Y-94857142D01*
X26254761Y-94904761D01*
X26302380Y-95000000D01*
X26302380Y-95095238D01*
X26254761Y-95190476D01*
X26207142Y-95238095D01*
X26111904Y-95285714D01*
X25921428Y-95333333D01*
X25683333Y-95333333D01*
X25492857Y-95285714D01*
X25397619Y-95238095D01*
X25350000Y-95190476D01*
X25302380Y-95095238D01*
X25302380Y-94142857D02*
X25302380Y-94047619D01*
X25350000Y-93952380D01*
X25397619Y-93904761D01*
X25492857Y-93857142D01*
X25683333Y-93809523D01*
X25921428Y-93809523D01*
X26111904Y-93857142D01*
X26207142Y-93904761D01*
X26254761Y-93952380D01*
X26302380Y-94047619D01*
X26302380Y-94142857D01*
X26254761Y-94238095D01*
X26207142Y-94285714D01*
X26111904Y-94333333D01*
X25921428Y-94380952D01*
X25683333Y-94380952D01*
X25492857Y-94333333D01*
X25397619Y-94285714D01*
X25350000Y-94238095D01*
X25302380Y-94142857D01*
X26302380Y-92619047D02*
X25635714Y-92619047D01*
X25730952Y-92619047D02*
X25683333Y-92571428D01*
X25635714Y-92476190D01*
X25635714Y-92333333D01*
X25683333Y-92238095D01*
X25778571Y-92190476D01*
X26302380Y-92190476D01*
X25778571Y-92190476D02*
X25683333Y-92142857D01*
X25635714Y-92047619D01*
X25635714Y-91904761D01*
X25683333Y-91809523D01*
X25778571Y-91761904D01*
X26302380Y-91761904D01*
X26302380Y-91285714D02*
X25635714Y-91285714D01*
X25730952Y-91285714D02*
X25683333Y-91238095D01*
X25635714Y-91142857D01*
X25635714Y-91000000D01*
X25683333Y-90904761D01*
X25778571Y-90857142D01*
X26302380Y-90857142D01*
X25778571Y-90857142D02*
X25683333Y-90809523D01*
X25635714Y-90714285D01*
X25635714Y-90571428D01*
X25683333Y-90476190D01*
X25778571Y-90428571D01*
X26302380Y-90428571D01*
X40500000Y-69000000D02*
X26413580Y-69000000D01*
X40500000Y-121000000D02*
X26413580Y-121000000D01*
X27000000Y-69000000D02*
X27000000Y-121000000D01*
X27000000Y-69000000D02*
X27000000Y-121000000D01*
X27000000Y-69000000D02*
X26413579Y-70126504D01*
X27000000Y-69000000D02*
X27586421Y-70126504D01*
X27000000Y-121000000D02*
X27586421Y-119873496D01*
X27000000Y-121000000D02*
X26413579Y-119873496D01*
X56880952Y-67397619D02*
X56928571Y-67350000D01*
X57023809Y-67302380D01*
X57261904Y-67302380D01*
X57357142Y-67350000D01*
X57404761Y-67397619D01*
X57452380Y-67492857D01*
X57452380Y-67588095D01*
X57404761Y-67730952D01*
X56833333Y-68302380D01*
X57452380Y-68302380D01*
X57785714Y-67302380D02*
X58452380Y-67302380D01*
X58023809Y-68302380D01*
X58833333Y-68207142D02*
X58880952Y-68254761D01*
X58833333Y-68302380D01*
X58785714Y-68254761D01*
X58833333Y-68207142D01*
X58833333Y-68302380D01*
X59499999Y-67302380D02*
X59595238Y-67302380D01*
X59690476Y-67350000D01*
X59738095Y-67397619D01*
X59785714Y-67492857D01*
X59833333Y-67683333D01*
X59833333Y-67921428D01*
X59785714Y-68111904D01*
X59738095Y-68207142D01*
X59690476Y-68254761D01*
X59595238Y-68302380D01*
X59499999Y-68302380D01*
X59404761Y-68254761D01*
X59357142Y-68207142D01*
X59309523Y-68111904D01*
X59261904Y-67921428D01*
X59261904Y-67683333D01*
X59309523Y-67492857D01*
X59357142Y-67397619D01*
X59404761Y-67350000D01*
X59499999Y-67302380D01*
X60452380Y-67302380D02*
X60547619Y-67302380D01*
X60642857Y-67350000D01*
X60690476Y-67397619D01*
X60738095Y-67492857D01*
X60785714Y-67683333D01*
X60785714Y-67921428D01*
X60738095Y-68111904D01*
X60690476Y-68207142D01*
X60642857Y-68254761D01*
X60547619Y-68302380D01*
X60452380Y-68302380D01*
X60357142Y-68254761D01*
X60309523Y-68207142D01*
X60261904Y-68111904D01*
X60214285Y-67921428D01*
X60214285Y-67683333D01*
X60261904Y-67492857D01*
X60309523Y-67397619D01*
X60357142Y-67350000D01*
X60452380Y-67302380D01*
X61404761Y-67302380D02*
X61499999Y-67302380D01*
X61595238Y-67350000D01*
X61642857Y-67397619D01*
X61690476Y-67492857D01*
X61738095Y-67683333D01*
X61738095Y-67921428D01*
X61690476Y-68111904D01*
X61642857Y-68207142D01*
X61595238Y-68254761D01*
X61499999Y-68302380D01*
X61404761Y-68302380D01*
X61309523Y-68254761D01*
X61261904Y-68207142D01*
X61214285Y-68111904D01*
X61166666Y-67921428D01*
X61166666Y-67683333D01*
X61214285Y-67492857D01*
X61261904Y-67397619D01*
X61309523Y-67350000D01*
X61404761Y-67302380D01*
X62357142Y-67302380D02*
X62452380Y-67302380D01*
X62547619Y-67350000D01*
X62595238Y-67397619D01*
X62642857Y-67492857D01*
X62690476Y-67683333D01*
X62690476Y-67921428D01*
X62642857Y-68111904D01*
X62595238Y-68207142D01*
X62547619Y-68254761D01*
X62452380Y-68302380D01*
X62357142Y-68302380D01*
X62261904Y-68254761D01*
X62214285Y-68207142D01*
X62166666Y-68111904D01*
X62119047Y-67921428D01*
X62119047Y-67683333D01*
X62166666Y-67492857D01*
X62214285Y-67397619D01*
X62261904Y-67350000D01*
X62357142Y-67302380D01*
X63880952Y-68302380D02*
X63880952Y-67635714D01*
X63880952Y-67730952D02*
X63928571Y-67683333D01*
X64023809Y-67635714D01*
X64166666Y-67635714D01*
X64261904Y-67683333D01*
X64309523Y-67778571D01*
X64309523Y-68302380D01*
X64309523Y-67778571D02*
X64357142Y-67683333D01*
X64452380Y-67635714D01*
X64595238Y-67635714D01*
X64690476Y-67683333D01*
X64738095Y-67778571D01*
X64738095Y-68302380D01*
X65214285Y-68302380D02*
X65214285Y-67635714D01*
X65214285Y-67730952D02*
X65261904Y-67683333D01*
X65357142Y-67635714D01*
X65500000Y-67635714D01*
X65595238Y-67683333D01*
X65642857Y-67778571D01*
X65642857Y-68302380D01*
X65642857Y-67778571D02*
X65690476Y-67683333D01*
X65785714Y-67635714D01*
X65928571Y-67635714D01*
X66023809Y-67683333D01*
X66071428Y-67778571D01*
X66071428Y-68302380D01*
X48000000Y-74500000D02*
X48000000Y-68413580D01*
X75000000Y-74500000D02*
X75000000Y-68413580D01*
X48000000Y-69000000D02*
X75000000Y-69000000D01*
X48000000Y-69000000D02*
X75000000Y-69000000D01*
X48000000Y-69000000D02*
X49126504Y-69586421D01*
X48000000Y-69000000D02*
X49126504Y-68413579D01*
X75000000Y-69000000D02*
X73873496Y-68413579D01*
X75000000Y-69000000D02*
X73873496Y-69586421D01*
M02*
