%TF.GenerationSoftware,KiCad,Pcbnew,(6.0.6)*%
%TF.CreationDate,2022-08-24T10:35:02+01:00*%
%TF.ProjectId,board2,626f6172-6432-42e6-9b69-6361645f7063,rev?*%
%TF.SameCoordinates,Original*%
%TF.FileFunction,AssemblyDrawing,Top*%
%FSLAX46Y46*%
G04 Gerber Fmt 4.6, Leading zero omitted, Abs format (unit mm)*
G04 Created by KiCad (PCBNEW (6.0.6)) date 2022-08-24 10:35:02*
%MOMM*%
%LPD*%
G01*
G04 APERTURE LIST*
%ADD10C,0.150000*%
%ADD11C,0.120000*%
%ADD12C,0.100000*%
G04 APERTURE END LIST*
D10*
%TO.C,R1*%
X68833333Y-99452380D02*
X68500000Y-98976190D01*
X68261904Y-99452380D02*
X68261904Y-98452380D01*
X68642857Y-98452380D01*
X68738095Y-98500000D01*
X68785714Y-98547619D01*
X68833333Y-98642857D01*
X68833333Y-98785714D01*
X68785714Y-98880952D01*
X68738095Y-98928571D01*
X68642857Y-98976190D01*
X68261904Y-98976190D01*
X69785714Y-99452380D02*
X69214285Y-99452380D01*
X69500000Y-99452380D02*
X69500000Y-98452380D01*
X69404761Y-98595238D01*
X69309523Y-98690476D01*
X69214285Y-98738095D01*
D11*
%TO.C,C2*%
X69866666Y-92285714D02*
X69828571Y-92323809D01*
X69714285Y-92361904D01*
X69638095Y-92361904D01*
X69523809Y-92323809D01*
X69447619Y-92247619D01*
X69409523Y-92171428D01*
X69371428Y-92019047D01*
X69371428Y-91904761D01*
X69409523Y-91752380D01*
X69447619Y-91676190D01*
X69523809Y-91600000D01*
X69638095Y-91561904D01*
X69714285Y-91561904D01*
X69828571Y-91600000D01*
X69866666Y-91638095D01*
X70171428Y-91638095D02*
X70209523Y-91600000D01*
X70285714Y-91561904D01*
X70476190Y-91561904D01*
X70552380Y-91600000D01*
X70590476Y-91638095D01*
X70628571Y-91714285D01*
X70628571Y-91790476D01*
X70590476Y-91904761D01*
X70133333Y-92361904D01*
X70628571Y-92361904D01*
D10*
%TO.C,R2*%
X52183333Y-106452380D02*
X51850000Y-105976190D01*
X51611904Y-106452380D02*
X51611904Y-105452380D01*
X51992857Y-105452380D01*
X52088095Y-105500000D01*
X52135714Y-105547619D01*
X52183333Y-105642857D01*
X52183333Y-105785714D01*
X52135714Y-105880952D01*
X52088095Y-105928571D01*
X51992857Y-105976190D01*
X51611904Y-105976190D01*
X52564285Y-105547619D02*
X52611904Y-105500000D01*
X52707142Y-105452380D01*
X52945238Y-105452380D01*
X53040476Y-105500000D01*
X53088095Y-105547619D01*
X53135714Y-105642857D01*
X53135714Y-105738095D01*
X53088095Y-105880952D01*
X52516666Y-106452380D01*
X53135714Y-106452380D01*
D11*
%TO.C,C1*%
X50866666Y-92285714D02*
X50828571Y-92323809D01*
X50714285Y-92361904D01*
X50638095Y-92361904D01*
X50523809Y-92323809D01*
X50447619Y-92247619D01*
X50409523Y-92171428D01*
X50371428Y-92019047D01*
X50371428Y-91904761D01*
X50409523Y-91752380D01*
X50447619Y-91676190D01*
X50523809Y-91600000D01*
X50638095Y-91561904D01*
X50714285Y-91561904D01*
X50828571Y-91600000D01*
X50866666Y-91638095D01*
X51628571Y-92361904D02*
X51171428Y-92361904D01*
X51400000Y-92361904D02*
X51400000Y-91561904D01*
X51323809Y-91676190D01*
X51247619Y-91752380D01*
X51171428Y-91790476D01*
D10*
%TO.C,R6*%
X68833333Y-85452380D02*
X68500000Y-84976190D01*
X68261904Y-85452380D02*
X68261904Y-84452380D01*
X68642857Y-84452380D01*
X68738095Y-84500000D01*
X68785714Y-84547619D01*
X68833333Y-84642857D01*
X68833333Y-84785714D01*
X68785714Y-84880952D01*
X68738095Y-84928571D01*
X68642857Y-84976190D01*
X68261904Y-84976190D01*
X69690476Y-84452380D02*
X69500000Y-84452380D01*
X69404761Y-84500000D01*
X69357142Y-84547619D01*
X69261904Y-84690476D01*
X69214285Y-84880952D01*
X69214285Y-85261904D01*
X69261904Y-85357142D01*
X69309523Y-85404761D01*
X69404761Y-85452380D01*
X69595238Y-85452380D01*
X69690476Y-85404761D01*
X69738095Y-85357142D01*
X69785714Y-85261904D01*
X69785714Y-85023809D01*
X69738095Y-84928571D01*
X69690476Y-84880952D01*
X69595238Y-84833333D01*
X69404761Y-84833333D01*
X69309523Y-84880952D01*
X69261904Y-84928571D01*
X69214285Y-85023809D01*
%TO.C,R3*%
X51833333Y-99452380D02*
X51500000Y-98976190D01*
X51261904Y-99452380D02*
X51261904Y-98452380D01*
X51642857Y-98452380D01*
X51738095Y-98500000D01*
X51785714Y-98547619D01*
X51833333Y-98642857D01*
X51833333Y-98785714D01*
X51785714Y-98880952D01*
X51738095Y-98928571D01*
X51642857Y-98976190D01*
X51261904Y-98976190D01*
X52166666Y-98452380D02*
X52785714Y-98452380D01*
X52452380Y-98833333D01*
X52595238Y-98833333D01*
X52690476Y-98880952D01*
X52738095Y-98928571D01*
X52785714Y-99023809D01*
X52785714Y-99261904D01*
X52738095Y-99357142D01*
X52690476Y-99404761D01*
X52595238Y-99452380D01*
X52309523Y-99452380D01*
X52214285Y-99404761D01*
X52166666Y-99357142D01*
%TO.C,H4*%
X70214285Y-119452380D02*
X70214285Y-118452380D01*
X70547619Y-119166666D01*
X70880952Y-118452380D01*
X70880952Y-119452380D01*
X71500000Y-119452380D02*
X71404761Y-119404761D01*
X71357142Y-119357142D01*
X71309523Y-119261904D01*
X71309523Y-118976190D01*
X71357142Y-118880952D01*
X71404761Y-118833333D01*
X71500000Y-118785714D01*
X71642857Y-118785714D01*
X71738095Y-118833333D01*
X71785714Y-118880952D01*
X71833333Y-118976190D01*
X71833333Y-119261904D01*
X71785714Y-119357142D01*
X71738095Y-119404761D01*
X71642857Y-119452380D01*
X71500000Y-119452380D01*
X72690476Y-118785714D02*
X72690476Y-119452380D01*
X72261904Y-118785714D02*
X72261904Y-119309523D01*
X72309523Y-119404761D01*
X72404761Y-119452380D01*
X72547619Y-119452380D01*
X72642857Y-119404761D01*
X72690476Y-119357142D01*
X73166666Y-118785714D02*
X73166666Y-119452380D01*
X73166666Y-118880952D02*
X73214285Y-118833333D01*
X73309523Y-118785714D01*
X73452380Y-118785714D01*
X73547619Y-118833333D01*
X73595238Y-118928571D01*
X73595238Y-119452380D01*
X73928571Y-118785714D02*
X74309523Y-118785714D01*
X74071428Y-118452380D02*
X74071428Y-119309523D01*
X74119047Y-119404761D01*
X74214285Y-119452380D01*
X74309523Y-119452380D01*
X74642857Y-119452380D02*
X74642857Y-118785714D01*
X74642857Y-118452380D02*
X74595238Y-118500000D01*
X74642857Y-118547619D01*
X74690476Y-118500000D01*
X74642857Y-118452380D01*
X74642857Y-118547619D01*
X75119047Y-118785714D02*
X75119047Y-119452380D01*
X75119047Y-118880952D02*
X75166666Y-118833333D01*
X75261904Y-118785714D01*
X75404761Y-118785714D01*
X75500000Y-118833333D01*
X75547619Y-118928571D01*
X75547619Y-119452380D01*
X76452380Y-118785714D02*
X76452380Y-119595238D01*
X76404761Y-119690476D01*
X76357142Y-119738095D01*
X76261904Y-119785714D01*
X76119047Y-119785714D01*
X76023809Y-119738095D01*
X76452380Y-119404761D02*
X76357142Y-119452380D01*
X76166666Y-119452380D01*
X76071428Y-119404761D01*
X76023809Y-119357142D01*
X75976190Y-119261904D01*
X75976190Y-118976190D01*
X76023809Y-118880952D01*
X76071428Y-118833333D01*
X76166666Y-118785714D01*
X76357142Y-118785714D01*
X76452380Y-118833333D01*
X76928571Y-119452380D02*
X76928571Y-118452380D01*
X76928571Y-118928571D02*
X77500000Y-118928571D01*
X77500000Y-119452380D02*
X77500000Y-118452380D01*
X78119047Y-119452380D02*
X78023809Y-119404761D01*
X77976190Y-119357142D01*
X77928571Y-119261904D01*
X77928571Y-118976190D01*
X77976190Y-118880952D01*
X78023809Y-118833333D01*
X78119047Y-118785714D01*
X78261904Y-118785714D01*
X78357142Y-118833333D01*
X78404761Y-118880952D01*
X78452380Y-118976190D01*
X78452380Y-119261904D01*
X78404761Y-119357142D01*
X78357142Y-119404761D01*
X78261904Y-119452380D01*
X78119047Y-119452380D01*
X79023809Y-119452380D02*
X78928571Y-119404761D01*
X78880952Y-119309523D01*
X78880952Y-118452380D01*
X79785714Y-119404761D02*
X79690476Y-119452380D01*
X79500000Y-119452380D01*
X79404761Y-119404761D01*
X79357142Y-119309523D01*
X79357142Y-118928571D01*
X79404761Y-118833333D01*
X79500000Y-118785714D01*
X79690476Y-118785714D01*
X79785714Y-118833333D01*
X79833333Y-118928571D01*
X79833333Y-119023809D01*
X79357142Y-119119047D01*
X74238095Y-115452380D02*
X74238095Y-114452380D01*
X74238095Y-114928571D02*
X74809523Y-114928571D01*
X74809523Y-115452380D02*
X74809523Y-114452380D01*
X75714285Y-114785714D02*
X75714285Y-115452380D01*
X75476190Y-114404761D02*
X75238095Y-115119047D01*
X75857142Y-115119047D01*
%TO.C,H1*%
X43214285Y-79252380D02*
X43214285Y-78252380D01*
X43547619Y-78966666D01*
X43880952Y-78252380D01*
X43880952Y-79252380D01*
X44500000Y-79252380D02*
X44404761Y-79204761D01*
X44357142Y-79157142D01*
X44309523Y-79061904D01*
X44309523Y-78776190D01*
X44357142Y-78680952D01*
X44404761Y-78633333D01*
X44500000Y-78585714D01*
X44642857Y-78585714D01*
X44738095Y-78633333D01*
X44785714Y-78680952D01*
X44833333Y-78776190D01*
X44833333Y-79061904D01*
X44785714Y-79157142D01*
X44738095Y-79204761D01*
X44642857Y-79252380D01*
X44500000Y-79252380D01*
X45690476Y-78585714D02*
X45690476Y-79252380D01*
X45261904Y-78585714D02*
X45261904Y-79109523D01*
X45309523Y-79204761D01*
X45404761Y-79252380D01*
X45547619Y-79252380D01*
X45642857Y-79204761D01*
X45690476Y-79157142D01*
X46166666Y-78585714D02*
X46166666Y-79252380D01*
X46166666Y-78680952D02*
X46214285Y-78633333D01*
X46309523Y-78585714D01*
X46452380Y-78585714D01*
X46547619Y-78633333D01*
X46595238Y-78728571D01*
X46595238Y-79252380D01*
X46928571Y-78585714D02*
X47309523Y-78585714D01*
X47071428Y-78252380D02*
X47071428Y-79109523D01*
X47119047Y-79204761D01*
X47214285Y-79252380D01*
X47309523Y-79252380D01*
X47642857Y-79252380D02*
X47642857Y-78585714D01*
X47642857Y-78252380D02*
X47595238Y-78300000D01*
X47642857Y-78347619D01*
X47690476Y-78300000D01*
X47642857Y-78252380D01*
X47642857Y-78347619D01*
X48119047Y-78585714D02*
X48119047Y-79252380D01*
X48119047Y-78680952D02*
X48166666Y-78633333D01*
X48261904Y-78585714D01*
X48404761Y-78585714D01*
X48500000Y-78633333D01*
X48547619Y-78728571D01*
X48547619Y-79252380D01*
X49452380Y-78585714D02*
X49452380Y-79395238D01*
X49404761Y-79490476D01*
X49357142Y-79538095D01*
X49261904Y-79585714D01*
X49119047Y-79585714D01*
X49023809Y-79538095D01*
X49452380Y-79204761D02*
X49357142Y-79252380D01*
X49166666Y-79252380D01*
X49071428Y-79204761D01*
X49023809Y-79157142D01*
X48976190Y-79061904D01*
X48976190Y-78776190D01*
X49023809Y-78680952D01*
X49071428Y-78633333D01*
X49166666Y-78585714D01*
X49357142Y-78585714D01*
X49452380Y-78633333D01*
X49928571Y-79252380D02*
X49928571Y-78252380D01*
X49928571Y-78728571D02*
X50500000Y-78728571D01*
X50500000Y-79252380D02*
X50500000Y-78252380D01*
X51119047Y-79252380D02*
X51023809Y-79204761D01*
X50976190Y-79157142D01*
X50928571Y-79061904D01*
X50928571Y-78776190D01*
X50976190Y-78680952D01*
X51023809Y-78633333D01*
X51119047Y-78585714D01*
X51261904Y-78585714D01*
X51357142Y-78633333D01*
X51404761Y-78680952D01*
X51452380Y-78776190D01*
X51452380Y-79061904D01*
X51404761Y-79157142D01*
X51357142Y-79204761D01*
X51261904Y-79252380D01*
X51119047Y-79252380D01*
X52023809Y-79252380D02*
X51928571Y-79204761D01*
X51880952Y-79109523D01*
X51880952Y-78252380D01*
X52785714Y-79204761D02*
X52690476Y-79252380D01*
X52500000Y-79252380D01*
X52404761Y-79204761D01*
X52357142Y-79109523D01*
X52357142Y-78728571D01*
X52404761Y-78633333D01*
X52500000Y-78585714D01*
X52690476Y-78585714D01*
X52785714Y-78633333D01*
X52833333Y-78728571D01*
X52833333Y-78823809D01*
X52357142Y-78919047D01*
X47238095Y-75452380D02*
X47238095Y-74452380D01*
X47238095Y-74928571D02*
X47809523Y-74928571D01*
X47809523Y-75452380D02*
X47809523Y-74452380D01*
X48809523Y-75452380D02*
X48238095Y-75452380D01*
X48523809Y-75452380D02*
X48523809Y-74452380D01*
X48428571Y-74595238D01*
X48333333Y-74690476D01*
X48238095Y-74738095D01*
%TO.C,R5*%
X51833333Y-85452380D02*
X51500000Y-84976190D01*
X51261904Y-85452380D02*
X51261904Y-84452380D01*
X51642857Y-84452380D01*
X51738095Y-84500000D01*
X51785714Y-84547619D01*
X51833333Y-84642857D01*
X51833333Y-84785714D01*
X51785714Y-84880952D01*
X51738095Y-84928571D01*
X51642857Y-84976190D01*
X51261904Y-84976190D01*
X52738095Y-84452380D02*
X52261904Y-84452380D01*
X52214285Y-84928571D01*
X52261904Y-84880952D01*
X52357142Y-84833333D01*
X52595238Y-84833333D01*
X52690476Y-84880952D01*
X52738095Y-84928571D01*
X52785714Y-85023809D01*
X52785714Y-85261904D01*
X52738095Y-85357142D01*
X52690476Y-85404761D01*
X52595238Y-85452380D01*
X52357142Y-85452380D01*
X52261904Y-85404761D01*
X52214285Y-85357142D01*
%TO.C,R4*%
X68833333Y-106452380D02*
X68500000Y-105976190D01*
X68261904Y-106452380D02*
X68261904Y-105452380D01*
X68642857Y-105452380D01*
X68738095Y-105500000D01*
X68785714Y-105547619D01*
X68833333Y-105642857D01*
X68833333Y-105785714D01*
X68785714Y-105880952D01*
X68738095Y-105928571D01*
X68642857Y-105976190D01*
X68261904Y-105976190D01*
X69690476Y-105785714D02*
X69690476Y-106452380D01*
X69452380Y-105404761D02*
X69214285Y-106119047D01*
X69833333Y-106119047D01*
%TO.C,H2*%
X43214285Y-119252380D02*
X43214285Y-118252380D01*
X43547619Y-118966666D01*
X43880952Y-118252380D01*
X43880952Y-119252380D01*
X44500000Y-119252380D02*
X44404761Y-119204761D01*
X44357142Y-119157142D01*
X44309523Y-119061904D01*
X44309523Y-118776190D01*
X44357142Y-118680952D01*
X44404761Y-118633333D01*
X44500000Y-118585714D01*
X44642857Y-118585714D01*
X44738095Y-118633333D01*
X44785714Y-118680952D01*
X44833333Y-118776190D01*
X44833333Y-119061904D01*
X44785714Y-119157142D01*
X44738095Y-119204761D01*
X44642857Y-119252380D01*
X44500000Y-119252380D01*
X45690476Y-118585714D02*
X45690476Y-119252380D01*
X45261904Y-118585714D02*
X45261904Y-119109523D01*
X45309523Y-119204761D01*
X45404761Y-119252380D01*
X45547619Y-119252380D01*
X45642857Y-119204761D01*
X45690476Y-119157142D01*
X46166666Y-118585714D02*
X46166666Y-119252380D01*
X46166666Y-118680952D02*
X46214285Y-118633333D01*
X46309523Y-118585714D01*
X46452380Y-118585714D01*
X46547619Y-118633333D01*
X46595238Y-118728571D01*
X46595238Y-119252380D01*
X46928571Y-118585714D02*
X47309523Y-118585714D01*
X47071428Y-118252380D02*
X47071428Y-119109523D01*
X47119047Y-119204761D01*
X47214285Y-119252380D01*
X47309523Y-119252380D01*
X47642857Y-119252380D02*
X47642857Y-118585714D01*
X47642857Y-118252380D02*
X47595238Y-118300000D01*
X47642857Y-118347619D01*
X47690476Y-118300000D01*
X47642857Y-118252380D01*
X47642857Y-118347619D01*
X48119047Y-118585714D02*
X48119047Y-119252380D01*
X48119047Y-118680952D02*
X48166666Y-118633333D01*
X48261904Y-118585714D01*
X48404761Y-118585714D01*
X48500000Y-118633333D01*
X48547619Y-118728571D01*
X48547619Y-119252380D01*
X49452380Y-118585714D02*
X49452380Y-119395238D01*
X49404761Y-119490476D01*
X49357142Y-119538095D01*
X49261904Y-119585714D01*
X49119047Y-119585714D01*
X49023809Y-119538095D01*
X49452380Y-119204761D02*
X49357142Y-119252380D01*
X49166666Y-119252380D01*
X49071428Y-119204761D01*
X49023809Y-119157142D01*
X48976190Y-119061904D01*
X48976190Y-118776190D01*
X49023809Y-118680952D01*
X49071428Y-118633333D01*
X49166666Y-118585714D01*
X49357142Y-118585714D01*
X49452380Y-118633333D01*
X49928571Y-119252380D02*
X49928571Y-118252380D01*
X49928571Y-118728571D02*
X50500000Y-118728571D01*
X50500000Y-119252380D02*
X50500000Y-118252380D01*
X51119047Y-119252380D02*
X51023809Y-119204761D01*
X50976190Y-119157142D01*
X50928571Y-119061904D01*
X50928571Y-118776190D01*
X50976190Y-118680952D01*
X51023809Y-118633333D01*
X51119047Y-118585714D01*
X51261904Y-118585714D01*
X51357142Y-118633333D01*
X51404761Y-118680952D01*
X51452380Y-118776190D01*
X51452380Y-119061904D01*
X51404761Y-119157142D01*
X51357142Y-119204761D01*
X51261904Y-119252380D01*
X51119047Y-119252380D01*
X52023809Y-119252380D02*
X51928571Y-119204761D01*
X51880952Y-119109523D01*
X51880952Y-118252380D01*
X52785714Y-119204761D02*
X52690476Y-119252380D01*
X52500000Y-119252380D01*
X52404761Y-119204761D01*
X52357142Y-119109523D01*
X52357142Y-118728571D01*
X52404761Y-118633333D01*
X52500000Y-118585714D01*
X52690476Y-118585714D01*
X52785714Y-118633333D01*
X52833333Y-118728571D01*
X52833333Y-118823809D01*
X52357142Y-118919047D01*
X47238095Y-115452380D02*
X47238095Y-114452380D01*
X47238095Y-114928571D02*
X47809523Y-114928571D01*
X47809523Y-115452380D02*
X47809523Y-114452380D01*
X48238095Y-114547619D02*
X48285714Y-114500000D01*
X48380952Y-114452380D01*
X48619047Y-114452380D01*
X48714285Y-114500000D01*
X48761904Y-114547619D01*
X48809523Y-114642857D01*
X48809523Y-114738095D01*
X48761904Y-114880952D01*
X48190476Y-115452380D01*
X48809523Y-115452380D01*
%TO.C,J1*%
X60416666Y-78627380D02*
X60416666Y-79341666D01*
X60369047Y-79484523D01*
X60273809Y-79579761D01*
X60130952Y-79627380D01*
X60035714Y-79627380D01*
X61416666Y-79627380D02*
X60845238Y-79627380D01*
X61130952Y-79627380D02*
X61130952Y-78627380D01*
X61035714Y-78770238D01*
X60940476Y-78865476D01*
X60845238Y-78913095D01*
%TO.C,H3*%
X70214285Y-79252380D02*
X70214285Y-78252380D01*
X70547619Y-78966666D01*
X70880952Y-78252380D01*
X70880952Y-79252380D01*
X71500000Y-79252380D02*
X71404761Y-79204761D01*
X71357142Y-79157142D01*
X71309523Y-79061904D01*
X71309523Y-78776190D01*
X71357142Y-78680952D01*
X71404761Y-78633333D01*
X71500000Y-78585714D01*
X71642857Y-78585714D01*
X71738095Y-78633333D01*
X71785714Y-78680952D01*
X71833333Y-78776190D01*
X71833333Y-79061904D01*
X71785714Y-79157142D01*
X71738095Y-79204761D01*
X71642857Y-79252380D01*
X71500000Y-79252380D01*
X72690476Y-78585714D02*
X72690476Y-79252380D01*
X72261904Y-78585714D02*
X72261904Y-79109523D01*
X72309523Y-79204761D01*
X72404761Y-79252380D01*
X72547619Y-79252380D01*
X72642857Y-79204761D01*
X72690476Y-79157142D01*
X73166666Y-78585714D02*
X73166666Y-79252380D01*
X73166666Y-78680952D02*
X73214285Y-78633333D01*
X73309523Y-78585714D01*
X73452380Y-78585714D01*
X73547619Y-78633333D01*
X73595238Y-78728571D01*
X73595238Y-79252380D01*
X73928571Y-78585714D02*
X74309523Y-78585714D01*
X74071428Y-78252380D02*
X74071428Y-79109523D01*
X74119047Y-79204761D01*
X74214285Y-79252380D01*
X74309523Y-79252380D01*
X74642857Y-79252380D02*
X74642857Y-78585714D01*
X74642857Y-78252380D02*
X74595238Y-78300000D01*
X74642857Y-78347619D01*
X74690476Y-78300000D01*
X74642857Y-78252380D01*
X74642857Y-78347619D01*
X75119047Y-78585714D02*
X75119047Y-79252380D01*
X75119047Y-78680952D02*
X75166666Y-78633333D01*
X75261904Y-78585714D01*
X75404761Y-78585714D01*
X75500000Y-78633333D01*
X75547619Y-78728571D01*
X75547619Y-79252380D01*
X76452380Y-78585714D02*
X76452380Y-79395238D01*
X76404761Y-79490476D01*
X76357142Y-79538095D01*
X76261904Y-79585714D01*
X76119047Y-79585714D01*
X76023809Y-79538095D01*
X76452380Y-79204761D02*
X76357142Y-79252380D01*
X76166666Y-79252380D01*
X76071428Y-79204761D01*
X76023809Y-79157142D01*
X75976190Y-79061904D01*
X75976190Y-78776190D01*
X76023809Y-78680952D01*
X76071428Y-78633333D01*
X76166666Y-78585714D01*
X76357142Y-78585714D01*
X76452380Y-78633333D01*
X76928571Y-79252380D02*
X76928571Y-78252380D01*
X76928571Y-78728571D02*
X77500000Y-78728571D01*
X77500000Y-79252380D02*
X77500000Y-78252380D01*
X78119047Y-79252380D02*
X78023809Y-79204761D01*
X77976190Y-79157142D01*
X77928571Y-79061904D01*
X77928571Y-78776190D01*
X77976190Y-78680952D01*
X78023809Y-78633333D01*
X78119047Y-78585714D01*
X78261904Y-78585714D01*
X78357142Y-78633333D01*
X78404761Y-78680952D01*
X78452380Y-78776190D01*
X78452380Y-79061904D01*
X78404761Y-79157142D01*
X78357142Y-79204761D01*
X78261904Y-79252380D01*
X78119047Y-79252380D01*
X79023809Y-79252380D02*
X78928571Y-79204761D01*
X78880952Y-79109523D01*
X78880952Y-78252380D01*
X79785714Y-79204761D02*
X79690476Y-79252380D01*
X79500000Y-79252380D01*
X79404761Y-79204761D01*
X79357142Y-79109523D01*
X79357142Y-78728571D01*
X79404761Y-78633333D01*
X79500000Y-78585714D01*
X79690476Y-78585714D01*
X79785714Y-78633333D01*
X79833333Y-78728571D01*
X79833333Y-78823809D01*
X79357142Y-78919047D01*
X74238095Y-75452380D02*
X74238095Y-74452380D01*
X74238095Y-74928571D02*
X74809523Y-74928571D01*
X74809523Y-75452380D02*
X74809523Y-74452380D01*
X75190476Y-74452380D02*
X75809523Y-74452380D01*
X75476190Y-74833333D01*
X75619047Y-74833333D01*
X75714285Y-74880952D01*
X75761904Y-74928571D01*
X75809523Y-75023809D01*
X75809523Y-75261904D01*
X75761904Y-75357142D01*
X75714285Y-75404761D01*
X75619047Y-75452380D01*
X75333333Y-75452380D01*
X75238095Y-75404761D01*
X75190476Y-75357142D01*
D12*
%TO.C,R1*%
X64500000Y-97400000D02*
X64500000Y-100600000D01*
X73500000Y-100600000D02*
X73500000Y-97400000D01*
X75350000Y-99000000D02*
X73500000Y-99000000D01*
X62650000Y-99000000D02*
X64500000Y-99000000D01*
X64500000Y-100600000D02*
X73500000Y-100600000D01*
X73500000Y-97400000D02*
X64500000Y-97400000D01*
%TO.C,C2*%
X71502554Y-93067500D02*
X71502554Y-92667500D01*
X71702554Y-92867500D02*
X71302554Y-92867500D01*
X72000000Y-92000000D02*
G75*
G03*
X72000000Y-92000000I-2000000J0D01*
G01*
%TO.C,J2*%
X54800000Y-117875000D02*
X67200000Y-117875000D01*
X54800000Y-112125000D02*
X54800000Y-117875000D01*
X67200000Y-117875000D02*
X67200000Y-112125000D01*
X64750000Y-116875000D02*
X64125000Y-117875000D01*
X65375000Y-117875000D02*
X64750000Y-116875000D01*
X67200000Y-112125000D02*
X54800000Y-112125000D01*
%TO.C,R2*%
X47850000Y-107600000D02*
X56850000Y-107600000D01*
X58700000Y-106000000D02*
X56850000Y-106000000D01*
X47850000Y-104400000D02*
X47850000Y-107600000D01*
X46000000Y-106000000D02*
X47850000Y-106000000D01*
X56850000Y-104400000D02*
X47850000Y-104400000D01*
X56850000Y-107600000D02*
X56850000Y-104400000D01*
%TO.C,C1*%
X52702554Y-92867500D02*
X52302554Y-92867500D01*
X52502554Y-93067500D02*
X52502554Y-92667500D01*
X53000000Y-92000000D02*
G75*
G03*
X53000000Y-92000000I-2000000J0D01*
G01*
%TO.C,R6*%
X64500000Y-83400000D02*
X64500000Y-86600000D01*
X73500000Y-83400000D02*
X64500000Y-83400000D01*
X75350000Y-85000000D02*
X73500000Y-85000000D01*
X62650000Y-85000000D02*
X64500000Y-85000000D01*
X73500000Y-86600000D02*
X73500000Y-83400000D01*
X64500000Y-86600000D02*
X73500000Y-86600000D01*
%TO.C,R3*%
X47500000Y-100600000D02*
X56500000Y-100600000D01*
X45650000Y-99000000D02*
X47500000Y-99000000D01*
X56500000Y-100600000D02*
X56500000Y-97400000D01*
X58350000Y-99000000D02*
X56500000Y-99000000D01*
X47500000Y-97400000D02*
X47500000Y-100600000D01*
X56500000Y-97400000D02*
X47500000Y-97400000D01*
%TO.C,R5*%
X58350000Y-85000000D02*
X56500000Y-85000000D01*
X56500000Y-83400000D02*
X47500000Y-83400000D01*
X47500000Y-86600000D02*
X56500000Y-86600000D01*
X47500000Y-83400000D02*
X47500000Y-86600000D01*
X45650000Y-85000000D02*
X47500000Y-85000000D01*
X56500000Y-86600000D02*
X56500000Y-83400000D01*
%TO.C,R4*%
X73500000Y-104400000D02*
X64500000Y-104400000D01*
X64500000Y-107600000D02*
X73500000Y-107600000D01*
X73500000Y-107600000D02*
X73500000Y-104400000D01*
X62650000Y-106000000D02*
X64500000Y-106000000D01*
X75350000Y-106000000D02*
X73500000Y-106000000D01*
X64500000Y-104400000D02*
X64500000Y-107600000D01*
%TO.C,J1*%
X66950000Y-79875000D02*
X66950000Y-74125000D01*
X54550000Y-74125000D02*
X54550000Y-79875000D01*
X54550000Y-79875000D02*
X66950000Y-79875000D01*
X56375000Y-74125000D02*
X57000000Y-75125000D01*
X66950000Y-74125000D02*
X54550000Y-74125000D01*
X57000000Y-75125000D02*
X57625000Y-74125000D01*
%TD*%
M02*
