M48
; DRILL file {KiCad (6.0.6)} date Wed Aug 24 10:35:07 2022
; FORMAT={-:-/ absolute / inch / decimal}
; #@! TF.CreationDate,2022-08-24T10:35:07+01:00
; #@! TF.GenerationSoftware,Kicad,Pcbnew,(6.0.6)
; #@! TF.FileFunction,Plated,1,2,PTH
FMAT,2
INCH
; #@! TA.AperFunction,Plated,PTH,ComponentDrill
T1C0.0236
; #@! TA.AperFunction,Plated,PTH,ComponentDrill
T2C0.0315
; #@! TA.AperFunction,Plated,PTH,ComponentDrill
T3C0.0374
%
G90
G05
T1
X1.9685Y-3.622
X2.0472Y-3.622
X2.7165Y-3.622
X2.7953Y-3.622
T2
X1.7972Y-3.3465
X1.7972Y-3.8976
X1.811Y-4.1732
X2.2972Y-3.3465
X2.2972Y-3.8976
X2.311Y-4.1732
X2.4665Y-3.3465
X2.4665Y-3.8976
X2.4665Y-4.1732
X2.9665Y-3.3465
X2.9665Y-3.8976
X2.9665Y-4.1732
T3
X2.2441Y-3.0108
X2.2539Y-4.5482
X2.3425Y-3.0108
X2.3524Y-4.5482
X2.4409Y-3.0108
X2.4508Y-4.5482
X2.5394Y-3.0108
X2.5492Y-4.5482
T0
M30
